<svg xmlns="http://www.w3.org/2000/svg" xmlns:xlink="http://www.w3.org/1999/xlink" width="25.826" height="20.578" viewBox="0 0 25.826 20.578">
  <defs>
    <clipPath id="clip-path">
      <path id="Path_612" data-name="Path 612" d="M2177.359,187.512a.459.459,0,0,0-.482.459v.021a.462.462,0,0,0,.448.474l.2.009c.111,0,.225-.006.342-.006s.217.005.322.005l.188-.008a.479.479,0,0,0,.464-.476v-.01a.478.478,0,0,0-.48-.468c-.166,0-.333-.008-.5-.008s-.333,0-.5.008m7.386-.612a.465.465,0,0,0-.433.451v.021a.469.469,0,0,0,.424.466l.2.009c.11,0,.224-.006.343-.006s.253.006.373.006a2.109,2.109,0,0,0,.225-.01.472.472,0,0,0-.011-.936c-.185-.01-.37-.014-.556-.014s-.374,0-.56.013m-11.419-1.611a.462.462,0,0,0-.391.462v.026a.477.477,0,0,0,.47.451l.188.005.231,0v0h.094c.114,0,.228.005.34.005l.2-.007a.459.459,0,0,0,.437-.444v-.031a.441.441,0,0,0-.382-.461,4.87,4.87,0,0,0-1.19,0m16.3-.341a.457.457,0,0,0-.447.466v.011a.469.469,0,0,0,.453.481l.186.006c.106,0,.214,0,.325,0s.231,0,.34,0c.067,0,.134,0,.2-.007a.482.482,0,0,0,.456-.467v-.013a.474.474,0,0,0-.456-.477c-.171-.009-.343-.013-.516-.013s-.361,0-.54.013m-4.5-.16c.427-.457.777-.983,1.166-1.488a5.5,5.5,0,0,1,.5-.6.741.741,0,0,1,.534-.217,3.438,3.438,0,0,1,1.014.25,16.319,16.319,0,0,0,1.7.661,4.1,4.1,0,0,0,.915.1,7.835,7.835,0,0,0,1.206-.11.861.861,0,0,1,.157-.029l.138.064.046.17v0c0,.074,0,.151,0,.227,0,.449.024.9.024,1.359a7.715,7.715,0,0,1-.067,1.092,3.479,3.479,0,0,1-3.509,3.024q-1.4,0-2.8,0l-4.265,0H2174.9a3.533,3.533,0,0,1-3.679-3.683l0-.175c0-.292,0-.584,0-.875,0-.244,0-.488,0-.731l0-.016a.357.357,0,0,1,.069-.242.3.3,0,0,1,.24-.087h.03c.095,0,.193.005.291.005l.391,0c.109,0,.218,0,.327.006.068,0,.138.005.206.005a4.863,4.863,0,0,0,2.09-.487,4.407,4.407,0,0,1,1.333-.422l.155-.009a.879.879,0,0,1,.734.368c.264.338.529.676.79,1.016a9.377,9.377,0,0,0,.812.942,4.4,4.4,0,0,0,6.439-.118m-8.259-5.863a17.825,17.825,0,0,0,2.659-.471l.15-.019a.425.425,0,0,1,.373.238q.738,1.177,1.5,2.344a.539.539,0,0,0,.445.288.624.624,0,0,0,.478-.29c.581-.775,1.172-1.543,1.749-2.32a.406.406,0,0,1,.337-.2l.143.02c.561.146,1.123.285,1.688.395a4.156,4.156,0,0,0,.782.065c.309,0,.621-.022.932-.037l.125,0a1.26,1.26,0,0,1,1.038.465,3.98,3.98,0,0,0,2.16,1.254,1.049,1.049,0,0,0,.223.024,3.72,3.72,0,0,0,.5-.056l.1-.008.182.067a.3.3,0,0,1,.064.209v.019c0,.118-.005.236-.005.356,0,.278.007.556.016.835v0a.291.291,0,0,1-.07.207l-.181.087a6.9,6.9,0,0,1-1.217.127,3.466,3.466,0,0,1-1.591-.357,5.286,5.286,0,0,0-1.9-.622,1.851,1.851,0,0,0-.207-.01,1.73,1.73,0,0,0-1.331.6c-.341.371-.623.793-.934,1.2-.2.259-.4.525-.621.769a3.517,3.517,0,0,1-2.587,1.168,3.557,3.557,0,0,1-2.458-1.017,9.1,9.1,0,0,1-.971-1.164q-.313-.414-.645-.812a1.761,1.761,0,0,0-1.415-.679,2.55,2.55,0,0,0-.416.037,5.314,5.314,0,0,0-1.533.511,4.209,4.209,0,0,1-1.989.376c-.259,0-.517-.006-.771-.006h-.193a.232.232,0,0,1-.2-.087l-.047-.184c0-.61,0-1.219,0-1.828q0-.621,0-1.242a.256.256,0,0,1,.1-.227.383.383,0,0,1,.208-.043h1.572c.863,0,1.723.044,2.581.044.4,0,.79-.009,1.184-.036m14.276.628a4.4,4.4,0,0,1-2.38-2.715,10.305,10.305,0,0,1-.41-2.872c-.021-.484-.012-.966-.026-1.444l0-.041a.364.364,0,0,1,.064-.235.37.37,0,0,1,.248-.12,6.383,6.383,0,0,0,2.9-1.165.3.3,0,0,1,.186-.073.327.327,0,0,1,.192.075,6.4,6.4,0,0,0,2.877,1.159.422.422,0,0,1,.252.106.347.347,0,0,1,.086.257v.044c-.009.151-.011.3-.011.456,0,.223,0,.448,0,.675v0a13.513,13.513,0,0,1-.36,2.938,4.549,4.549,0,0,1-2.338,2.907,1.493,1.493,0,0,1-.691.18,1.389,1.389,0,0,1-.6-.137m.237-9.714a4.587,4.587,0,0,1-.611.486,5.982,5.982,0,0,1-2.834.916.688.688,0,0,0-.437.154.533.533,0,0,0-.132.406v.021a16.285,16.285,0,0,0,.7,5.871v0l.027.124-.067.135-.139.035h-.025l-.168-.005c-.19,0-.384.012-.582.012a2.692,2.692,0,0,1-.575-.052c-.686-.151-1.375-.293-2.059-.464a.926.926,0,0,0-.226-.03.644.644,0,0,0-.543.321c-.515.7-1.054,1.378-1.6,2.086l-.08.1-.072-.109c-.438-.67-.852-1.3-1.264-1.933a2.512,2.512,0,0,0-.322-.435.349.349,0,0,0-.27-.1,2.964,2.964,0,0,0-.506.077l-.089.021h0a17.1,17.1,0,0,1-3.453.518l-.159,0c-1.639-.036-3.279-.037-4.921-.051h-.027a.739.739,0,0,0-.544.138.81.81,0,0,0-.134.567q0,1.923,0,3.846,0,1.593,0,3.186a4.473,4.473,0,0,0,4.553,4.575h5.564q4.234,0,8.47,0a5.088,5.088,0,0,0,.867-.067,4.48,4.48,0,0,0,3.734-4.464q0-1.061,0-2.119,0-1.629-.006-3.255a.555.555,0,0,1,.229-.486,5.508,5.508,0,0,0,2.053-3.242,22.162,22.162,0,0,0,.356-4.685v-.019a.736.736,0,0,0-.125-.516.8.8,0,0,0-.514-.167,5.519,5.519,0,0,1-3.379-1.4.5.5,0,0,0-.341-.151.518.518,0,0,0-.353.158" fill="none"/>
    </clipPath>
  </defs>
  <g id="Group_161" data-name="Group 161" transform="translate(-2170.265 -169.68)">
    <path id="Path_609" data-name="Path 609" d="M2192.176,176.044a.421.421,0,0,1,.1-.3h0a.394.394,0,0,1,.3-.109c.131,0,.263.028.368.027h.036a.484.484,0,1,0,.033-.967l-.055,0c-.109,0-.242.026-.374.026a.405.405,0,0,1-.3-.106.417.417,0,0,1-.1-.309c0-.134.026-.27.026-.38v-.051a.473.473,0,0,0-.946,0c-.006.087-.009.175-.009.263s0,.164.006.248v.03a.292.292,0,0,1-.067.208.279.279,0,0,1-.211.076h-.029c-.092-.005-.183-.008-.273-.008a2.537,2.537,0,0,0-.263.012.481.481,0,0,0,.008.959l.06,0c.112,0,.25-.029.387-.03a.407.407,0,0,1,.313.116.441.441,0,0,1,.1.31c0,.135-.027.272-.027.385l0,.069v0a.472.472,0,0,0,.458.433.478.478,0,0,0,.49-.491v-.037c0-.107-.028-.241-.028-.374" fill="#ff8c00"/>
    <path id="Path_610" data-name="Path 610" d="M2185.872,187.837h0c-.075.007-.149.011-.224.011-.121,0-.246-.007-.374-.007s-.233.006-.343.006l-.2-.008a.47.47,0,0,1-.424-.467v-.021a.465.465,0,0,1,.433-.451c.186-.009.373-.013.561-.013s.37,0,.555.014a.472.472,0,0,1,.011.936m-11.613-1.605.2,0a.46.46,0,0,0,.438-.445v-.03a.44.44,0,0,0-.382-.462,4.715,4.715,0,0,0-.594-.037,4.945,4.945,0,0,0-.6.036.463.463,0,0,0-.39.462v.026a.479.479,0,0,0,.47.452l.188,0h.231v0h.093c.115,0,.229,0,.341,0m16.877-.794v-.012a.475.475,0,0,0-.455-.478c-.172-.009-.345-.013-.517-.013s-.361.005-.54.013a.457.457,0,0,0-.447.466v.012a.469.469,0,0,0,.454.48l.186.007c.1,0,.213,0,.324,0s.231,0,.34,0c.068,0,.134,0,.2-.006a.484.484,0,0,0,.456-.468m-12.3,2.552v-.009a.476.476,0,0,0-.479-.468c-.167-.006-.334-.008-.5-.008s-.333,0-.5.007a.46.46,0,0,0-.482.46v.021a.462.462,0,0,0,.449.474l.2.008c.111,0,.226-.006.343-.006s.217.005.322.005l.187-.007a.482.482,0,0,0,.465-.477m14.843-8.125a.549.549,0,0,0-.228.485q0,1.627.005,3.254c0,.707,0,1.412,0,2.12a4.48,4.48,0,0,1-3.734,4.464,5.188,5.188,0,0,1-.866.067q-4.236,0-8.471,0h-5.563a4.473,4.473,0,0,1-4.553-4.575q0-1.593,0-3.187,0-1.921,0-3.845a.8.8,0,0,1,.135-.566.724.724,0,0,1,.543-.139h.027c1.642.014,3.282.015,4.922.05l.158,0a17.167,17.167,0,0,0,3.453-.518h0l.088-.022a2.839,2.839,0,0,1,.506-.076.342.342,0,0,1,.27.1,2.531,2.531,0,0,1,.322.436c.412.632.826,1.263,1.265,1.932l.071.11.081-.105c.545-.708,1.084-1.388,1.6-2.086a.652.652,0,0,1,.545-.322.982.982,0,0,1,.225.031c.684.171,1.373.312,2.059.463a2.632,2.632,0,0,0,.576.052c.2,0,.391-.01.581-.01l.169,0h.024l.139-.036.067-.135-.027-.122v0a16.307,16.307,0,0,1-.7-5.871V171.8a.533.533,0,0,1,.132-.406.687.687,0,0,1,.436-.155,5.959,5.959,0,0,0,2.835-.915,4.587,4.587,0,0,0,.611-.486.526.526,0,0,1,.354-.159.5.5,0,0,1,.34.151,5.512,5.512,0,0,0,3.38,1.4.8.8,0,0,1,.513.168.731.731,0,0,1,.125.516v.019h0a22.088,22.088,0,0,1-.356,4.684,5.51,5.51,0,0,1-2.053,3.243m-22.458.563c0,.609,0,1.218,0,1.829l.047.183a.231.231,0,0,0,.2.087h.192c.255,0,.512.006.771.006a4.207,4.207,0,0,0,1.989-.376,5.3,5.3,0,0,1,1.533-.51,2.346,2.346,0,0,1,.416-.039,1.768,1.768,0,0,1,1.415.68q.331.4.644.812a9.262,9.262,0,0,0,.971,1.163,3.467,3.467,0,0,0,5.046-.149c.225-.245.424-.511.622-.77.31-.41.593-.833.933-1.2a1.728,1.728,0,0,1,1.332-.606c.067,0,.134,0,.2.01a5.316,5.316,0,0,1,1.9.623,3.459,3.459,0,0,0,1.59.357,6.944,6.944,0,0,0,1.218-.128l.18-.085a.291.291,0,0,0,.069-.209v0c-.008-.279-.015-.558-.015-.835,0-.12,0-.238.005-.355v-.02a.3.3,0,0,0-.064-.21l-.182-.065-.1.008a4.054,4.054,0,0,1-.5.055,1,1,0,0,1-.223-.024,3.974,3.974,0,0,1-2.16-1.254,1.259,1.259,0,0,0-1.038-.465l-.125,0c-.311.015-.623.037-.931.037a4.16,4.16,0,0,1-.783-.065c-.565-.109-1.127-.249-1.688-.395l-.143-.021a.409.409,0,0,0-.336.2c-.578.776-1.169,1.544-1.75,2.319a.62.62,0,0,1-.478.29.542.542,0,0,1-.445-.289q-.763-1.161-1.5-2.343a.423.423,0,0,0-.373-.238l-.15.019a17.728,17.728,0,0,1-2.658.471c-.394.027-.79.036-1.185.036-.858,0-1.718-.044-2.581-.044h-1.571a.371.371,0,0,0-.208.043.252.252,0,0,0-.1.227q0,.621,0,1.242m21.289,4.746c0-.456-.024-.909-.024-1.359,0-.076,0-.152,0-.227v0l-.046-.17-.138-.064a.862.862,0,0,0-.157.029,7.835,7.835,0,0,1-1.206.11,4.106,4.106,0,0,1-.915-.1,16.4,16.4,0,0,1-1.7-.661,3.377,3.377,0,0,0-1.013-.25.739.739,0,0,0-.535.217,5.428,5.428,0,0,0-.5.6c-.389.5-.739,1.03-1.166,1.487a4.4,4.4,0,0,1-6.439.118,9.377,9.377,0,0,1-.812-.942c-.261-.34-.526-.678-.789-1.017a.883.883,0,0,0-.735-.367l-.155.01a4.377,4.377,0,0,0-1.333.421,4.877,4.877,0,0,1-2.09.486c-.068,0-.137,0-.205,0-.11,0-.219-.006-.327-.006h-.392c-.1,0-.195,0-.291,0l-.029,0a.3.3,0,0,0-.24.088.347.347,0,0,0-.07.242l0,.016q0,.364,0,.731c0,.291,0,.582,0,.876v.174a3.534,3.534,0,0,0,3.679,3.683h6.972l4.264,0q1.4,0,2.8,0a3.48,3.48,0,0,0,3.51-3.024,7.7,7.7,0,0,0,.066-1.092m2.254-8.572a13.566,13.566,0,0,0,.361-2.937v0c0-.227-.006-.452-.006-.675,0-.154,0-.305.011-.456v-.043a.349.349,0,0,0-.086-.259.424.424,0,0,0-.252-.105,6.421,6.421,0,0,1-2.877-1.159.327.327,0,0,0-.192-.075.311.311,0,0,0-.186.072,6.385,6.385,0,0,1-2.9,1.166.311.311,0,0,0-.311.355l0,.04h0c.014.479.006.961.026,1.445a10.413,10.413,0,0,0,.409,2.872,4.4,4.4,0,0,0,2.381,2.715,1.392,1.392,0,0,0,.6.137,1.493,1.493,0,0,0,.691-.18,4.543,4.543,0,0,0,2.338-2.908" fill="#3a0b0b"/>
    <g id="Group_160" data-name="Group 160">
      <g id="Group_159" data-name="Group 159" clip-path="url(#clip-path)">
        <path id="Path_611" data-name="Path 611" d="M2185.625,170.572s2.2,7.641,3.435,8.952a3.127,3.127,0,0,0,3.146,1.161s2.129-.823,2.758-1.887c.246-.417,3.338-1.645,3.338-1.645s-.483-8.129-.774-8.42a32.21,32.21,0,0,0-4.548-.967Z" fill="#ff8c00"/>
      </g>
    </g>
  </g>
</svg>
