<svg xmlns="http://www.w3.org/2000/svg" width="45.631" height="33.484" viewBox="0 0 45.631 33.484">
  <g id="Group_263" data-name="Group 263" transform="translate(-980.724 -663.765)">
    <path id="Path_1405" data-name="Path 1405" d="M996.271,690.23q2.565,0,5.13,0a.918.918,0,0,1,.75.346,12.552,12.552,0,0,0,20.854-2.315,11.905,11.905,0,0,0,.833-2.076,12.567,12.567,0,0,0,.519-3.852,12.337,12.337,0,0,0-.96-4.557,12.487,12.487,0,0,0-3.95-5.131,12.5,12.5,0,0,0-16.05.655c-.108.1-.225.184-.342.272a1.03,1.03,0,0,1-.678.123c-1.716.006-3.432,0-5.149,0l-4.9.005a.676.676,0,0,1-.755-.752c0-.083,0-.165,0-.248a.661.661,0,0,1,.711-.7q4.692,0,9.383,0a.478.478,0,0,0,.355-.136,14.436,14.436,0,0,1,5.742-3.193,14.1,14.1,0,0,1,2.123-.438c.132-.016.162-.068.161-.192-.007-.718-.009-1.436,0-2.154,0-.15-.041-.2-.191-.191a1.349,1.349,0,0,1-.709-.093.99.99,0,0,1-.52-1.07.97.97,0,0,1,.909-.766c1.068-.009,2.136,0,3.2,0,.42,0,.839-.012,1.258-.009a.97.97,0,0,1,.339,1.876,1.528,1.528,0,0,1-.641.058c-.135-.006-.17.039-.169.171q.009,1.087,0,2.175c0,.126.033.174.163.191a14.413,14.413,0,0,1,4.33,1.273,14.586,14.586,0,0,1,4.443,3.257c.192.207.191.209.4,0,.262-.26.519-.525.784-.78.085-.08.094-.132,0-.21a1.991,1.991,0,0,1-.243-.243c-.186-.228-.132-.477.155-.744a.444.444,0,0,1,.635-.007q1,.992,1.995,2a.515.515,0,0,1-.2.813.46.46,0,0,1-.62-.08c-.1-.094-.184-.277-.3-.262s-.206.173-.3.272c-.283.282-.559.57-.847.846-.086.081-.079.128-.019.219a14.467,14.467,0,0,1,2.444,8.63,14.582,14.582,0,0,1-9.194,13.01,14.127,14.127,0,0,1-4.175.973,14.62,14.62,0,0,1-3.833-.19,14.486,14.486,0,0,1-8.512-4.965.522.522,0,0,0-.451-.207q-4.559.009-9.116.006a.646.646,0,0,1-.671-.655c0-.076,0-.152,0-.228a.66.66,0,0,1,.731-.732h5.149" fill="#3a0b0b"/>
    <path id="Path_1406" data-name="Path 1406" d="M1005.351,680.915a1,1,0,0,1,.628-.917.983.983,0,0,1,1.12.241q1.1,1.095,2.2,2.2c.517.516,1.036,1.029,1.547,1.551.105.107.162.1.265,0q2.383-2.4,4.777-4.785l1.561-1.563a1.058,1.058,0,0,1,1.479-.025,1.019,1.019,0,0,1,.045,1.457c-.778.8-1.576,1.587-2.366,2.378-1.6,1.6-3.218,3.2-4.805,4.818a1.036,1.036,0,0,1-1.553.005c-.942-.971-1.906-1.92-2.862-2.878q-.836-.836-1.673-1.668a1.049,1.049,0,0,1-.359-.809" fill="#ff8c00"/>
    <path id="Path_1407" data-name="Path 1407" d="M990.149,682.567h-8.715a.649.649,0,0,1-.709-.71c0-.095,0-.191,0-.286a.649.649,0,0,1,.592-.617c.088-.008.178-.006.266-.006h17.221c.538,0,.782.241.783.773,0,.071,0,.141,0,.21a.636.636,0,0,1-.648.636q-2.46,0-4.921,0h-3.871" fill="#3a0b0b"/>
    <path id="Path_1408" data-name="Path 1408" d="M993.448,685.691c1.792,0,3.585.01,5.377-.007a.707.707,0,0,1,.771.776c-.018.471-.126.7-.45.814a.7.7,0,0,1-.243.033H987.961a.647.647,0,0,1-.681-.646c-.041-.625.132-.991.928-.978,1.746.027,3.494.007,5.24.007Z" fill="#3a0b0b"/>
    <path id="Path_1409" data-name="Path 1409" d="M993.43,677.845H988a.649.649,0,0,1-.717-.7,2.415,2.415,0,0,1,.011-.361.614.614,0,0,1,.593-.545c.715-.008,1.434,0,2.15,0,.367,0,.736-.008,1.1-.009q3.84,0,7.681,0a.76.76,0,0,1,.49.116.536.536,0,0,1,.241.37,3.772,3.772,0,0,1,.036.473.61.61,0,0,1-.63.643c-.508.011-1.016.015-1.524.016q-2,0-4,0" fill="#3a0b0b"/>
  </g>
</svg>
