<svg xmlns="http://www.w3.org/2000/svg" width="52.524" height="52.524" viewBox="0 0 52.524 52.524">
  <g id="Group_122" data-name="Group 122" transform="translate(-2506.288 -276.453)">
    <path id="Path_69" data-name="Path 69" d="M2558.062,302.715h-.75a24.763,24.763,0,1,1-7.253-17.51,24.682,24.682,0,0,1,7.253,17.51h1.5a26.262,26.262,0,1,0-26.262,26.262,26.263,26.263,0,0,0,26.262-26.262Z" fill="#ff8c00"/>
    <path id="Path_70" data-name="Path 70" d="M2541.611,310.124c.161,0,.309.005.453.005l.264-.008a.591.591,0,0,0,.562-.573v-.014a.583.583,0,0,0-.56-.586q-.342-.016-.686-.016c-.241,0-.481.005-.719.017a.557.557,0,0,0-.548.569v.015a.575.575,0,0,0,.558.589l.245.008c.139,0,.283-.006.433-.006" fill="#3a0b0b"/>
    <path id="Path_71" data-name="Path 71" d="M2535.12,312.691c.172,0,.339.009.5.009a2.848,2.848,0,0,0,.293-.014.577.577,0,0,0-.011-1.143q-.369-.02-.738-.019t-.748.018a.566.566,0,0,0-.528.549v.009l0,.02a.576.576,0,0,0,.52.568l.258.011c.145,0,.3-.008.457-.008" fill="#3a0b0b"/>
    <path id="Path_72" data-name="Path 72" d="M2549.025,297.829a29.189,29.189,0,0,0,.474-6.211v-.024a.923.923,0,0,0-.154-.651,1.028,1.028,0,0,0-.653-.208,7.429,7.429,0,0,1-4.538-1.875.609.609,0,0,0-.419-.188.653.653,0,0,0-.439.2,6.08,6.08,0,0,1-.82.651,8.066,8.066,0,0,1-3.806,1.225.86.86,0,0,0-.55.19.657.657,0,0,0-.162.5v.03c.044,2.653-.057,5.3.934,7.78l0,.011.039.18-.008.016-.1.2-.022.006-.185.048h-.047l-.223-.006c-.252,0-.511.016-.776.016a3.639,3.639,0,0,1-.778-.071c-.915-.2-1.835-.389-2.748-.616a1.21,1.21,0,0,0-.288-.039.815.815,0,0,0-.687.406c-.687.929-1.406,1.831-2.133,2.772l-.151.194-.038-.058-.095-.147c-.585-.888-1.138-1.725-1.687-2.566a3.322,3.322,0,0,0-.421-.569.414.414,0,0,0-.326-.123,3.87,3.87,0,0,0-.665.1l-.118.029,0,0a23.013,23.013,0,0,1-4.617.688l-.213,0c-2.185-.048-4.373-.049-6.563-.068h-.036c-.39,0-.593.064-.689.168l0,0c-.1.1-.165.313-.164.717q0,2.555,0,5.108,0,2.117.005,4.231a5.9,5.9,0,0,0,6.024,6.026l7.421,0q5.649,0,11.3-.005a6.7,6.7,0,0,0,1.147-.087,5.9,5.9,0,0,0,4.939-5.88q0-1.408,0-2.815,0-2.16-.007-4.322h0l0-.026a.779.779,0,0,1,.325-.658h0a7.261,7.261,0,0,0,2.72-4.278m-32.7,3.416a.384.384,0,0,1,.157-.343.559.559,0,0,1,.3-.065l.926,0h1.17c1.153,0,2.3.058,3.443.058.527,0,1.053-.012,1.577-.047a23.792,23.792,0,0,0,3.539-.624h.005l.2-.025h.006a.623.623,0,0,1,.539.339q.985,1.566,2,3.113a.675.675,0,0,0,.552.361.784.784,0,0,0,.6-.366c.776-1.03,1.564-2.05,2.332-3.079a.59.59,0,0,1,.491-.286h.006l.191.027h.006c.748.193,1.5.379,2.249.523a5.538,5.538,0,0,0,1.034.086c.41,0,.824-.029,1.241-.05l.169,0a1.742,1.742,0,0,1,1.421.633,5.251,5.251,0,0,0,2.854,1.65,1.282,1.282,0,0,0,.288.031,5.173,5.173,0,0,0,.653-.073h0l.141-.012.011,0,.253.092.009.01a.438.438,0,0,1,.1.311v.028c-.005.154-.006.311-.006.47,0,.368.009.737.02,1.109v0a.441.441,0,0,1-.106.31l-.015.011-.241.114-.012,0a9.262,9.262,0,0,1-1.634.17,4.679,4.679,0,0,1-2.144-.48,7.069,7.069,0,0,0-2.518-.821c-.093-.009-.182-.013-.269-.013a2.255,2.255,0,0,0-1.74.788c-.451.488-.828,1.048-1.243,1.594-.263.344-.529.7-.832,1.026a4.684,4.684,0,0,1-6.8.2,12.29,12.29,0,0,1-1.3-1.551c-.278-.365-.564-.726-.858-1.076a2.3,2.3,0,0,0-1.849-.884,3.288,3.288,0,0,0-.547.048,7.05,7.05,0,0,0-2.03.674,5.692,5.692,0,0,1-2.676.505c-.346,0-.69-.009-1.029-.009l-.256,0a.365.365,0,0,1-.307-.138l-.008-.016-.062-.244,0-.012c0-.811,0-1.621,0-2.429,0-.55,0-1.1,0-1.65m28.413,9.412a4.687,4.687,0,0,1-4.731,4.059q-1.868,0-3.734,0l-5.689,0h-9.3a4.754,4.754,0,0,1-4.958-4.941l0-.232c0-.389,0-.777,0-1.163,0-.324,0-.648-.006-.971v-.022a.516.516,0,0,1,.1-.354.452.452,0,0,1,.36-.132h.04c.127,0,.256.006.386.006.173,0,.347,0,.522,0,.145,0,.291,0,.438.009.091,0,.182.006.272.006a6.479,6.479,0,0,0,2.767-.641,5.929,5.929,0,0,1,1.793-.564h0l.207-.013h0a1.236,1.236,0,0,1,1.018.507c.352.45.705.9,1.054,1.351a12.264,12.264,0,0,0,1.079,1.246,5.835,5.835,0,0,0,8.517-.155c.566-.6,1.032-1.3,1.553-1.972a7.07,7.07,0,0,1,.667-.8,1.032,1.032,0,0,1,.749-.3,4.614,4.614,0,0,1,1.368.334,21.746,21.746,0,0,0,2.255.877,5.55,5.55,0,0,0,1.21.127,10.451,10.451,0,0,0,1.6-.146,1.094,1.094,0,0,1,.214-.038h.011l.011.005.2.094.007.023.061.226,0,.013v.006c0,.1-.005.2-.005.3,0,.6.031,1.2.031,1.8a10.261,10.261,0,0,1-.088,1.458m-.05-8.937a2.056,2.056,0,0,1-.945.245,1.908,1.908,0,0,1-.815-.186,5.9,5.9,0,0,1-3.2-3.637,13.72,13.72,0,0,1-.548-3.827c-.028-.645-.016-1.286-.035-1.918l0-.052v0a.528.528,0,0,1,.1-.344.541.541,0,0,1,.362-.177,8.474,8.474,0,0,0,3.851-1.539.461.461,0,0,1,.279-.106.483.483,0,0,1,.285.109,8.5,8.5,0,0,0,3.816,1.53.62.62,0,0,1,.364.155.517.517,0,0,1,.129.378v.06c-.011.2-.014.4-.014.6,0,.295.007.6.007.9v.009a17.931,17.931,0,0,1-.482,3.912,6.092,6.092,0,0,1-3.144,3.892" fill="#3a0b0b"/>
    <path id="Path_73" data-name="Path 73" d="M2546.022,295.929a.585.585,0,0,0-.581-.6l-.069,0c-.142,0-.319.034-.5.036a.6.6,0,0,1-.443-.156.609.609,0,0,1-.156-.446c0-.183.036-.364.036-.5l0-.065a.594.594,0,0,0-.56-.572.588.588,0,0,0-.6.569c-.009.114-.013.23-.013.345s0,.217.009.328v.043a.435.435,0,0,1-.1.31.429.429,0,0,1-.319.117h-.04c-.121-.006-.242-.011-.361-.011s-.234.005-.345.016a.589.589,0,0,0,.009,1.175l.076,0c.141,0,.323-.04.512-.041h0a.594.594,0,0,1,.454.17.633.633,0,0,1,.147.446c0,.184-.036.363-.036.509l.006.089v0a.576.576,0,0,0,.56.53.587.587,0,0,0,.6-.606v-.045c0-.137-.037-.312-.038-.491v0h0a.63.63,0,0,1,.122-.389l-.023-.024.048-.024.023-.048.023.023a.605.605,0,0,1,.394-.134c.179,0,.355.037.489.037h.045c.41-.038.613-.241.624-.585" fill="#3a0b0b"/>
  </g>
</svg>
