<svg xmlns="http://www.w3.org/2000/svg" xmlns:xlink="http://www.w3.org/1999/xlink" width="21" height="30" viewBox="0 0 21 30">
  <defs>
    <clipPath id="clip-Artboard_1">
      <rect width="21" height="30"/>
    </clipPath>
  </defs>
  <g id="Artboard_1" data-name="Artboard – 1" clip-path="url(#clip-Artboard_1)">
    <rect width="21" height="30" fill="#fff"/>
    <g id="Group_262" data-name="Group 262" transform="translate(-913 -692)">
      <path id="Path_1362" data-name="Path 1362" d="M932.849,705.9l-19.367-13.488a1.324,1.324,0,0,1-.568-1.087v-26.16c0-2.979-2.069-5.395-4.621-5.395H663.139c-2.552,0-4.622,2.416-4.622,5.395v83.644c0,2.979,2.07,5.395,4.622,5.395H908.293c2.552,0,4.621-2.416,4.621-5.395V722.647a1.322,1.322,0,0,1,.568-1.087l19.367-13.489A1.324,1.324,0,0,0,932.849,705.9Z" fill="#3a0b0b" opacity="0.1"/>
      <g id="Group_257" data-name="Group 257">
        <g id="Group_256" data-name="Group 256">
          <path id="Path_1363" data-name="Path 1363" d="M711.171,676.026l5.45-4.541-5.45-4.088c0,.57,0,1.061,0,1.552,0,.574-.192.77-.753.77q-11.062,0-22.125.007c-.267,0-.347-.061-.343-.337.013-.829,0-.83.823-.83q10.41,0,20.819.009c.359,0,.445-.095.427-.438-.03-.579,0-1.16-.011-1.74a.611.611,0,0,1,1.062-.518q3.348,2.514,6.7,5.025c.486.365.492.732.025,1.122q-3.357,2.8-6.714,5.594a.636.636,0,0,1-.724.175.655.655,0,0,1-.349-.694c.007-.81-.005-1.62.008-2.43,0-.231-.054-.307-.3-.307-4.316.01-8.634-.074-12.948.033a12.757,12.757,0,0,0-2.671,25.115,11.662,11.662,0,0,0,2.83.38c.308,0,.413.066.4.4-.026.811-.007.815-.817.761a13.76,13.76,0,0,1-9.418-4.4,13.42,13.42,0,0,1-3.718-8.339,13.892,13.892,0,0,1,9.649-14.45,13.629,13.629,0,0,1,4.244-.656H710.4c.586,0,.77.189.771.788,0,.65,0,1.3,0,2.035" fill="#3a0b0b"/>
          <path id="Path_1364" data-name="Path 1364" d="M697.224,695.835a8.7,8.7,0,1,1,8.723-8.678,8.719,8.719,0,0,1-8.723,8.678m-.562-15.344c0-.193-.013-.388,0-.58.018-.217-.034-.3-.276-.268a7.783,7.783,0,0,0-1.824.447c-.592.224-.592.225-.285.754a1.669,1.669,0,0,0,.148.249c.142.172.068.255-.1.355-.754.458-.759.467-1.2-.291-.117-.2-.2-.224-.379-.083a8.489,8.489,0,0,0-1.559,1.558c-.129.169-.164.278.069.379.176.077.33.2.505.282.2.093.241.2.1.383-.171.232-.23.636-.47.694-.2.048-.485-.211-.714-.363-.206-.137-.279-.062-.361.132a7.64,7.64,0,0,0-.48,1.554c-.159.857-.155.857.706.857.949,0,.944,0,.892.939-.009.174-.06.229-.231.225-.41-.01-.822.006-1.232-.007-.2-.006-.246.053-.225.247a7.352,7.352,0,0,0,.489,1.961c.191.48.192.48.623.229.125-.073.255-.138.375-.219s.189-.078.283.06c.538.786.543.783-.257,1.267a.579.579,0,0,1-.065.034c-.151.068-.147.156-.055.281a7.964,7.964,0,0,0,1.66,1.66c.127.093.205.089.283-.055.113-.213.245-.416.359-.629.061-.113.119-.172.25-.089.265.167.635.267.773.505.113.194-.223.46-.334.707a.27.27,0,0,1-.034.063c-.12.145-.067.224.09.292a7.59,7.59,0,0,0,2.229.6c.2.021.247-.043.242-.23a7.111,7.111,0,0,1,.007-1.2c.078-.549.531-.157.8-.251.173-.061.383-.055.358.264-.028.348.013.7-.012,1.05-.021.3.043.4.368.354a8.576,8.576,0,0,0,2.086-.581c.171-.074.224-.142.11-.312-.128-.19-.226-.4-.349-.593-.083-.13-.06-.192.073-.28.777-.517.774-.522,1.264.268.006.011.012.021.017.032.067.159.153.186.3.075a8.2,8.2,0,0,0,1.637-1.633c.121-.161.091-.242-.079-.328-.2-.1-.4-.231-.6-.343-.093-.052-.17-.1-.1-.22.169-.278.282-.638.527-.8.158-.105.439.215.675.324a.353.353,0,0,1,.063.036c.176.144.253.069.333-.116a7.911,7.911,0,0,0,.549-1.909c.082-.518.077-.519-.459-.519h-.327c-.912,0-.905,0-.873-.922.006-.193.064-.248.25-.242.4.012.8-.007,1.2.008.212.008.264-.057.241-.267a7.844,7.844,0,0,0-.59-2.194c-.078-.185-.161-.2-.318-.094-.19.127-.394.234-.593.348-.085.049-.168.1-.238-.027-.156-.285-.419-.562-.437-.855-.013-.2.408-.278.622-.429a.329.329,0,0,1,.062-.037c.212-.083.186-.2.067-.353a8.346,8.346,0,0,0-1.584-1.585c-.167-.127-.249-.109-.356.076-.143.246-.217.652-.469.682-.234.027-.5-.254-.756-.385-.163-.082-.2-.163-.093-.327.129-.189.224-.4.348-.593.09-.139.057-.208-.087-.27a7.632,7.632,0,0,0-2.264-.606c-.188-.018-.227.044-.223.214.009.386-.014.774.008,1.16.015.256-.067.323-.321.321-.845-.007-.845,0-.845-.843" fill="#3a0b0b"/>
          <path id="Path_1365" data-name="Path 1365" d="M707.931,696.057c-.139.162-.254.3-.373.432-.425.476-.425.475-.862.04-.393-.393-.393-.393-.013-.8s.376-.408.8-.046c.145.122.288.245.446.379" fill="#3a0b0b"/>
          <path id="Path_1366" data-name="Path 1366" d="M709.782,692.948c-.279-.129-.575-.264-.868-.4-.027-.012-.06-.067-.052-.086.126-.312.254-.623.4-.928.027-.058.11,0,.163.017.291.112.737.123.834.358.116.279-.183.616-.306.925-.028.069-.051.14-.167.119" fill="#3a0b0b"/>
          <path id="Path_1367" data-name="Path 1367" d="M702.023,700.073c.017.092-.011.14-.073.167a1.707,1.707,0,0,1-.169.061c-1.113.333-.811.475-1.089-.649-.116-.469.5-.256.736-.452.115-.1.259-.092.321.117.077.265.186.519.274.756" fill="#3a0b0b"/>
          <path id="Path_1368" data-name="Path 1368" d="M683.314,669.107c0-.548,0-.548.549-.548.611,0,.611,0,.611.595a1.761,1.761,0,0,0,0,.252c.04.256-.064.355-.316.315a1.43,1.43,0,0,0-.217,0c-.629,0-.629,0-.629-.613" fill="#3a0b0b"/>
          <path id="Path_1369" data-name="Path 1369" d="M686.8,669.128c0,.593,0,.593-.685.592-.476,0-.476,0-.475-.694,0-.467,0-.467.739-.466.421,0,.421,0,.421.568" fill="#3a0b0b"/>
          <path id="Path_1370" data-name="Path 1370" d="M709.3,694.136c-.2.3-.4.6-.6.9-.035.05-.092.011-.129-.015q-.372-.257-.741-.519c-.122-.087-.045-.178.016-.244.208-.219.238-.69.548-.681.287.008.566.291.847.456.025.015.033.058.061.108" fill="#3a0b0b"/>
          <path id="Path_1371" data-name="Path 1371" d="M706.194,697.729c-.008.1-.076.136-.131.179-.2.157-.4.306-.6.467-.128.106-.205.1-.319-.038-.6-.748-.6-.741.154-1.309.131-.1.209-.127.322.018.184.238.386.463.573.683" fill="#3a0b0b"/>
          <path id="Path_1372" data-name="Path 1372" d="M710,687.7c.025-.619.026-.63.933-.568.475.032.206.415.2.606s.213.592-.281.569c-.878-.042-.878-.043-.855-.607" fill="#3a0b0b"/>
          <path id="Path_1373" data-name="Path 1373" d="M698.473,700.265c-.032-.47-.03-.535.858-.509.476.014.366.615.338.881-.052.508-.6.3-.9.311-.513.013-.143-.506-.3-.683" fill="#3a0b0b"/>
          <path id="Path_1374" data-name="Path 1374" d="M710.944,689.678c-.07.3-.139.557-.186.817-.031.17-.1.231-.269.172a.952.952,0,0,0-.1-.035c-.816-.21-.807-.208-.621-1.026.044-.2.11-.268.307-.226.234.05.471.093.708.128.136.02.2.074.164.17" fill="#3a0b0b"/>
          <path id="Path_1375" data-name="Path 1375" d="M703.255,699.711a.713.713,0,0,1-.118-.093.769.769,0,0,1-.066-.128c-.411-.79-.407-.784.37-1.2.172-.093.276-.112.358.089.036.089.107.163.141.252.073.193.379.4.222.551a3.982,3.982,0,0,1-.907.53" fill="#3a0b0b"/>
          <path id="Path_1376" data-name="Path 1376" d="M696.662,684.905c0-.713.009-1.425-.005-2.138,0-.222.057-.283.282-.285.883-.008.883-.016.883.875,0,1.051.008,2.1-.005,3.152a.451.451,0,0,0,.262.454c.72.417,1.428.855,2.147,1.275.173.1.2.176.089.358-.459.778-.451.782-1.222.319-.672-.4-1.341-.813-2.019-1.207a.756.756,0,0,1-.416-.738c.014-.688,0-1.377,0-2.065" fill="#ff8c00"/>
        </g>
        <text id="Viêm_nhiễm_kéo_dài" data-name="Viêm nhiễm
kéo dài" transform="translate(720.924 683.197)" fill="#3c3c3c" font-size="9" font-family="SegoeUI, Segoe UI"><tspan x="0" y="0">Viêm nhiễm</tspan><tspan x="0" y="10.5">kéo dài</tspan></text>
      </g>
      <g id="Group_259" data-name="Group 259">
        <text id="Xuất_hiện_màng_sinh_học_kháng_thuốc_kháng_sinh_và_phản_ứng_miễn_dịch_của_cơ_thể" data-name="Xuất hiện màng sinh học
kháng thuốc kháng sinh và
phản ứng miễn dịch của cơ thể" transform="translate(720.924 720.632)" fill="#3c3c3c" font-size="9" font-family="SegoeUI, Segoe UI"><tspan x="0" y="0">Xuất hiện màng sinh học</tspan><tspan x="0" y="10.5">kháng thuốc kháng sinh và</tspan><tspan x="0" y="21">phản ứng miễn dịch của cơ thể</tspan></text>
        <g id="Group_258" data-name="Group 258">
          <path id="Path_1377" data-name="Path 1377" d="M699.865,723.34c-.049-.386-.053-.808.408-.857.507-.055.608.371.629.785.012.238.026.476.02.714a.579.579,0,0,0,.35.568c.278.146.431-.038.614-.2a4.476,4.476,0,0,1,.709-.533c.321-.188.7-.317.928.105.208.382-.08.6-.392.761-.721.362-.869.833-.424,1.552.241.391.549.391.9.409.389.019.853-.01.846.538-.006.5-.44.465-.8.468-.291,0-.631-.065-.685.363-.048.386-.35.776.049,1.161a3.778,3.778,0,0,1,.676.819.5.5,0,0,1-.136.71c-.291.2-.489.065-.7-.126-.247-.219-.346-.809-.75-.592a3.073,3.073,0,0,0-.936,1.053c-.266.4.2.483.4.645.312.258.849.453.5.948-.318.443-.731.118-1.1-.1-.313-.188-.572-.621-1.027-.077-.436.522-.03.721.218,1.016s.746.626.318,1.037c-.451.435-.8-.059-1.116-.349-.251-.23-.4-.573-.864-.267-.393.257-.535.506-.365.942a1.334,1.334,0,0,1,.07.438c.015.434,0,.9-.575.922-.521.022-.569-.387-.611-.8-.039-.385.052-.848-.535-.987-.679-.161-1.159-.086-1.247.727-.044.4-.123.834-.674.706s-.393-.568-.3-.941a5.006,5.006,0,0,1,.232-.765c.153-.359-.069-.535-.282-.759-.252-.265-.448-.158-.7-.011a3.487,3.487,0,0,1-.81.352c-.29.081-.624.109-.728-.284-.091-.344.088-.542.421-.666.6-.223,1.18-.458.868-1.332-.111-.314-.212-.518-.539-.614a4,4,0,0,1-.73-.325c-.319-.17-.691-.364-.466-.807s.562-.258.921-.125c.337.124.688.665,1.085-.036.329-.582.261-.914-.332-1.173-.217-.095-.426-.21-.638-.317-.307-.153-.31-.416-.217-.685a.417.417,0,0,1,.595-.227,3.113,3.113,0,0,1,1.03.509c.633.574.923.084,1.224-.336.41-.573-.291-.478-.465-.7a2.6,2.6,0,0,0-.5-.361c-.3-.226-.443-.542-.2-.846.207-.258.515-.2.8-.005.315.221.651.413.986.6.255.144.442.019.62-.175.221-.239.13-.406-.068-.6a2.027,2.027,0,0,1-.622-.857c-.073-.254-.131-.533.178-.706s.508-.022.685.206c.091.118.154.258.254.365.256.273.472.635.95.3.539-.372.106-.656-.052-.965a3.316,3.316,0,0,0-.261-.359.471.471,0,0,1,.069-.711.486.486,0,0,1,.719.06,6.863,6.863,0,0,1,.638.96c.16.284.247.633.686.541.476-.1.192-.477.262-.715m1.775,4.306a2.124,2.124,0,0,0-1.277-2.033,2.086,2.086,0,0,0-2.438.532c-.971,1.125-1.929,2.264-2.85,3.43a2.053,2.053,0,0,0,.205,2.956,2.092,2.092,0,0,0,3.084-.279c.951-1.1,1.86-2.242,2.786-3.367a1.868,1.868,0,0,0,.49-1.239" fill="#3a0b0b"/>
          <path id="Path_1378" data-name="Path 1378" d="M701.249,742.74a4.38,4.38,0,0,0-.006-.645c-.045-.269-.289-.366-.5-.456-.227-.1-.306.113-.383.263-.165.319-.333.756-.763.509-.487-.28-.113-.678.049-1,.459-.909.36-1.063-.712-1.088-.344-.008-.82.066-.812-.442.007-.4.393-.432.751-.423.244.007.628.034.581-.359-.054-.452.465-1-.213-1.359-.319-.17-.689-.4-.393-.819.267-.381.6-.1.852.085.407.3.573-.075.825-.239.368-.24.23-.467.02-.726-.2-.244-.338-.525,0-.762.3-.209.485.028.671.226.26.278.483.633.962.457.436-.161,1-.216.556-.93a.489.489,0,0,1,.216-.756c.317-.118.477.178.592.416.182.375.284.8.878.565s.407-.615.28-1.018a.376.376,0,0,1,.309-.533.4.4,0,0,1,.535.327c.02.087.047.173.064.26a.8.8,0,0,0,.7.749c.463.1.576-.172.754-.43.223-.324.514-.584.885-.324.352.246.158.578-.053.852-.508.663.291.837.487,1.218.251.488.537.066.785-.094.271-.175.557-.469.849-.108.356.441-.131.608-.36.836a1.718,1.718,0,0,1-.439.3c-.373.188-.325.5-.312.841.015.394.3.34.541.436.3.123.8.148.705.644-.109.544-.508.312-.85.225a.684.684,0,0,0-.905.33c-.184.37-.671.66-.206,1.15a.906.906,0,0,1,.183.4c.064.255.171.564-.137.714-.345.169-.533-.065-.685-.363s-.166-.72-.693-.654c-.741.092-.9.348-.659,1.062.1.3.424.7-.1.9-.432.168-.54-.227-.672-.523-.012-.027-.023-.055-.037-.081-.172-.327-.236-.771-.791-.646-.571.129-.308.534-.31.856,0,.351.08.81-.383.878-.522.078-.506-.37-.493-.735.016-.431-.169-.58-.6-.511-.34.054-.749-.065-.7.519.033.38.078.889-.487.834-.547-.054-.341-.591-.381-.835m-.553-3.9a1.968,1.968,0,0,0,2.35,2.119c1.141-.313,2.27-.682,3.382-1.087a1.9,1.9,0,0,0,1.2-2.3,1.949,1.949,0,0,0-2.391-1.33c-1.111.308-2.214.656-3.3,1.054a1.76,1.76,0,0,0-1.242,1.541" fill="#3a0b0b"/>
          <path id="Path_1379" data-name="Path 1379" d="M703.406,714.517a2.687,2.687,0,0,1,4.436-2.111c1.785,1.694,3.535,3.43,5.225,5.218a2.633,2.633,0,0,1-.189,3.625,2.707,2.707,0,0,1-3.784.077c-1.725-1.631-3.377-3.341-5.039-5.037a2.285,2.285,0,0,1-.649-1.772m.624-.12a2.186,2.186,0,0,0,.168.886,14.428,14.428,0,0,0,2.4,2.614c.15.168.32.092.462-.051l2.576-2.583a14.073,14.073,0,0,0-1.984-2.113,2.818,2.818,0,0,0-.465-.409,1.878,1.878,0,0,0-2.026-.118,2.008,2.008,0,0,0-1.133,1.774" fill="#3a0b0b"/>
          <path id="Path_1380" data-name="Path 1380" d="M681.3,719.264a2.3,2.3,0,0,1,.736-1.841c1.63-1.644,3.254-3.294,4.931-4.89a2.706,2.706,0,1,1,3.722,3.925q-2.373,2.414-4.784,4.79a2.6,2.6,0,0,1-3.026.566,2.508,2.508,0,0,1-1.579-2.55m.6.046a2.189,2.189,0,0,0,1.16,1.852,1.886,1.886,0,0,0,2.233-.267c.687-.609,1.309-1.29,1.973-1.926.3-.289.3-.491-.022-.789-.718-.663-1.409-1.359-2.079-2.072-.326-.346-.567-.323-.878,0-.6.616-1.237,1.2-1.821,1.826a1.947,1.947,0,0,0-.566,1.379" fill="#3a0b0b"/>
          <path id="Path_1381" data-name="Path 1381" d="M689.546,743.207c-.057-.532.088-.92-.3-1.079a.84.84,0,0,0-1.088.344c-.084.122-.177.237-.267.356-.148.2-.3.391-.583.221-.313-.189-.219-.453-.092-.7a3.077,3.077,0,0,1,.269-.353c.135-.188.334-.366.075-.611-.2-.189-.382-.374-.693-.2a1.5,1.5,0,0,1-.5.178c-.28.046-.642.2-.774-.186-.14-.407.2-.48.507-.547.506-.112.616-.411.528-.916-.12-.686-.525-.354-.866-.321-.284.027-.655.149-.725-.273-.068-.407.324-.46.594-.524.423-.1.775-.128.681-.765-.091-.62-.444-.593-.874-.577-.267.01-.574.042-.622-.33-.056-.437.3-.432.583-.5.337-.077.768.149.947-.412.184-.578-.354-.6-.559-.873-.187-.248-.594-.455-.306-.811.338-.418.636-.073.873.186.516.567.868.072,1.295-.149.555-.286.25-.608.109-.947-.1-.252-.4-.539-.014-.768.408-.241.577.109.745.392a1.322,1.322,0,0,1,.194.4c.1.516.515.493.886.569.441.091.541-.2.679-.524.124-.291.294-.662.716-.468.388.179.219.5.067.757a.729.729,0,0,0,.167,1.012.684.684,0,0,0,.995.167,1.108,1.108,0,0,1,.243-.109c.284-.1.606-.23.749.167.124.342-.183.438-.417.571-.326.187-.784.181-.7.834s.272.987.943.982a1.661,1.661,0,0,1,.439.073c.314.085.712.154.6.6-.1.4-.469.264-.755.225-.307-.043-.727-.422-.851.14a.633.633,0,0,0,.641.846,1.122,1.122,0,0,1,.41.167c.277.141.564.318.375.676-.158.3-.456.235-.7.082-.6-.377-.842-.087-1.129.45s.02.681.331.92c.23.176.558.369.319.712-.271.391-.579.107-.846-.06-.15-.094-.265-.24-.411-.341a.667.667,0,0,0-1.078.491c-.019.206.024.419,0,.623-.05.368-.022.886-.56.838-.562-.05-.216-.562-.251-.64m1.754-4.3c-.069-.512-.149-1.129-.236-1.744a5.148,5.148,0,0,0-.106-.522,1.8,1.8,0,0,0-2.149-1.5,1.864,1.864,0,0,0-1.444,2.207c.1.672.218,1.341.329,2.011a1.818,1.818,0,1,0,3.606-.451" fill="#3a0b0b"/>
          <path id="Path_1382" data-name="Path 1382" d="M710.516,727.05a.659.659,0,0,1-.431.679.525.525,0,0,1-.686-.257,15.6,15.6,0,0,0-2.473-3.451.57.57,0,0,1,.012-.808c.166-.185.393-.32.626-.135a11.513,11.513,0,0,1,2.952,3.972" fill="#ff8c00"/>
          <path id="Path_1383" data-name="Path 1383" d="M688.179,723.637a1.354,1.354,0,0,1-.422.675,13.472,13.472,0,0,0-2.06,2.881c-.2.376-.429.791-.946.495-.49-.28-.3-.688-.1-1.078a13.146,13.146,0,0,1,2.46-3.349c.2-.193.4-.342.707-.176a.652.652,0,0,1,.365.552" fill="#ff8c00"/>
          <path id="Path_1384" data-name="Path 1384" d="M695.878,719.65a.68.68,0,0,1-.629.646,12.607,12.607,0,0,0-3.609,1.153c-.393.186-.85.315-1.061-.2-.2-.488.178-.737.584-.927a15.871,15.871,0,0,1,3.782-1.209c.469-.089.818.025.933.536" fill="#ff8c00"/>
          <path id="Path_1385" data-name="Path 1385" d="M699.731,719.079a14.063,14.063,0,0,1,4.284,1.384c.311.162.516.413.326.8a.575.575,0,0,1-.834.263,14.934,14.934,0,0,0-3.968-1.269.6.6,0,0,1,.192-1.179" fill="#ff8c00"/>
          <path id="Path_1386" data-name="Path 1386" d="M711.966,732.525c0,.424,0,.6,0,.779a.532.532,0,0,1-.509.6.553.553,0,0,1-.679-.53c-.066-.676-.087-1.358-.1-2.037a.488.488,0,0,1,.485-.532.517.517,0,0,1,.635.465c.069.5.134,1,.168,1.252" fill="#ff8c00"/>
          <path id="Path_1387" data-name="Path 1387" d="M684.288,731.55c-.06.692-.117,1.221-.149,1.753-.024.382-.166.622-.586.611s-.558-.284-.551-.651c.011-.561.027-1.124.067-1.684.033-.455.2-.84.755-.765s.474.511.464.736" fill="#ff8c00"/>
          <path id="Path_1388" data-name="Path 1388" d="M699.418,728.237a.359.359,0,0,1-.377.38.387.387,0,0,1-.432-.442.373.373,0,0,1,.38-.406.4.4,0,0,1,.429.468" fill="#3a0b0b"/>
          <path id="Path_1389" data-name="Path 1389" d="M699.421,730.127c.008.28-.115.474-.4.472s-.4-.194-.4-.478a.391.391,0,0,1,.371-.422.366.366,0,0,1,.428.428" fill="#3a0b0b"/>
          <path id="Path_1390" data-name="Path 1390" d="M697.018,731.091c-.031-.219.064-.345.283-.357.259-.015.5.048.5.359a.4.4,0,0,1-.4.4c-.256.011-.347-.181-.379-.4" fill="#3a0b0b"/>
          <path id="Path_1391" data-name="Path 1391" d="M697.143,729.008c-.28-.03-.452-.133-.466-.374a.348.348,0,0,1,.347-.417.356.356,0,0,1,.417.35c.026.258-.162.345-.3.441" fill="#3a0b0b"/>
        </g>
      </g>
      <g id="Group_261" data-name="Group 261">
        <text id="Nhiễm_trùng_dai_dẵng" data-name="Nhiễm trùng
dai dẵng" transform="translate(830.764 683.197)" fill="#3c3c3c" font-size="9" font-family="SegoeUI, Segoe UI"><tspan x="0" y="0">Nhiễm trùng</tspan><tspan x="0" y="10.5">dai dẵng</tspan></text>
        <g id="Group_260" data-name="Group 260">
          <path id="Path_1392" data-name="Path 1392" d="M801.521,681.742a.338.338,0,0,1,.436.218.164.164,0,0,0,.23.113,1.222,1.222,0,0,1,.332-.034c.217-.005.344.1.342.264s-.122.257-.33.262a1.259,1.259,0,0,0-1.065,1.924c.157.248.336.482.5.728a2.373,2.373,0,0,1,.142,2.493c-.044.089-.087.18-.129.27a1.261,1.261,0,1,0,2.282,1.066q.144-.3.285-.605a.266.266,0,0,1,.355-.167.27.27,0,0,1,.132.37c-.041.126-.177.248-.124.367s.192.164.292.246a.274.274,0,0,1,.077.4.271.271,0,0,1-.393.023c-.24-.169-.241-.17-.439.054a1.746,1.746,0,0,1-1.264.614c-.106.005-.145.04-.154.14a2.231,2.231,0,0,1-.053.313.254.254,0,0,1-.3.2.248.248,0,0,1-.214-.279,2.424,2.424,0,0,1,.054-.348c.019-.086-.01-.125-.09-.158a1.723,1.723,0,0,1-.94-.885c-.043-.091-.082-.114-.164-.052a.308.308,0,0,1-.179.069.253.253,0,0,1-.26-.172.215.215,0,0,1,.089-.293c.311-.113.355-.348.369-.632a1.651,1.651,0,0,1,.246-.674c.046-.087.032-.116-.066-.14-.212-.05-.294-.164-.256-.329s.173-.235.379-.178c.167.046.2-.015.211-.162a1.942,1.942,0,0,0-.21-1.075c-.041-.078-.078-.106-.156-.039a1.787,1.787,0,0,1-.256.185.244.244,0,0,1-.345-.059.259.259,0,0,1,.037-.364c.013-.012.03-.019.043-.031.094-.085.27-.13.278-.246.007-.1-.12-.2-.183-.309a1.24,1.24,0,0,1-.157-.293.243.243,0,0,0-.307-.2.706.706,0,0,1-.21-.013.239.239,0,0,1-.21-.263.252.252,0,0,1,.227-.252c.112-.024.258.064.329-.038.057-.081.032-.216.055-.325a1.732,1.732,0,0,1,.652-1.037c.094-.072.123-.13.043-.225a.539.539,0,0,1-.086-.279l.128-.169" fill="#ff8c00"/>
          <path id="Path_1393" data-name="Path 1393" d="M815.383,685.531a5.264,5.264,0,0,1-1.338-1.243,4.176,4.176,0,0,1-.726-3.047c.031-.227.067-.453.1-.681a2.213,2.213,0,0,0-4.381-.627,9.522,9.522,0,0,0,.058,3.974,8.531,8.531,0,0,0,2.791,4.513,1.768,1.768,0,0,1,.168.156.24.24,0,0,1,0,.337.224.224,0,0,1-.33.051c-.135-.116-.207-.054-.3.045-.137.145-.284.281-.434.414a.254.254,0,0,1-.376,0,.263.263,0,0,1,.019-.379c.154-.154.309-.307.47-.453.062-.056.071-.088.007-.151a8.545,8.545,0,0,1-.912-1.027.108.108,0,0,0-.166-.025,2.024,2.024,0,0,1-.266.137.255.255,0,0,1-.346-.116.27.27,0,0,1,.107-.351c.09-.066.262-.067.262-.194,0-.095-.1-.19-.162-.285a8.186,8.186,0,0,1-.539-1.05c-.039-.093-.082-.124-.184-.1a4.189,4.189,0,0,1-.434.079.268.268,0,0,1-.324-.2.263.263,0,0,1,.229-.318c.12-.027.242-.049.364-.066.079-.012.094-.041.068-.117a7.553,7.553,0,0,1-.295-1.089c-.017-.091-.06-.111-.144-.1-.129.011-.259.013-.388.017-.209.007-.333-.082-.343-.244s.1-.272.326-.284c.112-.006.224-.013.335-.013.077,0,.1-.024.093-.1a7.883,7.883,0,0,1-.066-1.285c0-.106-.065-.109-.13-.126-.4-.1-.808-.209-1.212-.311-.146-.037-.248-.113-.248-.276a.267.267,0,0,1,.365-.24c.37.092.74.187,1.108.289.11.03.156.018.166-.108.02-.234.048-.468.089-.7a.185.185,0,0,0-.126-.231,3.7,3.7,0,0,1-.385-.214.248.248,0,0,1-.1-.348.263.263,0,0,1,.365-.1,1.477,1.477,0,0,1,.247.136c.105.077.138.028.165-.07a1.816,1.816,0,0,1,.208-.465c.057-.1.033-.14-.041-.2-.165-.142-.323-.292-.481-.442a.264.264,0,1,1,.349-.394c.16.139.314.284.467.43.063.061.108.063.173,0a2.124,2.124,0,0,1,.44-.35c.08-.047.087-.091.047-.17-.1-.21-.2-.424-.3-.637s-.056-.352.1-.421.285,0,.376.192c.1.212.2.423.3.638.037.084.075.115.17.081a2.076,2.076,0,0,1,.711-.117c.111,0,.121-.042.11-.135-.034-.3-.063-.608-.091-.913-.019-.209.065-.333.232-.349s.271.093.293.3c.035.333.07.667.1,1,.009.107.036.164.154.192a2.412,2.412,0,0,1,.462.169.124.124,0,0,0,.187-.046c.22-.3.445-.593.669-.888a.267.267,0,0,1,.291-.117.246.246,0,0,1,.2.2.309.309,0,0,1-.084.259c-.207.271-.409.546-.619.815-.065.084-.082.138.016.214a1.686,1.686,0,0,1,.4.446c.071.116.136.115.24.056.143-.081.293-.151.441-.222a.277.277,0,0,1,.4.093.273.273,0,0,1-.155.375c-.162.084-.324.167-.489.243-.081.037-.1.077-.07.163a2.43,2.43,0,0,1,.144.865c0,.1.042.119.125.125.176.013.352.029.527.051a.271.271,0,0,1,.272.285c-.012.161-.135.253-.328.239s-.363-.034-.544-.053c-.065-.007-.114-.009-.122.079-.024.245-.052.491-.083.735-.012.1.029.12.119.108.152-.019.3-.03.457-.042.226-.017.348.065.36.238s-.1.269-.325.29c-.152.014-.3.03-.457.039-.086.006-.128.025-.108.127a4.089,4.089,0,0,0,.253.843c.04.095.085.088.16.049.151-.079.3-.155.458-.226a.265.265,0,1,1,.231.474q-.219.114-.444.216c-.078.036-.089.07-.036.142a4.895,4.895,0,0,0,.474.544c.06.06.1.064.152-.01a1.913,1.913,0,0,1,.161-.21.262.262,0,1,1,.413.322l-.01.014c-.2.292-.2.292.078.5l.141.106c.318.241.318.24.6-.058a2.537,2.537,0,0,1,.187-.187.263.263,0,0,1,.373.37c-.11.123-.228.238-.347.352-.069.066-.073.112,0,.185a2.183,2.183,0,0,1,.409.549.162.162,0,0,0,.181.1c.282-.016.565-.025.847-.034.216-.006.344.092.346.261s-.109.257-.324.267-.435.02-.652.023c-.1,0-.137.015-.109.128a2.361,2.361,0,0,1,.06.841c-.013.107.034.129.119.147.339.074.677.152,1.014.231.2.047.3.164.262.326s-.169.233-.373.188c-.338-.075-.676-.15-1.013-.231-.1-.024-.148-.014-.182.093a1.917,1.917,0,0,1-.275.531c-.069.1-.046.149.043.211.158.111.313.229.465.35a.265.265,0,0,1,.08.4c-.1.13-.24.138-.4.018s-.341-.251-.507-.383c-.075-.06-.13-.074-.21,0a1.891,1.891,0,0,1-.436.3c-.076.037-.087.078-.055.152.052.124.1.251.143.379a.261.261,0,0,1-.147.35.267.267,0,0,1-.344-.162c-.073-.152-.071-.384-.208-.448s-.317.031-.48.053a1.467,1.467,0,0,1-.176.01c-.232,0-.232,0-.232.246,0,.088,0,.177,0,.264a.262.262,0,1,1-.524.005c-.008-.165-.007-.33,0-.494a.125.125,0,0,0-.108-.149,1.863,1.863,0,0,1-.5-.213c-.088-.053-.133-.034-.187.041-.1.144-.211.283-.318.424-.152.2-.3.247-.442.139s-.129-.254.016-.448c.106-.142.21-.284.32-.422.057-.072.053-.121-.024-.172a1.289,1.289,0,0,1-.18-.142.253.253,0,0,1-.033-.363.247.247,0,0,1,.36-.043c.238.163.455.354.7.5a2.211,2.211,0,0,0,2.652-3.5c-.27-.257-.586-.454-.884-.7" fill="#ff8c00"/>
          <path id="Path_1394" data-name="Path 1394" d="M803.831,682.591a1.657,1.657,0,0,1,.173.226c.072.129.139.106.224.021a.9.9,0,0,1,.135-.112.249.249,0,0,1,.35.033.262.262,0,0,1-.012.366c-.088.1-.273.147-.265.275s.133.227.2.342a4.305,4.305,0,0,1,.353.689c.039.1.089.124.184.085a.663.663,0,0,1,.153-.041.252.252,0,0,1,.309.192.255.255,0,0,1-.165.312c-.079.034-.2.013-.23.093s.029.168.049.254a4.943,4.943,0,0,1,.122.783c.006.1.021.144.141.132.291-.028.416.051.424.238.007.172-.116.27-.387.282-.128.006-.171.046-.172.176a3.413,3.413,0,0,1-.049.472c-.03.2-.15.3-.313.279s-.238-.148-.209-.347a5.043,5.043,0,0,0-.071-1.892,4.992,4.992,0,0,0-.81-1.766c-.177-.248-.338-.508-.534-.743a.245.245,0,0,1,.02-.364c.111-.106.232-.092.377.015" fill="#ff8c00"/>
          <path id="Path_1395" data-name="Path 1395" d="M812.51,682.9a1.019,1.019,0,0,1-1.42.248,1.053,1.053,0,0,1,1.265-1.68,1.018,1.018,0,0,1,.155,1.432m-.42-.323a.488.488,0,0,0-.062-.692.527.527,0,0,0-.619.841.5.5,0,0,0,.681-.149" fill="#ff8c00"/>
          <path id="Path_1396" data-name="Path 1396" d="M815.094,687.326c-.039.051-.074.106-.117.153a.242.242,0,0,1-.333.045.234.234,0,0,1-.1-.306,1.064,1.064,0,0,1,.29-.39.236.236,0,0,1,.335.01.242.242,0,0,1,.041.334c-.035.053-.078.1-.116.154" fill="#ff8c00"/>
          <path id="Path_1397" data-name="Path 1397" d="M803.31,687.971c.165-.218.3-.268.446-.163s.14.266-.029.489c-.011.014-.021.029-.032.042-.144.187-.29.227-.429.118s-.135-.245,0-.43l.042-.056" fill="#ff8c00"/>
          <path id="Path_1398" data-name="Path 1398" d="M810.816,684.5c-.028.037-.054.076-.085.112a.26.26,0,0,1-.426-.3,1.513,1.513,0,0,1,.2-.267.254.254,0,0,1,.362-.037.257.257,0,0,1,.046.361c-.028.044-.063.084-.1.126" fill="#ff8c00"/>
          <path id="Path_1399" data-name="Path 1399" d="M802.824,684.537c-.172.229-.31.277-.457.159s-.127-.262.035-.477a1.166,1.166,0,0,1,.1-.124.265.265,0,0,1,.377-.033.253.253,0,0,1,.031.363c-.027.038-.056.075-.084.112" fill="#ff8c00"/>
          <path id="Path_1400" data-name="Path 1400" d="M803.7,686.554c-.164.218-.3.269-.446.164s-.136-.262.023-.474c.032-.042.062-.085.1-.124a.261.261,0,1,1,.41.322c-.026.039-.056.075-.084.112" fill="#ff8c00"/>
          <path id="Path_1401" data-name="Path 1401" d="M811.849,679.7a.7.7,0,0,1,.09-.1.247.247,0,0,1,.309-.014c.158.1.144.28-.031.5-.138.174-.3.211-.432.093s-.111-.254.064-.484" fill="#ff8c00"/>
          <path id="Path_1402" data-name="Path 1402" d="M810.124,680.333c.132-.175.279-.212.418-.1s.137.245.01.417-.28.22-.416.121-.14-.262-.012-.433" fill="#ff8c00"/>
          <path id="Path_1403" data-name="Path 1403" d="M820.209,668.118a.823.823,0,0,1,.464.957c-.237,1.787-.44,3.577-.656,5.367a.711.711,0,0,1-.58.627l-5.178,1.423c-.081.022-.162.047-.245.061a.658.658,0,0,1-.795-.5.645.645,0,0,1,.459-.789c.664-.2,1.337-.379,2.006-.566l2.267-.633a7.831,7.831,0,0,0-1.248-.942,13.482,13.482,0,0,0-15.835.793,13.026,13.026,0,0,0-4.979,11.47,14.616,14.616,0,0,0,.4,2.4.639.639,0,0,1-.314.758.659.659,0,0,1-.768-.074.8.8,0,0,1-.249-.465,14.741,14.741,0,0,1,11.633-18.136,14.506,14.506,0,0,1,11.866,2.85l.367.277c.084-.661.165-1.282.242-1.9.093-.753.189-1.506.27-2.261a.852.852,0,0,1,.5-.713Z" fill="#3a0b0b"/>
          <path id="Path_1404" data-name="Path 1404" d="M800.687,694.595a12.918,12.918,0,0,0,4.24,2.372,13.221,13.221,0,0,0,9.982-.486,13.058,13.058,0,0,0,7.642-9.646,12.7,12.7,0,0,0-.174-5.857.684.684,0,0,1,.385-.917.66.66,0,0,1,.834.318,1.378,1.378,0,0,1,.095.3,14.426,14.426,0,0,1-3.846,14.006,14.063,14.063,0,0,1-8.88,4.257,14.719,14.719,0,0,1-10.973-3.167c-.04-.032-.082-.062-.166-.125-.062.458-.121.879-.173,1.3-.115.941-.226,1.883-.34,2.825a.8.8,0,0,1-.284.61.675.675,0,0,1-1.077-.617c.208-1.737.425-3.472.639-5.208.012-.094.025-.188.032-.283a.69.69,0,0,1,.542-.689q2.663-.74,5.326-1.471a.683.683,0,1,1,.374,1.3c-.041.012-.082.02-.123.031l-3.8,1.06c-.07.02-.138.046-.253.085" fill="#3a0b0b"/>
        </g>
      </g>
    </g>
  </g>
</svg>
