<svg xmlns="http://www.w3.org/2000/svg" width="52.524" height="52.523" viewBox="0 0 52.524 52.523">
  <g id="Group_154" data-name="Group 154" transform="translate(-1887.333 -267.612)">
    <path id="Path_551" data-name="Path 551" d="M1911.208,307.721l.034,0a.566.566,0,0,0,.014-1.131h-.016a.591.591,0,0,0-.563.536v.026a.6.6,0,0,0,.532.567l-.011.145Z" fill="#2b090b"/>
    <path id="Path_552" data-name="Path 552" d="M1922.992,296.146h-.021a.749.749,0,0,0,0,1.5h.014a.749.749,0,0,0,.008-1.5L1923,296Z" fill="#2b090b"/>
    <path id="Path_553" data-name="Path 553" d="M1914.959,309.938a3.116,3.116,0,0,0,1.84-1.992,1.35,1.35,0,0,1,.266-.574.878.878,0,0,1,.6-.267.421.421,0,0,0,.311-.16.615.615,0,0,0,.107-.375.494.494,0,0,0-.406-.528l-.183-.022a1.5,1.5,0,0,0-.377.06.9.9,0,0,1-.222.035.459.459,0,0,1-.379-.2,3.247,3.247,0,0,0-1.275-.975.689.689,0,0,1-.216-.143.372.372,0,0,1-.1-.259l.031-.186a1.28,1.28,0,0,0,.061-.359.463.463,0,0,0-.357-.477l-.2-.041c-.195,0-.376.124-.533.471a.662.662,0,0,1-.15.227.361.361,0,0,1-.248.093.709.709,0,0,1-.233-.046c-.629-.216-1.272-.4-1.914-.6a1.384,1.384,0,0,1-.318-.128.361.361,0,0,1-.189-.313.721.721,0,0,1,.146-.383.408.408,0,0,0,.077-.23.537.537,0,0,0-.293-.427.672.672,0,0,0-.344-.107.34.34,0,0,0-.315.175.639.639,0,0,1-.519.392.934.934,0,0,1-.55-.282,1.7,1.7,0,0,0-.278-.19.691.691,0,0,0-.334-.093.526.526,0,0,0-.445.243.57.57,0,0,0-.1.316.564.564,0,0,0,.254.456,9.544,9.544,0,0,0,3.007,1.687c.574.163,1.141.346,1.706.529a10.235,10.235,0,0,1,2.192.864,1.239,1.239,0,0,1,.73,1.072v.025a1.579,1.579,0,0,1-.372.967,3.287,3.287,0,0,1-1.789,1.035,9.036,9.036,0,0,1-2.333.3,11.406,11.406,0,0,1-2.712-.346,12.073,12.073,0,0,1-4.506-2.181.72.72,0,0,0-.434-.165.542.542,0,0,0-.529.531.684.684,0,0,0,.284.522,8.338,8.338,0,0,0,.687.506l.2.167a.409.409,0,0,1,.092.263.663.663,0,0,1-.041.216.732.732,0,0,0-.044.236.467.467,0,0,0,.3.44.693.693,0,0,0,.3.074.483.483,0,0,0,.413-.24.4.4,0,0,1,.332-.209.626.626,0,0,1,.263.075,10.708,10.708,0,0,0,2.245.8.757.757,0,0,1,.45.24.72.72,0,0,1,.136.473v.114a.7.7,0,0,0,.137.467.491.491,0,0,0,.366.162h.054a.451.451,0,0,0,.363-.141.887.887,0,0,0,.172-.51.58.58,0,0,1,.1-.3.36.36,0,0,1,.3-.129l.107.008a6.809,6.809,0,0,0,.956.065,9.494,9.494,0,0,0,1.375-.109,1.755,1.755,0,0,1,.273-.025.683.683,0,0,1,.409.117.853.853,0,0,1,.279.4.416.416,0,0,0,.413.277.711.711,0,0,0,.255-.051.5.5,0,0,0,.367-.451l-.032-.172a.759.759,0,0,1-.052-.255.4.4,0,0,1,.13-.3,1.03,1.03,0,0,1,.261-.16" fill="#2b090b"/>
    <path id="Path_554" data-name="Path 554" d="M1898.4,291.792a2.9,2.9,0,0,0,1.8,2.45,2.494,2.494,0,0,1,.676.315.807.807,0,0,1,.317.681,1.728,1.728,0,0,1-.024.268l-.005.051a.4.4,0,0,0,.168.3.64.64,0,0,0,.377.139.587.587,0,0,0,.566-.525,2.14,2.14,0,0,0,.018-.266l-.011-.2-.006-.1a.483.483,0,0,1,.13-.354.676.676,0,0,1,.342-.167,3.5,3.5,0,0,0,1.4-.705c.205-.152.385-.463.716-.568l.118-.016a.591.591,0,0,1,.418.23,1.131,1.131,0,0,0,.262.243.788.788,0,0,0,.352.1.526.526,0,0,0,.4-.188.505.505,0,0,0,.134-.35.6.6,0,0,0-.162-.408,3.144,3.144,0,0,0-.428-.374.427.427,0,0,1-.2-.342.586.586,0,0,1,.111-.309c.472-.744.92-1.508,1.394-2.258a3.765,3.765,0,0,1,.264-.385.4.4,0,0,1,.3-.171.506.506,0,0,1,.3.123c.094.069.2.163.333.284a1.079,1.079,0,0,0,.213.176.74.74,0,0,0,.319.082.484.484,0,0,0,.359-.159.541.541,0,0,0,.181-.382.586.586,0,0,0-.1-.314,1.582,1.582,0,0,0-.223-.246c-.085-.086-.152-.153-.2-.217a.359.359,0,0,1-.1-.224.3.3,0,0,1,.153-.239,2.606,2.606,0,0,1,.293-.158c.782-.384,1.571-.749,2.353-1.125a1.926,1.926,0,0,1,.719-.258.57.57,0,0,1,.375.156,4.5,4.5,0,0,1,.388.4.592.592,0,0,0,.441.24l.142-.021a.57.57,0,0,0,.421-.428l.02-.138a.557.557,0,0,0-.179-.393.741.741,0,0,1-.269-.509.825.825,0,0,1,.393-.594,3.177,3.177,0,0,0,1.3-2.392,1.878,1.878,0,0,1,.162-.855,1.013,1.013,0,0,1,.79-.47.311.311,0,0,0,.219-.138.524.524,0,0,0,.078-.291l-.029-.209a.471.471,0,0,0-.481-.389l-.088.006a4.7,4.7,0,0,0-.73.179l-.2.032a.478.478,0,0,1-.388-.208,5.012,5.012,0,0,0-2.256-1.605.723.723,0,0,1-.275-.165.381.381,0,0,1-.108-.272.8.8,0,0,1,.071-.3,3.245,3.245,0,0,0,.29-.9.669.669,0,0,0-.12-.4.547.547,0,0,0-.325-.185l-.139-.016a.515.515,0,0,0-.476.35,7.425,7.425,0,0,0-.346.972.611.611,0,0,1-.17.3.454.454,0,0,1-.307.105l-.158-.015a4.406,4.406,0,0,0-.784-.066,11.935,11.935,0,0,0-1.583.147,6.485,6.485,0,0,1-.813.163.632.632,0,0,1-.233-.04.619.619,0,0,1-.34-.471,3.045,3.045,0,0,0-.133-.483l0-.007-.036-.082a.589.589,0,0,0-.522-.411l-.172.03a.538.538,0,0,0-.4.534l.029.208a3.614,3.614,0,0,0,.2.58.784.784,0,0,1,.088.332.418.418,0,0,1-.112.29.819.819,0,0,1-.29.191,9.2,9.2,0,0,0-2.175,1.352c-.293.229-.437.376-.668.387a.519.519,0,0,1-.31-.122,3.914,3.914,0,0,1-.334-.291l-.19-.166a.62.62,0,0,0-.345-.123.53.53,0,0,0-.381.186.541.541,0,0,0-.176.375.586.586,0,0,0,.135.348,1.765,1.765,0,0,0,.352.363.593.593,0,0,1,.3.462.707.707,0,0,1-.213.447,11.035,11.035,0,0,0-1.254,1.82c-.086.149-.16.348-.248.535a1.03,1.03,0,0,1-.384.481.53.53,0,0,1-.258.066,1.17,1.17,0,0,1-.511-.164,2.287,2.287,0,0,0-.431-.2.835.835,0,0,0-.213-.029.529.529,0,0,0-.517.349l-.045.216a.548.548,0,0,0,.325.483,2.419,2.419,0,0,0,.519.211,1.038,1.038,0,0,1,.391.172.448.448,0,0,1,.17.364,1.013,1.013,0,0,1-.095.39,5.963,5.963,0,0,0-.533,2.247,1.223,1.223,0,0,1-.236.827,1.093,1.093,0,0,1-.778.314c-.237.022-.376.179-.418.46l-.006.093a.5.5,0,0,0,.272.46.563.563,0,0,0,.3.079.948.948,0,0,0,.293-.052.866.866,0,0,1,.271-.052.369.369,0,0,1,.322.166.954.954,0,0,1,.123.355m1.976-5.857a11.408,11.408,0,0,1,4.966-5.686,8.753,8.753,0,0,1,4.1-1.126,7.178,7.178,0,0,1,2.792.573,4.329,4.329,0,0,1,1.311.834,2.329,2.329,0,0,1,.792,1.7,2.356,2.356,0,0,1-.669,1.6,7.286,7.286,0,0,1-2.188,1.485c-.847.426-1.706.824-2.561,1.224a6.311,6.311,0,0,0-2.851,2.62,20.9,20.9,0,0,1-1.815,2.826,3.577,3.577,0,0,1-1.82,1.316,3.4,3.4,0,0,1-.882.126,1.95,1.95,0,0,1-1.423-.547,2.623,2.623,0,0,1-.681-1.546c-.059-.445-.084-.89-.11-1.174v-.118a9.674,9.674,0,0,1,1.035-4.1" fill="#2b090b"/>
    <path id="Path_555" data-name="Path 555" d="M1900.415,289.927v.013a.934.934,0,1,0,0-.013" fill="#2b090b"/>
    <path id="Path_556" data-name="Path 556" d="M1904.667,287.534h-.024a.593.593,0,0,0-.562.532l0,.032a.566.566,0,0,0,1.131.016V288.1a.6.6,0,0,0-.543-.565" fill="#2b090b"/>
    <path id="Path_557" data-name="Path 557" d="M1920.4,276.535a2.4,2.4,0,0,0-.017,4.8h.023a2.428,2.428,0,0,0,2.4-2.373v-.034a2.43,2.43,0,0,0-2.4-2.4m1.263,2.418a1.258,1.258,0,0,1-1.267,1.245h-.038a1.257,1.257,0,0,1-1.217-1.268v-.062a1.254,1.254,0,0,1,1.264-1.193h.039a1.256,1.256,0,0,1,1.218,1.261Z" fill="#2b090b"/>
    <path id="Path_558" data-name="Path 558" d="M1904.27,283.136a.932.932,0,1,0,.94.922.961.961,0,0,0-.94-.922" fill="#2b090b"/>
    <path id="Path_559" data-name="Path 559" d="M1907.013,282.21v.025a.562.562,0,0,0,.172.391.569.569,0,0,0,.4.173.565.565,0,0,0,.011-1.129h-.014a.594.594,0,0,0-.564.54" fill="#2b090b"/>
    <path id="Path_560" data-name="Path 560" d="M1911.578,283.534h.034a.968.968,0,0,0,.929-.9V282.6a.963.963,0,0,0-.9-.928h-.032a.964.964,0,0,0-.931.9v.033a.969.969,0,0,0,.9.929" fill="#2b090b"/>
    <path id="Path_561" data-name="Path 561" d="M1928.861,284.6h-.028a1.328,1.328,0,0,0-1.3,1.291,1.342,1.342,0,0,0,1.273,1.312h.032a1.3,1.3,0,0,0,.025-2.6l0-.145Z" fill="#2b090b"/>
    <path id="Path_562" data-name="Path 562" d="M1925.337,298.723a.931.931,0,1,0,.937-.927.958.958,0,0,0-.937.927" fill="#2b090b"/>
    <path id="Path_563" data-name="Path 563" d="M1906.1,305.685a.748.748,0,0,0,.23.526.766.766,0,0,0,.534.228.78.78,0,0,0,.733-.743.762.762,0,0,0-.227-.526.743.743,0,0,0-.519-.228h-.016a.781.781,0,0,0-.735.743" fill="#2b090b"/>
    <path id="Path_564" data-name="Path 564" d="M1932.428,296.328q-.279-.009-.558-.009c-.206,0-.412,0-.619.008h-.028a.446.446,0,0,1-.308-.1.479.479,0,0,1-.143-.306,4.741,4.741,0,0,0-.448-1.434,6.054,6.054,0,0,0-.344-.54,1.178,1.178,0,0,1-.239-.6l.009-.1a1.15,1.15,0,0,1,.4-.6c.183-.167.386-.322.53-.477a.736.736,0,0,0,.223-.5.508.508,0,0,0-.151-.363.519.519,0,0,0-.376-.16.72.72,0,0,0-.484.213c-.276.26-.547.525-.8.8a.475.475,0,0,1-.344.179.539.539,0,0,1-.313-.122,5.3,5.3,0,0,0-2.284-.943.423.423,0,0,1-.412-.476v-.035c0-.2.007-.4.007-.6,0-.179,0-.357-.007-.535a.6.6,0,0,0-.572-.648c-.317.006-.545.239-.564.656,0,.17-.006.341-.006.512,0,.209,0,.419,0,.63v.023a.533.533,0,0,1-.063.289.421.421,0,0,1-.311.178,5.355,5.355,0,0,0-2.326.958.511.511,0,0,1-.3.115.5.5,0,0,1-.356-.188c-.258-.277-.527-.544-.8-.8a.7.7,0,0,0-.475-.2.527.527,0,0,0-.526.528.687.687,0,0,0,.2.466c.259.278.524.549.8.8a.486.486,0,0,1,.192.359.574.574,0,0,1-.136.337,4.568,4.568,0,0,0-.657,1.252c-.066.193-.1.452-.155.694a.977.977,0,0,1-.329.624,1.028,1.028,0,0,1-.593.143c-.268,0-.55-.043-.792-.043l-.074,0a.584.584,0,0,0-.62.555.6.6,0,0,0,.639.58c.18.006.36.01.54.01s.335,0,.5-.012l.084,0a.542.542,0,0,1,.367.109.584.584,0,0,1,.177.4,3.927,3.927,0,0,0,.393,1.257c.09.18.237.379.366.582a1.274,1.274,0,0,1,.247.646l-.006.089a1.123,1.123,0,0,1-.408.614c-.19.173-.4.334-.549.494a.678.678,0,0,0-.189.451.533.533,0,0,0,.531.532.673.673,0,0,0,.452-.19,8.079,8.079,0,0,0,.7-.7.648.648,0,0,1,.485-.287.724.724,0,0,1,.429.179,4.831,4.831,0,0,0,1.687.769c.371.107.584.147.74.321s.135.4.139.766v.088c0,.119,0,.236,0,.351l0,.221a.6.6,0,0,0,.577.645c.315-.009.541-.243.559-.662,0-.187.008-.376.008-.562s0-.384-.009-.573v-.034a.451.451,0,0,1,.108-.324.544.544,0,0,1,.317-.141,5.277,5.277,0,0,0,2.245-.923.577.577,0,0,1,.34-.134.534.534,0,0,1,.388.213c.242.267.5.522.767.77a.7.7,0,0,0,.475.2.527.527,0,0,0,.525-.525.7.7,0,0,0-.2-.471,9.284,9.284,0,0,0-.7-.7.551.551,0,0,1-.1-.88,3.722,3.722,0,0,0,.6-1.169c.066-.193.1-.451.155-.694a.982.982,0,0,1,.328-.624,1.038,1.038,0,0,1,.591-.142c.271,0,.555.044.8.043h.072a.588.588,0,0,0,.623-.555v-.015a.591.591,0,0,0-.637-.564m-7.239,5.126v0a4.585,4.585,0,0,1-3.242-1.33,4.562,4.562,0,1,1,3.242,1.33" fill="#2b090b"/>
    <path id="Path_565" data-name="Path 565" d="M1913.41,271.4h-.054a22.6,22.6,0,0,0-22.474,22.531v.046A22.56,22.56,0,1,0,1913.41,271.4m-15.5,37.147a.359.359,0,0,1-.218-.081l-.154-.15a21.377,21.377,0,0,1-5.129-10.25,18.992,18.992,0,0,1-.39-3.669c0-.114,0-.228,0-.341a21.362,21.362,0,0,1,17.508-21.141,23.316,23.316,0,0,1,4.167-.386,21.048,21.048,0,0,1,14.06,5.485.567.567,0,0,1,.253.409.593.593,0,0,1-.221.4q-10.713,10.691-21.4,21.4a.736.736,0,0,1-.528.262.8.8,0,0,1-.3-.066,5.129,5.129,0,0,0-1.375-.345.52.52,0,0,1-.319-.127.42.42,0,0,1-.113-.309l0-.075.005-.105-.007-.142a.552.552,0,0,0-.561-.562.511.511,0,0,0-.559.488l0,.037,0,.114a.8.8,0,0,1-.183.557,1.213,1.213,0,0,1-.509.306,2.222,2.222,0,0,0-1.391,1.59.8.8,0,0,1-.186.37.588.588,0,0,1-.434.148.575.575,0,0,0-.417.147.531.531,0,0,0-.149.38v.022a.513.513,0,0,0,.142.385.617.617,0,0,0,.436.155.7.7,0,0,1,.445.132.677.677,0,0,1,.21.412,3.553,3.553,0,0,0,.408,1.061.556.556,0,0,1,.083.275.524.524,0,0,1-.188.372c-.891.879-1.781,1.759-2.651,2.656a.488.488,0,0,1-.339.182m7-6.971a.4.4,0,0,1-.146.267q-1.2,1.2-2.394,2.394a.392.392,0,0,1-.266.139.26.26,0,0,1-.2-.1l-.094-.174a3.621,3.621,0,0,1-.263-1.293,2.7,2.7,0,0,1,.043-.488,1.318,1.318,0,0,1,.553-.9,2.049,2.049,0,0,1,1.164-.287h.074a5.49,5.49,0,0,1,1.219.176l.194.073a.237.237,0,0,1,.115.2m12.688,13.4a23.76,23.76,0,0,1-4.356.415,21.094,21.094,0,0,1-14.105-5.482l-.176-.18a.384.384,0,0,1-.085-.232.586.586,0,0,1,.217-.395q14.763-14.739,29.505-29.5a.575.575,0,0,1,.386-.214.545.545,0,0,1,.391.234,21.36,21.36,0,0,1,5.41,12.451c.058.629.079,1.256.08,1.884v.049a21.382,21.382,0,0,1-17.268,20.97" fill="#2b090b"/>
    <path id="Path_566" data-name="Path 566" d="M1926.642,294.131a.576.576,0,0,0-.4.173.562.562,0,0,0-.172.392v.02a.564.564,0,1,0,.571-.585" fill="#2b090b"/>
    <path id="Path_567" data-name="Path 567" d="M1925.005,308.275v-.016a2.428,2.428,0,0,0-2.371-2.4h-.034a2.431,2.431,0,0,0-2.4,2.4,2.4,2.4,0,0,0,4.8.015m-3.663-.027v-.059a1.253,1.253,0,0,1,1.262-1.194h.041a1.253,1.253,0,0,1,1.218,1.266v.063a1.254,1.254,0,0,1-1.264,1.193h-.038a1.253,1.253,0,0,1-1.219-1.269" fill="#2b090b"/>
    <path id="Path_568" data-name="Path 568" d="M1893,293.883a20.436,20.436,0,1,0,20.436-20.438A20.435,20.435,0,0,0,1893,293.883" fill="none"/>
    <path id="Path_569" data-name="Path 569" d="M1939.107,293.874h-.75a24.763,24.763,0,1,1-7.253-17.51,24.681,24.681,0,0,1,7.253,17.51h1.5a26.262,26.262,0,1,0-26.262,26.261,26.263,26.263,0,0,0,26.262-26.261Z" fill="#ff8c00"/>
    <line id="Line_63" data-name="Line 63" y1="35.965" x2="35.965" transform="translate(1895.652 275.802)" fill="none" stroke="#ff8c00" stroke-miterlimit="10" stroke-width="1.5"/>
  </g>
</svg>
