<svg xmlns="http://www.w3.org/2000/svg" width="34.826" height="35.404" viewBox="0 0 34.826 35.404">
  <g id="Group_256" data-name="Group 256" transform="translate(-683.314 -665.659)">
    <path id="Path_1363" data-name="Path 1363" d="M711.171,676.026l5.45-4.541-5.45-4.088c0,.57,0,1.061,0,1.552,0,.574-.192.77-.753.77q-11.062,0-22.125.007c-.267,0-.347-.061-.343-.337.013-.829,0-.83.823-.83q10.41,0,20.819.009c.359,0,.445-.095.427-.438-.03-.579,0-1.16-.011-1.74a.611.611,0,0,1,1.062-.518q3.348,2.514,6.7,5.025c.486.365.492.732.025,1.122q-3.357,2.8-6.714,5.594a.636.636,0,0,1-.724.175.655.655,0,0,1-.349-.694c.007-.81-.005-1.62.008-2.43,0-.231-.054-.307-.3-.307-4.316.01-8.634-.074-12.948.033a12.757,12.757,0,0,0-2.671,25.115,11.662,11.662,0,0,0,2.83.38c.308,0,.413.066.4.4-.026.811-.007.815-.817.761a13.76,13.76,0,0,1-9.418-4.4,13.42,13.42,0,0,1-3.718-8.339,13.892,13.892,0,0,1,9.649-14.45,13.629,13.629,0,0,1,4.244-.656H710.4c.586,0,.77.189.771.788,0,.65,0,1.3,0,2.035" fill="#3a0b0b"/>
    <path id="Path_1364" data-name="Path 1364" d="M697.224,695.835a8.7,8.7,0,1,1,8.723-8.678,8.719,8.719,0,0,1-8.723,8.678m-.562-15.344c0-.193-.013-.388,0-.58.018-.217-.034-.3-.276-.268a7.783,7.783,0,0,0-1.824.447c-.592.224-.592.225-.285.754a1.669,1.669,0,0,0,.148.249c.142.172.068.255-.1.355-.754.458-.759.467-1.2-.291-.117-.2-.2-.224-.379-.083a8.489,8.489,0,0,0-1.559,1.558c-.129.169-.164.278.069.379.176.077.33.2.505.282.2.093.241.2.1.383-.171.232-.23.636-.47.694-.2.048-.485-.211-.714-.363-.206-.137-.279-.062-.361.132a7.64,7.64,0,0,0-.48,1.554c-.159.857-.155.857.706.857.949,0,.944,0,.892.939-.009.174-.06.229-.231.225-.41-.01-.822.006-1.232-.007-.2-.006-.246.053-.225.247a7.352,7.352,0,0,0,.489,1.961c.191.48.192.48.623.229.125-.073.255-.138.375-.219s.189-.078.283.06c.538.786.543.783-.257,1.267a.579.579,0,0,1-.065.034c-.151.068-.147.156-.055.281a7.964,7.964,0,0,0,1.66,1.66c.127.093.205.089.283-.055.113-.213.245-.416.359-.629.061-.113.119-.172.25-.089.265.167.635.267.773.505.113.194-.223.46-.334.707a.27.27,0,0,1-.034.063c-.12.145-.067.224.09.292a7.59,7.59,0,0,0,2.229.6c.2.021.247-.043.242-.23a7.111,7.111,0,0,1,.007-1.2c.078-.549.531-.157.8-.251.173-.061.383-.055.358.264-.028.348.013.7-.012,1.05-.021.3.043.4.368.354a8.576,8.576,0,0,0,2.086-.581c.171-.074.224-.142.11-.312-.128-.19-.226-.4-.349-.593-.083-.13-.06-.192.073-.28.777-.517.774-.522,1.264.268.006.011.012.021.017.032.067.159.153.186.3.075a8.2,8.2,0,0,0,1.637-1.633c.121-.161.091-.242-.079-.328-.2-.1-.4-.231-.6-.343-.093-.052-.17-.1-.1-.22.169-.278.282-.638.527-.8.158-.105.439.215.675.324a.353.353,0,0,1,.063.036c.176.144.253.069.333-.116a7.911,7.911,0,0,0,.549-1.909c.082-.518.077-.519-.459-.519h-.327c-.912,0-.905,0-.873-.922.006-.193.064-.248.25-.242.4.012.8-.007,1.2.008.212.008.264-.057.241-.267a7.844,7.844,0,0,0-.59-2.194c-.078-.185-.161-.2-.318-.094-.19.127-.394.234-.593.348-.085.049-.168.1-.238-.027-.156-.285-.419-.562-.437-.855-.013-.2.408-.278.622-.429a.329.329,0,0,1,.062-.037c.212-.083.186-.2.067-.353a8.346,8.346,0,0,0-1.584-1.585c-.167-.127-.249-.109-.356.076-.143.246-.217.652-.469.682-.234.027-.5-.254-.756-.385-.163-.082-.2-.163-.093-.327.129-.189.224-.4.348-.593.09-.139.057-.208-.087-.27a7.632,7.632,0,0,0-2.264-.606c-.188-.018-.227.044-.223.214.009.386-.014.774.008,1.16.015.256-.067.323-.321.321-.845-.007-.845,0-.845-.843" fill="#3a0b0b"/>
    <path id="Path_1365" data-name="Path 1365" d="M707.931,696.057c-.139.162-.254.3-.373.432-.425.476-.425.475-.862.04-.393-.393-.393-.393-.013-.8s.376-.408.8-.046c.145.122.288.245.446.379" fill="#3a0b0b"/>
    <path id="Path_1366" data-name="Path 1366" d="M709.782,692.948c-.279-.129-.575-.264-.868-.4-.027-.012-.06-.067-.052-.086.126-.312.254-.623.4-.928.027-.058.11,0,.163.017.291.112.737.123.834.358.116.279-.183.616-.306.925-.028.069-.051.14-.167.119" fill="#3a0b0b"/>
    <path id="Path_1367" data-name="Path 1367" d="M702.023,700.073c.017.092-.011.14-.073.167a1.707,1.707,0,0,1-.169.061c-1.113.333-.811.475-1.089-.649-.116-.469.5-.256.736-.452.115-.1.259-.092.321.117.077.265.186.519.274.756" fill="#3a0b0b"/>
    <path id="Path_1368" data-name="Path 1368" d="M683.314,669.107c0-.548,0-.548.549-.548.611,0,.611,0,.611.595a1.761,1.761,0,0,0,0,.252c.04.256-.064.355-.316.315a1.43,1.43,0,0,0-.217,0c-.629,0-.629,0-.629-.613" fill="#3a0b0b"/>
    <path id="Path_1369" data-name="Path 1369" d="M686.8,669.128c0,.593,0,.593-.685.592-.476,0-.476,0-.475-.694,0-.467,0-.467.739-.466.421,0,.421,0,.421.568" fill="#3a0b0b"/>
    <path id="Path_1370" data-name="Path 1370" d="M709.3,694.136c-.2.3-.4.6-.6.9-.035.05-.092.011-.129-.015q-.372-.257-.741-.519c-.122-.087-.045-.178.016-.244.208-.219.238-.69.548-.681.287.008.566.291.847.456.025.015.033.058.061.108" fill="#3a0b0b"/>
    <path id="Path_1371" data-name="Path 1371" d="M706.194,697.729c-.008.1-.076.136-.131.179-.2.157-.4.306-.6.467-.128.106-.205.1-.319-.038-.6-.748-.6-.741.154-1.309.131-.1.209-.127.322.018.184.238.386.463.573.683" fill="#3a0b0b"/>
    <path id="Path_1372" data-name="Path 1372" d="M710,687.7c.025-.619.026-.63.933-.568.475.032.206.415.2.606s.213.592-.281.569c-.878-.042-.878-.043-.855-.607" fill="#3a0b0b"/>
    <path id="Path_1373" data-name="Path 1373" d="M698.473,700.265c-.032-.47-.03-.535.858-.509.476.014.366.615.338.881-.052.508-.6.3-.9.311-.513.013-.143-.506-.3-.683" fill="#3a0b0b"/>
    <path id="Path_1374" data-name="Path 1374" d="M710.944,689.678c-.07.3-.139.557-.186.817-.031.17-.1.231-.269.172a.952.952,0,0,0-.1-.035c-.816-.21-.807-.208-.621-1.026.044-.2.11-.268.307-.226.234.05.471.093.708.128.136.02.2.074.164.17" fill="#3a0b0b"/>
    <path id="Path_1375" data-name="Path 1375" d="M703.255,699.711a.713.713,0,0,1-.118-.093.769.769,0,0,1-.066-.128c-.411-.79-.407-.784.37-1.2.172-.093.276-.112.358.089.036.089.107.163.141.252.073.193.379.4.222.551a3.982,3.982,0,0,1-.907.53" fill="#3a0b0b"/>
    <path id="Path_1376" data-name="Path 1376" d="M696.662,684.905c0-.713.009-1.425-.005-2.138,0-.222.057-.283.282-.285.883-.008.883-.016.883.875,0,1.051.008,2.1-.005,3.152a.451.451,0,0,0,.262.454c.72.417,1.428.855,2.147,1.275.173.1.2.176.089.358-.459.778-.451.782-1.222.319-.672-.4-1.341-.813-2.019-1.207a.756.756,0,0,1-.416-.738c.014-.688,0-1.377,0-2.065" fill="#ff8c00"/>
  </g>
</svg>
