<svg xmlns="http://www.w3.org/2000/svg" width="13.892" height="13.971" viewBox="0 0 13.892 13.971">
  <path id="Path_525" data-name="Path 525" d="M2941.51,619.467a6.945,6.945,0,1,1-6.968-7,7.119,7.119,0,0,1,6.968,7m-3.721-2.591a.734.734,0,0,0-.382-.555.674.674,0,0,0-.819.127c-.535.53-1.1,1.039-1.587,1.609-.353.407-.562.36-.886-.021-.415-.484-.9-.907-1.341-1.369-.342-.357-.727-.648-1.172-.251-.469.417-.24.883.109,1.257a15.229,15.229,0,0,0,1.563,1.528c.326.26.213.361.011.561-.551.547-1.093,1.1-1.644,1.65a.674.674,0,0,0-.1,1.025c.347.384.724.3,1.067-.043.5-.5,1.016-.986,1.492-1.511.285-.315.476-.376.789-.022a19.224,19.224,0,0,0,1.547,1.552.761.761,0,0,0,1.186.005c.387-.422.109-.753-.18-1.055-.49-.51-.975-1.031-1.505-1.5-.378-.333-.322-.543.02-.852.525-.473,1.006-1,1.506-1.5a.94.94,0,0,0,.325-.642" transform="translate(-2927.62 -612.467)" fill="#df2026"/>
</svg>
