<svg xmlns="http://www.w3.org/2000/svg" width="52.524" height="52.523" viewBox="0 0 52.524 52.523">
  <g id="Group_155" data-name="Group 155" transform="translate(-1887.333 -474.862)">
    <path id="Path_570" data-name="Path 570" d="M1939.107,501.124h-.75a24.763,24.763,0,1,1-7.253-17.51,24.681,24.681,0,0,1,7.253,17.51h1.5a26.262,26.262,0,1,0-26.262,26.261,26.263,26.263,0,0,0,26.262-26.261Z" fill="#ff8c00"/>
    <path id="Path_571" data-name="Path 571" d="M1905.424,491.162a6.45,6.45,0,0,1,4.315-4.745,6.132,6.132,0,0,1,7.291,2.829c.428.749.61,1.085,1.449.32a5.031,5.031,0,0,1,6.231-.339,5.176,5.176,0,0,1,1.937,5.954c-.2.6-.45,1.046.163,1.658a7.832,7.832,0,0,1-5.077,13.394c-.891.073-1.2.257-1.218,1.211a5.472,5.472,0,0,1-4.721,5.375,5.557,5.557,0,0,1-6.359-3.766c-.315-.906-.594-1.065-1.571-.916a8.332,8.332,0,0,1-8.852-3.778,8.6,8.6,0,0,1,0-9.758c.315-.517.609-.825.093-1.483a4.331,4.331,0,0,1,.16-5.766,4.4,4.4,0,0,1,5.659-.461c.113.069.233.127.5.271m-7.078,12.44a7.912,7.912,0,0,0,10.187,7.567c.857-.233,1.249-.224,1.445.8a4.884,4.884,0,0,0,5.831,4.046,4.954,4.954,0,0,0,3.916-5.567c-.076-.758-.037-1.149.956-1.051a6.991,6.991,0,0,0,7.078-4.1,6.894,6.894,0,0,0-1.615-8.007c-.671-.634-.918-1.069-.433-2.018a4.253,4.253,0,0,0-1.777-5.574,4.326,4.326,0,0,0-5.645,1.183c-.263.341-.369.988-.879.913-.6-.087-.457-.8-.62-1.224a5.555,5.555,0,0,0-5.674-3.66,5.638,5.638,0,0,0-4.923,4.794c-.052.365.19.906-.356,1.027-.394.087-.564-.374-.805-.625a3.451,3.451,0,0,0-5.023-.308,3.364,3.364,0,0,0,.017,5.107c.715.673.509,1.047.027,1.648a7.554,7.554,0,0,0-1.707,5.043" fill="#3a0b0b"/>
    <path id="Path_572" data-name="Path 572" d="M1908.436,514.624a1.044,1.044,0,0,1-1.081,1.084.986.986,0,0,1-1.114-1.052.971.971,0,0,1,1.065-1.09c.722-.028,1.061.344,1.13,1.058" fill="#3a0b0b"/>
    <path id="Path_573" data-name="Path 573" d="M1922.695,495.364a.951.951,0,0,0,.859.98c.674.13.786.412.149.78-.841.486-.812.976-.022,1.449.478.286.644.445.009.773-.842.434-.837,1.043-.018,1.476.634.335.644.492.043.853-.792.476-.855.989.062,1.427.575.276.561.539-.031.763-.122.046-.276.006-.4.056-1,.419.148,1.727-.636,1.929-.653.169-1.463-.318-1.8.708-.2.6-.567.809-.821.076-.291-.84-.8-.966-1.538-.727-.6.194-.861.12-.608-.609a.99.99,0,0,0-.722-1.412c-.693-.209-.653-.48-.053-.8.844-.447.831-.96.015-1.387-.6-.316-.658-.492-.046-.875.637-.4.73-.968.016-1.384-.612-.358-.568-.528,0-.891.647-.415.676-.967-.026-1.387-.566-.34-.645-.6.044-.812s.968-.584.663-1.273c-.324-.732.026-.8.6-.6.772.272,1.29.082,1.484-.745.055-.239.128-.461.387-.459.236,0,.377.175.418.435.134.836.731.974,1.378.74.768-.278.884-.056.593.916m-.313,4.4c-.028-.621-.047-1.694-.131-2.761a1.774,1.774,0,0,0-1.777-1.821,1.738,1.738,0,0,0-2.021,1.7,65.537,65.537,0,0,0,.08,6.559,1.808,1.808,0,0,0,1.972,1.782,1.972,1.972,0,0,0,1.87-2.056c.035-.982.007-1.967.007-3.4" fill="#3a0b0b"/>
    <path id="Path_574" data-name="Path 574" d="M1912.8,499.069c-.943-.88-1.412-.586-1.517.61a1.533,1.533,0,0,0-2.177.894c-.084.162-.394-.868-.789-.689-1.257.568-1.9.154-2.263-1.082-.082-.281-.424-.169-.706-.138-.687.076-.707-.326-.333-.716.6-.63.679-1.158.006-1.8-.324-.308-.25-.732.3-.691.834.062,1.121-.344,1.122-1.083,0-.621.121-.917.733-.375.5.44.909.364.979-.349.074-.756.332-.689.83-.31.591.45,1.012.252,1.079-.479.063-.681.269-.8.782-.326.551.5,1.083.719,1.676,0,.3-.368.708-.3.7.242-.022.956.356,1.385,1.33,1.4.682.008.643.368.186.721a.948.948,0,0,0-.061,1.655c.481.424.387.777-.14.786-1,.016-1.365.435-1.288,1.386.021.254-.168.395-.444.348m.675-3.181a1.915,1.915,0,0,0-2.232-2.019,23.039,23.039,0,0,0-4.076,1.657,1.651,1.651,0,0,0-.63,2.345,1.721,1.721,0,0,0,2.328.983c1.123-.435,2.237-.894,3.352-1.35a1.926,1.926,0,0,0,1.258-1.616" fill="#3a0b0b"/>
    <path id="Path_575" data-name="Path 575" d="M1912.778,507.409c.968.783,1.555.444,2.108-.619.219-.42.587.005.638.407.113.882.6,1.077,1.392.819.6-.2.916-.057.564.625a1.274,1.274,0,0,0,.53,1.88c.582.362.38.671-.142.781-.848.179-1.043.671-.866,1.437.154.669-.052.837-.68.5a1,1,0,0,0-1.587.547c-.231.507-.6.58-.755-.086a1.034,1.034,0,0,0-1.477-.859c-.655.213-.793-.081-.583-.549.354-.79.278-1.326-.55-1.725-.427-.206-.463-.569.042-.734a1.375,1.375,0,0,0,.99-1.839c-.06-.28-.051-.547.376-.586m3.485,3.938a1.857,1.857,0,1,0-3.17-1.935,1.868,1.868,0,0,0,.517,2.593c.924.647,1.919.392,2.688-.689Z" fill="#3a0b0b"/>
    <path id="Path_576" data-name="Path 576" d="M1907.607,508.124c-.122-.068-.16-.106-.2-.108-.987-.072-1.174,1.324-1.65,1.259-.565-.077-.836-1.367-1.821-.994-.694.261-.835.058-.689-.552a.932.932,0,0,0-.27-.979c-1-.535-1.117-1.027-.135-1.7a.717.717,0,0,0,.215-.613c-.252-1.068.337-.99,1.133-1.372.988-.475,1.324-.923,2.488-.136.594.4,1.5.047,1.325,1.323-.1.714.97.778,1.125,1.255.213.659-1.092.5-1.02,1.3.016.172-.078.386-.005.515.421.741.231.975-.495.8m-.086-2.478a2.1,2.1,0,0,0-2.034-1.937,1.972,1.972,0,0,0,.057,3.932,2.086,2.086,0,0,0,1.977-1.995" fill="#3a0b0b"/>
    <path id="Path_577" data-name="Path 577" d="M1899.648,503.528a5.6,5.6,0,0,1,1.017-3.343c.219-.287.452-.832.906-.493.378.282-.033.64-.223.907a4.731,4.731,0,0,0-.867,3.273c.031.333.2.823-.3.876s-.4-.467-.471-.788c-.038-.173-.051-.35-.062-.432" fill="#3a0b0b"/>
    <path id="Path_578" data-name="Path 578" d="M1903.757,494.039a1.115,1.115,0,0,1-1.124,1.12,1.014,1.014,0,0,1-1.07-1.215.979.979,0,0,1,1.126-1.018,1.108,1.108,0,0,1,1.068,1.113" fill="#3a0b0b"/>
    <path id="Path_579" data-name="Path 579" d="M1915.905,500.213c-.023.82-.339,1.232-1.043,1.255a.946.946,0,0,1-1.108-1.018.974.974,0,0,1,1.011-1.128,1.046,1.046,0,0,1,1.14.891" fill="#3a0b0b"/>
    <path id="Path_580" data-name="Path 580" d="M1915.37,491.238c-.023.038-.079.247-.2.3a.38.38,0,0,1-.528-.263,2.852,2.852,0,0,0-2.075-1.914c-.227-.066-.431-.17-.375-.452.054-.266.27-.315.511-.32a3.4,3.4,0,0,1,2.669,2.648" fill="#3a0b0b"/>
    <path id="Path_581" data-name="Path 581" d="M1912.157,504.73a.8.8,0,0,1,.863.821c.026.561-.213.966-.817.969a.808.808,0,0,1-.874-.8.879.879,0,0,1,.828-.985" fill="#3a0b0b"/>
    <path id="Path_582" data-name="Path 582" d="M1911.639,496.56c-.543-.127-.889-.417-.839-1.022a.8.8,0,0,1,.882-.8.842.842,0,0,1,.928.918c0,.573-.409.855-.971.909" fill="#3a0b0b"/>
    <path id="Path_583" data-name="Path 583" d="M1909.379,497.535a.885.885,0,0,1-.783.915.812.812,0,0,1-.992-.818.829.829,0,0,1,.883-.947c.517-.024.776.357.892.85" fill="#3a0b0b"/>
    <path id="Path_584" data-name="Path 584" d="M1916.3,511.316c-.653.289-1.355.917-1.9-.1a.725.725,0,0,1,.449-1.075c1.108-.369,1.194.509,1.407,1.212l.039-.034" fill="#3a0b0b"/>
  </g>
</svg>
