<svg xmlns="http://www.w3.org/2000/svg" width="13.88" height="13.967" viewBox="0 0 13.88 13.967">
  <path id="Path_524" data-name="Path 524" d="M2941.5,595.586a6.94,6.94,0,1,1-6.914-7,6.948,6.948,0,0,1,6.914,7m-8.651,3.2a.919.919,0,0,0,.591-.31q2.414-2.433,4.836-4.857a.765.765,0,0,0,.264-.8c-.159-.531-.792-.612-1.266-.142-1.361,1.354-2.721,2.707-4.057,4.085-.3.309-.464.308-.746,0-.49-.54-1.029-1.038-1.539-1.562-.329-.338-.694-.5-1.066-.123-.39.393-.239.778.117,1.129q1.121,1.108,2.228,2.231a.932.932,0,0,0,.638.351" transform="translate(-2927.62 -588.587)" fill="#41a649"/>
</svg>
