<svg xmlns="http://www.w3.org/2000/svg" width="32.8" height="31.8" viewBox="0 0 32.8 31.8">
  <path id="Path_655" data-name="Path 655" d="M1306.647,141.094l.017.014-.012.014q-.48.468-.948.947l-.051.036-.066-.029a12.219,12.219,0,0,0-3.937-1.645,10.434,10.434,0,0,0-2.24-.263q-.269,0-.54.018a11.685,11.685,0,0,0-6.881,2.654,12.763,12.763,0,0,0-2.488,2.86,11.373,11.373,0,0,0-1.447,3.585,10.058,10.058,0,0,0-.285,2.418q0,.372.024.745a11.3,11.3,0,0,0,1.021,3.971,11.886,11.886,0,0,0,3.272,4.243,11.238,11.238,0,0,0,5.2,2.4,10.091,10.091,0,0,0,1.922.182c.114,0,.228,0,.343-.006a10.881,10.881,0,0,0,3.163-.507,13.44,13.44,0,0,0,3.6-1.869,10.444,10.444,0,0,0,2.4-2.492,9.783,9.783,0,0,0,1.372-2.581,15.8,15.8,0,0,0,.647-2.513c.042-.274.044-.544.071-.8a9.967,9.967,0,0,0,.052-1.005,8.894,8.894,0,0,0-.05-.951,12.046,12.046,0,0,0-.48-2.161,10.178,10.178,0,0,0-.6-1.555l-.033-.11.077-.145c.285-.325.612-.62.912-.951l.015-.013.011.017a13.347,13.347,0,0,1,1.538,6.125c0,.132,0,.263-.007.4a12.333,12.333,0,0,1-.735,4.023,13.642,13.642,0,0,1-2.5,4.174,12.505,12.505,0,0,1-3.651,2.881,13.172,13.172,0,0,1-3.588,1.258,10.876,10.876,0,0,1-2,.222c-.116,0-.228,0-.337-.01h-.2a12.519,12.519,0,0,1-9.411-4.161,13.959,13.959,0,0,1-2.122-3.065,9.993,9.993,0,0,1-.911-2.326,16.788,16.788,0,0,1-.435-3.14c-.005-.123-.006-.245-.006-.368a13,13,0,0,1,.365-2.9,12.787,12.787,0,0,1,1.77-4.07,13.2,13.2,0,0,1,3.848-3.818,12.307,12.307,0,0,1,3.23-1.481,12.762,12.762,0,0,1,2.57-.5q.541-.053,1.085-.053.4,0,.794.026a13.659,13.659,0,0,1,2.779.468,13.023,13.023,0,0,1,3.869,1.825m-1.434,10.153a3.5,3.5,0,1,1-3.5,3.438,3.523,3.523,0,0,1,3.5-3.438m0,5.394a1.91,1.91,0,0,0,1.9-1.942,1.911,1.911,0,1,0-1.9,1.942m-12.289-7.58a2.181,2.181,0,0,1-2.183-2.159,2.17,2.17,0,1,1,4.339-.025,2.174,2.174,0,0,1-2.156,2.184m6.827-3.574a3.025,3.025,0,0,1,4.809-2.585c.314.228.317.223.028.491-.723.669-1.4,1.381-2.1,2.077a2.63,2.63,0,0,0-.691,1.181,1.669,1.669,0,0,1-.413.677c-.123.136-.252.267-.372.4-.065.075-.111.087-.188.011a3.249,3.249,0,0,1-1.035-1.8c-.027-.169-.03-.343-.039-.454m-1.824,14.352a1.545,1.545,0,0,1-1.642,1.561,1.618,1.618,0,0,1-1.422-1.606,1.544,1.544,0,0,1,1.594-1.48,1.477,1.477,0,0,1,1.47,1.525m2.272-.408a1.393,1.393,0,1,1,2.786.014,1.429,1.429,0,0,1-1.407,1.422,1.454,1.454,0,0,1-1.379-1.436m-6.762-.935a1.135,1.135,0,0,1-1.108-1.112,1.1,1.1,0,0,1,2.2-.018,1.152,1.152,0,0,1-1.094,1.13m5.778-2.847a1.094,1.094,0,0,1-1.037,1.076,1.077,1.077,0,0,1-1.092-1.088,1.053,1.053,0,0,1,1.083-1.067,1.03,1.03,0,0,1,1.046,1.079m-1.38-5.216a1.035,1.035,0,0,1,1.012,1.047,1.09,1.09,0,0,1-.994,1.066,1.124,1.124,0,0,1-1.116-1.083,1.065,1.065,0,0,1,1.1-1.03m.846-6.24a.95.95,0,1,1-1.9-.022.951.951,0,0,1,.976-.928.929.929,0,0,1,.923.95m10.2,5.5a.951.951,0,0,1-.938.949.937.937,0,0,1-.96-.94.949.949,0,1,1,1.9-.009m-16.374,4.237a.7.7,0,0,1-.73-.7.753.753,0,0,1,.731-.754.67.67,0,0,1,.7.687.716.716,0,0,1-.7.771m26.63-18.634a2.475,2.475,0,0,1-.674,1.774c-.87.954-1.812,1.838-2.718,2.757-.305.309-.616.611-.929.912a.121.121,0,0,0-.016.185,1.23,1.23,0,0,1-.133,1.627c-.482.531-.975,1.053-1.487,1.557-.08.079-.133.106-.228.011-.424-.425-.861-.837-1.283-1.264-.117-.119-.19-.115-.3,0-.966,1.063-1.979,2.081-3.017,3.073q-1.008.962-2,1.942c-.2.2-.385.4-.574.606a1.687,1.687,0,0,1-.983.522,1.152,1.152,0,0,0-.638.333q-1.038,1.041-2.08,2.076a1.168,1.168,0,0,1-.822.38,1.067,1.067,0,0,1-.989-.708,1,1,0,0,1,.269-1.1q1.008-1.033,2.047-2.037a1.3,1.3,0,0,0,.464-.867,1.323,1.323,0,0,1,.45-.832c.782-.777,1.559-1.559,2.338-2.338q1.517-1.518,3.033-3.035a2.917,2.917,0,0,1,.309-.28c.1-.072.1-.128.022-.214-.226-.255-.495-.464-.738-.7-.208-.2-.452-.364-.641-.585-.043-.05-.1-.092-.022-.164.541-.521,1.062-1.065,1.626-1.559a1.075,1.075,0,0,1,1.478-.1c.139.083.205.068.314-.055a19.726,19.726,0,0,1,1.512-1.508c.658-.6,1.263-1.255,1.906-1.871a3.393,3.393,0,0,1,.98-.74,2.486,2.486,0,0,1,3.5,1.863,2.63,2.63,0,0,1,.019.337M1301.3,151.465a.772.772,0,0,0,.427-.219,25.333,25.333,0,0,0,2.145-2.1c.252-.271.495-.535.912-.488a.308.308,0,0,0,.082-.015,1.974,1.974,0,0,0,.976-.639q2.359-2.342,4.7-4.7.312-.313.627-.624c.068-.067.1-.124.013-.209q-.8-.791-1.6-1.589c-.089-.089-.146-.1-.243-.005-.669.676-1.345,1.346-2.018,2.018q-1.8,1.8-3.6,3.6a1.148,1.148,0,0,0-.4.885.612.612,0,0,1-.192.478c-.16.171-.317.344-.481.51q-.936.94-1.875,1.878a.665.665,0,0,0-.19.757.8.8,0,0,0,.712.46m.016-.314a.369.369,0,0,1-.4-.452.883.883,0,0,1,.237-.429c.645-.653,1.314-1.281,1.941-1.952.073-.077.146-.153.222-.226a.924.924,0,0,0,.337-.745.873.873,0,0,1,.28-.639c1.134-1.187,2.316-2.326,3.468-3.495a.354.354,0,0,1,.4-.1,2.541,2.541,0,0,0,1.381.031,2.336,2.336,0,0,1,.942-.025c.033.006.075,0,.084.039s-.034.067-.058.1c-.294.351-.646.643-.967.967-.753.758-1.52,1.5-2.262,2.269q-.742.768-1.506,1.514a1.084,1.084,0,0,1-.939.37.486.486,0,0,0-.418.2q-1.131,1.134-2.263,2.267a.879.879,0,0,1-.482.315" transform="translate(-1286.337 -132.874)" fill="#3a0b0b"/>
</svg>
