<svg xmlns="http://www.w3.org/2000/svg" width="19.601" height="22.092" viewBox="0 0 19.601 22.092">
  <g id="Group_157" data-name="Group 157" transform="translate(-2173.378 -231.664)">
    <path id="Path_600" data-name="Path 600" d="M2173.428,236.714c.021-.438-.069-.858-.046-1.284.007-.14.031-.208.187-.245a30.054,30.054,0,0,0,3.195-.9,27.207,27.207,0,0,0,3.8-1.73,6.645,6.645,0,0,1,2.178-.862,3.235,3.235,0,0,1,1.56.174,18.753,18.753,0,0,1,2.177,1.055,24.681,24.681,0,0,0,4.03,1.666c.756.233,1.524.414,2.292.6.128.031.173.079.175.212.011.576-.036,1.151-.058,1.725a19.524,19.524,0,0,1-.212,2.144,23.245,23.245,0,0,1-.64,2.958,19.993,19.993,0,0,1-3.424,6.817,20.165,20.165,0,0,1-2.3,2.5,15.946,15.946,0,0,1-2.827,2.108.581.581,0,0,1-.678,0,16.834,16.834,0,0,1-2.5-1.718,16.335,16.335,0,0,1-1.217-1.116,17.7,17.7,0,0,1-2.658-3.4,20.98,20.98,0,0,1-1.473-2.958,21.822,21.822,0,0,1-1.02-3.334,17.777,17.777,0,0,1-.325-1.881c-.073-.623-.156-1.244-.182-1.872-.01-.22-.022-.442-.034-.65m.911-.211c-.015.152.034.357.038.563a15.875,15.875,0,0,0,.145,1.771,22.123,22.123,0,0,0,.421,2.336,20.506,20.506,0,0,0,1.433,4.109,18.083,18.083,0,0,0,3.239,4.692c.268.28.557.54.843.8a10.13,10.13,0,0,0,.772.679,14.214,14.214,0,0,0,1.809,1.224.229.229,0,0,0,.267,0,18.35,18.35,0,0,0,2.982-2.375c.328-.311.615-.66.916-1a17.012,17.012,0,0,0,1.221-1.558,19.354,19.354,0,0,0,1.944-3.525,19.689,19.689,0,0,0,.957-2.845,20.99,20.99,0,0,0,.57-3.259c.062-.662.125-1.324.126-1.99,0-.125-.026-.18-.17-.211-.717-.157-1.417-.372-2.116-.593a23.69,23.69,0,0,1-3.322-1.384c-.674-.333-1.338-.685-2.012-1.017a2.735,2.735,0,0,0-1.218-.332,2.987,2.987,0,0,0-1.315.373c-1.188.585-2.347,1.228-3.57,1.741a23.281,23.281,0,0,1-3.453,1.132c-.5.124-.507.116-.507.664" fill="#3a0b0b"/>
    <path id="Path_601" data-name="Path 601" d="M2179.412,242.378a6.063,6.063,0,0,1,.539-.6c.075-.072.117-.1.207-.01.507.474,1.018.945,1.536,1.408.31.276.63.541.921.838.069.069.118.107.2-.014.56-.875,1.131-1.743,1.695-2.616.656-1.015,1.315-2.029,1.956-3.053.114-.181.191-.194.334-.064a.842.842,0,0,0,.139.1c.148.09.39.157.407.29s-.154.3-.25.45c-.647,1-1.3,1.99-1.942,2.987-.711,1.1-1.423,2.195-2.121,3.3-.1.16-.171.109-.26.029-.346-.312-.686-.63-1.032-.942q-1.059-.955-2.122-1.907c-.07-.063-.137-.128-.2-.189" fill="#ff8c00"/>
  </g>
</svg>
