<svg xmlns="http://www.w3.org/2000/svg" width="60.805" height="60.779" viewBox="0 0 60.805 60.779">
  <g id="Group_121" data-name="Group 121" transform="translate(-2502.087 -118.184)">
    <path id="Path_56" data-name="Path 56" d="M2559.747,149.4q1.089,0,2.177-.01a1.128,1.128,0,0,0,.7-.205.753.753,0,0,0,.265-.625.732.732,0,0,0-.263-.62,1.243,1.243,0,0,0-.707-.22c-.251-.014-.5-.017-.76-.017h-.573a8.123,8.123,0,0,1-1.159-.051.944.944,0,0,1-.667-.361,1.319,1.319,0,0,1-.2-.505,9.7,9.7,0,0,1-.133-1.049,26.172,26.172,0,0,0-21.885-23.029,4.2,4.2,0,0,0-.6-.054,1.02,1.02,0,0,0-.6.147.818.818,0,0,0-.3.6l-.013.17a.679.679,0,0,0,.342.624,2.3,2.3,0,0,0,.858.262,24.28,24.28,0,0,1,20.492,21.591,3.568,3.568,0,0,1,.022.386,1.139,1.139,0,0,1-1.308,1.295c-.1,0-.2,0-.308-.013-.388-.035-.779-.047-1.173-.047-.453,0-.91.016-1.367.032l-.18,0c-.139,0-.28,0-.415,0a1.778,1.778,0,0,0-.836.138c-.19.113-.32.282-.325.723h0l0,.015v.013c.012.417.139.58.327.69a1.769,1.769,0,0,0,.82.137c.156,0,.315-.006.472-.006h.085c.575.008,1.151.01,1.727.01.785,0,1.572,0,2.36,0v-.02h.175c.981,0,1.963,0,2.944,0" fill="#ff8c00"/>
    <path id="Path_57" data-name="Path 57" d="M2533.315,175.872a1.3,1.3,0,0,1,.331-1,1.65,1.65,0,0,1,1.054-.361,26.182,26.182,0,0,0,23.488-21.412,8.846,8.846,0,0,0,.167-1.468v-.069a.734.734,0,0,0-.642-.782l-.158-.014a.8.8,0,0,0-.75.513,3.451,3.451,0,0,0-.276,1,22.633,22.633,0,0,1-4.277,10.478,24.209,24.209,0,0,1-17.583,10.062,2.9,2.9,0,0,1-.326.02,1.079,1.079,0,0,1-.782-.258,1.124,1.124,0,0,1-.281-.842l0-.143c.037-.71.052-1.423.052-2.135q0-.447-.006-.894l0-.177v-.111a2.493,2.493,0,0,0-.125-.975c-.117-.236-.283-.385-.754-.394a.7.7,0,0,0-.742.474,3.349,3.349,0,0,0-.121,1.11q0,.913,0,1.83,0,1.192,0,2.388h.015v.175c0,.961-.006,1.922-.006,2.882,0,.707,0,1.413.014,2.119a1.347,1.347,0,0,0,.212.771.773.773,0,0,0,.67.3.654.654,0,0,0,.634-.3,1.671,1.671,0,0,0,.162-.8c.009-.568.03-1.132.03-1.693v-.294Z" fill="#ff8c00"/>
    <path id="Path_58" data-name="Path 58" d="M2505.281,147.714c-.741,0-1.481,0-2.22.013a1.164,1.164,0,0,0-.7.2.742.742,0,0,0-.27.623.726.726,0,0,0,.265.618,1.261,1.261,0,0,0,.709.214c.4.018.8.034,1.2.034.243,0,.486-.006.727-.021l.2-.008a1.222,1.222,0,0,1,.928.318,1.51,1.51,0,0,1,.337,1.014,16.244,16.244,0,0,0,.442,3.219c2.733,10.873,9.546,17.564,20.433,20.195a4.98,4.98,0,0,0,1.152.134l.245-.006a.775.775,0,0,0,.793-.766l0-.084a.752.752,0,0,0-.612-.732c-.488-.147-1.008-.227-1.532-.334a24.349,24.349,0,0,1-19.231-21.7l-.011-.219a1.042,1.042,0,0,1,.251-.762,1.094,1.094,0,0,1,.813-.266h.054c.444.009.889.011,1.335.011.64,0,1.282-.006,1.924-.006l.275,0a2.213,2.213,0,0,0,.953-.154.69.69,0,0,0,.379-.689v-.02a.689.689,0,0,0-.374-.693,2.172,2.172,0,0,0-.938-.157q-1.018,0-2.039,0l-2.419,0v.023h-.175c-.968,0-1.935,0-2.9,0" fill="#ff8c00"/>
    <path id="Path_59" data-name="Path 59" d="M2531.049,124.316a.691.691,0,0,1,.351.306,2.666,2.666,0,0,1,.185,1.209c.012,1.182-.006,2.36.055,3.529a.986.986,0,0,0,.234.621.793.793,0,0,0,.6.249.706.706,0,0,0,.576-.237,1.234,1.234,0,0,0,.244-.638,7.581,7.581,0,0,0,.069-.948q0-.969,0-1.937,0-1.076,0-2.151h-.076v-.176q0-1.366,0-2.733,0-1.074,0-2.146a1.5,1.5,0,0,0-.163-.784.686.686,0,0,0-.647-.3.743.743,0,0,0-.657.307,1.535,1.535,0,0,0-.215.783c-.017.3-.035.6-.035.889a4.937,4.937,0,0,0,.026.546,3.123,3.123,0,0,1,.018.338,1.365,1.365,0,0,1-.438,1.113,2.173,2.173,0,0,1-1.247.4,26.126,26.126,0,0,0-23.19,21.558,7.389,7.389,0,0,0-.134,1.061,1,1,0,0,0,.155.605.887.887,0,0,0,.647.312l.165.011a.629.629,0,0,0,.423-.132.813.813,0,0,0,.229-.36,7.429,7.429,0,0,0,.212-1.129,24.281,24.281,0,0,1,21.371-20.195,6.349,6.349,0,0,1,.725-.056,1.376,1.376,0,0,1,.519.08" fill="#ff8c00"/>
    <path id="Path_60" data-name="Path 60" d="M2550.634,174.56a1.427,1.427,0,0,0-.4-.961,1.234,1.234,0,0,0-.876-.41,1.47,1.47,0,0,0-1,.434,1.379,1.379,0,0,0-.439.946v.027a1.327,1.327,0,0,0,.424.918,1.388,1.388,0,0,0,.946.418,1.4,1.4,0,0,0,1.339-1.347Z" fill="#3a0b0b"/>
    <path id="Path_61" data-name="Path 61" d="M2531.542,150.756a1.089,1.089,0,0,0-.35-.762,1.157,1.157,0,0,0-.793-.343l-.067,0h0a1.252,1.252,0,0,0-.843.346,1.394,1.394,0,0,0-.343.8,1.36,1.36,0,0,0,.354.849,1.036,1.036,0,0,0,.719.38l.064,0a1.5,1.5,0,0,0,.884-.35,1.24,1.24,0,0,0,.375-.84Z" fill="#3a0b0b"/>
    <path id="Path_62" data-name="Path 62" d="M2547.323,148.6a3.058,3.058,0,0,0-.1-.774,2.885,2.885,0,0,0-2.872-2.1c-.095,0-.191,0-.289.013-.931.076-1.881.295-2.867.432h-.008a2.874,2.874,0,0,1-.355.027,1.216,1.216,0,0,1-.54-.112.951.951,0,0,1-.4-.4h-.034l-.016-.063-.065-.064.043-.043a.93.93,0,0,1-.071-.3.884.884,0,0,1,.273-.624,3.148,3.148,0,0,1,.385-.315c.789-.6,1.6-1.141,2.319-1.752a3.038,3.038,0,0,0,1.164-2.3,2.822,2.822,0,0,0-.938-2.055,2.737,2.737,0,0,0-1.9-.779,3.042,3.042,0,0,0-2.37,1.221c-.568.715-1.085,1.494-1.664,2.252a2.626,2.626,0,0,1-.373.411,1,1,0,0,1-.646.255,1.013,1.013,0,0,1-.458-.113.893.893,0,0,1-.405-.384.958.958,0,0,1-.1-.458,3.135,3.135,0,0,1,.068-.537,19.365,19.365,0,0,0,.421-3.08c0-.115,0-.229-.009-.342a2.774,2.774,0,0,0-2.628-2.629l-.172-.005a2.8,2.8,0,0,0-2.083.833,3.149,3.149,0,0,0-.8,2.218c0,.137.008.281.022.431.074.8.3,1.633.413,2.517a5.143,5.143,0,0,1,.076.665,1.115,1.115,0,0,1-.108.511.929.929,0,0,1-.453.424l0,0h0a.983.983,0,0,1-.4.091.947.947,0,0,1-.732-.4c-.145-.181-.249-.37-.329-.47-.559-.722-1.051-1.472-1.588-2.16a2.921,2.921,0,0,0-2.351-1.254,3.264,3.264,0,0,0-.722.084,2.6,2.6,0,0,0-2.081,2.094,3.324,3.324,0,0,0-.082.726,2.84,2.84,0,0,0,1.251,2.337c.806.6,1.638,1.19,2.457,1.806a2.6,2.6,0,0,1,.367.315.9.9,0,0,1,.25.605v.011l0,.011-.047.266,0,.012a.821.821,0,0,1-.4.466,1.047,1.047,0,0,1-.486.105,2.987,2.987,0,0,1-.361-.028c-1.107-.145-2.181-.375-3.241-.458-.094-.008-.187-.011-.28-.012a2.8,2.8,0,0,0-2.915,2.757v.073a2.773,2.773,0,0,0,.82,2.068,3.124,3.124,0,0,0,2.2.791,18.369,18.369,0,0,0,3.072-.42,3.916,3.916,0,0,1,.7-.1.986.986,0,0,1,.506.124.941.941,0,0,1,.393.47v0a.866.866,0,0,1-.29,1.047c-.167.143-.342.245-.443.325-.753.573-1.523,1.108-2.266,1.662a2.851,2.851,0,0,0-1.281,2.35,3.336,3.336,0,0,0,.077.7,2.693,2.693,0,0,0,2.181,2.152,3.012,3.012,0,0,0,.665.08,2.872,2.872,0,0,0,2.276-1.257c.595-.755,1.155-1.553,1.747-2.339.073-.094.166-.255.3-.408a.876.876,0,0,1,.666-.335l.022,0,.256.046.018,0a.9.9,0,0,1,.511.419,1.1,1.1,0,0,1,.12.533,4.2,4.2,0,0,1-.046.51c-.138,1.118-.4,2.189-.441,3.226v.008l0,.108a2.9,2.9,0,0,0,2.826,2.94,2.819,2.819,0,0,0,2.832-2.917v-.108c-.028-.92-.242-1.871-.372-2.858a5.229,5.229,0,0,1-.1-.735,1.017,1.017,0,0,1,.136-.538,1,1,0,0,1,.5-.4h0l.082-.042.019.019a.858.858,0,0,1,1.022.319c.154.179.263.369.354.486.576.761,1.08,1.548,1.668,2.223a3.019,3.019,0,0,0,2.27,1.112,2.8,2.8,0,0,0,2.017-.893,2.739,2.739,0,0,0,.759-1.919,3.075,3.075,0,0,0-1.145-2.382c-.645-.523-1.354-1-2.043-1.535-.107-.087-.3-.193-.489-.342a.967.967,0,0,1-.405-.758,1.116,1.116,0,0,1,.111-.466.926.926,0,0,1,.9-.576,4.522,4.522,0,0,1,.7.1c.907.143,1.816.28,2.724.419a3.878,3.878,0,0,0,1.5-.3,2.844,2.844,0,0,0,1.636-2.568m-3.014,1.5a2.84,2.84,0,0,1-.37-.025c-.861-.114-1.7-.28-2.534-.4a4.257,4.257,0,0,0-.616-.049,2.224,2.224,0,0,0-2.217,1.4,2.2,2.2,0,0,0-.207.9,2.529,2.529,0,0,0,1.149,1.949c.656.52,1.356,1.005,2.045,1.527a3.047,3.047,0,0,1,.63.6,1.5,1.5,0,0,1,.31.91,1.775,1.775,0,0,1-.049.406,1.341,1.341,0,0,1-1,1.025,1.9,1.9,0,0,1-.438.054,1.866,1.866,0,0,1-1.507-.9c-.574-.793-1.134-1.587-1.728-2.344a2.244,2.244,0,0,0-1.793-.948,2.519,2.519,0,0,0-.924.187,1.91,1.91,0,0,0-.985.811,3.05,3.05,0,0,0-.352,1.562l0,.159c.111.714.271,1.705.42,2.7a4.112,4.112,0,0,1,.048.577v.035a1.559,1.559,0,0,1-.748,1.388,1.412,1.412,0,0,1-.734.21,1.531,1.531,0,0,1-.819-.249h0a1.5,1.5,0,0,1-.726-1.322v-.055h0a3.827,3.827,0,0,1,.066-.629c.177-.987.308-1.992.456-3a2.767,2.767,0,0,0,.031-.4,2.031,2.031,0,0,0-1.3-1.883,2.194,2.194,0,0,0-1-.253,1.981,1.981,0,0,0-1.529.75c-.667.783-1.262,1.65-1.877,2.514a3.743,3.743,0,0,1-.627.724,1.549,1.549,0,0,1-1,.371,1.825,1.825,0,0,1-.308-.027,1.414,1.414,0,0,1-1.187-1.158h0l-.032-.08.017-.017a1.5,1.5,0,0,1-.026-.256,1.469,1.469,0,0,1,.41-1.009,4.872,4.872,0,0,1,.711-.6c.759-.571,1.538-1.087,2.255-1.652a2.383,2.383,0,0,0,1.059-1.858,2.19,2.19,0,0,0-.167-.815,2.122,2.122,0,0,0-2.131-1.369,3.611,3.611,0,0,0-.453.03c-.948.117-1.9.313-2.884.456a4.082,4.082,0,0,1-.562.045h-.035a1.583,1.583,0,0,1-1.4-.742,1.44,1.44,0,0,1-.239-.776,1.4,1.4,0,0,1,.248-.781h0l0,0a1.568,1.568,0,0,1,1.355-.732h.039a3.281,3.281,0,0,1,.606.064c.982.187,1.985.312,3,.46a3.111,3.111,0,0,0,.444.034,2.036,2.036,0,0,0,1.978-1.206,2.411,2.411,0,0,0,.2-.942,2.273,2.273,0,0,0-.9-1.795c-.847-.67-1.747-1.293-2.638-1.947a2.777,2.777,0,0,1-.6-.575,1.431,1.431,0,0,1-.29-.86,1.448,1.448,0,0,1,.049-.386,1.526,1.526,0,0,1,1.072-1.106,1.473,1.473,0,0,1,.435-.067,1.386,1.386,0,0,1,.852.3,3.108,3.108,0,0,1,.552.584c.649.849,1.25,1.719,1.9,2.536a2.241,2.241,0,0,0,1.771.948,2.322,2.322,0,0,0,.932-.205,2.172,2.172,0,0,0,1.3-2.052,3.192,3.192,0,0,0-.022-.35c-.133-1.039-.3-2.077-.477-3.115a2.357,2.357,0,0,1-.041-.441h0v-.031a1.577,1.577,0,0,1,.658-1.305h0a1.443,1.443,0,0,1,.872-.309,1.484,1.484,0,0,1,.8.252,1.539,1.539,0,0,1,.71,1.353v.027a2.958,2.958,0,0,1-.028.391c-.134.985-.338,1.939-.437,2.88v.005a3.831,3.831,0,0,0-.026.447,2.326,2.326,0,0,0,.371,1.362,2.246,2.246,0,0,0,1.115.8,2.445,2.445,0,0,0,.84.164,2.4,2.4,0,0,0,1.9-1.167c.583-.765,1.132-1.577,1.75-2.354a1.736,1.736,0,0,1,1.308-.759,1.438,1.438,0,0,1,1.024.48,1.6,1.6,0,0,1,.516,1.123,1.7,1.7,0,0,1-.752,1.318c-.787.61-1.6,1.144-2.345,1.739a2.358,2.358,0,0,0-1.072,1.833,2.5,2.5,0,0,0,.211.947,2.258,2.258,0,0,0,.785,1.055,2.189,2.189,0,0,0,1.275.333,4.636,4.636,0,0,0,.5-.028c.912-.1,1.826-.259,2.747-.413a2.866,2.866,0,0,1,.49-.045,1.523,1.523,0,0,1,1.3.642,1.477,1.477,0,0,1,.282.86,1.554,1.554,0,0,1-.245.823l-.106-.065.106.065a1.575,1.575,0,0,1-1.4.722" fill="#3a0b0b"/>
    <path id="Path_63" data-name="Path 63" d="M2555.719,122.335a1.393,1.393,0,0,0-.931-.438h-.026a1.31,1.31,0,0,0-.9.417,1.369,1.369,0,0,0-.416.927v.03a1.285,1.285,0,0,0,1.314,1.292,1.423,1.423,0,0,0,.963-.4,1.257,1.257,0,0,0,.415-.891,1.393,1.393,0,0,0-.423-.934l.089-.087Z" fill="#3a0b0b"/>
    <path id="Path_64" data-name="Path 64" d="M2535.439,146v-.045a1.717,1.717,0,0,0-.572-1.162,1.868,1.868,0,0,0-1.235-.532,1.905,1.905,0,0,0-1.831,1.795v.033a1.776,1.776,0,0,0,.524,1.235,1.724,1.724,0,0,0,1.215.53h.037a1.944,1.944,0,0,0,1.863-1.854" fill="#3a0b0b"/>
    <path id="Path_65" data-name="Path 65" d="M2513.056,174.569a1.308,1.308,0,0,0-1.287-1.323h-.024a1.435,1.435,0,0,0-1.4,1.261v.006l0,.058v.008a1.37,1.37,0,0,0,.423.936,1.387,1.387,0,0,0,.95.429,1.449,1.449,0,0,0,1.342-1.34Z" fill="#3a0b0b"/>
    <path id="Path_66" data-name="Path 66" d="M2510.317,126.27a3.037,3.037,0,0,0-.923-2.126,3.094,3.094,0,0,0-2.156-.924,3,3,0,0,0-3.053,3.025v.032a3.13,3.13,0,0,0,2.929,3.035h.072a3.238,3.238,0,0,0,3.13-2.944Zm-1.809,1.118a1.665,1.665,0,0,1-1.13.508h-.03a1.873,1.873,0,0,1-1.259-.415,1.587,1.587,0,0,1-.49-.976l-.028.014-.014-.183v-.012l-.006-.147v-.005a1.581,1.581,0,0,1,.43-1.133h0a1.627,1.627,0,0,1,1.027-.44v-.026h.114l.147-.049v.051a1.714,1.714,0,0,1,1.124.4,1.607,1.607,0,0,1,.51,1.172v.1a1.674,1.674,0,0,1-.4,1.144" fill="#3a0b0b"/>
    <path id="Path_67" data-name="Path 67" d="M2515.712,121.92a1.344,1.344,0,0,0-1.289-1.337h-.038a1.423,1.423,0,0,0-.933.4,1.3,1.3,0,0,0-.443.864v.009l0,.037a1.428,1.428,0,0,0,.428.964,1.363,1.363,0,0,0,.938.438,1.348,1.348,0,0,0,.918-.418,1.367,1.367,0,0,0,.422-.924Z" fill="#3a0b0b"/>
    <path id="Path_68" data-name="Path 68" d="M2507.219,168.987a1.33,1.33,0,0,0,1.38-1.271V167.7a1.428,1.428,0,0,0-.4-.946,1.341,1.341,0,0,0-.9-.444l-.044,0a1.35,1.35,0,0,0-.941.421,1.415,1.415,0,0,0-.421.969,1.248,1.248,0,0,0,1.325,1.292" fill="#3a0b0b"/>
  </g>
</svg>
