<svg xmlns="http://www.w3.org/2000/svg" width="32.412" height="32.129" viewBox="0 0 32.412 32.129">
  <g id="Group_258" data-name="Group 258" transform="translate(-681.292 -711.721)">
    <path id="Path_1377" data-name="Path 1377" d="M699.865,723.34c-.049-.386-.053-.808.408-.857.507-.055.608.371.629.785.012.238.026.476.02.714a.579.579,0,0,0,.35.568c.278.146.431-.038.614-.2a4.476,4.476,0,0,1,.709-.533c.321-.188.7-.317.928.105.208.382-.08.6-.392.761-.721.362-.869.833-.424,1.552.241.391.549.391.9.409.389.019.853-.01.846.538-.006.5-.44.465-.8.468-.291,0-.631-.065-.685.363-.048.386-.35.776.049,1.161a3.778,3.778,0,0,1,.676.819.5.5,0,0,1-.136.71c-.291.2-.489.065-.7-.126-.247-.219-.346-.809-.75-.592a3.073,3.073,0,0,0-.936,1.053c-.266.4.2.483.4.645.312.258.849.453.5.948-.318.443-.731.118-1.1-.1-.313-.188-.572-.621-1.027-.077-.436.522-.03.721.218,1.016s.746.626.318,1.037c-.451.435-.8-.059-1.116-.349-.251-.23-.4-.573-.864-.267-.393.257-.535.506-.365.942a1.334,1.334,0,0,1,.07.438c.015.434,0,.9-.575.922-.521.022-.569-.387-.611-.8-.039-.385.052-.848-.535-.987-.679-.161-1.159-.086-1.247.727-.044.4-.123.834-.674.706s-.393-.568-.3-.941a5.006,5.006,0,0,1,.232-.765c.153-.359-.069-.535-.282-.759-.252-.265-.448-.158-.7-.011a3.487,3.487,0,0,1-.81.352c-.29.081-.624.109-.728-.284-.091-.344.088-.542.421-.666.6-.223,1.18-.458.868-1.332-.111-.314-.212-.518-.539-.614a4,4,0,0,1-.73-.325c-.319-.17-.691-.364-.466-.807s.562-.258.921-.125c.337.124.688.665,1.085-.036.329-.582.261-.914-.332-1.173-.217-.095-.426-.21-.638-.317-.307-.153-.31-.416-.217-.685a.417.417,0,0,1,.595-.227,3.113,3.113,0,0,1,1.03.509c.633.574.923.084,1.224-.336.41-.573-.291-.478-.465-.7a2.6,2.6,0,0,0-.5-.361c-.3-.226-.443-.542-.2-.846.207-.258.515-.2.8-.005.315.221.651.413.986.6.255.144.442.019.62-.175.221-.239.13-.406-.068-.6a2.027,2.027,0,0,1-.622-.857c-.073-.254-.131-.533.178-.706s.508-.022.685.206c.091.118.154.258.254.365.256.273.472.635.95.3.539-.372.106-.656-.052-.965a3.316,3.316,0,0,0-.261-.359.471.471,0,0,1,.069-.711.486.486,0,0,1,.719.06,6.863,6.863,0,0,1,.638.96c.16.284.247.633.686.541.476-.1.192-.477.262-.715m1.775,4.306a2.124,2.124,0,0,0-1.277-2.033,2.086,2.086,0,0,0-2.438.532c-.971,1.125-1.929,2.264-2.85,3.43a2.053,2.053,0,0,0,.205,2.956,2.092,2.092,0,0,0,3.084-.279c.951-1.1,1.86-2.242,2.786-3.367a1.868,1.868,0,0,0,.49-1.239" fill="#3a0b0b"/>
    <path id="Path_1378" data-name="Path 1378" d="M701.249,742.74a4.38,4.38,0,0,0-.006-.645c-.045-.269-.289-.366-.5-.456-.227-.1-.306.113-.383.263-.165.319-.333.756-.763.509-.487-.28-.113-.678.049-1,.459-.909.36-1.063-.712-1.088-.344-.008-.82.066-.812-.442.007-.4.393-.432.751-.423.244.007.628.034.581-.359-.054-.452.465-1-.213-1.359-.319-.17-.689-.4-.393-.819.267-.381.6-.1.852.085.407.3.573-.075.825-.239.368-.24.23-.467.02-.726-.2-.244-.338-.525,0-.762.3-.209.485.028.671.226.26.278.483.633.962.457.436-.161,1-.216.556-.93a.489.489,0,0,1,.216-.756c.317-.118.477.178.592.416.182.375.284.8.878.565s.407-.615.28-1.018a.376.376,0,0,1,.309-.533.4.4,0,0,1,.535.327c.02.087.047.173.064.26a.8.8,0,0,0,.7.749c.463.1.576-.172.754-.43.223-.324.514-.584.885-.324.352.246.158.578-.053.852-.508.663.291.837.487,1.218.251.488.537.066.785-.094.271-.175.557-.469.849-.108.356.441-.131.608-.36.836a1.718,1.718,0,0,1-.439.3c-.373.188-.325.5-.312.841.015.394.3.34.541.436.3.123.8.148.705.644-.109.544-.508.312-.85.225a.684.684,0,0,0-.905.33c-.184.37-.671.66-.206,1.15a.906.906,0,0,1,.183.4c.064.255.171.564-.137.714-.345.169-.533-.065-.685-.363s-.166-.72-.693-.654c-.741.092-.9.348-.659,1.062.1.3.424.7-.1.9-.432.168-.54-.227-.672-.523-.012-.027-.023-.055-.037-.081-.172-.327-.236-.771-.791-.646-.571.129-.308.534-.31.856,0,.351.08.81-.383.878-.522.078-.506-.37-.493-.735.016-.431-.169-.58-.6-.511-.34.054-.749-.065-.7.519.033.38.078.889-.487.834-.547-.054-.341-.591-.381-.835m-.553-3.9a1.968,1.968,0,0,0,2.35,2.119c1.141-.313,2.27-.682,3.382-1.087a1.9,1.9,0,0,0,1.2-2.3,1.949,1.949,0,0,0-2.391-1.33c-1.111.308-2.214.656-3.3,1.054a1.76,1.76,0,0,0-1.242,1.541" fill="#3a0b0b"/>
    <path id="Path_1379" data-name="Path 1379" d="M703.406,714.517a2.687,2.687,0,0,1,4.436-2.111c1.785,1.694,3.535,3.43,5.225,5.218a2.633,2.633,0,0,1-.189,3.625,2.707,2.707,0,0,1-3.784.077c-1.725-1.631-3.377-3.341-5.039-5.037a2.285,2.285,0,0,1-.649-1.772m.624-.12a2.186,2.186,0,0,0,.168.886,14.428,14.428,0,0,0,2.4,2.614c.15.168.32.092.462-.051l2.576-2.583a14.073,14.073,0,0,0-1.984-2.113,2.818,2.818,0,0,0-.465-.409,1.878,1.878,0,0,0-2.026-.118,2.008,2.008,0,0,0-1.133,1.774" fill="#3a0b0b"/>
    <path id="Path_1380" data-name="Path 1380" d="M681.3,719.264a2.3,2.3,0,0,1,.736-1.841c1.63-1.644,3.254-3.294,4.931-4.89a2.706,2.706,0,1,1,3.722,3.925q-2.373,2.414-4.784,4.79a2.6,2.6,0,0,1-3.026.566,2.508,2.508,0,0,1-1.579-2.55m.6.046a2.189,2.189,0,0,0,1.16,1.852,1.886,1.886,0,0,0,2.233-.267c.687-.609,1.309-1.29,1.973-1.926.3-.289.3-.491-.022-.789-.718-.663-1.409-1.359-2.079-2.072-.326-.346-.567-.323-.878,0-.6.616-1.237,1.2-1.821,1.826a1.947,1.947,0,0,0-.566,1.379" fill="#3a0b0b"/>
    <path id="Path_1381" data-name="Path 1381" d="M689.546,743.207c-.057-.532.088-.92-.3-1.079a.84.84,0,0,0-1.088.344c-.084.122-.177.237-.267.356-.148.2-.3.391-.583.221-.313-.189-.219-.453-.092-.7a3.077,3.077,0,0,1,.269-.353c.135-.188.334-.366.075-.611-.2-.189-.382-.374-.693-.2a1.5,1.5,0,0,1-.5.178c-.28.046-.642.2-.774-.186-.14-.407.2-.48.507-.547.506-.112.616-.411.528-.916-.12-.686-.525-.354-.866-.321-.284.027-.655.149-.725-.273-.068-.407.324-.46.594-.524.423-.1.775-.128.681-.765-.091-.62-.444-.593-.874-.577-.267.01-.574.042-.622-.33-.056-.437.3-.432.583-.5.337-.077.768.149.947-.412.184-.578-.354-.6-.559-.873-.187-.248-.594-.455-.306-.811.338-.418.636-.073.873.186.516.567.868.072,1.295-.149.555-.286.25-.608.109-.947-.1-.252-.4-.539-.014-.768.408-.241.577.109.745.392a1.322,1.322,0,0,1,.194.4c.1.516.515.493.886.569.441.091.541-.2.679-.524.124-.291.294-.662.716-.468.388.179.219.5.067.757a.729.729,0,0,0,.167,1.012.684.684,0,0,0,.995.167,1.108,1.108,0,0,1,.243-.109c.284-.1.606-.23.749.167.124.342-.183.438-.417.571-.326.187-.784.181-.7.834s.272.987.943.982a1.661,1.661,0,0,1,.439.073c.314.085.712.154.6.6-.1.4-.469.264-.755.225-.307-.043-.727-.422-.851.14a.633.633,0,0,0,.641.846,1.122,1.122,0,0,1,.41.167c.277.141.564.318.375.676-.158.3-.456.235-.7.082-.6-.377-.842-.087-1.129.45s.02.681.331.92c.23.176.558.369.319.712-.271.391-.579.107-.846-.06-.15-.094-.265-.24-.411-.341a.667.667,0,0,0-1.078.491c-.019.206.024.419,0,.623-.05.368-.022.886-.56.838-.562-.05-.216-.562-.251-.64m1.754-4.3c-.069-.512-.149-1.129-.236-1.744a5.148,5.148,0,0,0-.106-.522,1.8,1.8,0,0,0-2.149-1.5,1.864,1.864,0,0,0-1.444,2.207c.1.672.218,1.341.329,2.011a1.818,1.818,0,1,0,3.606-.451" fill="#3a0b0b"/>
    <path id="Path_1382" data-name="Path 1382" d="M710.516,727.05a.659.659,0,0,1-.431.679.525.525,0,0,1-.686-.257,15.6,15.6,0,0,0-2.473-3.451.57.57,0,0,1,.012-.808c.166-.185.393-.32.626-.135a11.513,11.513,0,0,1,2.952,3.972" fill="#ff8c00"/>
    <path id="Path_1383" data-name="Path 1383" d="M688.179,723.637a1.354,1.354,0,0,1-.422.675,13.472,13.472,0,0,0-2.06,2.881c-.2.376-.429.791-.946.495-.49-.28-.3-.688-.1-1.078a13.146,13.146,0,0,1,2.46-3.349c.2-.193.4-.342.707-.176a.652.652,0,0,1,.365.552" fill="#ff8c00"/>
    <path id="Path_1384" data-name="Path 1384" d="M695.878,719.65a.68.68,0,0,1-.629.646,12.607,12.607,0,0,0-3.609,1.153c-.393.186-.85.315-1.061-.2-.2-.488.178-.737.584-.927a15.871,15.871,0,0,1,3.782-1.209c.469-.089.818.025.933.536" fill="#ff8c00"/>
    <path id="Path_1385" data-name="Path 1385" d="M699.731,719.079a14.063,14.063,0,0,1,4.284,1.384c.311.162.516.413.326.8a.575.575,0,0,1-.834.263,14.934,14.934,0,0,0-3.968-1.269.6.6,0,0,1,.192-1.179" fill="#ff8c00"/>
    <path id="Path_1386" data-name="Path 1386" d="M711.966,732.525c0,.424,0,.6,0,.779a.532.532,0,0,1-.509.6.553.553,0,0,1-.679-.53c-.066-.676-.087-1.358-.1-2.037a.488.488,0,0,1,.485-.532.517.517,0,0,1,.635.465c.069.5.134,1,.168,1.252" fill="#ff8c00"/>
    <path id="Path_1387" data-name="Path 1387" d="M684.288,731.55c-.06.692-.117,1.221-.149,1.753-.024.382-.166.622-.586.611s-.558-.284-.551-.651c.011-.561.027-1.124.067-1.684.033-.455.2-.84.755-.765s.474.511.464.736" fill="#ff8c00"/>
    <path id="Path_1388" data-name="Path 1388" d="M699.418,728.237a.359.359,0,0,1-.377.38.387.387,0,0,1-.432-.442.373.373,0,0,1,.38-.406.4.4,0,0,1,.429.468" fill="#3a0b0b"/>
    <path id="Path_1389" data-name="Path 1389" d="M699.421,730.127c.008.28-.115.474-.4.472s-.4-.194-.4-.478a.391.391,0,0,1,.371-.422.366.366,0,0,1,.428.428" fill="#3a0b0b"/>
    <path id="Path_1390" data-name="Path 1390" d="M697.018,731.091c-.031-.219.064-.345.283-.357.259-.015.5.048.5.359a.4.4,0,0,1-.4.4c-.256.011-.347-.181-.379-.4" fill="#3a0b0b"/>
    <path id="Path_1391" data-name="Path 1391" d="M697.143,729.008c-.28-.03-.452-.133-.466-.374a.348.348,0,0,1,.347-.417.356.356,0,0,1,.417.35c.026.258-.162.345-.3.441" fill="#3a0b0b"/>
  </g>
</svg>
