<svg xmlns="http://www.w3.org/2000/svg" width="23.336" height="23.131" viewBox="0 0 23.336 23.131">
  <g id="Group_156" data-name="Group 156" transform="translate(-1911.366 -168.404)">
    <path id="Path_585" data-name="Path 585" d="M1924.738,176.769c-.036-.278-.038-.582.294-.618.365-.039.437.268.453.566.008.171.019.343.014.514a.418.418,0,0,0,.252.409c.2.1.31-.028.442-.145a3.2,3.2,0,0,1,.51-.383c.232-.136.505-.229.669.075.149.275-.058.435-.283.548-.519.261-.625.6-.3,1.117.174.282.395.282.648.295.28.014.615-.008.609.388,0,.362-.317.334-.576.336-.21,0-.455-.046-.493.262-.035.278-.252.558.034.835a2.716,2.716,0,0,1,.487.59.36.36,0,0,1-.1.511c-.209.147-.352.047-.507-.09-.177-.158-.248-.583-.539-.426a2.2,2.2,0,0,0-.674.757c-.192.289.145.348.286.465.224.186.611.326.356.682-.228.32-.526.086-.787-.071-.226-.135-.413-.447-.74-.055-.314.376-.021.519.157.731s.537.451.229.747c-.325.313-.576-.042-.8-.251-.18-.166-.286-.413-.622-.193-.283.186-.385.364-.262.678a.98.98,0,0,1,.05.316c.01.313,0,.646-.414.664-.376.016-.41-.279-.44-.579-.028-.277.038-.611-.385-.711-.489-.116-.835-.062-.9.524-.032.291-.089.6-.486.508s-.282-.409-.215-.678a3.572,3.572,0,0,1,.167-.55c.11-.259-.05-.386-.2-.547-.182-.19-.323-.113-.5-.008a2.5,2.5,0,0,1-.583.254c-.209.058-.449.078-.524-.2-.066-.248.063-.39.3-.479.434-.161.849-.33.625-.959-.08-.226-.153-.373-.389-.442a2.894,2.894,0,0,1-.525-.234c-.229-.123-.5-.262-.335-.582s.4-.185.663-.09c.242.09.495.479.781-.026.237-.419.188-.657-.239-.844-.157-.068-.307-.151-.46-.228-.221-.111-.222-.3-.155-.493a.3.3,0,0,1,.428-.163,2.242,2.242,0,0,1,.741.366c.456.413.665.06.881-.242.3-.413-.209-.345-.334-.5a1.884,1.884,0,0,0-.363-.26c-.215-.163-.319-.39-.144-.609.15-.186.371-.146.574,0,.227.159.469.3.711.435.183.1.318.014.446-.126.159-.172.093-.292-.05-.431a1.47,1.47,0,0,1-.447-.616c-.052-.184-.094-.384.128-.509s.366-.016.493.149c.065.084.111.185.183.262.185.2.34.458.684.22.388-.268.076-.473-.037-.7a2.459,2.459,0,0,0-.188-.259.337.337,0,0,1,.049-.511.349.349,0,0,1,.518.043,4.932,4.932,0,0,1,.46.691c.115.205.177.456.493.39.343-.072.139-.344.189-.515m1.278,3.1a1.528,1.528,0,0,0-.919-1.463,1.5,1.5,0,0,0-1.756.382c-.7.81-1.388,1.63-2.052,2.47a1.478,1.478,0,0,0,.148,2.128,1.5,1.5,0,0,0,2.22-.2c.685-.794,1.34-1.614,2.007-2.424a1.347,1.347,0,0,0,.352-.892" fill="#3a0b0b"/>
    <path id="Path_586" data-name="Path 586" d="M1925.735,190.735a3.25,3.25,0,0,0,0-.464c-.033-.193-.208-.263-.361-.328s-.22.081-.276.189c-.118.23-.24.545-.549.367-.35-.2-.082-.488.035-.72.331-.654.26-.764-.512-.783-.248-.006-.591.048-.585-.318.005-.288.283-.311.541-.3.176,0,.452.024.418-.259-.039-.325.335-.718-.153-.978-.23-.123-.5-.287-.283-.59.192-.274.433-.072.613.061.294.216.413-.054.594-.172.265-.173.166-.337.014-.523s-.243-.378,0-.548c.218-.151.35.02.484.163.187.2.347.455.693.328.313-.115.719-.155.4-.669a.351.351,0,0,1,.155-.544c.228-.086.343.128.426.3.132.27.205.573.633.407s.293-.443.2-.733a.272.272,0,0,1,.223-.384.289.289,0,0,1,.385.236c.014.062.034.124.046.187a.575.575,0,0,0,.506.539c.333.069.414-.124.542-.31.161-.233.37-.42.637-.233s.114.416-.038.614c-.365.477.209.6.351.876.181.352.387.048.565-.067.2-.126.4-.338.611-.078.257.318-.094.438-.259.6a1.241,1.241,0,0,1-.316.217c-.268.135-.234.362-.225.6.011.284.219.245.39.315.218.087.579.106.507.463-.078.391-.365.224-.611.162a.492.492,0,0,0-.652.238c-.132.266-.483.474-.148.827a.667.667,0,0,1,.132.289c.046.184.123.406-.1.514-.249.122-.384-.046-.493-.261s-.12-.519-.5-.471c-.534.066-.648.25-.475.764.072.215.3.505-.073.652-.31.12-.388-.164-.483-.377-.009-.02-.017-.04-.027-.059-.124-.235-.17-.554-.57-.464s-.221.384-.223.616c0,.253.058.583-.275.632-.377.056-.365-.266-.355-.529.011-.31-.122-.418-.433-.368-.245.039-.539-.047-.5.374.024.273.056.639-.35.6s-.246-.426-.275-.6m-.4-2.805a1.417,1.417,0,0,0,1.692,1.526c.822-.226,1.634-.491,2.435-.783a1.367,1.367,0,0,0,.861-1.654,1.4,1.4,0,0,0-1.72-.957c-.8.222-1.595.472-2.373.759a1.265,1.265,0,0,0-.9,1.109" fill="#3a0b0b"/>
    <path id="Path_587" data-name="Path 587" d="M1927.288,170.417a1.934,1.934,0,0,1,3.193-1.521c1.285,1.22,2.546,2.47,3.763,3.758a1.9,1.9,0,0,1-.136,2.609,1.95,1.95,0,0,1-2.725.056c-1.242-1.174-2.431-2.4-3.628-3.627a1.641,1.641,0,0,1-.467-1.275m.449-.087a1.564,1.564,0,0,0,.121.638,10.4,10.4,0,0,0,1.729,1.882c.109.121.23.066.333-.037l1.854-1.859a10.089,10.089,0,0,0-1.428-1.522,1.99,1.99,0,0,0-.335-.294,1.351,1.351,0,0,0-1.458-.085,1.445,1.445,0,0,0-.816,1.277" fill="#3a0b0b"/>
    <path id="Path_588" data-name="Path 588" d="M1911.371,173.834a1.65,1.65,0,0,1,.53-1.325c1.173-1.184,2.343-2.372,3.55-3.521a1.947,1.947,0,1,1,2.679,2.825q-1.709,1.738-3.443,3.45a1.878,1.878,0,0,1-2.18.407,1.805,1.805,0,0,1-1.136-1.836m.431.033a1.577,1.577,0,0,0,.835,1.333,1.357,1.357,0,0,0,1.608-.192c.494-.438.942-.929,1.42-1.387.217-.207.218-.353-.015-.568-.518-.477-1.015-.978-1.5-1.491-.235-.25-.409-.233-.632,0-.432.444-.891.861-1.311,1.315a1.4,1.4,0,0,0-.408.993" fill="#3a0b0b"/>
    <path id="Path_589" data-name="Path 589" d="M1917.308,191.071c-.041-.383.063-.662-.215-.777a.605.605,0,0,0-.783.248c-.061.088-.128.171-.192.256-.107.142-.219.282-.42.16-.226-.137-.158-.326-.067-.5a2.223,2.223,0,0,1,.194-.255c.1-.135.24-.263.054-.439-.144-.136-.275-.27-.5-.141a1.072,1.072,0,0,1-.359.128c-.2.034-.462.141-.556-.134-.1-.293.146-.345.364-.394.364-.08.444-.295.38-.659-.086-.494-.377-.255-.623-.231-.205.019-.472.107-.522-.2s.234-.331.427-.377c.305-.073.559-.092.491-.551s-.32-.427-.629-.415c-.193.007-.413.03-.448-.238-.041-.314.214-.311.42-.358.242-.055.553.107.681-.3s-.254-.432-.4-.628c-.135-.179-.428-.328-.221-.585.244-.3.459-.052.629.134.372.409.625.053.933-.106.4-.207.18-.439.078-.683-.075-.181-.29-.387-.01-.553s.416.079.536.282a.963.963,0,0,1,.14.287c.069.371.371.355.638.41.317.066.39-.147.488-.378.09-.209.212-.476.516-.336.279.128.158.362.048.545a.523.523,0,0,0,.121.728.492.492,0,0,0,.716.121.814.814,0,0,1,.175-.079c.2-.069.437-.165.54.12.088.246-.132.316-.3.412-.234.134-.564.13-.5.6s.2.711.68.707a1.189,1.189,0,0,1,.316.053c.225.061.512.11.43.431-.072.284-.337.19-.543.162-.221-.031-.524-.3-.613.1a.456.456,0,0,0,.461.61.8.8,0,0,1,.295.12c.2.1.407.229.271.487-.115.215-.329.169-.5.058-.431-.271-.606-.062-.813.325s.014.49.239.662c.165.127.4.265.23.513-.2.281-.417.076-.61-.044-.108-.067-.191-.172-.295-.245a.48.48,0,0,0-.777.353c-.014.149.018.3,0,.449-.036.265-.016.638-.4.6-.405-.036-.156-.4-.181-.461m1.263-3.1c-.049-.369-.107-.813-.17-1.256a3.7,3.7,0,0,0-.076-.375,1.3,1.3,0,0,0-1.547-1.081,1.342,1.342,0,0,0-1.04,1.589c.071.484.157.965.237,1.448a1.326,1.326,0,0,0,1.425,1.177,1.341,1.341,0,0,0,1.171-1.5" fill="#3a0b0b"/>
    <path id="Path_590" data-name="Path 590" d="M1932.407,179.44a.475.475,0,0,1-.31.489.378.378,0,0,1-.494-.185,11.231,11.231,0,0,0-1.78-2.485.409.409,0,0,1,.008-.581c.119-.134.283-.231.45-.1a8.281,8.281,0,0,1,2.126,2.86" fill="#ff8c00"/>
    <path id="Path_591" data-name="Path 591" d="M1916.324,176.982a.972.972,0,0,1-.3.486,9.705,9.705,0,0,0-1.483,2.074c-.142.271-.309.57-.681.357-.353-.2-.219-.5-.075-.776a9.458,9.458,0,0,1,1.771-2.411c.141-.139.289-.247.509-.127a.468.468,0,0,1,.263.4" fill="#ff8c00"/>
    <path id="Path_592" data-name="Path 592" d="M1921.868,174.112a.49.49,0,0,1-.453.465,9.1,9.1,0,0,0-2.6.83c-.283.134-.613.227-.764-.143-.143-.351.128-.531.42-.667a11.4,11.4,0,0,1,2.723-.871c.338-.064.589.018.672.386" fill="#ff8c00"/>
    <path id="Path_593" data-name="Path 593" d="M1924.642,173.7a10.107,10.107,0,0,1,3.084,1c.224.116.372.3.235.576a.414.414,0,0,1-.6.189,10.746,10.746,0,0,0-2.856-.913.432.432,0,0,1,.138-.849" fill="#ff8c00"/>
    <path id="Path_594" data-name="Path 594" d="M1933.45,183.381c0,.305,0,.433,0,.561a.384.384,0,0,1-.367.434.4.4,0,0,1-.489-.381c-.047-.487-.062-.978-.071-1.467a.352.352,0,0,1,.349-.384c.237-.016.421.068.457.336.049.358.1.717.121.9" fill="#ff8c00"/>
    <path id="Path_595" data-name="Path 595" d="M1913.523,182.679c-.044.5-.084.879-.108,1.262-.016.275-.119.448-.421.44s-.4-.205-.4-.468c.008-.4.02-.81.049-1.213.023-.327.145-.6.543-.551s.341.368.334.53" fill="#ff8c00"/>
    <path id="Path_596" data-name="Path 596" d="M1924.417,180.294a.258.258,0,0,1-.272.273.279.279,0,0,1-.311-.317.269.269,0,0,1,.274-.293.284.284,0,0,1,.309.337" fill="#3a0b0b"/>
    <path id="Path_597" data-name="Path 597" d="M1924.418,181.655c.006.2-.083.342-.291.34s-.289-.14-.284-.344a.282.282,0,0,1,.267-.3.263.263,0,0,1,.308.308" fill="#3a0b0b"/>
    <path id="Path_598" data-name="Path 598" d="M1922.688,182.349c-.022-.158.046-.249.2-.257.187-.011.361.035.357.259a.291.291,0,0,1-.288.289c-.184.009-.25-.13-.273-.291" fill="#3a0b0b"/>
    <path id="Path_599" data-name="Path 599" d="M1922.778,180.849c-.2-.022-.326-.1-.336-.269a.252.252,0,0,1,.251-.3.257.257,0,0,1,.3.253c.018.186-.117.248-.215.317" fill="#3a0b0b"/>
  </g>
</svg>
