<svg xmlns="http://www.w3.org/2000/svg" width="34.097" height="34.08" viewBox="0 0 34.097 34.08">
  <g id="Group_204" data-name="Group 204" transform="translate(-1283.563 -325.126)">
    <path id="Path_1319" data-name="Path 1319" d="M1283.563,355.942c.025.066.051.131.083.211a2.485,2.485,0,0,1,.8-1.707c.613-.658,1.258-1.285,1.894-1.921q3.567-3.567,7.141-7.129c.094-.093.047-.151,0-.227a16.872,16.872,0,0,1-1.383-3.015,12.569,12.569,0,0,1-.523-2.365,13.016,13.016,0,0,1-.059-2.691,12.362,12.362,0,0,1,.439-2.365,13.078,13.078,0,0,1,2.095-4.292,12.774,12.774,0,0,1,3.092-3,13.019,13.019,0,0,1,10.6-1.923,12.886,12.886,0,0,1,7.162,4.7,14.207,14.207,0,0,1,1.165,1.78,13.287,13.287,0,0,1,1.147,2.933,12.728,12.728,0,0,1,.436,3.487,13.8,13.8,0,0,1-.534,3.441,12.632,12.632,0,0,1-1.55,3.388,13.143,13.143,0,0,1-10.7,6.037,12.766,12.766,0,0,1-2.631-.22,13.4,13.4,0,0,1-5.188-2.168,14.837,14.837,0,0,1-2.564-2.359c-.105-.115-.164-.122-.271-.014-.346.352-.7.7-1.049,1.046l-7.62,7.615a3.3,3.3,0,0,0-.408.482,1.417,1.417,0,0,0,1.1,2.2,1.575,1.575,0,0,0,1.239-.542c.392-.393.775-.8,1.167-1.188q2.177-2.18,4.356-4.356a.675.675,0,0,1,.835-.217.631.631,0,0,1,.3.883,1.754,1.754,0,0,1-.344.426q-2.446,2.451-4.9,4.9a10.181,10.181,0,0,1-.839.784,2.251,2.251,0,0,1-1.4.572l.212.078h-1.133c.05-.054.139-.005.2-.079-.1-.012-.178-.018-.257-.032a2.717,2.717,0,0,1-2.006-2c-.026-.147.061-.291.012-.435-.065.082,0,.22-.116.285Zm21.023-5.98a11.763,11.763,0,1,0-11.79-11.742,11.748,11.748,0,0,0,11.79,11.742" fill="#3a0b0b"/>
    <path id="Path_1320" data-name="Path 1320" d="M1295.448,349.644a.656.656,0,0,1,.636.64.681.681,0,0,1-.656.663.655.655,0,0,1-.642-.649.67.67,0,0,1,.662-.654" fill="#3a0b0b"/>
    <path id="Path_1321" data-name="Path 1321" d="M1294.689,338.055a9.975,9.975,0,1,1,9.906,10.016,9.982,9.982,0,0,1-9.906-10.016m9.973,8.7a8.655,8.655,0,1,0-8.659-8.7,8.644,8.644,0,0,0,8.659,8.7" fill="#3a0b0b"/>
    <path id="Path_1322" data-name="Path 1322" d="M1310.973,337.093a1.987,1.987,0,0,1-.284,1.064.23.23,0,0,0,.028.295,2.22,2.22,0,0,1-.206,3.044,2.18,2.18,0,0,1-3.273-.251,2.111,2.111,0,0,1-.18-2.527.153.153,0,0,0-.014-.2,2.1,2.1,0,0,1-.331-2.373,2.123,2.123,0,0,1,2-1.306,2.154,2.154,0,0,1,2.053,1.279,1.856,1.856,0,0,1,.205.98m-2.9,2.762a.937.937,0,0,0,.574.891.975.975,0,0,0,1.035-.259.923.923,0,0,0,.1-1.1c-.091-.146-.2-.282-.288-.428a1.1,1.1,0,0,1-.056-1.18,2.809,2.809,0,0,0,.189-.406.952.952,0,0,0-.658-1.214.923.923,0,0,0-1.13.693.876.876,0,0,0,.118.7c.089.14.193.271.282.411a1.145,1.145,0,0,1,.094,1.125,1.672,1.672,0,0,0-.257.762" fill="#ff8c00"/>
    <path id="Path_1323" data-name="Path 1323" d="M1302.158,338.245a2.243,2.243,0,1,1-2.207-2.286,2.262,2.262,0,0,1,2.207,2.286m-2.258.887a.909.909,0,0,0,.945-.906.932.932,0,0,0-1.864-.043.908.908,0,0,0,.919.949" fill="#ff8c00"/>
    <path id="Path_1324" data-name="Path 1324" d="M1304.46,337.955a.652.652,0,0,1,.606.394.564.564,0,0,1-.1.648c-.346.412-.347.459-.084.938a1.676,1.676,0,0,1-.33,2.136,2.475,2.475,0,0,0-.178.175.412.412,0,0,0-.07.505c.049.087.1.175.145.261a1.773,1.773,0,0,1-.4,2.19.636.636,0,0,1-.924-.032.627.627,0,0,1,.021-.885c.293-.343.316-.428.075-.8a1.816,1.816,0,0,1,.324-2.248c.033-.028.064-.061.1-.092a.431.431,0,0,0,.084-.612,2.235,2.235,0,0,1-.323-.83,1.71,1.71,0,0,1,.648-1.588.63.63,0,0,1,.412-.156" fill="#ff8c00"/>
    <path id="Path_1325" data-name="Path 1325" d="M1306.285,333.606a.623.623,0,0,1-.347.583.594.594,0,0,1-.632-.01c-.433-.253-.464-.308-.943.053a1.791,1.791,0,0,1-2.107,0c-.031-.023-.062-.047-.092-.072-.324-.264-.449-.268-.795-.03a.639.639,0,0,1-.833-.967,1.788,1.788,0,0,1,2.388-.051c.3.251.469.238.772-.023a1.743,1.743,0,0,1,2.335.008.7.7,0,0,1,.254.5" fill="#ff8c00"/>
    <path id="Path_1326" data-name="Path 1326" d="M1299.973,342.655a.631.631,0,0,1,.65-.633.649.649,0,1,1,.011,1.3.652.652,0,0,1-.661-.664" fill="#3a0b0b"/>
    <path id="Path_1327" data-name="Path 1327" d="M1306.969,331.229a.654.654,0,0,1,.632.643.687.687,0,0,1-.657.65.647.647,0,1,1,.025-1.293" fill="#ff8c00"/>
  </g>
</svg>
