<svg xmlns="http://www.w3.org/2000/svg" width="29.661" height="32.41" viewBox="0 0 29.661 32.41">
  <g id="Group_260" data-name="Group 260" transform="translate(-794.482 -668.118)">
    <path id="Path_1392" data-name="Path 1392" d="M801.521,681.742a.338.338,0,0,1,.436.218.164.164,0,0,0,.23.113,1.222,1.222,0,0,1,.332-.034c.217-.005.344.1.342.264s-.122.257-.33.262a1.259,1.259,0,0,0-1.065,1.924c.157.248.336.482.5.728a2.373,2.373,0,0,1,.142,2.493c-.044.089-.087.18-.129.27a1.261,1.261,0,1,0,2.282,1.066q.144-.3.285-.605a.266.266,0,0,1,.355-.167.27.27,0,0,1,.132.37c-.041.126-.177.248-.124.367s.192.164.292.246a.274.274,0,0,1,.077.4.271.271,0,0,1-.393.023c-.24-.169-.241-.17-.439.054a1.746,1.746,0,0,1-1.264.614c-.106.005-.145.04-.154.14a2.231,2.231,0,0,1-.053.313.254.254,0,0,1-.3.2.248.248,0,0,1-.214-.279,2.424,2.424,0,0,1,.054-.348c.019-.086-.01-.125-.09-.158a1.723,1.723,0,0,1-.94-.885c-.043-.091-.082-.114-.164-.052a.308.308,0,0,1-.179.069.253.253,0,0,1-.26-.172.215.215,0,0,1,.089-.293c.311-.113.355-.348.369-.632a1.651,1.651,0,0,1,.246-.674c.046-.087.032-.116-.066-.14-.212-.05-.294-.164-.256-.329s.173-.235.379-.178c.167.046.2-.015.211-.162a1.942,1.942,0,0,0-.21-1.075c-.041-.078-.078-.106-.156-.039a1.787,1.787,0,0,1-.256.185.244.244,0,0,1-.345-.059.259.259,0,0,1,.037-.364c.013-.012.03-.019.043-.031.094-.085.27-.13.278-.246.007-.1-.12-.2-.183-.309a1.24,1.24,0,0,1-.157-.293.243.243,0,0,0-.307-.2.706.706,0,0,1-.21-.013.239.239,0,0,1-.21-.263.252.252,0,0,1,.227-.252c.112-.024.258.064.329-.038.057-.081.032-.216.055-.325a1.732,1.732,0,0,1,.652-1.037c.094-.072.123-.13.043-.225a.539.539,0,0,1-.086-.279l.128-.169" fill="#ff8c00"/>
    <path id="Path_1393" data-name="Path 1393" d="M815.383,685.531a5.264,5.264,0,0,1-1.338-1.243,4.176,4.176,0,0,1-.726-3.047c.031-.227.067-.453.1-.681a2.213,2.213,0,0,0-4.381-.627,9.522,9.522,0,0,0,.058,3.974,8.531,8.531,0,0,0,2.791,4.513,1.768,1.768,0,0,1,.168.156.24.24,0,0,1,0,.337.224.224,0,0,1-.33.051c-.135-.116-.207-.054-.3.045-.137.145-.284.281-.434.414a.254.254,0,0,1-.376,0,.263.263,0,0,1,.019-.379c.154-.154.309-.307.47-.453.062-.056.071-.088.007-.151a8.545,8.545,0,0,1-.912-1.027.108.108,0,0,0-.166-.025,2.024,2.024,0,0,1-.266.137.255.255,0,0,1-.346-.116.27.27,0,0,1,.107-.351c.09-.066.262-.067.262-.194,0-.095-.1-.19-.162-.285a8.186,8.186,0,0,1-.539-1.05c-.039-.093-.082-.124-.184-.1a4.189,4.189,0,0,1-.434.079.268.268,0,0,1-.324-.2.263.263,0,0,1,.229-.318c.12-.027.242-.049.364-.066.079-.012.094-.041.068-.117a7.553,7.553,0,0,1-.295-1.089c-.017-.091-.06-.111-.144-.1-.129.011-.259.013-.388.017-.209.007-.333-.082-.343-.244s.1-.272.326-.284c.112-.006.224-.013.335-.013.077,0,.1-.024.093-.1a7.883,7.883,0,0,1-.066-1.285c0-.106-.065-.109-.13-.126-.4-.1-.808-.209-1.212-.311-.146-.037-.248-.113-.248-.276a.267.267,0,0,1,.365-.24c.37.092.74.187,1.108.289.11.03.156.018.166-.108.02-.234.048-.468.089-.7a.185.185,0,0,0-.126-.231,3.7,3.7,0,0,1-.385-.214.248.248,0,0,1-.1-.348.263.263,0,0,1,.365-.1,1.477,1.477,0,0,1,.247.136c.105.077.138.028.165-.07a1.816,1.816,0,0,1,.208-.465c.057-.1.033-.14-.041-.2-.165-.142-.323-.292-.481-.442a.264.264,0,1,1,.349-.394c.16.139.314.284.467.43.063.061.108.063.173,0a2.124,2.124,0,0,1,.44-.35c.08-.047.087-.091.047-.17-.1-.21-.2-.424-.3-.637s-.056-.352.1-.421.285,0,.376.192c.1.212.2.423.3.638.037.084.075.115.17.081a2.076,2.076,0,0,1,.711-.117c.111,0,.121-.042.11-.135-.034-.3-.063-.608-.091-.913-.019-.209.065-.333.232-.349s.271.093.293.3c.035.333.07.667.1,1,.009.107.036.164.154.192a2.412,2.412,0,0,1,.462.169.124.124,0,0,0,.187-.046c.22-.3.445-.593.669-.888a.267.267,0,0,1,.291-.117.246.246,0,0,1,.2.2.309.309,0,0,1-.084.259c-.207.271-.409.546-.619.815-.065.084-.082.138.016.214a1.686,1.686,0,0,1,.4.446c.071.116.136.115.24.056.143-.081.293-.151.441-.222a.277.277,0,0,1,.4.093.273.273,0,0,1-.155.375c-.162.084-.324.167-.489.243-.081.037-.1.077-.07.163a2.43,2.43,0,0,1,.144.865c0,.1.042.119.125.125.176.013.352.029.527.051a.271.271,0,0,1,.272.285c-.012.161-.135.253-.328.239s-.363-.034-.544-.053c-.065-.007-.114-.009-.122.079-.024.245-.052.491-.083.735-.012.1.029.12.119.108.152-.019.3-.03.457-.042.226-.017.348.065.36.238s-.1.269-.325.29c-.152.014-.3.03-.457.039-.086.006-.128.025-.108.127a4.089,4.089,0,0,0,.253.843c.04.095.085.088.16.049.151-.079.3-.155.458-.226a.265.265,0,1,1,.231.474q-.219.114-.444.216c-.078.036-.089.07-.036.142a4.895,4.895,0,0,0,.474.544c.06.06.1.064.152-.01a1.913,1.913,0,0,1,.161-.21.262.262,0,1,1,.413.322l-.01.014c-.2.292-.2.292.078.5l.141.106c.318.241.318.24.6-.058a2.537,2.537,0,0,1,.187-.187.263.263,0,0,1,.373.37c-.11.123-.228.238-.347.352-.069.066-.073.112,0,.185a2.183,2.183,0,0,1,.409.549.162.162,0,0,0,.181.1c.282-.016.565-.025.847-.034.216-.006.344.092.346.261s-.109.257-.324.267-.435.02-.652.023c-.1,0-.137.015-.109.128a2.361,2.361,0,0,1,.06.841c-.013.107.034.129.119.147.339.074.677.152,1.014.231.2.047.3.164.262.326s-.169.233-.373.188c-.338-.075-.676-.15-1.013-.231-.1-.024-.148-.014-.182.093a1.917,1.917,0,0,1-.275.531c-.069.1-.046.149.043.211.158.111.313.229.465.35a.265.265,0,0,1,.08.4c-.1.13-.24.138-.4.018s-.341-.251-.507-.383c-.075-.06-.13-.074-.21,0a1.891,1.891,0,0,1-.436.3c-.076.037-.087.078-.055.152.052.124.1.251.143.379a.261.261,0,0,1-.147.35.267.267,0,0,1-.344-.162c-.073-.152-.071-.384-.208-.448s-.317.031-.48.053a1.467,1.467,0,0,1-.176.01c-.232,0-.232,0-.232.246,0,.088,0,.177,0,.264a.262.262,0,1,1-.524.005c-.008-.165-.007-.33,0-.494a.125.125,0,0,0-.108-.149,1.863,1.863,0,0,1-.5-.213c-.088-.053-.133-.034-.187.041-.1.144-.211.283-.318.424-.152.2-.3.247-.442.139s-.129-.254.016-.448c.106-.142.21-.284.32-.422.057-.072.053-.121-.024-.172a1.289,1.289,0,0,1-.18-.142.253.253,0,0,1-.033-.363.247.247,0,0,1,.36-.043c.238.163.455.354.7.5a2.211,2.211,0,0,0,2.652-3.5c-.27-.257-.586-.454-.884-.7" fill="#ff8c00"/>
    <path id="Path_1394" data-name="Path 1394" d="M803.831,682.591a1.657,1.657,0,0,1,.173.226c.072.129.139.106.224.021a.9.9,0,0,1,.135-.112.249.249,0,0,1,.35.033.262.262,0,0,1-.012.366c-.088.1-.273.147-.265.275s.133.227.2.342a4.305,4.305,0,0,1,.353.689c.039.1.089.124.184.085a.663.663,0,0,1,.153-.041.252.252,0,0,1,.309.192.255.255,0,0,1-.165.312c-.079.034-.2.013-.23.093s.029.168.049.254a4.943,4.943,0,0,1,.122.783c.006.1.021.144.141.132.291-.028.416.051.424.238.007.172-.116.27-.387.282-.128.006-.171.046-.172.176a3.413,3.413,0,0,1-.049.472c-.03.2-.15.3-.313.279s-.238-.148-.209-.347a5.043,5.043,0,0,0-.071-1.892,4.992,4.992,0,0,0-.81-1.766c-.177-.248-.338-.508-.534-.743a.245.245,0,0,1,.02-.364c.111-.106.232-.092.377.015" fill="#ff8c00"/>
    <path id="Path_1395" data-name="Path 1395" d="M812.51,682.9a1.019,1.019,0,0,1-1.42.248,1.053,1.053,0,0,1,1.265-1.68,1.018,1.018,0,0,1,.155,1.432m-.42-.323a.488.488,0,0,0-.062-.692.527.527,0,0,0-.619.841.5.5,0,0,0,.681-.149" fill="#ff8c00"/>
    <path id="Path_1396" data-name="Path 1396" d="M815.094,687.326c-.039.051-.074.106-.117.153a.242.242,0,0,1-.333.045.234.234,0,0,1-.1-.306,1.064,1.064,0,0,1,.29-.39.236.236,0,0,1,.335.01.242.242,0,0,1,.041.334c-.035.053-.078.1-.116.154" fill="#ff8c00"/>
    <path id="Path_1397" data-name="Path 1397" d="M803.31,687.971c.165-.218.3-.268.446-.163s.14.266-.029.489c-.011.014-.021.029-.032.042-.144.187-.29.227-.429.118s-.135-.245,0-.43l.042-.056" fill="#ff8c00"/>
    <path id="Path_1398" data-name="Path 1398" d="M810.816,684.5c-.028.037-.054.076-.085.112a.26.26,0,0,1-.426-.3,1.513,1.513,0,0,1,.2-.267.254.254,0,0,1,.362-.037.257.257,0,0,1,.046.361c-.028.044-.063.084-.1.126" fill="#ff8c00"/>
    <path id="Path_1399" data-name="Path 1399" d="M802.824,684.537c-.172.229-.31.277-.457.159s-.127-.262.035-.477a1.166,1.166,0,0,1,.1-.124.265.265,0,0,1,.377-.033.253.253,0,0,1,.031.363c-.027.038-.056.075-.084.112" fill="#ff8c00"/>
    <path id="Path_1400" data-name="Path 1400" d="M803.7,686.554c-.164.218-.3.269-.446.164s-.136-.262.023-.474c.032-.042.062-.085.1-.124a.261.261,0,1,1,.41.322c-.026.039-.056.075-.084.112" fill="#ff8c00"/>
    <path id="Path_1401" data-name="Path 1401" d="M811.849,679.7a.7.7,0,0,1,.09-.1.247.247,0,0,1,.309-.014c.158.1.144.28-.031.5-.138.174-.3.211-.432.093s-.111-.254.064-.484" fill="#ff8c00"/>
    <path id="Path_1402" data-name="Path 1402" d="M810.124,680.333c.132-.175.279-.212.418-.1s.137.245.01.417-.28.22-.416.121-.14-.262-.012-.433" fill="#ff8c00"/>
    <path id="Path_1403" data-name="Path 1403" d="M820.209,668.118a.823.823,0,0,1,.464.957c-.237,1.787-.44,3.577-.656,5.367a.711.711,0,0,1-.58.627l-5.178,1.423c-.081.022-.162.047-.245.061a.658.658,0,0,1-.795-.5.645.645,0,0,1,.459-.789c.664-.2,1.337-.379,2.006-.566l2.267-.633a7.831,7.831,0,0,0-1.248-.942,13.482,13.482,0,0,0-15.835.793,13.026,13.026,0,0,0-4.979,11.47,14.616,14.616,0,0,0,.4,2.4.639.639,0,0,1-.314.758.659.659,0,0,1-.768-.074.8.8,0,0,1-.249-.465,14.741,14.741,0,0,1,11.633-18.136,14.506,14.506,0,0,1,11.866,2.85l.367.277c.084-.661.165-1.282.242-1.9.093-.753.189-1.506.27-2.261a.852.852,0,0,1,.5-.713Z" fill="#3a0b0b"/>
    <path id="Path_1404" data-name="Path 1404" d="M800.687,694.595a12.918,12.918,0,0,0,4.24,2.372,13.221,13.221,0,0,0,9.982-.486,13.058,13.058,0,0,0,7.642-9.646,12.7,12.7,0,0,0-.174-5.857.684.684,0,0,1,.385-.917.66.66,0,0,1,.834.318,1.378,1.378,0,0,1,.095.3,14.426,14.426,0,0,1-3.846,14.006,14.063,14.063,0,0,1-8.88,4.257,14.719,14.719,0,0,1-10.973-3.167c-.04-.032-.082-.062-.166-.125-.062.458-.121.879-.173,1.3-.115.941-.226,1.883-.34,2.825a.8.8,0,0,1-.284.61.675.675,0,0,1-1.077-.617c.208-1.737.425-3.472.639-5.208.012-.094.025-.188.032-.283a.69.69,0,0,1,.542-.689q2.663-.74,5.326-1.471a.683.683,0,1,1,.374,1.3c-.041.012-.082.02-.123.031l-3.8,1.06c-.07.02-.138.046-.253.085" fill="#3a0b0b"/>
  </g>
</svg>
