<svg xmlns="http://www.w3.org/2000/svg" width="28.927" height="29.969" viewBox="0 0 28.927 29.969">
  <g id="Group_265" data-name="Group 265" transform="translate(-669.79 -132.062)">
    <path id="Path_1417" data-name="Path 1417" d="M672.993,156.706h-1.656a.655.655,0,0,0-.724.671,3.933,3.933,0,0,0,.36,2.039,2.943,2.943,0,0,0,1.742,1.492,5.369,5.369,0,0,0,1.74.289c.8.015,1.6-.005,2.406.013.884.019,1.768.012,2.653.016a11.034,11.034,0,0,0,3.808-.626,11.753,11.753,0,0,1,2.482-.609,8,8,0,0,1,3.743.426c.394.141.769.328,1.163.468a4.932,4.932,0,0,0,1.926.335,7.642,7.642,0,0,0,3.3-.857,3.5,3.5,0,0,0,1.882-2.42,4.881,4.881,0,0,0,.063-1.4c-.046-.6-.1-1.2-.174-1.8a16.783,16.783,0,0,0-.984-4.181c-.134-.331-.322-.639-.432-.982a4.561,4.561,0,0,1-.22-1.836c.111-1.158.273-2.311.412-3.466q.2-1.648.4-3.3c.116-.954.237-1.907.353-2.861q.2-1.656.4-3.311.135-1.11.277-2.219a.275.275,0,0,1,.312-.269.29.29,0,0,1,.235.344c-.15,1.219-.3,2.438-.452,3.657q-.266,2.175-.527,4.35-.252,2.073-.509,4.145c-.112.919-.232,1.838-.333,2.759a4.139,4.139,0,0,0,.407,2.362,11.139,11.139,0,0,1,.879,2.725,25.384,25.384,0,0,1,.443,3.031c.036.42.086.841.093,1.263a4.052,4.052,0,0,1-1.427,3.327,5.54,5.54,0,0,1-1.752.979,8.869,8.869,0,0,1-2.513.511,5.849,5.849,0,0,1-2.737-.562,8.142,8.142,0,0,0-2.469-.69,7.862,7.862,0,0,0-2.48.158,21.141,21.141,0,0,0-2.049.6,10.08,10.08,0,0,1-2.767.485c-1.268.044-2.536.022-3.8.01-.7-.007-1.406.007-2.108-.018a5.551,5.551,0,0,1-2.257-.5,3.492,3.492,0,0,1-1.976-2.707,4.436,4.436,0,0,1-.058-1.3,1.2,1.2,0,0,1,1.224-1.087q1.623,0,3.248,0a1.46,1.46,0,0,0,.913-.3c1.38-1.034,2.76-2.069,4.15-3.091.847-.624,1.694-1.247,2.518-1.9a32.8,32.8,0,0,0,3.267-2.9c.2-.211.394-.434.587-.655a2.375,2.375,0,0,0,.555-1.6c.01-.824.016-1.647.035-2.471.023-.94.034-1.88.054-2.819.018-.884.037-1.768.049-2.652.012-.953.033-1.906.051-2.858q.022-1.105.048-2.212a.768.768,0,0,1,.019-.179.263.263,0,0,1,.283-.2.25.25,0,0,1,.246.252c0,.362-.007.724-.012,1.087,0,.047-.008.094-.008.142-.012.793-.017,1.587-.036,2.38q-.033,1.449-.052,2.9c-.012.888-.033,1.776-.05,2.664-.017.949-.023,1.9-.057,2.846-.018.491.005.983-.038,1.473a2.806,2.806,0,0,1-.668,1.61,22.883,22.883,0,0,1-2.611,2.542c-1.049.9-2.142,1.739-3.25,2.56-.509.377-1.021.751-1.527,1.132-.823.62-1.656,1.227-2.484,1.839l-.82.61a1.775,1.775,0,0,1-1.074.355c-.544,0-1.087,0-1.631,0" fill="#3a0b0b"/>
    <path id="Path_1418" data-name="Path 1418" d="M672.993,156.706h-1.656a.655.655,0,0,0-.724.671,3.933,3.933,0,0,0,.36,2.039,2.943,2.943,0,0,0,1.742,1.492,5.369,5.369,0,0,0,1.74.289c.8.015,1.6-.005,2.406.013.884.019,1.768.012,2.653.016a11.034,11.034,0,0,0,3.808-.626,11.753,11.753,0,0,1,2.482-.609,8,8,0,0,1,3.743.426c.394.141.769.328,1.163.468a4.932,4.932,0,0,0,1.926.335,7.642,7.642,0,0,0,3.3-.857,3.5,3.5,0,0,0,1.882-2.42,4.881,4.881,0,0,0,.063-1.4c-.046-.6-.1-1.2-.174-1.8a16.783,16.783,0,0,0-.984-4.181c-.134-.331-.322-.639-.432-.982a4.561,4.561,0,0,1-.22-1.836c.111-1.158.273-2.311.412-3.466q.2-1.648.4-3.3c.116-.954.237-1.907.353-2.861q.2-1.656.4-3.311.135-1.11.277-2.219a.275.275,0,0,1,.312-.269.29.29,0,0,1,.235.344c-.15,1.219-.3,2.438-.452,3.657q-.266,2.175-.527,4.35-.252,2.073-.509,4.145c-.112.919-.232,1.838-.333,2.759a4.139,4.139,0,0,0,.407,2.362,11.139,11.139,0,0,1,.879,2.725,25.384,25.384,0,0,1,.443,3.031c.036.42.086.841.093,1.263a4.052,4.052,0,0,1-1.427,3.327,5.54,5.54,0,0,1-1.752.979,8.869,8.869,0,0,1-2.513.511,5.849,5.849,0,0,1-2.737-.562,8.142,8.142,0,0,0-2.469-.69,7.862,7.862,0,0,0-2.48.158,21.141,21.141,0,0,0-2.049.6,10.08,10.08,0,0,1-2.767.485c-1.268.044-2.536.022-3.8.01-.7-.007-1.406.007-2.108-.018a5.551,5.551,0,0,1-2.257-.5,3.492,3.492,0,0,1-1.976-2.707,4.436,4.436,0,0,1-.058-1.3,1.2,1.2,0,0,1,1.224-1.087q1.623,0,3.248,0a1.46,1.46,0,0,0,.913-.3c1.38-1.034,2.76-2.069,4.15-3.091.847-.624,1.694-1.247,2.518-1.9a32.8,32.8,0,0,0,3.267-2.9c.2-.211.394-.434.587-.655a2.375,2.375,0,0,0,.555-1.6c.01-.824.016-1.647.035-2.471.023-.94.034-1.88.054-2.819.018-.884.037-1.768.049-2.652.012-.953.033-1.906.051-2.858q.022-1.105.048-2.212a.768.768,0,0,1,.019-.179.263.263,0,0,1,.283-.2.25.25,0,0,1,.246.252c0,.362-.007.724-.012,1.087,0,.047-.008.094-.008.142-.012.793-.017,1.587-.036,2.38q-.033,1.449-.052,2.9c-.012.888-.033,1.776-.05,2.664-.017.949-.023,1.9-.057,2.846-.018.491.005.983-.038,1.473a2.806,2.806,0,0,1-.668,1.61,22.883,22.883,0,0,1-2.611,2.542c-1.049.9-2.142,1.739-3.25,2.56-.509.377-1.021.751-1.527,1.132-.823.62-1.656,1.227-2.484,1.839l-.82.61a1.775,1.775,0,0,1-1.074.355C674.08,156.709,673.537,156.706,672.993,156.706Z" fill="none" stroke="#3a0b0b" stroke-miterlimit="10" stroke-width="0.5"/>
    <path id="Path_1419" data-name="Path 1419" d="M689.909,140.594a.938.938,0,0,1,.308.034.469.469,0,0,1,.368.375.3.3,0,0,0,.212.25c.221.085.445.163.665.252a2.43,2.43,0,0,1,.672.381,1.1,1.1,0,0,1,.368,1.165,2.187,2.187,0,0,1-.188.522.823.823,0,0,0,.119,1.02,1.46,1.46,0,0,0,.343.313,1.158,1.158,0,0,1,.517,1.345,1.573,1.573,0,0,1-.763,1.059.809.809,0,0,1-.839-.009.293.293,0,0,0-.435.059,4.022,4.022,0,0,0-.452.581,2.748,2.748,0,0,1-.335.411.633.633,0,0,1-1.06-.155,3.429,3.429,0,0,1-.346-1.025c-.074-.346-.133-.695-.2-1.041a1.258,1.258,0,0,1,.161-.871c.165-.3.39-.569.541-.881a2.983,2.983,0,0,0,.176-.458.485.485,0,0,0-.2-.577,5,5,0,0,1-.73-.656,1.576,1.576,0,0,1-.372-.658.95.95,0,0,1,.329-1.022,1.732,1.732,0,0,1,1.142-.414m2.08,2.168a.558.558,0,0,0-.205-.449,2.3,2.3,0,0,0-.71-.364,4.533,4.533,0,0,1-.623-.251.716.716,0,0,1-.384-.448.122.122,0,0,0-.137-.1,1.24,1.24,0,0,0-.793.269.431.431,0,0,0-.15.519,1.024,1.024,0,0,0,.225.374,5.074,5.074,0,0,0,.673.6,1,1,0,0,1,.389,1.144,3.073,3.073,0,0,1-.521,1.076,1.331,1.331,0,0,0-.286,1.26c.125.424.162.873.313,1.293a.9.9,0,0,0,.125.254c.055.07.111.085.182.014a2.883,2.883,0,0,0,.3-.375,3.753,3.753,0,0,1,.536-.662.788.788,0,0,1,.995-.123.34.34,0,0,0,.471-.049,1.124,1.124,0,0,0,.369-.609.639.639,0,0,0-.3-.777,1.847,1.847,0,0,1-.808-1.173,1.029,1.029,0,0,1,.114-.749,1.589,1.589,0,0,0,.23-.674" fill="#3a0b0b"/>
    <path id="Path_1420" data-name="Path 1420" d="M689.909,140.594a.938.938,0,0,1,.308.034.469.469,0,0,1,.368.375.3.3,0,0,0,.212.25c.221.085.445.163.665.252a2.43,2.43,0,0,1,.672.381,1.1,1.1,0,0,1,.368,1.165,2.187,2.187,0,0,1-.188.522.823.823,0,0,0,.119,1.02,1.46,1.46,0,0,0,.343.313,1.158,1.158,0,0,1,.517,1.345,1.573,1.573,0,0,1-.763,1.059.809.809,0,0,1-.839-.009.293.293,0,0,0-.435.059,4.022,4.022,0,0,0-.452.581,2.748,2.748,0,0,1-.335.411.633.633,0,0,1-1.06-.155,3.429,3.429,0,0,1-.346-1.025c-.074-.346-.133-.695-.2-1.041a1.258,1.258,0,0,1,.161-.871c.165-.3.39-.569.541-.881a2.983,2.983,0,0,0,.176-.458.485.485,0,0,0-.2-.577,5,5,0,0,1-.73-.656,1.576,1.576,0,0,1-.372-.658.95.95,0,0,1,.329-1.022A1.732,1.732,0,0,1,689.909,140.594Zm2.08,2.168a.558.558,0,0,0-.205-.449,2.3,2.3,0,0,0-.71-.364,4.533,4.533,0,0,1-.623-.251.716.716,0,0,1-.384-.448.122.122,0,0,0-.137-.1,1.24,1.24,0,0,0-.793.269.431.431,0,0,0-.15.519,1.024,1.024,0,0,0,.225.374,5.074,5.074,0,0,0,.673.6,1,1,0,0,1,.389,1.144,3.073,3.073,0,0,1-.521,1.076,1.331,1.331,0,0,0-.286,1.26c.125.424.162.873.313,1.293a.9.9,0,0,0,.125.254c.055.07.111.085.182.014a2.883,2.883,0,0,0,.3-.375,3.753,3.753,0,0,1,.536-.662.788.788,0,0,1,.995-.123.34.34,0,0,0,.471-.049,1.124,1.124,0,0,0,.369-.609.639.639,0,0,0-.3-.777,1.847,1.847,0,0,1-.808-1.173,1.029,1.029,0,0,1,.114-.749A1.589,1.589,0,0,0,691.989,142.762Z" fill="none" stroke="#3a0b0b" stroke-miterlimit="10" stroke-width="0.5"/>
    <path id="Path_1421" data-name="Path 1421" d="M679.983,159.806a6.118,6.118,0,0,1-1.782-.314.93.93,0,0,1-.055-1.716,3.9,3.9,0,0,0,.671-.36,1.769,1.769,0,0,0,.665-.9,3,3,0,0,1,.674-1.152,1.157,1.157,0,0,1,1.651-.123,2.611,2.611,0,0,1,.57.612.668.668,0,0,0,.573.3.911.911,0,0,1,.969.86,1,1,0,0,1-.853,1.1,2.822,2.822,0,0,0-1.038.412,4.017,4.017,0,0,0-.878.7.406.406,0,0,0-.066.079.963.963,0,0,1-.823.48c-.1.013-.206.017-.278.023m-.087-.568h.155c.249,0,.485-.027.609-.3a.646.646,0,0,1,.13-.143,4.183,4.183,0,0,1,.726-.6,3.506,3.506,0,0,1,1.472-.631.463.463,0,0,0,.381-.509c-.016-.229-.16-.345-.438-.355a1.186,1.186,0,0,1-.978-.493,2.181,2.181,0,0,0-.539-.57.592.592,0,0,0-.791.044,1.359,1.359,0,0,0-.137.137,2.643,2.643,0,0,0-.492.9,2.234,2.234,0,0,1-.839,1.133,4.237,4.237,0,0,1-.747.41.365.365,0,0,0-.251.369.393.393,0,0,0,.292.355,5.014,5.014,0,0,0,1.447.246" fill="#3a0b0b"/>
    <path id="Path_1422" data-name="Path 1422" d="M679.983,159.806a6.118,6.118,0,0,1-1.782-.314.93.93,0,0,1-.055-1.716,3.9,3.9,0,0,0,.671-.36,1.769,1.769,0,0,0,.665-.9,3,3,0,0,1,.674-1.152,1.157,1.157,0,0,1,1.651-.123,2.611,2.611,0,0,1,.57.612.668.668,0,0,0,.573.3.911.911,0,0,1,.969.86,1,1,0,0,1-.853,1.1,2.822,2.822,0,0,0-1.038.412,4.017,4.017,0,0,0-.878.7.406.406,0,0,0-.066.079.963.963,0,0,1-.823.48C680.158,159.8,680.055,159.8,679.983,159.806Zm-.087-.568h.155c.249,0,.485-.027.609-.3a.646.646,0,0,1,.13-.143,4.183,4.183,0,0,1,.726-.6,3.506,3.506,0,0,1,1.472-.631.463.463,0,0,0,.381-.509c-.016-.229-.16-.345-.438-.355a1.186,1.186,0,0,1-.978-.493,2.181,2.181,0,0,0-.539-.57.592.592,0,0,0-.791.044,1.359,1.359,0,0,0-.137.137,2.643,2.643,0,0,0-.492.9,2.234,2.234,0,0,1-.839,1.133,4.237,4.237,0,0,1-.747.41.365.365,0,0,0-.251.369.393.393,0,0,0,.292.355A5.014,5.014,0,0,0,679.9,159.238Z" fill="none" stroke="#3a0b0b" stroke-miterlimit="10" stroke-width="0.5"/>
    <path id="Path_1423" data-name="Path 1423" d="M694.182,152.458a2.679,2.679,0,0,1-.561,1.583.262.262,0,0,1-.368.055.271.271,0,0,1-.064-.388,2.557,2.557,0,0,0,.4-.9,2.038,2.038,0,0,0-.452-1.669,3.693,3.693,0,0,0-.406-.433.276.276,0,0,1-.048-.411.282.282,0,0,1,.416,0,3.039,3.039,0,0,1,1.056,1.832c.016.111.016.223.024.335" fill="#3a0b0b"/>
    <path id="Path_1424" data-name="Path 1424" d="M694.182,152.458a2.679,2.679,0,0,1-.561,1.583.262.262,0,0,1-.368.055.271.271,0,0,1-.064-.388,2.557,2.557,0,0,0,.4-.9,2.038,2.038,0,0,0-.452-1.669,3.693,3.693,0,0,0-.406-.433.276.276,0,0,1-.048-.411.282.282,0,0,1,.416,0,3.039,3.039,0,0,1,1.056,1.832C694.174,152.234,694.174,152.346,694.182,152.458Z" fill="none" stroke="#3a0b0b" stroke-miterlimit="10" stroke-width="0.5"/>
  </g>
</svg>
