<svg xmlns="http://www.w3.org/2000/svg" width="23.905" height="19.987" viewBox="0 0 23.905 19.987">
  <g id="Group_158" data-name="Group 158" transform="translate(-2171.226 -201.201)">
    <path id="Path_602" data-name="Path 602" d="M2175.31,217.52a1.6,1.6,0,0,0,.21-.012.425.425,0,0,0,.417-.458v-.013a.405.405,0,0,0-.4-.443c-.19-.014-.382-.021-.573-.021s-.394.007-.589.023a.408.408,0,0,0-.4.446v.009a.42.42,0,0,0,.39.449,1.294,1.294,0,0,0,.209.014c.117,0,.239-.009.365-.009h.085v.009c.095,0,.19.006.281.006" fill="#3a0b0b"/>
    <path id="Path_603" data-name="Path 603" d="M2177.531,203.137h-1.936q-1.162,0-2.324,0a.7.7,0,0,0-.429.114.41.41,0,0,0-.152.317l0,.044a.408.408,0,0,0,.145.33.679.679,0,0,0,.435.129c1.562,0,3.124,0,4.686,0,.055,0,.119-.008.193-.008a.565.565,0,0,1,.3.076l.089.052-.067.078c-.253.3-.5.579-.739.867a.684.684,0,0,0-.186.423.414.414,0,0,0,.166.324.419.419,0,0,0,.276.106.645.645,0,0,0,.463-.254q.75-.859,1.49-1.729a.654.654,0,0,0,.2-.4.692.692,0,0,0-.212-.424q-.726-.856-1.463-1.7a.661.661,0,0,0-.47-.282.429.429,0,0,0-.289.126.415.415,0,0,0-.16.313.768.768,0,0,0,.221.466c.229.273.459.545.75.889l.119.141h-1.1" fill="#ff8c00"/>
    <path id="Path_604" data-name="Path 604" d="M2179.579,219.27a.426.426,0,0,0,.427-.461.419.419,0,0,0-.427-.457c-.177-.011-.355-.017-.533-.017s-.371.006-.556.016a.429.429,0,0,0-.443.449l0,.032a.455.455,0,0,0,.453.441c.06.005.121.007.185.007l.232,0v0H2179c.124,0,.246.006.364.006a1.908,1.908,0,0,0,.214-.01" fill="#3a0b0b"/>
    <path id="Path_605" data-name="Path 605" d="M2192.7,216.722V216.7a.4.4,0,0,0-.377-.434c-.2-.02-.406-.03-.61-.03s-.393.009-.586.028a.4.4,0,0,0-.387.437l0,.048v0a.418.418,0,0,0,.43.421c.066.005.132.007.2.007.109,0,.22-.005.341-.005s.232.005.344.005c.067,0,.133,0,.2-.006a.426.426,0,0,0,.443-.447" fill="#3a0b0b"/>
    <path id="Path_606" data-name="Path 606" d="M2187.648,221.1q1.539,0,3.078,0a4.288,4.288,0,0,0,4.385-4.257q.022-1.551.02-3.1c0-1.549-.011-3.1-.013-4.649a.606.606,0,0,0-.138-.448.631.631,0,0,0-.456-.134h-1.284c-.713,0-1.426,0-2.138.026-.427.014-.854.024-1.28.024a12.345,12.345,0,0,1-3.88-.515l-.113-.021-.009,0a.685.685,0,0,0-.2-.032.6.6,0,0,0-.49.295c-.488.653-1,1.287-1.479,1.94-.093.118-.159.213-.29.222-.124-.007-.194-.1-.279-.231-.368-.6-.768-1.185-1.155-1.78a2.442,2.442,0,0,0-.3-.412.346.346,0,0,0-.262-.1,2.06,2.06,0,0,0-.468.083,18.885,18.885,0,0,1-4.635.563q-.5,0-1.008-.024c-.618-.029-1.238-.035-1.858-.035l-.954,0h-.512c-.309,0-.479.044-.566.138a.854.854,0,0,0-.133.592q0,2.248,0,4.5,0,1.45,0,2.9a4.317,4.317,0,0,0,4.463,4.462h7.478v0h4.479M2172.281,209.5a.469.469,0,0,1,.258-.05h.029l1.349,0c.488,0,.981,0,1.483,0h.007q.651.051,1.3.052a15.664,15.664,0,0,0,4.015-.519.676.676,0,0,1,.183-.027.487.487,0,0,1,.426.278c.459.745.945,1.476,1.417,2.217.2.31.382.441.546.439.148,0,.326-.105.526-.36.59-.753,1.168-1.516,1.751-2.275l.126-.155a.307.307,0,0,1,.217-.091l.129.023a10.852,10.852,0,0,0,3.491.462c.838,0,1.681-.04,2.525-.04.082,0,.165,0,.247,0,.191,0,.383,0,.575,0,.307,0,.613,0,.918-.014h.031a.346.346,0,0,1,.271.094.4.4,0,0,1,.078.271h0v.016q-.008.8-.007,1.6,0,.774.008,1.547v.02l0,.006a.367.367,0,0,1-.1.283.552.552,0,0,1-.285.1,5.144,5.144,0,0,1-.784.061,6.6,6.6,0,0,1-2.984-.805,3.4,3.4,0,0,0-1.348-.255l-.063,0a1.6,1.6,0,0,0-1.074.564,10.281,10.281,0,0,0-.975,1.217c-.24.311-.475.632-.749.923a3.621,3.621,0,0,1-2.644,1.167,3.68,3.68,0,0,1-2.433-.939,7.584,7.584,0,0,1-1.045-1.2c-.2-.271-.416-.538-.625-.809a1.947,1.947,0,0,0-1.591-.845,2.634,2.634,0,0,0-.761.123,5.093,5.093,0,0,0-.98.354,5.093,5.093,0,0,1-2.57.486h-.426c-.092,0-.184,0-.276,0a.3.3,0,0,1-.244-.093.353.353,0,0,1-.061-.233c0-.582,0-1.163,0-1.743,0-.522,0-1.043-.006-1.564v-.009a.313.313,0,0,1,.122-.287m10.855,10.67v0h-7.36a3.4,3.4,0,0,1-3.612-3.607c0-.34,0-.679,0-1.018,0-.237,0-.474-.011-.711v-.047a.482.482,0,0,1,.082-.314.37.37,0,0,1,.3-.116l.075,0c.079.006.16.008.241.008.161,0,.326-.008.494-.008l.168,0c.076,0,.153.005.229.005a5.135,5.135,0,0,0,2.28-.539,4.534,4.534,0,0,1,1.178-.38,1.405,1.405,0,0,1,.254-.024,1.042,1.042,0,0,1,.864.451c.367.48.729.962,1.11,1.426a4.693,4.693,0,0,0,2.963,1.812,5.555,5.555,0,0,0,.841.066,4.267,4.267,0,0,0,3.177-1.366,18.174,18.174,0,0,0,1.388-1.746c.376-.5.646-.74,1.059-.739a2.589,2.589,0,0,1,.788.172,2.67,2.67,0,0,1,.452.179,5.508,5.508,0,0,0,2.71.691,6.662,6.662,0,0,0,.853-.056l.143-.011a.358.358,0,0,1,.29.109.48.48,0,0,1,.088.322v.058c-.01.231-.014.464-.014.7,0,.323.006.647.006.972,0,.085,0,.17,0,.256a3.378,3.378,0,0,1-3.45,3.449q-1.529.006-3.056.006l-4.539,0" fill="#3a0b0b"/>
    <path id="Path_607" data-name="Path 607" d="M2188.973,201.2a.612.612,0,0,0-.439.254q-.765.871-1.514,1.756a.634.634,0,0,0-.2.391.645.645,0,0,0,.2.4q.737.87,1.487,1.728a.648.648,0,0,0,.472.264.421.421,0,0,0,.289-.12.4.4,0,0,0,.141-.306.758.758,0,0,0-.192-.451,6.829,6.829,0,0,1-.734-.915l-.073-.128h2.944l2.32,0a.717.717,0,0,0,.447-.124.414.414,0,0,0,.155-.327V203.6a.408.408,0,0,0-.15-.334.71.71,0,0,0-.452-.129l-1.752,0h-3.448l.024-.1c.023-.082,0-.079.044-.143.228-.271.457-.539.682-.81a.7.7,0,0,0,.187-.432.419.419,0,0,0-.153-.319.432.432,0,0,0-.291-.127" fill="#ff8c00"/>
    <path id="Path_608" data-name="Path 608" d="M2185.732,218.167v.025a.4.4,0,0,0,.379.433q.3.027.6.027t.6-.027a.4.4,0,0,0,.38-.44v-.016a.42.42,0,0,0-.433-.453c-.066-.006-.132-.008-.2-.008-.109,0-.221.005-.341.005s-.23,0-.341,0c-.069,0-.136,0-.2.007l-.007-.086.006.086a.426.426,0,0,0-.439.451" fill="#3a0b0b"/>
  </g>
</svg>
