<svg xmlns="http://www.w3.org/2000/svg" width="22.904" height="19.449" viewBox="0 0 22.904 19.449">
  <g id="Group_163" data-name="Group 163" transform="translate(-1911.582 -201.47)">
    <path id="Path_626" data-name="Path 626" d="M1934.486,216.688a3.2,3.2,0,0,1-.814,1.611,3.556,3.556,0,0,1-3.288,1.166,2.127,2.127,0,0,1-1.617-3.145,3.674,3.674,0,0,1,3.949-2,2.086,2.086,0,0,1,1.732,1.683.816.816,0,0,0,.038.1Zm-3.566,2.176c.132-.011.237-.012.34-.029a2.917,2.917,0,0,0,2.439-1.846,1.437,1.437,0,0,0-1.08-2,3.025,3.025,0,0,0-3.271,1.664,1.487,1.487,0,0,0,1.155,2.171c.146.028.3.032.417.044" fill="#ff8c00"/>
    <path id="Path_627" data-name="Path 627" d="M1920.037,209.422a2.9,2.9,0,0,1-1.427-2.035,3.6,3.6,0,0,1,.8-3.008.573.573,0,0,0,.107-.627,2.367,2.367,0,0,0-1.655-1.5,3.3,3.3,0,0,0-1.723,0,.518.518,0,0,0-.208.124,7.238,7.238,0,0,0-.9.87c-.076.089-.124.11-.227.023-.412-.348-.416-.343-.043-.725.073-.075.154-.143.22-.222a2.418,2.418,0,0,1,1.995-.855,3.275,3.275,0,0,1,2.94,1.55,2.114,2.114,0,0,1,.341,1.163.6.6,0,0,1-.176.438,3,3,0,0,0-.853,1.9,2.383,2.383,0,0,0,2.089,2.663c.484.084.978.069,1.463.171a5.713,5.713,0,0,1,4.471,6.218,5.047,5.047,0,0,1-.229,1.067.206.206,0,0,0,.091.273,2.005,2.005,0,0,1,.882,1.974,2.171,2.171,0,0,1-1.266,1.63,3.422,3.422,0,0,1-3.3-.036c-.085-.045-.159-.108-.268-.075a7.288,7.288,0,0,1-2.747.176,10.359,10.359,0,0,1-4.283-1.219,8.464,8.464,0,0,1-4.22-5.717,12.5,12.5,0,0,1,1.207-8.83c.077-.15.139-.167.284-.081.391.231.391.221.2.618a11.69,11.69,0,0,0-.978,8.349,7.782,7.782,0,0,0,5.367,5.732l.128.037a5.741,5.741,0,0,1,1.919-10.044m6.58,5.474a4.474,4.474,0,0,0-.091-.946,5.031,5.031,0,1,0-4.114,5.937c.246-.046.245-.046.118-.251a1.11,1.11,0,0,1-.126-.235c-.048-.153-.139-.175-.287-.156a4.356,4.356,0,1,1,1.9-7.94c.406.273.4.268.094.646-.1.124-.161.146-.3.039a3.394,3.394,0,0,0-2-.743,3.539,3.539,0,0,0-3.464,1.939,3.468,3.468,0,0,0,.287,3.932,3.544,3.544,0,0,0,3.4,1.465c.145-.014.187-.072.191-.206a1.337,1.337,0,0,1,.149-.557,2.8,2.8,0,0,1,2.411-1.528.307.307,0,0,0,.319-.255,3.678,3.678,0,0,0-.431-3.126c-.225-.357-.222-.346.1-.637.142-.128.207-.091.3.043a4.366,4.366,0,0,1,.765,3.536c-.03.152-.141.346-.083.44s.286.081.427.143c.165.072.2-.007.239-.141a5.088,5.088,0,0,0,.182-1.4m-1.5,2.046a2.554,2.554,0,0,0-1.678.561,1.34,1.34,0,0,0,0,2.173,2.789,2.789,0,0,0,3.375-.015,1.339,1.339,0,0,0,0-2.144,2.559,2.559,0,0,0-1.7-.575" fill="#3a0b0b"/>
    <path id="Path_628" data-name="Path 628" d="M1930.352,213.7a3.424,3.424,0,0,1-3.239-2.939,2.005,2.005,0,0,1,2.212-2.247,3.447,3.447,0,0,1,3.078,2.763,2,2,0,0,1-2.051,2.423m-.005-.672a1.334,1.334,0,0,0,1.389-1.683,2.809,2.809,0,0,0-2.362-2.16,1.359,1.359,0,0,0-1.587,1.572,2.758,2.758,0,0,0,2.56,2.271" fill="#3a0b0b"/>
    <path id="Path_629" data-name="Path 629" d="M1914.489,203.849a2.282,2.282,0,0,1-.346.531c-.075.01-.119-.052-.172-.087-.389-.259-.381-.255-.132-.64.1-.15.174-.169.306-.055.084.072.183.127.274.191a.881.881,0,0,1,.07.06" fill="#3a0b0b"/>
    <path id="Path_630" data-name="Path 630" d="M1918.214,204.171c-.313,0-.313,0-.313-.387,0-.284,0-.284.393-.284.278,0,.278,0,.278.4,0,.273,0,.273-.358.273" fill="#3a0b0b"/>
    <path id="Path_631" data-name="Path 631" d="M1917.23,205.18c0-.339,0-.339.361-.339.31,0,.31,0,.31.388,0,.283,0,.286-.392.282-.324,0-.273.052-.279-.331" fill="#3a0b0b"/>
    <path id="Path_632" data-name="Path 632" d="M1930.946,218.111a.944.944,0,0,1-.911-.448.9.9,0,0,1,.127-.946c.305-.459.473-.454.76.014.032.053.047.089,0,.133a.433.433,0,0,0-.048.047c-.108.136-.313.276-.208.449.091.152.318.084.48.04a1.7,1.7,0,0,0,1.247-.941c.086-.2.348-.232.533-.334.061-.034.075.05.09.1a.885.885,0,0,1-.155.8,2.527,2.527,0,0,1-1.912,1.087" fill="#ff8c00"/>
    <path id="Path_633" data-name="Path 633" d="M1920.854,216.342a2.081,2.081,0,0,1-.9-.208,1.585,1.585,0,0,1-.782-2.177,2.678,2.678,0,0,1,3.374-1.231,1.591,1.591,0,0,1,.767,2.232,2.709,2.709,0,0,1-2.459,1.384m.082-.667a2,2,0,0,0,1.754-.968.933.933,0,0,0-.5-1.406,1.64,1.64,0,0,0-.79-.1,1.976,1.976,0,0,0-1.546.9.943.943,0,0,0,.512,1.478,1.681,1.681,0,0,0,.572.1" fill="#ff8c00"/>
    <path id="Path_634" data-name="Path 634" d="M1925.128,219.565a2,2,0,0,1-1.185-.321.754.754,0,0,1,.013-1.325,1.822,1.822,0,0,1,.485-.217c.124-.041.182-.018.2.11.005.037.01.073.018.11a.959.959,0,0,1,.062.346c-.027.125-.2.085-.3.156-.069.051-.184.07-.175.177.007.089.1.125.177.153a1.631,1.631,0,0,0,1.554-.1c.2-.13.433-.055.649-.041.081.005.043.117.025.174a.906.906,0,0,1-.434.516,2.08,2.08,0,0,1-1.091.266" fill="#3a0b0b"/>
    <path id="Path_635" data-name="Path 635" d="M1930.4,212.4a2.252,2.252,0,0,1-1.963-1.709.719.719,0,0,1,.694-.854,1.278,1.278,0,0,1,.354.028c.518.112.577.312.232.72-.068.081-.113.032-.171.01-.137-.053-.316-.164-.413-.049s.029.3.115.419a1.614,1.614,0,0,0,1.146.769c.227.029.355.252.512.4.047.045-.035.088-.072.115a.788.788,0,0,1-.434.148" fill="#3a0b0b"/>
    <path id="Path_636" data-name="Path 636" d="M1920.664,214.716c0-.069.011-.121.009-.173-.007-.157.047-.234.223-.249a1.255,1.255,0,0,0,.617-.235c.049-.035.092-.076.153-.014.114.117.233.229.35.343.093.091,0,.131-.054.17a2.122,2.122,0,0,1-1.174.425c-.274.017-.068-.2-.124-.267" fill="#ff8c00"/>
  </g>
</svg>
