<svg xmlns="http://www.w3.org/2000/svg" width="23.419" height="23.419" viewBox="0 0 23.419 23.419">
  <g id="Group_162" data-name="Group 162" transform="translate(-1911.324 -231.001)">
    <path id="Path_613" data-name="Path 613" d="M1927.884,240.333c.632,0,1.265,0,1.9,0,.157,0,.234-.026.279-.205a2.381,2.381,0,1,1,.016,1.194c-.057-.216-.14-.266-.349-.265-1.25.01-2.5.007-3.75,0-.157,0-.238.024-.278.205a2.275,2.275,0,0,1-1.02,1.433.2.2,0,0,0-.1.258q.357,1.253.7,2.509a.2.2,0,0,0,.231.176,2.357,2.357,0,0,1,2.45,2.615.169.169,0,0,0,.144.208c.68.224,1.359.449,2.036.682.137.047.2,0,.275-.108a2.376,2.376,0,1,1,3.016,3.477,2.375,2.375,0,0,1-3.418-2.42c.02-.178-.024-.237-.183-.288-.645-.206-1.288-.422-1.929-.643a.206.206,0,0,0-.289.1,2.358,2.358,0,0,1-3.639.474c-.108-.1-.174-.121-.3-.025q-.793.6-1.6,1.175a.235.235,0,0,0-.094.334,2.375,2.375,0,0,1-4.356,1.877,2.274,2.274,0,0,1-.146-1.754.224.224,0,0,0-.1-.3c-.636-.447-1.269-.9-1.9-1.356a.214.214,0,0,0-.31.012,2.375,2.375,0,1,1-1.788-4.225c.171-.026.237-.083.26-.261q.168-1.292.37-2.578c.027-.174-.03-.216-.18-.262a3.476,3.476,0,1,1,4.417-3.864,3.59,3.59,0,0,1,.031.775c-.009.112.026.16.14.184q1.272.277,2.542.567c.112.025.159,0,.2-.111a2.345,2.345,0,0,1,3.087-1.457c.126.04.173,0,.232-.094.589-.988,1.179-1.976,1.779-2.957.09-.147.033-.2-.067-.3a2.382,2.382,0,1,1,1.037.555.276.276,0,0,0-.373.155c-.576.978-1.163,1.95-1.752,2.92a.208.208,0,0,0,.026.309,2.139,2.139,0,0,1,.589,1.091c.032.148.1.176.231.175.648-.006,1.3,0,1.944,0m-3.291,5.43c-.007-.03-.013-.06-.021-.089-.228-.83-.458-1.659-.684-2.488-.03-.107-.079-.138-.195-.13a2.345,2.345,0,0,1-2.651-2.074.224.224,0,0,0-.207-.215q-1.273-.276-2.542-.567c-.141-.032-.206-.008-.27.138a3.411,3.411,0,0,1-3.1,2.186c-.12.007-.175.036-.192.16q-.187,1.347-.385,2.692a.162.162,0,0,0,.136.214,1.943,1.943,0,0,1,.532.259,2.37,2.37,0,0,1,.85,2.984c-.042.093-.116.172.022.268.638.444,1.268.9,1.9,1.352a.128.128,0,0,0,.207-.02,2.366,2.366,0,0,1,3.38-.12.15.15,0,0,0,.232.018q.843-.627,1.7-1.243a.164.164,0,0,0,.077-.226,2.369,2.369,0,0,1,1.112-2.95c.06-.031.131-.057.108-.149m-12.535-6.719a2.742,2.742,0,1,0,2.739-2.735,2.745,2.745,0,0,0-2.739,2.735m1.642,10.433a1.645,1.645,0,1,0-1.642-1.641,1.646,1.646,0,0,0,1.642,1.641m20.305.919a1.644,1.644,0,1,0-1.641,1.643,1.647,1.647,0,0,0,1.641-1.643m-12.621,1.638a1.645,1.645,0,1,0-1.639,1.65,1.649,1.649,0,0,0,1.639-1.65m8.049-18.664a1.645,1.645,0,1,0-1.634,1.655,1.647,1.647,0,0,0,1.634-1.655m-4.391,7.325a1.645,1.645,0,1,0-1.641,1.648,1.649,1.649,0,0,0,1.641-1.648m.552,8.964a1.644,1.644,0,1,0-1.646-1.642,1.648,1.648,0,0,0,1.646,1.642m6.8-10.6a1.645,1.645,0,1,0,1.61,1.678,1.648,1.648,0,0,0-1.61-1.678" fill="#3a0b0b"/>
    <path id="Path_614" data-name="Path 614" d="M1920.661,233.564a1.1,1.1,0,1,1-1.1,1.1,1.1,1.1,0,0,1,1.1-1.1m0,.735a.363.363,0,1,0,.359.366.37.37,0,0,0-.359-.366" fill="#ff8c00"/>
    <path id="Path_615" data-name="Path 615" d="M1926.685,251.126a1.1,1.1,0,1,1-1.092,1.09,1.095,1.095,0,0,1,1.092-1.09m.367,1.1a.363.363,0,1,0-.368.357.369.369,0,0,0,.368-.357" fill="#ff8c00"/>
    <path id="Path_616" data-name="Path 616" d="M1919.555,232.092a.365.365,0,1,1-.367-.356.366.366,0,0,1,.367.356" fill="#ff8c00"/>
    <path id="Path_617" data-name="Path 617" d="M1929.067,254.056a.365.365,0,1,1-.355-.369.366.366,0,0,1,.355.369" fill="#ff8c00"/>
    <path id="Path_618" data-name="Path 618" d="M1915.165,239.048a.365.365,0,1,1-.363-.36.368.368,0,0,1,.363.36" fill="#3a0b0b"/>
    <path id="Path_619" data-name="Path 619" d="M1914.067,247.843a.365.365,0,1,1-.348-.375.367.367,0,0,1,.348.375" fill="#3a0b0b"/>
    <path id="Path_620" data-name="Path 620" d="M1932,250.376a.365.365,0,1,1,.341.381.368.368,0,0,1-.341-.381" fill="#3a0b0b"/>
    <path id="Path_621" data-name="Path 621" d="M1919.73,251.675a.365.365,0,1,1,.006.729.365.365,0,0,1-.006-.729" fill="#3a0b0b"/>
    <path id="Path_622" data-name="Path 622" d="M1927.786,233.017a.365.365,0,1,1-.363.361.366.366,0,0,1,.363-.361" fill="#3a0b0b"/>
    <path id="Path_623" data-name="Path 623" d="M1923.4,241.063a.365.365,0,1,1,.362-.361.366.366,0,0,1-.362.361" fill="#3a0b0b"/>
    <path id="Path_624" data-name="Path 624" d="M1925.957,248.02a.365.365,0,1,1-.354-.369.364.364,0,0,1,.354.369" fill="#3a0b0b"/>
    <path id="Path_625" data-name="Path 625" d="M1932.371,240.334a.365.365,0,1,1-.375.349.365.365,0,0,1,.375-.349" fill="#3a0b0b"/>
  </g>
</svg>
