<svg xmlns="http://www.w3.org/2000/svg" width="52.524" height="52.523" viewBox="0 0 52.524 52.523">
  <g id="Group_96" data-name="Group 96" transform="translate(-3121.564 -122.78)">
    <path id="Path_37" data-name="Path 37" d="M3173.338,149.042h-.75a24.763,24.763,0,1,1-7.253-17.51,24.682,24.682,0,0,1,7.253,17.51h1.5a26.262,26.262,0,1,0-26.262,26.261,26.263,26.263,0,0,0,26.262-26.261Z" fill="#ff8c00"/>
    <path id="Path_38" data-name="Path 38" d="M3148.41,139.913a1.35,1.35,0,0,0,.288-.824,1.321,1.321,0,0,0-.488-1.015c-.333-.281-.67-.554-1.007-.828l-.091-.079.065-.09q1.184-1.48,2.366-2.961a2.523,2.523,0,0,0,.573-1.576,2.375,2.375,0,0,0-.787-1.755,2.565,2.565,0,0,0-1.2-.586l-.013,0h-.781l-.193.061a2.365,2.365,0,0,0-1.275.825c-.322.4-.633.8-.949,1.193q-.757.953-1.516,1.9l-.037.04-.018-.012c-.328-.271-.666-.527-.991-.793a1.472,1.472,0,0,0-.932-.371,1.376,1.376,0,0,0-1.057.554q-.427.518-.838,1.048a1.377,1.377,0,0,0-.305.847,1.353,1.353,0,0,0,.536,1.054q.691.558,1.39,1.109l.029.027-.017.026c-.3.369-.59.744-.885,1.113q-1.05,1.315-2.1,2.63c-1.006,1.262-2.007,2.528-3.018,3.785a3.318,3.318,0,0,0-.525.885c-.2.528-.429,1.051-.647,1.579-.163.4-.33.791-.491,1.189l-.06.261a.532.532,0,0,0,.24.418c.2.162.407.323.608.485a.593.593,0,0,0,.372.164.6.6,0,0,0,.343-.131q1.231-.867,2.461-1.74a2.191,2.191,0,0,0,.437-.339c.37-.437.721-.888,1.075-1.333q1.374-1.729,2.745-3.459c.814-1.025,1.633-2.046,2.446-3.07l.1-.011c.465.376.934.746,1.4,1.117a1.321,1.321,0,0,0,1.843-.2q.464-.564.909-1.142m-13.616,9.151-.134.046-.158-.1.005-.086c.375-.907.748-1.815,1.125-2.721l.111-.17q1.47-1.841,2.944-3.681,1.575-1.979,3.146-3.961l.092-.111.109.079c.443.351.875.725,1.345,1.062l.075.077-.034.049q-2.289,2.879-4.581,5.756c-.534.671-1.067,1.342-1.608,2.005a3.2,3.2,0,0,1-.647.489c-.592.428-1.191.848-1.79,1.269m9.644-13.432v0a.471.471,0,0,0,.078-.262.452.452,0,0,0-.125-.318,2.749,2.749,0,0,0-.255-.213l0-.052q.846-1.058,1.689-2.116c.261-.327.515-.657.779-.976a1.394,1.394,0,0,1,1.1-.566,1.635,1.635,0,0,1,.392.052,1.374,1.374,0,0,1,1.045,1.106,2.326,2.326,0,0,1,.032.277,1.478,1.478,0,0,1-.347.933q-1.2,1.506-2.4,3.015l-.046.048-.04-.031c-.18-.168-.373-.311-.554-.458a.6.6,0,0,0-.378-.154.45.45,0,0,0-.336.156h0a.436.436,0,0,0-.123.3.54.54,0,0,0,.211.407c.541.455,1.088.9,1.63,1.35.279.23.558.458.823.695a.357.357,0,0,1,.139.268.433.433,0,0,1-.11.267c-.282.353-.56.707-.844,1.055a.4.4,0,0,1-.295.173.428.428,0,0,1-.259-.106c-.595-.462-1.182-.936-1.774-1.407l-2.434-1.938q-.84-.669-1.68-1.339a.4.4,0,0,1-.171-.308l.1-.249q.426-.546.867-1.079a.376.376,0,0,1,.29-.165.458.458,0,0,1,.279.117q.978.781,1.959,1.559l.012.008.17.108.018.009.184.038a.468.468,0,0,0,.386-.206" fill="#3a0b0b"/>
    <path id="Path_39" data-name="Path 39" d="M3160.831,150.3c-.012-.557-.016-1.112-.016-1.668,0-.862.009-1.725.009-2.587,0-.156,0-.311,0-.466a2.957,2.957,0,0,0-1.23-2.46,5.133,5.133,0,0,0-2.175-.9l-.1-.037-.018-.1q0-.708.005-1.415c0-.471,0-.943,0-1.413a.609.609,0,0,0-.139-.439.574.574,0,0,0-.431-.146c-.407,0-.813,0-1.218,0h-4.1a.632.632,0,0,0-.462.142.618.618,0,0,0-.144.46c0,.469,0,.941,0,1.413s0,.944.006,1.416l-.018.091-.095.033a5.313,5.313,0,0,0-1.666.568,3.109,3.109,0,0,0-1.744,2.894c0,.366,0,.733,0,1.1q0,2.58-.026,5.162c-.011.963-.013,1.928-.013,2.893,0,2.6.025,5.205.04,7.807v.033a1.454,1.454,0,0,0,.461,1.074,3.186,3.186,0,0,0,1.361.709,17.369,17.369,0,0,0,4.337.5c.2,0,.4.007.6.007.643,0,1.286-.025,1.927-.061a14.782,14.782,0,0,0,2.651-.35,3.962,3.962,0,0,0,1.591-.687,1.438,1.438,0,0,0,.593-1.139c.017-1.225.022-2.45.027-3.674,0-1.575.016-3.15.016-4.724,0-1.344-.008-2.687-.035-4.031m-.971,9.737c0,.487,0,.976,0,1.466q0,.563.007,1.126a.589.589,0,0,1-.284.534,3.747,3.747,0,0,1-1.4.521,16.3,16.3,0,0,1-2.482.283c-.524.026-1.046.037-1.569.038-.383,0-.764-.006-1.146-.017a14.509,14.509,0,0,1-3.537-.43,3.462,3.462,0,0,1-.8-.327.676.676,0,0,1-.387-.634v-.024c.007-.357.01-.712.01-1.068,0-.493,0-.984,0-1.474l0-.144h0a1.091,1.091,0,0,1,.155,0h1.388a.491.491,0,0,0,.5-.3v0l.036-.189a.484.484,0,0,0-.514-.466c-.211-.006-.422-.006-.633-.006l-.737,0h-.07l-.124,0c0-.022,0-.059,0-.123q0-1.895,0-3.785t0-3.784l0-.142.14-.006h8.508a.962.962,0,0,0,.258-.026.481.481,0,0,0,.37-.457v-.027a.473.473,0,0,0-.416-.445h-.013l-.22-.008h-8.487l-.139,0a1,1,0,0,1-.005-.141c0-.209,0-.417,0-.626,0-.147,0-.295,0-.444v-.018l.006-.059v0l.094-.013q1.782,0,3.566,0h7.812l.122,0c0,.023,0,.062,0,.128,0,.177,0,.355,0,.533s0,.355,0,.534l0,.1h-.6c-.17,0-.34,0-.511,0a.458.458,0,0,0-.455.313v0h0l-.029.17a.461.461,0,0,0,.16.347.611.611,0,0,0,.434.127c.177,0,.356,0,.537,0,.131,0,.263,0,.4,0l.062.007.006,0,.01.074q-.006,2.087,0,4.176,0,1.755,0,3.512l-.009.067h0l-.107.009q-2.357-.006-4.709,0h-3.347l-.224.027a.466.466,0,0,0-.349.451.474.474,0,0,0,.343.46l.222.027h8.025l.145,0h0a1.242,1.242,0,0,1,.005.152m-5.517-16.949h.008l.2-.014.019,0a.459.459,0,0,0,.363-.456v-.034a.468.468,0,0,0-.414-.431h-.011l-.2,0c-.427,0-.851,0-1.275,0-.4,0-.79,0-1.183,0l-.061,0-.006,0-.005-.042v-.017c0-.121.006-.242.006-.364s0-.236-.006-.355v-.019l.005-.043.08-.01q.875,0,1.754,0h1.609l.234-.022.017,0,.015-.005a.486.486,0,0,0,.32-.44l0-.042a.463.463,0,0,0-.411-.428h-.011l-.187-.005h-3.321l-.1,0,0-.064v-.03c0-.1,0-.209,0-.314,0-.087,0-.176,0-.264l.044-.046h2.143c.77,0,1.539,0,2.308,0l.073.007.009,0,.011.089c0,.382-.006.765-.006,1.148s0,.793.006,1.19l-.012.083-.027,0-.035,0h-.208a.468.468,0,0,0-.456.453v0a.471.471,0,0,0,.432.478l.215.008.22,0a4.351,4.351,0,0,1,2.371.683,1.964,1.964,0,0,1,1,1.735c0,.372,0,.744,0,1.117v1.118l0,.1-.1,0h-8.4q-1.515,0-3.027,0l-.06,0-.005,0h0l-.006-.064c0-.418.006-.836.006-1.254,0-.294,0-.588-.006-.882v-.053a2.075,2.075,0,0,1,1.185-1.925,4.422,4.422,0,0,1,2.178-.572h.045c.344,0,.691,0,1.037,0l1.639,0" fill="#3a0b0b"/>
    <path id="Path_40" data-name="Path 40" d="M3135.171,151.984a.475.475,0,0,0-.363-.182.547.547,0,0,0-.4.2,7.519,7.519,0,0,0-.88,1.208,5.175,5.175,0,0,0-.811,2.311v.005l-.007.156a2.08,2.08,0,0,0,2.078,2.076v0a2.07,2.07,0,0,0,2.066-1.79,2.566,2.566,0,0,0,.021-.326,3.552,3.552,0,0,0-.181-1.044,7.352,7.352,0,0,0-1.528-2.61m-.3,4.822-.1.005a1.154,1.154,0,0,1-1.083-.93l-.022-.226a2.191,2.191,0,0,1,.063-.476,5.67,5.67,0,0,1,1.071-2.142,5.394,5.394,0,0,1,1.1,2.3c.015.093.02.195.031.3a1.121,1.121,0,0,1-1.055,1.169" fill="#3a0b0b"/>
    <path id="Path_41" data-name="Path 41" d="M3151.919,155.21a1.193,1.193,0,0,0,.069.394,1.083,1.083,0,0,0,1.042.707l.212-.017a1.081,1.081,0,0,0,.883-1.09V154.07c0-.107,0-.213,0-.321a.441.441,0,0,0-.1-.289.355.355,0,0,0-.272-.112.35.35,0,0,0-.271.117.445.445,0,0,0-.095.289c0,.089,0,.18,0,.271l0,.171a1.051,1.051,0,0,0-.442-.106.963.963,0,0,0-.455.117.576.576,0,1,1-.885.205,1.11,1.11,0,0,0-1.9.8,1.084,1.084,0,0,0,1.11,1.109,1.1,1.1,0,0,0,.791-.321,1.118,1.118,0,0,0,.313-.787m.723-.024a.384.384,0,0,1,.392-.384c.215.006.353.146.36.406a.374.374,0,0,1-.364.411.415.415,0,0,1-.388-.433m-1.821.432a.382.382,0,0,1-.387-.4c.008-.269.147-.411.373-.418.251.01.368.129.381.4a.385.385,0,0,1-.367.412" fill="#3a0b0b"/>
    <path id="Path_42" data-name="Path 42" d="M3149.487,153.463a.391.391,0,0,0-.554,0,.45.45,0,0,0-.087.3c0,.158,0,.316,0,.476s0,.3,0,.448h0v.125c0,.209,0,.418,0,.629,0,.15,0,.3,0,.457a.426.426,0,0,0,.1.29.387.387,0,0,0,.544,0,.442.442,0,0,0,.1-.294q0-.513,0-1.027c0-.369,0-.738,0-1.106a.443.443,0,0,0-.1-.292" fill="#3a0b0b"/>
    <path id="Path_43" data-name="Path 43" d="M3154.528,154.168a.336.336,0,0,0-.084.06.444.444,0,0,0-.1.3c0,.233,0,.467,0,.7s0,.444,0,.668a.408.408,0,0,0,.1.286.365.365,0,0,0,.276.11h0a.342.342,0,0,0,.261-.114.434.434,0,0,0,.089-.282c0-.1,0-.188,0-.281v-.272h0v-.817a.473.473,0,0,0-.087-.3.274.274,0,0,0-.089-.07.426.426,0,0,0,.232-.349v0a.414.414,0,0,0-.407-.42.4.4,0,0,0-.422.4v0a.421.421,0,0,0,.225.375" fill="#3a0b0b"/>
    <path id="Path_44" data-name="Path 44" d="M3155.312,155.975h0l.109.229a.374.374,0,0,0,.614-.223l0-.014.011-.168v-.165c0-.093,0-.184,0-.275,0-.11,0-.219,0-.326a.218.218,0,0,1,.188-.226l.1-.012c.189.009.281.094.3.329.006.266,0,.537.01.814a.379.379,0,0,0,.108.266.374.374,0,0,0,.263.092h0a.352.352,0,0,0,.257-.107.393.393,0,0,0,.094-.272c0-.163,0-.326,0-.49s0-.3-.008-.446a.917.917,0,0,0-.9-.883l-.069,0a1.1,1.1,0,0,0-.433.085l-.114,0a.547.547,0,0,0-.222-.067.31.31,0,0,0-.259.131.538.538,0,0,0-.084.3l0,.236c0,.138,0,.283,0,.455v.006l0,.1c0,.089-.006.193-.006.307a1.975,1.975,0,0,0,.022.319" fill="#3a0b0b"/>
    <path id="Path_45" data-name="Path 45" d="M3158.56,156.313a1.231,1.231,0,0,0,.7-.217h0a.343.343,0,0,0,.155-.273l-.048-.172a.342.342,0,0,0-.156-.14l.22-.081.1-.231v0l0-.1a1,1,0,0,0-.671-.947,1.2,1.2,0,0,0-.375-.06,1.076,1.076,0,0,0-1.059,1.079l.027.264a1.071,1.071,0,0,0,1.091.88m.093-1.461h-.349a.365.365,0,0,1,.208-.066.328.328,0,0,1,.2.068Zm.048.752-.143.024a.4.4,0,0,1-.263-.109h.521v0h.08Z" fill="#3a0b0b"/>
  </g>
</svg>
