<svg xmlns="http://www.w3.org/2000/svg" width="38.965" height="39.402" viewBox="0 0 38.965 39.402">
  <g id="Group_264" data-name="Group 264" transform="translate(-1099.083 -660.362)">
    <path id="Path_1410" data-name="Path 1410" d="M1127.63,699.764a10.485,10.485,0,0,1-10.438-10.484,10.428,10.428,0,1,1,10.438,10.484m-.124-1.615a8.873,8.873,0,0,0,8.859-9.916,8.184,8.184,0,0,0-1.124-3.443,9.009,9.009,0,0,0-6.53-4.28,6.912,6.912,0,0,0-1.466.056,10.142,10.142,0,0,0-2.4.43,8.758,8.758,0,0,0-3.78,2.505,8.557,8.557,0,0,0-2.223,6.442,8.438,8.438,0,0,0,2.117,5.115,8.859,8.859,0,0,0,6.543,3.091" fill="#3a0b0b"/>
    <path id="Path_1411" data-name="Path 1411" d="M1108.508,688.377h-6.017a3.416,3.416,0,0,1-3.284-4.3,6.314,6.314,0,0,1,.709-1.413q2.343-4.072,4.691-8.141,2.818-4.884,5.643-9.763c.565-.975,1.1-1.97,1.706-2.92a3.4,3.4,0,0,1,4.086-1.217,3.524,3.524,0,0,1,1.722,1.548c.4.71.814,1.41,1.216,2.119a.773.773,0,0,1-.017.841.781.781,0,0,1-1.294.066,12.078,12.078,0,0,1-.63-1.062c-.289-.463-.565-.935-.868-1.388a1.676,1.676,0,0,0-2.858,0c-.424.63-.778,1.307-1.158,1.966q-1.211,2.106-2.417,4.215l-5.043,8.8q-1.419,2.483-2.839,4.963c-.249.434-.5.868-.762,1.294a1.755,1.755,0,0,0,1.533,2.758q6,0,12.006,0a1,1,0,0,1,.727.208.727.727,0,0,1,.21.853.848.848,0,0,1-.8.568c-.519.014-1.038.005-1.558.005h-4.7" fill="#3a0b0b"/>
    <path id="Path_1412" data-name="Path 1412" d="M1115.947,671.511a20.074,20.074,0,0,1-.265,3.418c-.11.9-.2,1.811-.289,2.718-.017.181-.084.26-.262.257-.215,0-.43-.014-.645,0-.231.016-.317-.1-.346-.306-.1-.753-.171-1.51-.262-2.263-.1-.825-.265-1.641-.309-2.473-.051-.939-.014-1.878-.023-2.817a.194.194,0,0,1,.22-.213c.653,0,1.306,0,1.959,0,.158,0,.231.076.226.256-.014.474,0,.947,0,1.421" fill="#3a0b0b"/>
    <path id="Path_1413" data-name="Path 1413" d="M1125.014,677.2a.789.789,0,0,1-.657-.409q-.969-1.7-1.941-3.4c-.244-.427-.494-.85-.738-1.277a1.108,1.108,0,0,1-.2-.655.816.816,0,0,1,.682-.731.8.8,0,0,1,.838.4c.368.634.718,1.278,1.079,1.916.538.95,1.079,1.9,1.614,2.848a.827.827,0,0,1-.673,1.31" fill="#3a0b0b"/>
    <path id="Path_1414" data-name="Path 1414" d="M1114.723,681.011c-.313,0-.626,0-.939,0-.166,0-.244-.064-.242-.239q.008-.871,0-1.744c0-.177.083-.232.247-.232q.926,0,1.85-.01c.13,0,.18.053.18.174q0,.953,0,1.9c0,.126-.056.168-.184.164-.3-.009-.607,0-.911,0Z" fill="#3a0b0b"/>
    <path id="Path_1415" data-name="Path 1415" d="M1128.52,691.562c.6-.582,1.2-1.158,1.794-1.734a3.006,3.006,0,0,1,.256-.236.752.752,0,0,1,1.047.061.878.878,0,0,1,.081,1.066,3.057,3.057,0,0,1-.3.344q-1.666,1.674-3.336,3.344c-.411.413-.412.418-.83,0q-1.65-1.652-3.293-3.309a1.184,1.184,0,0,1-.464-.843.814.814,0,0,1,.482-.774.7.7,0,0,1,.8.122c.547.464,1.034.988,1.531,1.5.125.129.244.265.377.383.112.1.2.079.2-.091,0-.062,0-.125,0-.187q0-3.235,0-6.47a.8.8,0,0,1,.47-.85.824.824,0,0,1,1.161.686c.008.106,0,.214,0,.321q0,3.181,0,6.362a.675.675,0,0,0,.022.3" fill="#ff8c00"/>
  </g>
</svg>
