<svg xmlns="http://www.w3.org/2000/svg" width="52.524" height="52.523" viewBox="0 0 52.524 52.523">
  <g id="Group_130" data-name="Group 130" transform="translate(-2506.288 -523.777)">
    <path id="Path_529" data-name="Path 529" d="M2558.062,550.039h-.75a24.763,24.763,0,1,1-7.253-17.51,24.681,24.681,0,0,1,7.253,17.51h1.5A26.262,26.262,0,1,0,2532.55,576.3a26.263,26.263,0,0,0,26.262-26.261Z" fill="#ff8c00"/>
    <path id="Path_530" data-name="Path 530" d="M2539.294,546.059c.84,0,1.679,0,2.518,0,.207,0,.31-.035.37-.272a3.159,3.159,0,1,1,.021,1.584c-.075-.287-.186-.354-.463-.351-1.658.013-3.317.009-4.975,0-.208,0-.316.032-.369.272a3.022,3.022,0,0,1-1.354,1.9.262.262,0,0,0-.139.342q.474,1.66.928,3.328a.264.264,0,0,0,.308.234,3.128,3.128,0,0,1,3.251,3.47c-.013.173.045.229.19.276.9.3,1.8.595,2.7.9.182.063.264,0,.366-.143a3.153,3.153,0,1,1,4,4.614,3.151,3.151,0,0,1-4.536-3.212c.027-.235-.031-.314-.242-.382-.856-.273-1.709-.56-2.559-.852a.271.271,0,0,0-.383.139,3.127,3.127,0,0,1-4.828.628c-.144-.133-.232-.159-.4-.033q-1.053.8-2.129,1.559a.313.313,0,0,0-.125.444,3.151,3.151,0,0,1-5.779,2.49,3.012,3.012,0,0,1-.194-2.327.3.3,0,0,0-.137-.4c-.844-.594-1.684-1.191-2.516-1.8a.285.285,0,0,0-.412.016,3.151,3.151,0,1,1-2.372-5.6c.227-.035.314-.111.344-.347q.223-1.713.491-3.421c.037-.231-.04-.286-.238-.347a4.611,4.611,0,1,1,5.86-5.127,4.7,4.7,0,0,1,.041,1.028c-.012.148.034.212.186.245q1.689.367,3.373.752c.148.033.21,0,.268-.147a3.111,3.111,0,0,1,4.1-1.933c.167.053.229.006.307-.125.782-1.311,1.564-2.622,2.36-3.924.119-.2.044-.27-.088-.392a3.161,3.161,0,1,1,1.376.736.367.367,0,0,0-.5.205c-.763,1.3-1.542,2.588-2.323,3.875-.1.162-.113.265.034.41a2.83,2.83,0,0,1,.781,1.448c.042.2.129.233.307.232.859-.008,1.719,0,2.578,0m-4.366,7.2c-.009-.039-.017-.079-.027-.118q-.454-1.65-.909-3.3c-.038-.142-.1-.183-.258-.172a3.112,3.112,0,0,1-3.517-2.751.3.3,0,0,0-.275-.286q-1.689-.367-3.373-.752c-.186-.043-.272-.012-.357.182a4.529,4.529,0,0,1-4.118,2.9c-.159.01-.232.048-.255.213q-.248,1.786-.51,3.571a.215.215,0,0,0,.18.284,2.54,2.54,0,0,1,.706.343,3.143,3.143,0,0,1,1.127,3.96c-.054.123-.153.227.031.355.845.589,1.682,1.191,2.518,1.794.112.081.178.08.275-.027a3.139,3.139,0,0,1,4.485-.158.2.2,0,0,0,.307.024q1.119-.832,2.25-1.65a.218.218,0,0,0,.1-.3,3.146,3.146,0,0,1,1.475-3.915c.08-.041.174-.074.143-.2m-16.631-8.915a3.638,3.638,0,1,0,3.634-3.629,3.644,3.644,0,0,0-3.634,3.629m2.179,13.843a2.182,2.182,0,1,0-2.178-2.177,2.185,2.185,0,0,0,2.178,2.177m26.94,1.22a2.182,2.182,0,1,0-2.177,2.179,2.186,2.186,0,0,0,2.177-2.179m-16.746,2.173a2.182,2.182,0,1,0-2.174,2.189,2.187,2.187,0,0,0,2.174-2.189m10.68-24.763a2.183,2.183,0,1,0-2.168,2.2,2.185,2.185,0,0,0,2.168-2.2m-5.826,9.718a2.183,2.183,0,1,0-2.177,2.186,2.186,2.186,0,0,0,2.177-2.186m.732,11.894a2.182,2.182,0,1,0-2.183-2.18,2.187,2.187,0,0,0,2.183,2.18m9.024-14.071a2.182,2.182,0,1,0,2.137,2.227,2.189,2.189,0,0,0-2.137-2.227" fill="#3a0b0b"/>
    <path id="Path_531" data-name="Path 531" d="M2529.713,537.079a1.456,1.456,0,1,1-1.467,1.453,1.452,1.452,0,0,1,1.467-1.453m-.006.975a.481.481,0,1,0,.476.486.491.491,0,0,0-.476-.486" fill="#3a0b0b"/>
    <path id="Path_532" data-name="Path 532" d="M2537.7,560.379a1.456,1.456,0,1,1-1.449,1.447,1.454,1.454,0,0,1,1.449-1.447m.487,1.464a.481.481,0,1,0-.488.473.488.488,0,0,0,.488-.473" fill="#3a0b0b"/>
    <path id="Path_533" data-name="Path 533" d="M2528.244,535.126a.484.484,0,1,1-.487-.473.487.487,0,0,1,.487.473" fill="#3a0b0b"/>
    <path id="Path_534" data-name="Path 534" d="M2540.865,564.268a.485.485,0,1,1-.471-.489.486.486,0,0,1,.471.489" fill="#3a0b0b"/>
    <path id="Path_535" data-name="Path 535" d="M2522.419,544.355a.484.484,0,1,1-.482-.478.489.489,0,0,1,.482.478" fill="#3a0b0b"/>
    <path id="Path_536" data-name="Path 536" d="M2520.963,556.024a.484.484,0,1,1-.462-.5.486.486,0,0,1,.462.5" fill="#3a0b0b"/>
    <path id="Path_537" data-name="Path 537" d="M2544.751,559.385a.485.485,0,1,1,.453.506.487.487,0,0,1-.453-.506" fill="#3a0b0b"/>
    <path id="Path_538" data-name="Path 538" d="M2528.477,561.108a.484.484,0,1,1-.472.488.487.487,0,0,1,.472-.488" fill="#3a0b0b"/>
    <path id="Path_539" data-name="Path 539" d="M2539.165,536.353a.484.484,0,1,1-.481.479.486.486,0,0,1,.481-.479" fill="#3a0b0b"/>
    <path id="Path_540" data-name="Path 540" d="M2533.346,547.028a.484.484,0,1,1,.48-.479.485.485,0,0,1-.48.479" fill="#3a0b0b"/>
    <path id="Path_541" data-name="Path 541" d="M2536.738,556.259a.484.484,0,1,1-.47-.49.485.485,0,0,1,.47.49" fill="#3a0b0b"/>
    <path id="Path_542" data-name="Path 542" d="M2545.248,546.061a.484.484,0,1,1-.5.463.484.484,0,0,1,.5-.463" fill="#3a0b0b"/>
  </g>
</svg>
