<svg xmlns="http://www.w3.org/2000/svg" width="52.524" height="52.523" viewBox="0 0 52.524 52.523">
  <g id="Group_43" data-name="Group 43" transform="translate(-3736.84 -122.78)">
    <path id="Path_15" data-name="Path 15" d="M3788.614,149.042h-.75a24.763,24.763,0,1,1-7.253-17.51,24.682,24.682,0,0,1,7.253,17.51h1.5A26.262,26.262,0,1,0,3763.1,175.3a26.263,26.263,0,0,0,26.262-26.261Z" fill="#ff8c00"/>
    <path id="Path_16" data-name="Path 16" d="M3751.423,138.981c-.608.62-.339.373-.339.373a5.222,5.222,0,0,0-.42,2.242,14.341,14.341,0,0,0,.846,4.363,16.088,16.088,0,0,0,.721,1.894,4.982,4.982,0,0,0,.7.488l.059,0a.165.165,0,0,0,.054-.152,29.51,29.51,0,0,0-.287-4.346,3.568,3.568,0,0,0-.6-1.483c-.136-.193-.1-.3.133-.314a1.378,1.378,0,0,0,.658-.263c.255-.16.506-.3.747.081.166.267.411.144.621-.02.118-.093.219-.312.378-.229.137.072.083.293.088.449a1.391,1.391,0,0,1-.232.849.967.967,0,0,0-.17.711,1.392,1.392,0,0,1-.123.7,2.322,2.322,0,0,0,.048,1.316,19.545,19.545,0,0,1,.295,2.933.9.9,0,0,0,.115.441c.052.022.091.041.154.065a3.936,3.936,0,0,0,.579.178c.065-.045.045-.137.051-.214a16.343,16.343,0,0,0,.063-2.331c-.077-1.227.093-2.446.056-3.67,0-.172,0-.343-.007-.515a.283.283,0,0,0-.178-.295.485.485,0,0,1-.24-.587c.045-.233.28-.142.434-.172a1.272,1.272,0,0,1,.308.005c.075,0,.134-.015.158-.1a.136.136,0,0,0-.039-.155.145.145,0,0,0-.19,0c-.318.3-.581.069-.814-.111s-.14-.453-.048-.695a.4.4,0,0,1,.46-.272,2.294,2.294,0,0,0,.718-.044.443.443,0,0,0-.393-.259c-.358.023-.42-.2-.44-.471-.007-.091-.012-.183-.022-.274-.027-.232.014-.3.3-.26a10.551,10.551,0,0,1,1.654.257.56.56,0,0,1,.434.478.406.406,0,0,1-.336.446.941.941,0,0,1,.262,1.17c-.162.27-.557.261-1.219-.025.025.222.025.222.175.284a1.292,1.292,0,0,0,.874.005c.113-.032.237-.172.342-.05.088.1-.019.239-.052.356-.132.462-.261.925-.4,1.383a11.9,11.9,0,0,0-.255,3.238c-.03.953.109,1.895.142,2.844,0,.012.006.015.007.026.068,0,.124,0,.2,0,1.419.061.583-.04,1.037-.085.049,0,.088-.01.126-.016a3.344,3.344,0,0,0-.041-.642c.027-1.338.008-2.677.009-4.015,0-.435,0-.87.02-1.3a1.563,1.563,0,0,0-.109-.532.93.93,0,0,1-.069-.5c.026-.1.04-.169-.108-.174-.22-.008-.218-.157-.169-.319a.81.81,0,0,0,.061-.594c-.063-.151.05-.262.206-.193a2.979,2.979,0,0,0,1.656-.008c.239-.029.489-.1.55.263.068.41-.036.6-.412.688a1.3,1.3,0,0,1-.646-.02.963.963,0,0,0-.6.058c.371.133.658.494,1.138.309.242-.093.389.1.3.335a15.742,15.742,0,0,0-.459,4.545,7.962,7.962,0,0,0,.109,1.523c.758-.323.256-.329.754-.786.538-.494.115-.86.6-1.55s.169-.9.255-1.41a3.59,3.59,0,0,0,.036-.838c.024-.543-.125-.228-.108-.638-.069-.291.006-1.259-.1-1.549-.535-1.5-1.284-1.909-2.688-2.609a10.925,10.925,0,0,0-3.491-1.079l-.029.007c-.586.1-.261.053-1.357.006s-.518.042-1.18-.02a4.492,4.492,0,0,0-.577.112,7.59,7.59,0,0,0-.733.77m7.122.632q.72.361,1.434.733a.255.255,0,0,1,.121.266c-.011.132-.11.169-.214.181-.181.022-.363.031-.632.051-.038,0-.164,0-.289,0-.434.006-.578-.122-.6-.55-.01-.182,0-.365-.006-.548,0-.138.056-.2.189-.134m-3.916,1.4c-.068.27-.356.41-.418.693-.015.071-.141.068-.217.034-.134-.06-.314-.1-.386-.206-.255-.378-.459-.189-.677.02-.074.072-.142.151-.222.215a.465.465,0,0,1-.816-.257c-.021-.089-.031-.18-.041-.235-.048-.483.095-.648.546-.731a2.434,2.434,0,0,0,1.037-.3.49.49,0,0,1,.706.107.369.369,0,0,0,.243.177c.333.035.3.255.245.479m-.757-2.268c.155,0,.2.109.158.235-.069.192-.021.32.173.367s.184.176.139.315a.545.545,0,0,1-.431.4c-.314.061-.631.111-.946.165v.012c-.183.014-.365.031-.547.042-.3.017-.541-.192-.453-.473a2.037,2.037,0,0,1,.42-.778c.426-.465.978-.264,1.487-.281" fill="#3a0b0b"/>
    <path id="Path_17" data-name="Path 17" d="M3781.237,160.687a1.147,1.147,0,0,0-.668-.644,2.793,2.793,0,0,0-.878-.14,9.216,9.216,0,0,1-3.634-.887,43.243,43.243,0,0,1-6.521-3.716,22.231,22.231,0,0,0-4.2-2.53,3.706,3.706,0,0,1-2.552-3.8c0-.167.007-.34.018-.518.136-2.013,1.106-10.234,1.384-12.233v0a3.248,3.248,0,0,0,.046-.412.566.566,0,0,0-.083-.322.5.5,0,0,0-.329-.2h0l-.112-.012a.431.431,0,0,0-.4.272,1.48,1.48,0,0,0-.108.422c-.331,2.213-1.428,10.66-1.428,12.92q0,.468.025.937a3.707,3.707,0,0,0,2.124,3.36,77.393,77.393,0,0,1,6.975,4.232c2.709,1.656,5.455,3.362,8.817,3.535a.936.936,0,0,1,.474.118.238.238,0,0,1,.109.212,1.157,1.157,0,0,1-.21.54,2.087,2.087,0,0,1-1.754.857,2.312,2.312,0,0,1-.755-.124,4.863,4.863,0,0,0-1.6-.264,6.32,6.32,0,0,0-1.182.12,16.982,16.982,0,0,1-3.18.327,11.981,11.981,0,0,1-2.373-.228,30.89,30.89,0,0,0-6.109-.7,18.8,18.8,0,0,0-3.22.265,24.3,24.3,0,0,1-3.954.652c-.122,0-.244,0-.365-.011h-.007c-.218,0-.411,0-.594,0-.106,0-.207,0-.308,0a4,4,0,0,1-2.632-.85,3.017,3.017,0,0,1-.836-2.34,7.193,7.193,0,0,1,.046-.778,14.992,14.992,0,0,1,.529-3.216,14.885,14.885,0,0,0,.759-4.808c0-2.879-1.731-12.32-2.431-15.144a2.244,2.244,0,0,0-.124-.418.432.432,0,0,0-.4-.27l-.207.036a.463.463,0,0,0-.344.477,1.714,1.714,0,0,0,.066.4q.245.977.468,1.959a120.807,120.807,0,0,1,1.956,12.891,12.282,12.282,0,0,1-.487,3.513,18.819,18.819,0,0,0-.844,5.343l0,.139a3.691,3.691,0,0,0,3.405,3.985,10.888,10.888,0,0,0,1.8.148,13.952,13.952,0,0,0,3.095-.373,22.463,22.463,0,0,1,4.979-.6,17.518,17.518,0,0,1,3.713.392,21.265,21.265,0,0,0,4.5.56,12.8,12.8,0,0,0,2.085-.162,13.093,13.093,0,0,1,2.134-.206,7.04,7.04,0,0,1,2,.276,2.243,2.243,0,0,0,.643.092,3.071,3.071,0,0,0,2.3-1.255,1.97,1.97,0,0,0,.495-1.221,1.5,1.5,0,0,0-.121-.592" fill="#3a0b0b"/>
    <path id="Path_18" data-name="Path 18" d="M3757.795,157.089h0l.216.016a.6.6,0,0,0,.314-.073.458.458,0,0,0,.206-.291v-.005l.016-.131a.419.419,0,0,0-.19-.348,2.022,2.022,0,0,0-.313-.165,7.72,7.72,0,0,1-1.85-1.07,1.481,1.481,0,0,1-.47-1.213,10.506,10.506,0,0,1,.185-1.594,1.888,1.888,0,0,0,.026-.269.5.5,0,0,0-.094-.319.58.58,0,0,0-.331-.191l-.021-.005-.022,0a.537.537,0,0,0-.409.236,1.936,1.936,0,0,0-.166.349,3.289,3.289,0,0,0-.277,1.337,3.8,3.8,0,0,0,3.177,3.734" fill="#3a0b0b"/>
  </g>
</svg>
