<?xml version="1.0" encoding="utf-8"?>
<!-- Generator: Adobe Illustrator 27.1.0, SVG Export Plug-In . SVG Version: 6.00 Build 0)  -->
<svg version="1.1" xmlns="http://www.w3.org/2000/svg" xmlns:xlink="http://www.w3.org/1999/xlink" x="0px" y="0px"
	 viewBox="0 0 595.28 185.93" style="enable-background:new 0 0 595.28 185.93;" xml:space="preserve">
<style type="text/css">
	
		.st0{clip-path:url(#SVGID_00000070813423759254408510000007754681555263850923_);fill:url(#SVGID_00000119798745520293082330000006445068035578260877_);}
	
		.st1{clip-path:url(#SVGID_00000060009892413840256520000008325698525369193103_);fill:url(#SVGID_00000061467641901465550080000016662282286359668864_);}
	
		.st2{clip-path:url(#SVGID_00000114758515607067943400000002769548241019900078_);fill:url(#SVGID_00000119087988528853148810000014118558258680421506_);}
	.st3{clip-path:url(#SVGID_00000090258259505327786530000004379831390206485129_);fill:#FF8200;}
	.st4{clip-path:url(#SVGID_00000115492504065768008790000005470461681142103452_);}
	.st5{clip-path:url(#SVGID_00000101099509594517830250000010104694542332465056_);fill:#FE4D0B;}
	
		.st6{clip-path:url(#SVGID_00000121273298057817443610000010677188160353842856_);fill:url(#SVGID_00000041974500631168792170000014582709262206629517_);}
	.st7{fill:#FF8C00;}
	.st8{filter:url(#Adobe_OpacityMaskFilter);}
	.st9{clip-path:url(#SVGID_00000152242109358744212480000009881653422607430824_);}
	.st10{enable-background:new    ;}
	
		.st11{clip-path:url(#SVGID_00000152242109358744212480000009881653422607430824_);fill:url(#SVGID_00000091720189637575315910000016675452690502663591_);}
	
		.st12{clip-path:url(#SVGID_00000152242109358744212480000009881653422607430824_);mask:url(#SVGID_00000037691908527068487800000012025935735293867137_);}
	.st13{clip-path:url(#SVGID_00000137843812959014023340000008702720690737424316_);}
	
		.st14{clip-path:url(#SVGID_00000121964624006452913240000018029823716656960421_);fill:url(#SVGID_00000132089939166946657880000008018511312462030745_);}
	
		.st15{clip-path:url(#SVGID_00000079481787508024549640000002085272573435526545_);fill:url(#SVGID_00000057832089789402337310000003694158553885147321_);}
	
		.st16{clip-path:url(#SVGID_00000118363928760280923200000000858539452472810940_);fill:url(#SVGID_00000085209484473526136260000002266674684739881878_);}
	
		.st17{clip-path:url(#SVGID_00000105398938243644876230000014445773858918848673_);fill:url(#SVGID_00000067232216330255886710000005214999685727359417_);}
	.st18{clip-path:url(#SVGID_00000101782779963182246600000009059717953234054079_);fill:#FF8200;}
	.st19{clip-path:url(#SVGID_00000127765596416108860600000001439678049374994863_);}
	.st20{clip-path:url(#SVGID_00000098211085358206681140000011473903892784463239_);fill:#FE4D0B;}
	
		.st21{clip-path:url(#SVGID_00000021084826768454986010000016284403916357357739_);fill:url(#SVGID_00000021087618954101607500000010198203673876700588_);}
	.st22{filter:url(#Adobe_OpacityMaskFilter_00000168099463772427984430000011247599181687680913_);}
	.st23{clip-path:url(#SVGID_00000103945364701077509900000006444988052390924989_);}
	
		.st24{clip-path:url(#SVGID_00000103945364701077509900000006444988052390924989_);fill:url(#SVGID_00000063630682249847927230000009519891432602499998_);}
	
		.st25{clip-path:url(#SVGID_00000103945364701077509900000006444988052390924989_);mask:url(#SVGID_00000043427685751559596450000012103066771849624203_);}
	.st26{clip-path:url(#SVGID_00000168828197152041133500000001592573899649440944_);}
	
		.st27{clip-path:url(#SVGID_00000056423721878768706770000004993002860362528686_);fill:url(#SVGID_00000160909368170778555030000015439743453176217241_);}
	
		.st28{clip-path:url(#SVGID_00000037659638708254718080000014869776367797573761_);fill:url(#SVGID_00000169535069155598233140000013172131587332591268_);}
	
		.st29{clip-path:url(#SVGID_00000012447500358881208310000013453438487484374668_);fill:url(#SVGID_00000029744294915594803920000009812370446746422455_);}
	
		.st30{clip-path:url(#SVGID_00000060713488315674804010000017265280224808528045_);fill:url(#SVGID_00000057865320287854206740000013333970421262998932_);}
	.st31{clip-path:url(#SVGID_00000002385622592222823800000010629862389074769331_);fill:#FF8200;}
	.st32{clip-path:url(#SVGID_00000111906211564226530670000016754532438659712648_);}
	.st33{clip-path:url(#SVGID_00000055688831766531986920000006621042439400463268_);fill:#FE4D0B;}
	
		.st34{clip-path:url(#SVGID_00000140725994667758091720000017990422680396048274_);fill:url(#SVGID_00000169537574131684072620000015233718611253194900_);}
	.st35{filter:url(#Adobe_OpacityMaskFilter_00000068678754457976393540000015907229292046061957_);}
	.st36{clip-path:url(#SVGID_00000086677112037852523090000004384561897118461058_);}
	
		.st37{clip-path:url(#SVGID_00000086677112037852523090000004384561897118461058_);fill:url(#SVGID_00000006694890314946094350000010278669301229920434_);}
	
		.st38{clip-path:url(#SVGID_00000086677112037852523090000004384561897118461058_);mask:url(#SVGID_00000160913354611319606160000008544941230049058493_);}
	.st39{clip-path:url(#SVGID_00000030453881325783641600000009382656505421463436_);}
	
		.st40{clip-path:url(#SVGID_00000158733658884654086600000008498071930979929749_);fill:url(#SVGID_00000167371281544694021530000007594968754120447916_);}
	
		.st41{clip-path:url(#SVGID_00000044173083893708945890000017671874732692564383_);fill:url(#SVGID_00000013169993573355985990000017221737565900405635_);}
	
		.st42{clip-path:url(#SVGID_00000084504082782846462730000011259007245282288528_);fill:url(#SVGID_00000147933806581614101280000008032445285146335387_);}
	
		.st43{clip-path:url(#SVGID_00000140698320684981279760000005123446285163836814_);fill:url(#SVGID_00000100364739118786622280000002843398967636058282_);}
	.st44{clip-path:url(#SVGID_00000172429901326612412190000007592583002013010606_);fill:#FF8200;}
	.st45{clip-path:url(#SVGID_00000013914280011006904070000006947333099267891641_);}
	.st46{clip-path:url(#SVGID_00000042704103649125962250000002889234682313868718_);fill:#FE4D0B;}
	
		.st47{clip-path:url(#SVGID_00000183238446111202180020000016772612244072920730_);fill:url(#SVGID_00000168109505240881963200000011281329542049904789_);}
	.st48{filter:url(#Adobe_OpacityMaskFilter_00000166636790046838048400000002298818610086768575_);}
	.st49{clip-path:url(#SVGID_00000167394229121564352260000003276788213217391504_);}
	
		.st50{clip-path:url(#SVGID_00000167394229121564352260000003276788213217391504_);fill:url(#SVGID_00000167366594922259744900000018434901296048400568_);}
	
		.st51{clip-path:url(#SVGID_00000167394229121564352260000003276788213217391504_);mask:url(#SVGID_00000106146420080278357610000002461438609990548896_);}
	.st52{clip-path:url(#SVGID_00000042694222746807010310000008269737971506639522_);}
	
		.st53{clip-path:url(#SVGID_00000162351927908860549240000007053909868609035667_);fill:url(#SVGID_00000056411912317939186080000004339478451222415011_);}
	
		.st54{clip-path:url(#SVGID_00000085237856102477592710000016220657507405419180_);fill:url(#SVGID_00000109747311681225891620000003551507017043190171_);}
	
		.st55{clip-path:url(#SVGID_00000061458620245323207290000003870428810644193194_);fill:url(#SVGID_00000078038965473894447560000015712349701402678422_);}
	
		.st56{clip-path:url(#SVGID_00000025428985241498541870000005606069659260571781_);fill:url(#SVGID_00000101101283999718733990000004565186048629879956_);}
	.st57{clip-path:url(#SVGID_00000123420906914036729640000009650945271102255551_);fill:#FF8200;}
	.st58{clip-path:url(#SVGID_00000174569508836316693690000006477789241585808303_);}
	.st59{clip-path:url(#SVGID_00000128485368422268208610000001238504009468007558_);fill:#FE4D0B;}
	
		.st60{clip-path:url(#SVGID_00000083801358899316796990000011160153579498175372_);fill:url(#SVGID_00000000940324149577432600000013923111523467114657_);}
	.st61{filter:url(#Adobe_OpacityMaskFilter_00000054239689961280367270000018014979648532754826_);}
	.st62{clip-path:url(#SVGID_00000178911862424473111340000014901691097950661508_);}
	
		.st63{clip-path:url(#SVGID_00000178911862424473111340000014901691097950661508_);fill:url(#SVGID_00000044866168994982098420000014791317711329814922_);}
	
		.st64{clip-path:url(#SVGID_00000178911862424473111340000014901691097950661508_);mask:url(#SVGID_00000147906035548657883340000002893093427684147628_);}
	.st65{clip-path:url(#SVGID_00000065065887140117945020000013581965251513623186_);}
	
		.st66{clip-path:url(#SVGID_00000133503609626184873210000013167466110620145306_);fill:url(#SVGID_00000159453443714191455240000013236832405360863646_);}
	
		.st67{clip-path:url(#SVGID_00000173151770376235472040000016696620165784387732_);fill:url(#SVGID_00000051371819049812450230000017396656470546652823_);}
	
		.st68{clip-path:url(#SVGID_00000126323195156066480500000001929953605247206273_);fill:url(#SVGID_00000070805388284767011590000000904836497736293525_);}
	
		.st69{clip-path:url(#SVGID_00000120554344668202695550000004950726775538746032_);fill:url(#SVGID_00000025426870300737776740000006616390527201394058_);}
	.st70{clip-path:url(#SVGID_00000114059172996470600230000008414098759385616802_);fill:#FF8200;}
	.st71{clip-path:url(#SVGID_00000047773236833486628760000011031770064923156121_);}
	.st72{clip-path:url(#SVGID_00000059303477052459914580000014569347955715275408_);fill:#FE4D0B;}
	
		.st73{clip-path:url(#SVGID_00000019640451491595811920000017773094542219727281_);fill:url(#SVGID_00000103244004847326359340000016003659325995425931_);}
	.st74{filter:url(#Adobe_OpacityMaskFilter_00000140708299823820481360000014669723983443702159_);}
	.st75{clip-path:url(#SVGID_00000120519815452047327960000010746729122996585098_);}
	
		.st76{clip-path:url(#SVGID_00000120519815452047327960000010746729122996585098_);fill:url(#SVGID_00000031905538327252677560000003410978224915019679_);}
	
		.st77{clip-path:url(#SVGID_00000120519815452047327960000010746729122996585098_);mask:url(#SVGID_00000083767999929922451030000013472317169111051692_);}
	.st78{clip-path:url(#SVGID_00000034065153273875589550000009048922139976195999_);}
	
		.st79{clip-path:url(#SVGID_00000008856625863778336540000012325121942958275724_);fill:url(#SVGID_00000125581349046452850230000015329127387459207095_);}
	
		.st80{clip-path:url(#SVGID_00000098180530446870316680000009286759748186678196_);fill:url(#SVGID_00000114053874618768181750000005985576185729852076_);}
	
		.st81{clip-path:url(#SVGID_00000004546260605024906470000017983186740838107299_);fill:url(#SVGID_00000130636463624733859210000007670146766731999634_);}
	
		.st82{clip-path:url(#SVGID_00000134223640107595651260000014314201734323238284_);fill:url(#SVGID_00000127036974939889023630000009104452143307018943_);}
	.st83{clip-path:url(#SVGID_00000132772371380118510370000001400949060890660254_);fill:#FF8200;}
	.st84{clip-path:url(#SVGID_00000089556255757022818930000015652305119374444210_);}
	.st85{clip-path:url(#SVGID_00000142173507174371954640000005368454016214035352_);fill:#FE4D0B;}
	
		.st86{clip-path:url(#SVGID_00000130630595520622363890000015297896354705633154_);fill:url(#SVGID_00000161625552434851835520000007186002493234243735_);}
	.st87{filter:url(#Adobe_OpacityMaskFilter_00000021100691349237993120000017404283630874315675_);}
	.st88{clip-path:url(#SVGID_00000174582363072159865940000007164468836638122630_);}
	
		.st89{clip-path:url(#SVGID_00000174582363072159865940000007164468836638122630_);fill:url(#SVGID_00000115487752757772314690000001552142109154344369_);}
	
		.st90{clip-path:url(#SVGID_00000174582363072159865940000007164468836638122630_);mask:url(#SVGID_00000155860501833275268070000018144943158164334269_);}
	.st91{clip-path:url(#SVGID_00000006667325226948483200000001772860825064503211_);}
	
		.st92{clip-path:url(#SVGID_00000088820608116525839430000002090539195964948892_);fill:url(#SVGID_00000108271340705437386570000005716337935621561014_);}
	.st93{opacity:0.1;fill:#3A0B0B;}
	.st94{fill:none;}
	.st95{opacity:0.1;}
	.st96{clip-path:url(#SVGID_00000024724473676617295860000002577591831882134152_);fill:#3A0B0B;}
	.st97{clip-path:url(#SVGID_00000136403396652260788220000000376027715037899158_);fill:#FF8C00;}
	.st98{clip-path:url(#SVGID_00000111899868142344882170000007931310091677983367_);fill:#FE4D0B;}
	.st99{clip-path:url(#SVGID_00000044887060618285579030000008048228731856151680_);fill:#8C9091;}
	.st100{opacity:0.15;}
	.st101{clip-path:url(#SVGID_00000093879186710447332480000001482689859740635310_);fill:#3C3C3C;}
	.st102{clip-path:url(#SVGID_00000014631129035820994240000010648626107546217857_);fill:#3C3C3C;}
	.st103{clip-path:url(#SVGID_00000131342375282927560340000010376878542937044875_);fill:#3C3C3C;}
	.st104{fill:#3A0B0B;}
	.st105{fill:#FE4D0B;}
	.st106{clip-path:url(#SVGID_00000110434702116256906680000017638416953107690652_);}
	.st107{clip-path:url(#SVGID_00000071531080911353065340000006222044365531727785_);}
	.st108{clip-path:url(#SVGID_00000105390780458390055650000011166157096424443793_);}
	.st109{fill:#3C3C3C;}
	.st110{fill:none;stroke:#3A0B0B;stroke-width:0.5;stroke-miterlimit:10;}
	.st111{opacity:0.23;}
	.st112{clip-path:url(#SVGID_00000058551386842352707120000002172114227446721955_);fill:#FF8C00;}
	.st113{fill:#FFFFFF;}
	.st114{opacity:0.5;fill:#EDDED0;}
	.st115{opacity:0.1;fill:#FE4D0B;}
	.st116{opacity:0.1;fill:#FF8C00;}
	.st117{fill:none;stroke:#3C3C3C;stroke-miterlimit:10;}
	.st118{fill:#EDDED0;}
	.st119{fill:none;stroke:#3C3C3C;stroke-width:1.5;stroke-miterlimit:10;}
	.st120{fill:#2B090B;}
	.st121{fill:none;stroke:#FF8C00;stroke-width:1.5;stroke-miterlimit:10;}
	.st122{clip-path:url(#SVGID_00000039848198496247380660000011710595162094812296_);fill:#FF8C00;}
	.st123{fill:#A3A3A0;}
	.st124{fill:#FE4D0B;stroke:#FFFFFF;stroke-width:0.75;stroke-miterlimit:10;}
	.st125{fill:#FF8C00;stroke:#FFFFFF;stroke-width:0.75;stroke-miterlimit:10;}
	.st126{fill:#FFFFFF;stroke:#FE4D0B;stroke-width:0.75;stroke-miterlimit:10;}
	.st127{fill:#E5A870;}
	.st128{fill:#3A0B0B;stroke:#FFFFFF;stroke-width:0.75;stroke-miterlimit:10;}
	.st129{fill:none;stroke:#FE4D0B;stroke-width:0.75;stroke-miterlimit:10;}
	.st130{fill:#41A649;}
	.st131{fill:#DF2026;}
	.st132{clip-path:url(#SVGID_00000085950802843882632050000003846924132681678760_);}
	.st133{clip-path:url(#SVGID_00000145044575950397300640000001853095076964577668_);}
	.st134{filter:url(#Adobe_OpacityMaskFilter_00000155839630629778380690000015993047230845075344_);}
	
		.st135{clip-path:url(#SVGID_00000122001049685610488630000004598309657414856087_);fill:url(#SVGID_00000023270083168493445250000002124245288533529985_);}
	
		.st136{clip-path:url(#SVGID_00000122001049685610488630000004598309657414856087_);mask:url(#SVGID_00000097483081918821549760000000081642748597214137_);fill:url(#SVGID_00000103962058947688404450000000976162365423826614_);}
	.st137{clip-path:url(#SVGID_00000030485478054329182280000015866539330408406971_);}
	.st138{filter:url(#Adobe_OpacityMaskFilter_00000107574596288033925340000003078496623262226855_);}
	
		.st139{clip-path:url(#SVGID_00000123440099326932611540000011286483179512859572_);fill:url(#SVGID_00000047061776196319501470000015418195621744547490_);}
	
		.st140{clip-path:url(#SVGID_00000123440099326932611540000011286483179512859572_);mask:url(#SVGID_00000015343294337050370040000006305402307234811558_);fill:url(#SVGID_00000065045208775411605700000010255230350910993083_);}
	.st141{opacity:0.68;clip-path:url(#SVGID_00000085950802843882632050000003846924132681678760_);}
	.st142{clip-path:url(#SVGID_00000150792728151184377080000017036004599908146599_);}
	.st143{filter:url(#Adobe_OpacityMaskFilter_00000138561335082144758610000013218844576888266413_);}
	
		.st144{clip-path:url(#SVGID_00000152254828088954400060000011340345095592970413_);fill:url(#SVGID_00000175319363110350165710000003291480249956748965_);}
	
		.st145{clip-path:url(#SVGID_00000152254828088954400060000011340345095592970413_);mask:url(#SVGID_00000050629985150503118020000000781883348677225135_);fill:url(#SVGID_00000134963860802764526910000018116484369130553511_);}
	.st146{clip-path:url(#SVGID_00000159453203532212015610000010798797271320151743_);}
	.st147{filter:url(#Adobe_OpacityMaskFilter_00000002371090406931002460000017729956377140593822_);}
	
		.st148{clip-path:url(#SVGID_00000035507573542058719270000006478865513151588256_);fill:url(#SVGID_00000165210068370780214400000014920879851886012032_);}
	
		.st149{clip-path:url(#SVGID_00000035507573542058719270000006478865513151588256_);mask:url(#SVGID_00000137092940071217593900000000882963811871184525_);fill:url(#SVGID_00000165216607607208233770000002842099275927879057_);}
	.st150{clip-path:url(#SVGID_00000043429857666418943280000015641517370668974496_);}
	.st151{clip-path:url(#SVGID_00000005947451694849911300000011127712800251427470_);}
	.st152{clip-path:url(#SVGID_00000018919749722994610200000002066317857856404392_);}
	
		.st153{clip-path:url(#SVGID_00000036243007131918640330000005854508054763966850_);fill:url(#SVGID_00000165194586842886251550000005417474449481508737_);}
	
		.st154{clip-path:url(#SVGID_00000070816495980420656030000017612488757512596621_);fill:url(#SVGID_00000129914538529166136470000007089049936976965012_);}
	.st155{clip-path:url(#SVGID_00000166674400929848958040000005874277653853608104_);fill:#FFFFFF;}
	.st156{opacity:0.8;clip-path:url(#SVGID_00000166654520005614054690000013749454906741046441_);}
	.st157{clip-path:url(#SVGID_00000027594968525919539750000010011623670962028985_);fill:#FF8C00;}
	.st158{clip-path:url(#SVGID_00000036953052213644906080000001581473752439628418_);}
	.st159{filter:url(#Adobe_OpacityMaskFilter_00000080170385470735149150000007929175913228205471_);}
	.st160{clip-path:url(#SVGID_00000137836055545988467150000011187619271197890220_);}
	
		.st161{clip-path:url(#SVGID_00000137836055545988467150000011187619271197890220_);fill:url(#SVGID_00000180351565305210697720000005731063496803128222_);}
	
		.st162{clip-path:url(#SVGID_00000137836055545988467150000011187619271197890220_);mask:url(#SVGID_00000180327143734816636430000005208310457613312399_);}
	.st163{clip-path:url(#SVGID_00000085964816246810779670000003725130797093428640_);}
	
		.st164{clip-path:url(#SVGID_00000131338653866129220880000003147297408537234853_);fill:url(#SVGID_00000092451810076180599150000001482581578194963889_);}
	.st165{clip-path:url(#SVGID_00000074423998009447278860000015595237539023579284_);}
	.st166{clip-path:url(#SVGID_00000063595081750450882950000001100524248400315579_);}
	.st167{clip-path:url(#SVGID_00000131327820710501378750000017878475292148071098_);}
	.st168{clip-path:url(#SVGID_00000023273026820173039910000013851213460089766297_);}
	.st169{clip-path:url(#SVGID_00000030480263505098605970000001891247336098450851_);}
	
		.st170{clip-path:url(#SVGID_00000124865403483859155380000004072905184771465407_);fill:url(#SVGID_00000034793405687650774700000010683017433605201060_);}
	.st171{clip-path:url(#SVGID_00000069394747608365195320000009225709007441194920_);}
	.st172{clip-path:url(#SVGID_00000088840073370981214250000002610248982425627309_);}
	.st173{clip-path:url(#SVGID_00000051341247121080533160000016069771508114946207_);}
	.st174{clip-path:url(#SVGID_00000021809911708371531470000014065513647056336257_);}
	
		.st175{clip-path:url(#SVGID_00000063606059046780467360000000565906926682347168_);fill:url(#SVGID_00000005252558458719311340000014357151412923438008_);}
	.st176{clip-path:url(#SVGID_00000176754793899462769800000003769529635876778430_);}
	.st177{clip-path:url(#SVGID_00000044863345104125160460000017510161873856412544_);}
	.st178{clip-path:url(#SVGID_00000093153138358029719820000007238525129390292099_);}
	.st179{clip-path:url(#SVGID_00000008858893692960941990000014263735000763765142_);fill:#FF8200;}
	.st180{fill:url(#SVGID_00000000214040820764439280000011328684340519745935_);}
	.st181{fill:url(#SVGID_00000111172796360508345010000008831437690202763419_);}
	.st182{fill:url(#SVGID_00000147199767334848021610000009593215943728786315_);}
	.st183{fill:url(#SVGID_00000042017918018815605990000009445622103524866229_);}
	.st184{fill:url(#SVGID_00000144322866457130798470000007135380411466108079_);}
	.st185{fill:url(#SVGID_00000183969587481057340640000005281597025327830187_);}
	.st186{fill:url(#SVGID_00000000916486807200054650000003964780537832758444_);}
	.st187{fill:url(#SVGID_00000005980634778939165280000004326870400975781253_);}
	.st188{fill:url(#SVGID_00000151508101587454849760000000046707935537206933_);}
	.st189{fill:url(#SVGID_00000093857623592970005600000012961923960736511105_);}
	.st190{fill:url(#SVGID_00000036933656319634587090000008420524005348894119_);}
	.st191{fill:url(#SVGID_00000145057166336486100900000001205170189692269731_);}
	.st192{fill:url(#SVGID_00000124884217167183383370000012425655249456643769_);}
	.st193{fill:url(#SVGID_00000142143924399860755100000000419965400351050148_);}
	.st194{fill:url(#SVGID_00000065771761778975127250000014544667954386122386_);}
	.st195{fill:url(#SVGID_00000020376288008828150920000016776782251619533706_);}
	.st196{fill:url(#SVGID_00000155843181170703528510000010307334635290227076_);}
	.st197{fill:url(#SVGID_00000139996530098837424640000017506157532606119565_);}
	.st198{fill:url(#SVGID_00000078006671390164532050000011996340639934483082_);}
	.st199{fill:url(#SVGID_00000088092837988011287100000016382711090076937116_);}
	.st200{fill:url(#SVGID_00000046333705356640232310000015183746358439569041_);}
	.st201{fill:url(#SVGID_00000183210710078087470750000015930325780267629499_);}
	.st202{fill:url(#SVGID_00000092441852287930526600000016088099426732054168_);}
	.st203{fill:url(#SVGID_00000096048547700562468980000001992462400037071292_);}
	.st204{fill:url(#SVGID_00000107555293856686153650000000308736603985557183_);}
	.st205{fill:url(#SVGID_00000169518124314996336680000004432773336567658134_);}
	.st206{fill:url(#SVGID_00000103235331581644308110000003427223600565615507_);}
	.st207{fill:url(#SVGID_00000045582622218109044540000016511928326040780205_);}
	.st208{fill:url(#SVGID_00000011721352787784576100000014992773099557270447_);}
	.st209{fill:url(#SVGID_00000049944571521795606240000002070846045001247119_);}
	.st210{fill:url(#SVGID_00000174573227630397376610000004687350559907729802_);}
	.st211{fill:url(#SVGID_00000145018491509934257150000003227691226583117758_);}
	.st212{fill:url(#SVGID_00000096024428893900109480000011936406491977132988_);}
	.st213{fill:url(#SVGID_00000031173671470262684580000008983475069694656684_);}
	.st214{fill:url(#SVGID_00000132055297314012161090000012752331439810155392_);}
	.st215{fill:url(#SVGID_00000165929804880265560400000003037001588963026600_);}
	.st216{fill:url(#SVGID_00000091007131272602314650000004656562976047803800_);}
	.st217{fill:url(#SVGID_00000078041676305905071260000013142431884544547250_);}
	.st218{fill:url(#SVGID_00000165926264043375619290000005787717920533129662_);}
	.st219{fill:url(#SVGID_00000041254040048067854930000012342122638101133979_);}
	.st220{fill:url(#SVGID_00000151531515992813926460000018125279544600433070_);}
	.st221{fill:url(#SVGID_00000173122392215594609860000016799767326080284311_);}
	.st222{fill:url(#SVGID_00000054250016090296622090000016429446370652266413_);}
	.st223{fill:url(#SVGID_00000175320775810526044300000003249064779831706028_);}
	.st224{fill:url(#SVGID_00000098185317874502952060000004355237841677675955_);}
	.st225{fill:url(#SVGID_00000162328663391975642470000017671022386243470001_);}
	.st226{fill:url(#SVGID_00000078035156039141883700000015063326473753105824_);}
	.st227{fill:url(#SVGID_00000120531410839249937170000002722735007500953728_);}
	.st228{fill:url(#SVGID_00000112592911491134412120000007055501816034286525_);}
	.st229{fill:url(#SVGID_00000029740037169489600420000013842197160972809351_);}
	.st230{fill:url(#SVGID_00000132800618083555489420000018353165894984577160_);}
	.st231{fill:url(#SVGID_00000148619306357178056790000016430065037103291793_);}
	.st232{fill:url(#SVGID_00000141448503261376326450000011489193167367764373_);}
	.st233{fill:url(#SVGID_00000010286066075561906260000007461788003678718393_);}
	.st234{fill:url(#SVGID_00000089555605753067565530000000175302108479689898_);}
	.st235{fill:url(#SVGID_00000176752368305726825580000010554009954097133221_);}
	.st236{fill:url(#SVGID_00000114754105649751300100000011515240695083524018_);}
	.st237{fill:url(#SVGID_00000008853125679948839050000003549287295788784047_);}
	.st238{fill:url(#SVGID_00000106864737771544570920000007403360021764208540_);}
	.st239{fill:url(#SVGID_00000023960030197077877920000012983854546407174334_);}
	.st240{fill:url(#SVGID_00000036234340060268916700000005023030593903232156_);}
	.st241{fill:url(#SVGID_00000177473918399021145170000006475504061807868805_);}
	.st242{fill:url(#SVGID_00000117636254022320908210000003876944297646723463_);}
	.st243{fill:url(#SVGID_00000109011321113735898130000003143441833078541974_);}
	.st244{fill:url(#SVGID_00000108289572182814795940000006996787960731483290_);}
	.st245{fill:url(#SVGID_00000008128361784180515480000015705317096400183983_);}
	.st246{fill:url(#SVGID_00000159458984622707016960000003197390863133991306_);}
	.st247{fill:url(#SVGID_00000096753472930219939780000016915255552840446359_);}
	.st248{fill:url(#SVGID_00000183939043689089431060000017154335234435339186_);}
	.st249{fill:url(#SVGID_00000141420599601052118570000017782750431140065936_);}
	.st250{fill:url(#SVGID_00000145737505791715314740000000132354604350890425_);}
	.st251{fill:url(#SVGID_00000057868955683362996220000013438674154714084502_);}
	.st252{fill:url(#SVGID_00000095313876112141970750000009637572877295222928_);}
	.st253{fill:url(#SVGID_00000049194603070361340850000003908702029270374843_);}
	.st254{fill:url(#SVGID_00000029027901096987582000000014391317573881849017_);}
	.st255{fill:url(#SVGID_00000011713644840917353900000011994359688821261200_);}
	.st256{fill:url(#SVGID_00000165214285054178815540000002134975991602028968_);}
	.st257{fill:url(#SVGID_00000176723099415453496720000005316236255758685624_);}
	.st258{fill:url(#SVGID_00000026141457816508763040000000859325327986286010_);}
	.st259{fill:url(#SVGID_00000034075667161938619240000012100454046218599053_);}
	.st260{fill:url(#SVGID_00000062153473993543171220000010308960105204892563_);}
	.st261{fill:url(#SVGID_00000020369233581625536920000013973606226854968238_);}
	.st262{fill:url(#SVGID_00000150792268686952448280000017469037905450928828_);}
	.st263{fill:url(#SVGID_00000116195039125509665570000003800483490851947174_);}
	.st264{fill:url(#SVGID_00000024699035374096319140000004611098775216626601_);}
	.st265{fill:url(#SVGID_00000070114834332492147750000001656854884374760355_);}
	.st266{fill:url(#SVGID_00000086668242360324485660000007757922884333755576_);}
	.st267{fill:url(#SVGID_00000122701364037006105930000015384498276819891608_);}
	.st268{fill:url(#SVGID_00000006702205034420358470000016092935738562378941_);}
	.st269{fill:url(#SVGID_00000053541574430060231270000011810586378345943468_);}
	.st270{fill:url(#SVGID_00000055669739291336768650000008244552939988306596_);}
	.st271{fill:url(#SVGID_00000091694034787162350980000002590007117555406477_);}
	.st272{fill:url(#SVGID_00000025420789745399808500000008073458536840789897_);}
	.st273{fill:url(#SVGID_00000033365318577994124320000008030556036123636873_);}
	.st274{fill:url(#SVGID_00000035497785766651796670000014855024273688872330_);}
	.st275{fill:url(#SVGID_00000067944430927225160650000002809011497728790678_);}
	.st276{fill:url(#SVGID_00000011745317632590105470000000216518562191398549_);}
	.st277{fill:url(#SVGID_00000111912870094305595420000001906973636957862274_);}
	.st278{fill:url(#SVGID_00000122716288200418135660000013835474940432015494_);}
	.st279{fill:url(#SVGID_00000133521932205786453620000005691255026781697694_);}
	.st280{fill:url(#SVGID_00000044855983372036364380000002941845116205563067_);}
	.st281{fill:url(#SVGID_00000165926846200401253280000007368005504933164476_);}
	.st282{fill:url(#SVGID_00000021815992638190532570000004855399111946963862_);}
	.st283{fill:url(#SVGID_00000046301653487320275730000013587590957352180656_);}
	.st284{fill:url(#SVGID_00000140015778105690067820000012874741472443156407_);}
	.st285{fill:url(#SVGID_00000129927953882607717070000016980264651006738333_);}
	.st286{fill:url(#SVGID_00000151529229905168115110000012609140220412986011_);}
	.st287{fill:url(#SVGID_00000147916457637674867370000008405227941578466999_);}
	.st288{fill:url(#SVGID_00000159436200865173735480000008430125661107864237_);}
	.st289{fill:url(#SVGID_00000100369018866311566690000000008472386072822459_);}
	.st290{fill:url(#SVGID_00000084499022270636135290000009136561032582610103_);}
	.st291{fill:url(#SVGID_00000156546808042715396120000012126783179235373462_);}
	.st292{fill:url(#SVGID_00000034082417090679463360000010443562293498226593_);}
	.st293{fill:url(#SVGID_00000059996111536845336440000001517897980512227461_);}
	.st294{fill:url(#SVGID_00000160182551276365394200000018031667494471121024_);}
	.st295{fill:url(#SVGID_00000155863285849563596340000014541110120938855562_);}
	.st296{fill:url(#SVGID_00000026148415186278829620000010189259969476765066_);}
	.st297{fill:url(#SVGID_00000109718853014960501570000017113956042064461723_);}
	.st298{fill:url(#SVGID_00000109729613995873593590000011552726523263339162_);}
	.st299{fill:url(#SVGID_00000006684062885997960130000002819241437993120647_);}
	.st300{fill:url(#SVGID_00000089559140206694543440000008479864937502247870_);}
	.st301{fill:url(#SVGID_00000083046890116614661950000010111532924600034751_);}
	.st302{fill:url(#SVGID_00000093151013215170774270000006797859247447575455_);}
	.st303{opacity:0.68;}
	.st304{clip-path:url(#SVGID_00000176727944600969826050000017714044603820559273_);fill:#EDDED0;}
	.st305{clip-path:url(#SVGID_00000000190580299479477350000005657127799475493259_);fill:#EDDED0;}
	.st306{fill:none;stroke:#3C3C3C;stroke-width:0.969;stroke-miterlimit:10;}
	.st307{clip-path:url(#SVGID_00000179627290708572411570000016469403321227134639_);}
	.st308{filter:url(#Adobe_OpacityMaskFilter_00000026125642879158170720000009388106219044523699_);}
	
		.st309{clip-path:url(#SVGID_00000099651381620483517900000006795598516702782100_);fill:url(#SVGID_00000181073193896606321470000009697365911072376243_);}
	
		.st310{clip-path:url(#SVGID_00000099651381620483517900000006795598516702782100_);mask:url(#SVGID_00000145048160463293468180000005289175525875250323_);fill:url(#SVGID_00000125589711079434496380000004360350521179436455_);}
	.st311{fill:none;stroke:#3C3C3C;stroke-width:0.993;stroke-miterlimit:10;}
	.st312{clip-path:url(#SVGID_00000089556768471881160720000017609103124478169513_);}
	.st313{filter:url(#Adobe_OpacityMaskFilter_00000087393561408189866160000005612863688577372809_);}
	
		.st314{clip-path:url(#SVGID_00000078036228911499314320000007843640614970881200_);fill:url(#SVGID_00000073705983057012717030000015788261158584239543_);}
	
		.st315{clip-path:url(#SVGID_00000078036228911499314320000007843640614970881200_);mask:url(#SVGID_00000183229408403692465910000017095641932492419259_);fill:url(#SVGID_00000053530113908199460090000009426685094682966703_);}
	.st316{clip-path:url(#SVGID_00000039847828714903079870000007553855730617818785_);}
	.st317{filter:url(#Adobe_OpacityMaskFilter_00000114753879851375682910000016017955597797486995_);}
	
		.st318{clip-path:url(#SVGID_00000065773957077336474290000001853145456526243229_);fill:url(#SVGID_00000148623451968304261050000011575092572947247799_);}
	
		.st319{clip-path:url(#SVGID_00000065773957077336474290000001853145456526243229_);mask:url(#SVGID_00000111192300648433847070000000720409245296096179_);fill:url(#SVGID_00000070802443439808831510000000812429497033372605_);}
	.st320{clip-path:url(#SVGID_00000154422809353191966430000017111442610161152952_);fill:#EDDED0;}
	.st321{fill:none;stroke:#3C3C3C;stroke-width:1.2388;stroke-miterlimit:10;}
	.st322{font-family:'SVN-GothamBold';}
	.st323{font-size:10.2275px;}
	.st324{clip-path:url(#SVGID_00000152967218827466088900000000610876557175565725_);}
	.st325{filter:url(#Adobe_OpacityMaskFilter_00000164474632710028095530000005715935178109312649_);}
	
		.st326{clip-path:url(#SVGID_00000034792813848955641480000016028848069425894312_);fill:url(#SVGID_00000168107885469077761060000000518894460323219343_);}
	
		.st327{clip-path:url(#SVGID_00000034792813848955641480000016028848069425894312_);mask:url(#SVGID_00000032650022914698175080000015412543842259344013_);fill:url(#SVGID_00000152241963768889925050000008802011603397099141_);}
	.st328{fill:none;stroke:#3C3C3C;stroke-width:1.2695;stroke-miterlimit:10;}
	.st329{clip-path:url(#SVGID_00000038376762556244722340000007531231441799562142_);}
	.st330{filter:url(#Adobe_OpacityMaskFilter_00000152241615282206650560000013200603369406774661_);}
	
		.st331{clip-path:url(#SVGID_00000075136764286655649120000018395615192653057664_);fill:url(#SVGID_00000018220251973417953110000006115230114381262492_);}
	
		.st332{clip-path:url(#SVGID_00000075136764286655649120000018395615192653057664_);mask:url(#SVGID_00000156550046206779267780000010437437666294807694_);fill:url(#SVGID_00000137126857006847425920000016817759606859065474_);}
	.st333{clip-path:url(#SVGID_00000027567986725031668360000015651532604998673313_);}
	.st334{filter:url(#Adobe_OpacityMaskFilter_00000016756167797823543210000007872785623281307279_);}
	
		.st335{clip-path:url(#SVGID_00000037680240358431748750000006870342593311398287_);fill:url(#SVGID_00000078035804974017627170000014179775405538039945_);}
	
		.st336{clip-path:url(#SVGID_00000037680240358431748750000006870342593311398287_);mask:url(#SVGID_00000158727318061921392530000002476023672983787182_);fill:url(#SVGID_00000018218328400459403890000000803974638433281713_);}
	.st337{display:none;}
	.st338{display:inline;fill:none;stroke:#A36F5A;stroke-miterlimit:10;}
</style>
<g id="Layer_4">
</g>
<g id="Layer_1">
	<rect x="15.01" y="14.9" class="st118" width="565.26" height="153.41"/>
	<g class="st303">
		<g>
			<defs>
				<rect id="SVGID_00000146499228249217795370000016751602421280737445_" x="15.01" y="65.02" width="565.26" height="53.19"/>
			</defs>
			<clipPath id="SVGID_00000033363923342455900630000016359436861707498683_">
				<use xlink:href="#SVGID_00000146499228249217795370000016751602421280737445_"  style="overflow:visible;"/>
			</clipPath>
			
				<rect x="15.01" y="65.02" style="clip-path:url(#SVGID_00000033363923342455900630000016359436861707498683_);fill:#EDDED0;" width="565.26" height="53.19"/>
		</g>
	</g>
	<line class="st321" x1="237.31" y1="167.65" x2="237.31" y2="172.19"/>
	<line class="st321" x1="322.92" y1="167.65" x2="322.92" y2="172.19"/>
	<line class="st321" x1="408.53" y1="167.65" x2="408.53" y2="172.19"/>
	<line class="st321" x1="494.14" y1="167.65" x2="494.14" y2="172.19"/>
	<g>
		<text transform="matrix(1 0 0 1 319.972 183.1292)" class="st109 st322 st323">5</text>
	</g>
	<g>
		<text transform="matrix(1 0 0 1 402.6389 183.1292)" class="st109 st322 st323">10</text>
	</g>
	<g>
		<text transform="matrix(1 0 0 1 488.7591 183.1292)" class="st109 st322 st323">15</text>
	</g>
	<g>
		<text transform="matrix(0.9331 0 0 1 574.2624 183.1297)" class="st109 st322 st323">20</text>
	</g>
	<g>
		<path class="st109" d="M134.43,29.69h2.92c1.71,0,2.74,1,2.74,2.47v0.02c0,1.67-1.29,2.52-2.89,2.52h-1.2v2.15h-1.58V29.69z
			 M137.25,33.3c0.79,0,1.25-0.47,1.25-1.08V32.2c0-0.71-0.49-1.08-1.28-1.08h-1.22v2.19H137.25z"/>
		<path class="st109" d="M140.65,29.69h1.74l1.87,5.04l1.87-5.04h1.7l-2.89,7.21h-1.39L140.65,29.69z"/>
		<path class="st109" d="M148.93,29.69h2.92c1.71,0,2.74,1,2.74,2.47v0.02c0,1.67-1.29,2.52-2.89,2.52h-1.2v2.15h-1.58V29.69z
			 M151.76,33.3c0.79,0,1.25-0.47,1.25-1.08V32.2c0-0.71-0.49-1.08-1.28-1.08h-1.22v2.19H151.76z"/>
		<path class="st109" d="M155.42,32.93h3.15v1.49h-3.15V32.93z"/>
		<path class="st109" d="M160.01,29.69h1.57v7.16h-1.57V29.69z"/>
		<path class="st109" d="M166.09,32.93h3.15v1.49h-3.15V32.93z"/>
		<path class="st109" d="M173.68,29.69h1.58v3.13l2.9-3.13h1.9l-2.91,3.04l3.05,4.12h-1.89l-2.22-3.05l-0.83,0.86v2.19h-1.58V29.69z
			"/>
		<path class="st109" d="M181.02,29.38h1.64v1.38h-1.64V29.38z M181.06,31.37h1.55v5.48h-1.55V31.37z"/>
		<path class="st109" d="M183.81,34.14v-0.02c0-1.56,1.11-2.85,2.71-2.85c1.83,0,2.67,1.42,2.67,2.97c0,0.12-0.01,0.26-0.02,0.41
			h-3.81c0.15,0.71,0.64,1.07,1.34,1.07c0.52,0,0.89-0.16,1.33-0.56l0.89,0.79c-0.52,0.64-1.25,1.02-2.24,1.02
			C185.03,36.97,183.81,35.82,183.81,34.14z M185.76,29.16h1.47l1.26,1.61h-1.2l-0.81-0.67l-0.81,0.67h-1.17L185.76,29.16z
			 M187.67,33.68c-0.09-0.7-0.5-1.17-1.16-1.17s-1.06,0.46-1.19,1.17H187.67z M187.9,28.6c0.45-0.03,0.69-0.13,0.69-0.51
			c0-0.07-0.08-0.2-0.26-0.2c-0.12,0-0.37,0.1-0.5,0.46l-0.79-0.42c0.39-0.83,0.83-0.98,1.32-0.98c0.71,0,1.21,0.48,1.2,1.12
			c-0.01,0.65-0.36,0.95-0.74,1.1l-0.04,0.44h-0.79L187.9,28.6z"/>
		<path class="st109" d="M190.34,31.37h1.55v0.78c0.36-0.46,0.83-0.88,1.62-0.88c0.73,0,1.26,0.31,1.54,0.87
			c0.48-0.57,1.05-0.87,1.8-0.87c1.16,0,1.85,0.7,1.85,2.01v3.57h-1.55v-3.06c0-0.74-0.33-1.11-0.91-1.11
			c-0.58,0-0.94,0.38-0.94,1.11v3.06h-1.55v-3.06c0-0.74-0.33-1.11-0.91-1.11c-0.58,0-0.94,0.38-0.94,1.11v3.06h-1.55V31.37z"/>
		<path class="st109" d="M202.7,36.12l0.67-1.02c0.6,0.44,1.21,0.65,1.73,0.65c0.45,0,0.65-0.16,0.65-0.41v-0.02
			c0-0.34-0.53-0.44-1.13-0.63c-0.77-0.21-1.64-0.58-1.64-1.65v-0.02c0-1.11,0.9-1.74,2-1.74c0.7,0,1.44,0.24,2.04,0.63l-0.59,1.07
			c-0.54-0.32-1.08-0.51-1.48-0.51c-0.38,0-0.57,0.16-0.57,0.38v0.02c0,0.29,0.52,0.47,1.11,0.65c0.77,0.25,1.66,0.62,1.66,1.63
			v0.02c0,1.22-0.91,1.77-2.1,1.77C204.27,36.95,203.43,36.69,202.7,36.12z"/>
		<path class="st109" d="M208,34.14v-0.02c0-1.57,1.27-2.85,2.97-2.85c1.69,0,2.96,1.25,2.96,2.83v0.02c0,1.57-1.27,2.85-2.98,2.85
			C209.26,36.97,208,35.72,208,34.14z M212.39,34.14v-0.02c0-0.81-0.58-1.51-1.44-1.51c-0.89,0-1.42,0.67-1.42,1.49v0.02
			c0,0.81,0.58,1.51,1.44,1.51C211.86,35.63,212.39,34.96,212.39,34.14z"/>
		<path class="st109" d="M214.73,35.27v-0.02c0-1.19,0.91-1.75,2.21-1.75c0.56,0,0.94,0.09,1.34,0.22v-0.09c0-0.65-0.4-1-1.18-1
			c-0.6,0-1.01,0.1-1.51,0.3l-0.39-1.19c0.6-0.26,1.2-0.44,2.13-0.44c0.86,0,1.45,0.21,1.85,0.61c0.41,0.41,0.59,1.01,0.59,1.75
			v3.18h-1.5v-0.59c-0.38,0.42-0.89,0.7-1.66,0.7C215.57,36.95,214.73,36.37,214.73,35.27z M218.29,34.91v-0.28
			c-0.28-0.12-0.61-0.21-0.99-0.21c-0.66,0-1.07,0.27-1.07,0.76v0.02c0,0.42,0.35,0.66,0.85,0.66
			C217.81,35.88,218.29,35.49,218.29,34.91z M217.75,28.95l1.34,0.58l-1.33,1.23h-1.14L217.75,28.95z"/>
		<path class="st109" d="M221.36,35.29v-2.6h-0.65v-1.33h0.65v-1.4h1.55v1.4h1.29v1.33h-1.29v2.34c0,0.36,0.16,0.53,0.5,0.53
			c0.28,0,0.53-0.06,0.77-0.19v1.25c-0.33,0.19-0.71,0.32-1.23,0.32C222.02,36.94,221.36,36.56,221.36,35.29z"/>
	</g>
	<g>
		<path class="st109" d="M159.67,44.53h2.92c1.71,0,2.74,1,2.74,2.47v0.02c0,1.67-1.29,2.52-2.89,2.52h-1.2v2.15h-1.58V44.53z
			 M162.49,48.14c0.79,0,1.25-0.47,1.25-1.08v-0.02c0-0.71-0.49-1.08-1.28-1.08h-1.22v2.19H162.49z"/>
		<path class="st109" d="M165.89,44.53h1.74l1.87,5.04l1.87-5.04h1.7l-2.89,7.21h-1.39L165.89,44.53z"/>
		<path class="st109" d="M174.17,44.53h2.92c1.71,0,2.74,1,2.74,2.47v0.02c0,1.67-1.29,2.52-2.89,2.52h-1.2v2.15h-1.58V44.53z
			 M177,48.14c0.79,0,1.25-0.47,1.25-1.08v-0.02c0-0.71-0.49-1.08-1.28-1.08h-1.22v2.19H177z"/>
		<path class="st109" d="M180.66,47.77h3.15v1.49h-3.15V47.77z"/>
		<path class="st109" d="M185.25,44.53h1.57v7.16h-1.57V44.53z"/>
		<path class="st109" d="M191.34,47.77h3.15v1.49h-3.15V47.77z"/>
		<path class="st109" d="M200.88,48.05l-2.39-3.52h1.84l1.49,2.32l1.52-2.32h1.79l-2.39,3.5l2.5,3.66h-1.84l-1.6-2.45l-1.62,2.45
			h-1.79L200.88,48.05z"/>
		<path class="st109" d="M206.21,49.76v-3.55h1.55v3.06c0,0.74,0.34,1.11,0.94,1.11c0.6,0,0.97-0.38,0.97-1.11v-3.06h1.08
			c0.13-0.03,0.2-0.1,0.2-0.21c0-0.15-0.04-0.44-0.36-1.01h1.52c0.17,0.5,0.21,1.02,0.21,1.22c-0.05,0.6-0.42,1.03-1.11,1.27v4.22
			h-1.55v-0.78c-0.36,0.46-0.83,0.88-1.61,0.88C206.88,51.79,206.21,51.03,206.21,49.76z M208.25,44.59
			c0.45-0.03,0.68-0.13,0.68-0.51c0-0.07-0.08-0.2-0.26-0.2c-0.12,0-0.37,0.1-0.5,0.46l-0.79-0.42c0.39-0.83,0.83-0.98,1.32-0.98
			c0.71,0,1.21,0.48,1.2,1.12c-0.01,0.65-0.36,0.95-0.74,1.1l-0.04,0.44h-0.79L208.25,44.59z"/>
		<path class="st109" d="M216.2,44.23h1.55v7.46h-1.55V44.23z"/>
		<path class="st109" d="M219.14,52.98l0.52-1.12c0.2,0.12,0.46,0.21,0.66,0.21c0.28,0,0.41-0.08,0.54-0.36l-2.15-5.5h1.65
			l1.25,3.73l1.2-3.73h1.62l-2.11,5.61c-0.41,1.11-0.88,1.53-1.8,1.53C219.95,53.36,219.54,53.21,219.14,52.98z M221.79,43.8
			l1.34,0.58l-1.33,1.23h-1.14L221.79,43.8z"/>
	</g>
	<g>
		<text transform="matrix(1 0 0 1 429.722 53.3362)" class="st109 st322 st323">11</text>
	</g>
	<g>
		<text transform="matrix(1 0 0 1 551.1263 37.7825)" class="st109 st322 st323">18</text>
	</g>
	<rect x="237.27" y="40.81" class="st7" width="185.11" height="14.5"/>
	<rect x="237.27" y="26.03" class="st105" width="307.92" height="14.5"/>
	<g>
		<path class="st109" d="M78.94,132.15h3.32c0.83,0,1.45,0.21,1.87,0.63c0.33,0.33,0.49,0.74,0.49,1.22v0.02
			c0,0.8-0.43,1.28-0.94,1.54c0.83,0.32,1.34,0.81,1.34,1.76v0.02c0,1.31-1.06,1.96-2.68,1.96h-3.4V132.15z M81.92,135.04
			c0.7,0,1.13-0.23,1.13-0.76v-0.02c0-0.48-0.37-0.74-1.03-0.74h-1.55v1.51H81.92z M82.34,137.93c0.7,0,1.12-0.25,1.12-0.78v-0.02
			c0-0.48-0.35-0.78-1.17-0.78h-1.82v1.57H82.34z"/>
		<path class="st109" d="M85.83,137.73v-0.02c0-1.19,0.91-1.75,2.21-1.75c0.56,0,0.94,0.09,1.34,0.22v-0.09c0-0.65-0.4-1-1.18-1
			c-0.6,0-1.01,0.1-1.51,0.3l-0.39-1.19c0.6-0.26,1.2-0.44,2.13-0.44c0.86,0,1.45,0.21,1.85,0.61c0.41,0.41,0.59,1.01,0.59,1.75
			v3.18h-1.5v-0.59c-0.38,0.42-0.89,0.7-1.66,0.7C86.68,139.41,85.83,138.83,85.83,137.73z M89.4,137.37v-0.28
			c-0.28-0.12-0.61-0.21-0.99-0.21c-0.66,0-1.07,0.27-1.07,0.76v0.02c0,0.42,0.35,0.66,0.85,0.66
			C88.92,138.33,89.4,137.95,89.4,137.37z M87.66,139.99h1.46v1.35h-1.46V139.99z"/>
		<path class="st109" d="M91.95,136.6v-0.02c0-1.56,1.2-2.85,2.87-2.85c1.03,0,1.67,0.35,2.19,0.92l-0.95,1.02
			c-0.36-0.37-0.68-0.6-1.25-0.6c-0.78,0-1.33,0.67-1.33,1.49v0.02c0,0.85,0.54,1.51,1.39,1.51c0.52,0,0.88-0.22,1.26-0.58
			l0.91,0.92c-0.53,0.58-1.14,1-2.24,1C93.15,139.43,91.95,138.15,91.95,136.6z"/>
		<path class="st109" d="M100.69,138.58l0.67-1.02c0.6,0.44,1.21,0.65,1.73,0.65c0.45,0,0.65-0.16,0.65-0.41v-0.02
			c0-0.34-0.53-0.44-1.13-0.63c-0.77-0.21-1.64-0.58-1.64-1.65v-0.02c0-1.11,0.9-1.74,2-1.74c0.7,0,1.44,0.24,2.04,0.63l-0.59,1.07
			c-0.54-0.32-1.08-0.51-1.48-0.51c-0.38,0-0.57,0.16-0.57,0.38v0.02c0,0.29,0.52,0.47,1.11,0.65c0.77,0.25,1.66,0.62,1.66,1.63
			v0.02c0,1.22-0.91,1.77-2.1,1.77C102.27,139.41,101.43,139.15,100.69,138.58z"/>
		<path class="st109" d="M106.21,137.37v-3.55h1.55v3.06c0,0.74,0.34,1.11,0.94,1.11c0.6,0,0.97-0.38,0.97-1.11v-3.06h1.55v5.48
			h-1.55v-0.78c-0.36,0.46-0.83,0.88-1.61,0.88C106.89,139.41,106.21,138.64,106.21,137.37z"/>
		<path class="st109" d="M112.7,131.84h1.55v7.46h-1.55V131.84z"/>
		<path class="st109" d="M115.98,135.16h-0.64v-1.28h0.64v-0.35c0-0.59,0.14-1.03,0.44-1.33c0.29-0.29,0.71-0.43,1.26-0.43
			c0.49,0,0.82,0.06,1.1,0.15v1.29c-0.24-0.08-0.43-0.13-0.71-0.13c-0.38,0-0.56,0.19-0.56,0.59v0.21h1.26v1.27h-1.24v4.15h-1.55
			V135.16z"/>
		<path class="st109" d="M119.29,137.73v-0.02c0-1.19,0.91-1.75,2.21-1.75c0.56,0,0.94,0.09,1.34,0.22v-0.09c0-0.65-0.4-1-1.18-1
			c-0.6,0-1.01,0.1-1.51,0.3l-0.39-1.19c0.6-0.26,1.2-0.44,2.13-0.44c0.86,0,1.45,0.21,1.85,0.61c0.41,0.41,0.59,1.01,0.59,1.75
			v3.18h-1.5v-0.59c-0.38,0.42-0.89,0.7-1.66,0.7C120.14,139.41,119.29,138.83,119.29,137.73z M122.86,137.37v-0.28
			c-0.28-0.12-0.61-0.21-0.99-0.21c-0.66,0-1.07,0.27-1.07,0.76v0.02c0,0.42,0.35,0.66,0.85,0.66
			C122.38,138.33,122.86,137.95,122.86,137.37z"/>
		<path class="st109" d="M125.43,136.58v-0.02c0-1.83,1.2-2.83,2.49-2.83c0.83,0,1.34,0.38,1.71,0.82v-2.7h1.55v7.46h-1.55v-0.79
			c-0.38,0.52-0.89,0.89-1.71,0.89C126.65,139.41,125.43,138.41,125.43,136.58z M129.65,136.58v-0.02c0-0.91-0.6-1.51-1.33-1.51
			c-0.73,0-1.34,0.59-1.34,1.51v0.02c0,0.91,0.61,1.51,1.34,1.51C129.05,138.09,129.65,137.49,129.65,136.58z"/>
		<path class="st109" d="M132.61,131.84h1.64v1.38h-1.64V131.84z M132.65,133.83h1.55v5.48h-1.55V133.83z"/>
		<path class="st109" d="M135.34,137.73v-0.02c0-1.19,0.91-1.75,2.21-1.75c0.56,0,0.94,0.09,1.34,0.22v-0.09c0-0.65-0.4-1-1.18-1
			c-0.6,0-1.01,0.1-1.51,0.3l-0.39-1.19c0.6-0.26,1.2-0.44,2.13-0.44c0.86,0,1.45,0.21,1.85,0.61c0.41,0.41,0.59,1.01,0.59,1.75
			v3.18h-1.5v-0.59c-0.38,0.42-0.89,0.7-1.66,0.7C136.19,139.41,135.34,138.83,135.34,137.73z M138.91,137.37v-0.28
			c-0.28-0.12-0.61-0.21-0.99-0.21c-0.66,0-1.07,0.27-1.07,0.76v0.02c0,0.42,0.35,0.66,0.85,0.66
			C138.43,138.33,138.91,137.95,138.91,137.37z"/>
		<path class="st109" d="M141.54,138.21l2.83-3.13h-2.74v-1.26h4.67v1.09l-2.84,3.13h2.84v1.26h-4.76V138.21z"/>
		<path class="st109" d="M147.51,131.84h1.64v1.38h-1.64V131.84z M147.55,133.83h1.55v5.48h-1.55V133.83z"/>
		<path class="st109" d="M150.57,133.83h1.55v0.78c0.36-0.46,0.83-0.88,1.61-0.88c1.19,0,1.86,0.77,1.86,2.03v3.55h-1.55v-3.06
			c0-0.74-0.34-1.11-0.94-1.11c-0.6,0-0.97,0.38-0.97,1.11v3.06h-1.55V133.83z"/>
		<path class="st109" d="M156.68,136.6v-0.02c0-1.56,1.11-2.85,2.71-2.85c1.83,0,2.67,1.42,2.67,2.97c0,0.12-0.01,0.26-0.02,0.41
			h-3.81c0.15,0.71,0.64,1.07,1.34,1.07c0.52,0,0.89-0.16,1.33-0.56l0.89,0.79c-0.52,0.64-1.25,1.02-2.24,1.02
			C157.89,139.43,156.68,138.27,156.68,136.6z M160.54,136.14c-0.09-0.7-0.5-1.17-1.16-1.17s-1.06,0.46-1.19,1.17H160.54z"/>
		<path class="st109" d="M166.09,135.39h3.15v1.49h-3.15V135.39z"/>
		<path class="st109" d="M173.68,132.15h1.58v3.13l2.9-3.13h1.9l-2.91,3.04l3.05,4.12h-1.89l-2.22-3.05l-0.83,0.86v2.19h-1.58
			V132.15z"/>
		<path class="st109" d="M181.02,131.84h1.64v1.38h-1.64V131.84z M181.06,133.83h1.55v5.48h-1.55V133.83z"/>
		<path class="st109" d="M183.81,136.6v-0.02c0-1.56,1.11-2.85,2.71-2.85c1.83,0,2.67,1.42,2.67,2.97c0,0.12-0.01,0.26-0.02,0.41
			h-3.81c0.15,0.71,0.64,1.07,1.34,1.07c0.52,0,0.89-0.16,1.33-0.56l0.89,0.79c-0.52,0.64-1.25,1.02-2.24,1.02
			C185.02,139.43,183.81,138.27,183.81,136.6z M185.76,131.62h1.47l1.26,1.61h-1.2l-0.81-0.67l-0.81,0.67h-1.17L185.76,131.62z
			 M187.67,136.14c-0.09-0.7-0.5-1.17-1.16-1.17s-1.06,0.46-1.19,1.17H187.67z M187.9,131.06c0.45-0.03,0.69-0.13,0.69-0.51
			c0-0.07-0.08-0.2-0.26-0.2c-0.12,0-0.37,0.1-0.5,0.46l-0.79-0.42c0.39-0.83,0.83-0.98,1.32-0.98c0.71,0,1.21,0.48,1.2,1.12
			c-0.01,0.65-0.36,0.95-0.74,1.1l-0.04,0.44h-0.79L187.9,131.06z"/>
		<path class="st109" d="M190.34,133.83h1.55v0.78c0.36-0.46,0.83-0.88,1.62-0.88c0.73,0,1.26,0.31,1.54,0.87
			c0.48-0.57,1.05-0.87,1.8-0.87c1.16,0,1.85,0.7,1.85,2.01v3.57h-1.55v-3.06c0-0.74-0.33-1.11-0.91-1.11
			c-0.58,0-0.94,0.38-0.94,1.11v3.06h-1.55v-3.06c0-0.74-0.33-1.11-0.91-1.11c-0.58,0-0.94,0.38-0.94,1.11v3.06h-1.55V133.83z"/>
		<path class="st109" d="M202.7,138.58l0.67-1.02c0.6,0.44,1.21,0.65,1.73,0.65c0.45,0,0.65-0.16,0.65-0.41v-0.02
			c0-0.34-0.53-0.44-1.13-0.63c-0.77-0.21-1.64-0.58-1.64-1.65v-0.02c0-1.11,0.9-1.74,2-1.74c0.7,0,1.44,0.24,2.04,0.63l-0.59,1.07
			c-0.54-0.32-1.08-0.51-1.48-0.51c-0.38,0-0.57,0.16-0.57,0.38v0.02c0,0.29,0.52,0.47,1.11,0.65c0.77,0.25,1.66,0.62,1.66,1.63
			v0.02c0,1.22-0.91,1.77-2.1,1.77C204.27,139.41,203.43,139.15,202.7,138.58z"/>
		<path class="st109" d="M208,136.6v-0.02c0-1.57,1.27-2.85,2.97-2.85c1.69,0,2.96,1.25,2.96,2.83v0.02c0,1.57-1.27,2.85-2.98,2.85
			C209.26,139.43,208,138.18,208,136.6z M212.39,136.6v-0.02c0-0.81-0.58-1.51-1.44-1.51c-0.89,0-1.42,0.67-1.42,1.49v0.02
			c0,0.81,0.58,1.51,1.44,1.51C211.86,138.09,212.39,137.41,212.39,136.6z"/>
		<path class="st109" d="M214.73,137.73v-0.02c0-1.19,0.91-1.75,2.21-1.75c0.56,0,0.94,0.09,1.34,0.22v-0.09c0-0.65-0.4-1-1.18-1
			c-0.6,0-1.01,0.1-1.51,0.3l-0.39-1.19c0.6-0.26,1.2-0.44,2.13-0.44c0.86,0,1.45,0.21,1.85,0.61c0.41,0.41,0.59,1.01,0.59,1.75
			v3.18h-1.5v-0.59c-0.38,0.42-0.89,0.7-1.66,0.7C215.57,139.41,214.73,138.83,214.73,137.73z M218.29,137.37v-0.28
			c-0.28-0.12-0.61-0.21-0.99-0.21c-0.66,0-1.07,0.27-1.07,0.76v0.02c0,0.42,0.35,0.66,0.85,0.66
			C217.81,138.33,218.29,137.95,218.29,137.37z M217.75,131.41l1.34,0.58l-1.33,1.23h-1.14L217.75,131.41z"/>
		<path class="st109" d="M221.36,137.75v-2.6h-0.65v-1.33h0.65v-1.4h1.55v1.4h1.29v1.33h-1.29v2.34c0,0.36,0.16,0.53,0.5,0.53
			c0.28,0,0.53-0.06,0.77-0.19v1.25c-0.33,0.19-0.71,0.32-1.23,0.32C222.02,139.4,221.36,139.02,221.36,137.75z"/>
	</g>
	<g>
		<path class="st109" d="M104.18,146.99h3.32c0.83,0,1.45,0.21,1.87,0.63c0.33,0.33,0.49,0.74,0.49,1.22v0.02
			c0,0.8-0.43,1.28-0.94,1.54c0.83,0.32,1.34,0.81,1.34,1.76v0.02c0,1.31-1.06,1.96-2.68,1.96h-3.4V146.99z M107.16,149.89
			c0.7,0,1.13-0.23,1.13-0.76v-0.02c0-0.48-0.37-0.74-1.03-0.74h-1.55v1.51H107.16z M107.58,152.77c0.7,0,1.12-0.25,1.12-0.78v-0.02
			c0-0.48-0.35-0.78-1.17-0.78h-1.82v1.57H107.58z"/>
		<path class="st109" d="M111.07,152.57v-0.02c0-1.19,0.91-1.75,2.21-1.75c0.56,0,0.94,0.09,1.34,0.22v-0.09c0-0.65-0.4-1-1.18-1
			c-0.6,0-1.01,0.1-1.51,0.3l-0.39-1.19c0.6-0.26,1.2-0.44,2.13-0.44c0.86,0,1.45,0.21,1.85,0.61c0.41,0.41,0.59,1.01,0.59,1.75
			v3.18h-1.5v-0.59c-0.38,0.42-0.89,0.7-1.66,0.7C111.92,154.25,111.07,153.67,111.07,152.57z M114.64,152.22v-0.28
			c-0.28-0.12-0.61-0.21-0.99-0.21c-0.66,0-1.07,0.27-1.07,0.76v0.02c0,0.42,0.35,0.66,0.85,0.66
			C114.16,153.18,114.64,152.79,114.64,152.22z M112.9,154.83h1.46v1.35h-1.46V154.83z"/>
		<path class="st109" d="M117.19,151.44v-0.02c0-1.56,1.2-2.85,2.87-2.85c1.03,0,1.67,0.35,2.19,0.92l-0.95,1.02
			c-0.36-0.37-0.68-0.6-1.25-0.6c-0.78,0-1.33,0.67-1.33,1.49v0.02c0,0.85,0.54,1.51,1.39,1.51c0.52,0,0.88-0.22,1.26-0.58
			l0.91,0.92c-0.53,0.58-1.14,1-2.24,1C118.4,154.27,117.19,152.99,117.19,151.44z"/>
		<path class="st109" d="M125.93,153.42l0.67-1.02c0.6,0.44,1.21,0.65,1.73,0.65c0.45,0,0.65-0.16,0.65-0.41v-0.02
			c0-0.34-0.53-0.44-1.13-0.63c-0.77-0.21-1.64-0.58-1.64-1.65v-0.02c0-1.11,0.9-1.74,2-1.74c0.7,0,1.44,0.24,2.04,0.63l-0.59,1.07
			c-0.54-0.32-1.08-0.51-1.48-0.51c-0.38,0-0.57,0.16-0.57,0.38v0.02c0,0.29,0.52,0.47,1.11,0.65c0.77,0.25,1.66,0.62,1.66,1.63
			v0.02c0,1.22-0.91,1.77-2.1,1.77C127.51,154.25,126.67,154,125.93,153.42z"/>
		<path class="st109" d="M131.46,152.22v-3.55h1.55v3.06c0,0.74,0.34,1.11,0.94,1.11c0.6,0,0.97-0.38,0.97-1.11v-3.06h1.55v5.48
			h-1.55v-0.78c-0.36,0.46-0.83,0.88-1.61,0.88C132.13,154.25,131.46,153.49,131.46,152.22z"/>
		<path class="st109" d="M137.94,146.69h1.55v7.46h-1.55V146.69z"/>
		<path class="st109" d="M141.22,150h-0.64v-1.28h0.64v-0.35c0-0.59,0.14-1.03,0.44-1.33c0.29-0.29,0.71-0.43,1.26-0.43
			c0.49,0,0.82,0.06,1.1,0.15v1.29c-0.24-0.08-0.43-0.13-0.71-0.13c-0.38,0-0.56,0.19-0.56,0.59v0.21h1.26V150h-1.24v4.15h-1.55V150
			z"/>
		<path class="st109" d="M144.54,152.57v-0.02c0-1.19,0.91-1.75,2.21-1.75c0.56,0,0.94,0.09,1.34,0.22v-0.09c0-0.65-0.4-1-1.18-1
			c-0.6,0-1.01,0.1-1.51,0.3l-0.39-1.19c0.6-0.26,1.2-0.44,2.13-0.44c0.86,0,1.45,0.21,1.85,0.61c0.41,0.41,0.59,1.01,0.59,1.75
			v3.18h-1.5v-0.59c-0.38,0.42-0.89,0.7-1.66,0.7C145.39,154.25,144.54,153.67,144.54,152.57z M148.1,152.22v-0.28
			c-0.28-0.12-0.61-0.21-0.99-0.21c-0.66,0-1.07,0.27-1.07,0.76v0.02c0,0.42,0.35,0.66,0.85,0.66
			C147.62,153.18,148.1,152.79,148.1,152.22z"/>
		<path class="st109" d="M150.67,151.42v-0.02c0-1.83,1.2-2.83,2.49-2.83c0.83,0,1.34,0.38,1.71,0.82v-2.7h1.55v7.46h-1.55v-0.79
			c-0.38,0.52-0.89,0.89-1.71,0.89C151.89,154.25,150.67,153.25,150.67,151.42z M154.9,151.42v-0.02c0-0.91-0.6-1.51-1.33-1.51
			c-0.73,0-1.34,0.59-1.34,1.51v0.02c0,0.91,0.61,1.51,1.34,1.51C154.29,152.93,154.9,152.33,154.9,151.42z"/>
		<path class="st109" d="M157.85,146.69h1.64v1.38h-1.64V146.69z M157.89,148.67h1.55v5.48h-1.55V148.67z"/>
		<path class="st109" d="M160.58,152.57v-0.02c0-1.19,0.91-1.75,2.21-1.75c0.56,0,0.94,0.09,1.34,0.22v-0.09c0-0.65-0.4-1-1.18-1
			c-0.6,0-1.01,0.1-1.51,0.3l-0.39-1.19c0.6-0.26,1.2-0.44,2.13-0.44c0.86,0,1.45,0.21,1.85,0.61c0.41,0.41,0.59,1.01,0.59,1.75
			v3.18h-1.5v-0.59c-0.38,0.42-0.89,0.7-1.66,0.7C161.43,154.25,160.58,153.67,160.58,152.57z M164.15,152.22v-0.28
			c-0.28-0.12-0.61-0.21-0.99-0.21c-0.66,0-1.07,0.27-1.07,0.76v0.02c0,0.42,0.35,0.66,0.85,0.66
			C163.67,153.18,164.15,152.79,164.15,152.22z"/>
		<path class="st109" d="M166.78,153.06l2.83-3.13h-2.74v-1.26h4.67v1.09l-2.84,3.13h2.84v1.26h-4.76V153.06z"/>
		<path class="st109" d="M172.75,146.69h1.64v1.38h-1.64V146.69z M172.79,148.67h1.55v5.48h-1.55V148.67z"/>
		<path class="st109" d="M175.81,148.67h1.55v0.78c0.36-0.46,0.83-0.88,1.61-0.88c1.19,0,1.86,0.77,1.86,2.03v3.55h-1.55v-3.06
			c0-0.74-0.34-1.11-0.94-1.11c-0.6,0-0.97,0.38-0.97,1.11v3.06h-1.55V148.67z"/>
		<path class="st109" d="M181.92,151.44v-0.02c0-1.56,1.11-2.85,2.71-2.85c1.83,0,2.67,1.42,2.67,2.97c0,0.12-0.01,0.26-0.02,0.41
			h-3.81c0.15,0.71,0.64,1.07,1.34,1.07c0.52,0,0.89-0.16,1.33-0.56l0.89,0.79c-0.52,0.64-1.25,1.02-2.24,1.02
			C183.13,154.27,181.92,153.12,181.92,151.44z M185.78,150.98c-0.09-0.7-0.5-1.17-1.16-1.17s-1.06,0.46-1.19,1.17H185.78z"/>
		<path class="st109" d="M191.34,150.23h3.15v1.49h-3.15V150.23z"/>
		<path class="st109" d="M200.88,150.51l-2.39-3.52h1.84l1.49,2.32l1.52-2.32h1.79l-2.39,3.5l2.5,3.66h-1.84l-1.6-2.45l-1.62,2.45
			h-1.79L200.88,150.51z"/>
		<path class="st109" d="M206.21,152.22v-3.55h1.55v3.06c0,0.74,0.34,1.11,0.94,1.11c0.6,0,0.97-0.38,0.97-1.11v-3.06h1.08
			c0.13-0.03,0.2-0.1,0.2-0.21c0-0.15-0.04-0.44-0.36-1.01h1.52c0.17,0.5,0.21,1.02,0.21,1.22c-0.05,0.6-0.42,1.03-1.11,1.27v4.22
			h-1.55v-0.78c-0.36,0.46-0.83,0.88-1.61,0.88C206.88,154.25,206.21,153.49,206.21,152.22z M208.25,147.05
			c0.45-0.03,0.68-0.13,0.68-0.51c0-0.07-0.08-0.2-0.26-0.2c-0.12,0-0.37,0.1-0.5,0.46l-0.79-0.42c0.39-0.83,0.83-0.98,1.32-0.98
			c0.71,0,1.21,0.48,1.2,1.12c-0.01,0.65-0.36,0.95-0.74,1.1l-0.04,0.44h-0.79L208.25,147.05z"/>
		<path class="st109" d="M216.2,146.69h1.55v7.46h-1.55V146.69z"/>
		<path class="st109" d="M219.15,155.44l0.52-1.12c0.21,0.12,0.46,0.21,0.67,0.21c0.28,0,0.41-0.08,0.54-0.36l-2.15-5.5h1.65
			l1.25,3.73l1.2-3.73h1.62l-2.11,5.61c-0.41,1.11-0.88,1.53-1.8,1.53C219.95,155.82,219.54,155.67,219.15,155.44z M221.79,146.26
			l1.34,0.58l-1.33,1.23h-1.14L221.79,146.26z"/>
	</g>
	<g>
		<text transform="matrix(1 0 0 1 500.4221 155.7962)" class="st109 st322 st323">15</text>
	</g>
	<g>
		<text transform="matrix(1 0 0 1 518.2532 140.2435)" class="st109 st322 st323">16</text>
	</g>
	<rect x="237.27" y="143.27" class="st7" width="257.12" height="14.5"/>
	<rect x="237.27" y="128.49" class="st105" width="274.44" height="14.5"/>
	<g>
		<path class="st109" d="M25.65,84.36v-0.02c0-2.03,1.53-3.7,3.73-3.7c1.34,0,2.17,0.45,2.82,1.1l-1,1.16
			c-0.56-0.5-1.1-0.81-1.83-0.81c-1.21,0-2.08,1-2.08,2.23v0.02c0,1.23,0.85,2.25,2.08,2.25c0.82,0,1.32-0.32,1.88-0.84l1,1.01
			c-0.74,0.79-1.54,1.28-2.93,1.28C27.22,88.04,25.65,86.42,25.65,84.36z"/>
		<path class="st109" d="M33.35,80.46h1.55v2.76c0.36-0.46,0.83-0.88,1.61-0.88c1.19,0,1.86,0.77,1.86,2.03v3.55h-1.55v-3.06
			c0-0.74-0.34-1.11-0.94-1.11c-0.6,0-0.97,0.38-0.97,1.11v3.06h-1.55V80.46z"/>
		<path class="st109" d="M39.8,80.46h1.55v7.46H39.8V80.46z"/>
		<path class="st109" d="M42.55,85.21v-0.02c0-1.57,1.27-2.85,2.97-2.85c1.69,0,2.96,1.25,2.96,2.83v0.02
			c0,1.57-1.27,2.85-2.98,2.85C43.82,88.04,42.55,86.8,42.55,85.21z M46.94,85.21v-0.02c0-0.81-0.58-1.51-1.44-1.51
			c-0.89,0-1.42,0.67-1.42,1.49v0.02c0,0.81,0.58,1.51,1.44,1.51C46.41,86.7,46.94,86.03,46.94,85.21z"/>
		<path class="st109" d="M49.6,82.44h1.55v1.1c0.32-0.75,0.82-1.25,1.75-1.21v1.63h-0.08c-1.03,0-1.67,0.61-1.67,1.93v2.02H49.6
			V82.44z"/>
		<path class="st109" d="M53.88,80.46h1.55v2.76c0.36-0.46,0.83-0.88,1.61-0.88c1.19,0,1.86,0.77,1.86,2.03v3.55h-1.55v-3.06
			c0-0.74-0.34-1.11-0.94-1.11c-0.6,0-0.97,0.38-0.97,1.11v3.06h-1.55V80.46z"/>
		<path class="st109" d="M59.99,85.21v-0.02c0-1.56,1.11-2.85,2.71-2.85c1.83,0,2.67,1.42,2.67,2.97c0,0.12-0.01,0.26-0.02,0.41
			h-3.81c0.15,0.71,0.64,1.07,1.34,1.07c0.52,0,0.89-0.16,1.33-0.56l0.89,0.79c-0.52,0.64-1.25,1.02-2.24,1.02
			C61.2,88.04,59.99,86.89,59.99,85.21z M63.85,84.75c-0.09-0.7-0.5-1.17-1.16-1.17s-1.06,0.46-1.19,1.17H63.85z"/>
		<path class="st109" d="M68.79,86.21l-1.1,1.71h-1.62l1.92-2.78l-1.85-2.7h1.67l1.02,1.6l1.03-1.6h1.62l-1.85,2.68l1.93,2.8h-1.67
			L68.79,86.21z"/>
		<path class="st109" d="M72.52,80.46h1.64v1.38h-1.64V80.46z M72.56,82.44h1.55v5.48h-1.55V82.44z"/>
		<path class="st109" d="M75.34,85.19v-0.02c0-1.83,1.2-2.83,2.49-2.83c0.83,0,1.34,0.38,1.71,0.82v-2.7h1.55v7.46h-1.55v-0.79
			c-0.38,0.52-0.89,0.89-1.71,0.89C76.55,88.02,75.34,87.02,75.34,85.19z M79.56,85.19v-0.02c0-0.91-0.6-1.51-1.33-1.51
			c-0.73,0-1.34,0.59-1.34,1.51v0.02c0,0.91,0.61,1.51,1.34,1.51C78.96,86.7,79.56,86.1,79.56,85.19z"/>
		<path class="st109" d="M82.52,80.46h1.64v1.38h-1.64V80.46z M82.56,82.44h1.55v5.48h-1.55V82.44z"/>
		<path class="st109" d="M85.57,82.44h1.55v0.78c0.36-0.46,0.83-0.88,1.61-0.88c1.19,0,1.86,0.77,1.86,2.03v3.55h-1.55v-3.06
			c0-0.74-0.34-1.11-0.94-1.11c-0.6,0-0.97,0.38-0.97,1.11v3.06h-1.55V82.44z"/>
		<path class="st109" d="M91.68,85.21v-0.02c0-1.56,1.11-2.85,2.71-2.85c1.83,0,2.67,1.42,2.67,2.97c0,0.12-0.01,0.26-0.02,0.41
			h-3.81c0.15,0.71,0.64,1.07,1.34,1.07c0.52,0,0.89-0.16,1.33-0.56l0.89,0.79c-0.52,0.64-1.25,1.02-2.24,1.02
			C92.9,88.04,91.68,86.89,91.68,85.21z M95.54,84.75c-0.09-0.7-0.5-1.17-1.16-1.17s-1.06,0.46-1.19,1.17H95.54z"/>
		<path class="st109" d="M101.04,85.19v-0.02c0-1.83,1.2-2.83,2.49-2.83c0.83,0,1.34,0.38,1.71,0.82v-2.7h1.55v7.46h-1.55v-0.79
			c-0.38,0.52-0.89,0.89-1.71,0.89C102.25,88.02,101.04,87.02,101.04,85.19z M105.26,85.19v-0.02c0-0.91-0.6-1.51-1.33-1.51
			c-0.73,0-1.34,0.59-1.34,1.51v0.02c0,0.91,0.61,1.51,1.34,1.51C104.66,86.7,105.26,86.1,105.26,85.19z"/>
		<path class="st109" d="M108.22,80.46h1.64v1.38h-1.64V80.46z M108.26,82.44h1.55v5.48h-1.55V82.44z"/>
		<path class="st109" d="M111.31,89.01l0.53-1.17c0.57,0.32,1.11,0.5,1.85,0.5c1.06,0,1.56-0.51,1.56-1.49v-0.27
			c-0.46,0.56-0.96,0.89-1.79,0.89c-1.28,0-2.43-0.92-2.43-2.56V84.9c0-1.64,1.18-2.56,2.43-2.56c0.85,0,1.35,0.36,1.77,0.82v-0.72
			h1.55v4.24c0,0.97-0.24,1.7-0.7,2.16c-0.52,0.52-1.3,0.74-2.36,0.74C112.83,89.58,112,89.37,111.31,89.01z M115.25,84.92V84.9
			c0-0.75-0.57-1.27-1.34-1.27c-0.76,0-1.33,0.52-1.33,1.27v0.02c0,0.77,0.56,1.27,1.33,1.27S115.25,85.66,115.25,84.92z"/>
		<path class="st109" d="M118.25,80.46h1.55v7.46h-1.55V80.46z"/>
		<path class="st109" d="M121.23,85.99v-3.55h1.55v3.06c0,0.74,0.34,1.11,0.94,1.11c0.6,0,0.97-0.38,0.97-1.11v-3.06h1.55v5.48
			h-1.55v-0.78c-0.36,0.46-0.83,0.88-1.61,0.88C121.9,88.02,121.23,87.26,121.23,85.99z"/>
		<path class="st109" d="M127.37,85.21v-0.02c0-1.56,1.2-2.85,2.87-2.85c1.03,0,1.67,0.35,2.19,0.92l-0.95,1.02
			c-0.36-0.37-0.68-0.6-1.25-0.6c-0.78,0-1.33,0.67-1.33,1.49v0.02c0,0.85,0.54,1.51,1.39,1.51c0.52,0,0.88-0.22,1.26-0.58
			l0.91,0.92c-0.53,0.58-1.14,1-2.24,1C128.58,88.04,127.37,86.77,127.37,85.21z"/>
		<path class="st109" d="M133.21,85.21v-0.02c0-1.57,1.27-2.85,2.97-2.85c1.69,0,2.96,1.25,2.96,2.83v0.02
			c0,1.57-1.27,2.85-2.98,2.85C134.48,88.04,133.21,86.8,133.21,85.21z M137.61,85.21v-0.02c0-0.81-0.58-1.51-1.44-1.51
			c-0.89,0-1.42,0.67-1.42,1.49v0.02c0,0.81,0.58,1.51,1.44,1.51C137.08,86.7,137.61,86.03,137.61,85.21z"/>
		<path class="st109" d="M140.27,82.44h1.55v0.78c0.36-0.46,0.83-0.88,1.61-0.88c1.19,0,1.86,0.77,1.86,2.03v3.55h-1.55v-3.06
			c0-0.74-0.34-1.11-0.94-1.11c-0.6,0-0.97,0.38-0.97,1.11v3.06h-1.55V82.44z"/>
		<path class="st109" d="M146.31,86.35v-0.02c0-1.19,0.91-1.75,2.21-1.75c0.56,0,0.94,0.09,1.34,0.22v-0.09c0-0.65-0.4-1-1.18-1
			c-0.6,0-1.01,0.1-1.51,0.3l-0.39-1.19c0.6-0.26,1.2-0.44,2.13-0.44c0.86,0,1.45,0.21,1.85,0.61c0.41,0.41,0.59,1.01,0.59,1.75
			v3.18h-1.5v-0.59c-0.38,0.42-0.89,0.7-1.66,0.7C147.16,88.02,146.31,87.44,146.31,86.35z M149.88,85.99v-0.28
			c-0.28-0.12-0.61-0.21-0.99-0.21c-0.66,0-1.07,0.27-1.07,0.76v0.02c0,0.42,0.35,0.66,0.85,0.66
			C149.4,86.95,149.88,86.56,149.88,85.99z"/>
		<path class="st109" d="M152.95,86.37v-2.6h-0.65v-1.33h0.65v-1.4h1.55v1.4h1.29v1.33h-1.29v2.34c0,0.36,0.16,0.53,0.5,0.53
			c0.28,0,0.53-0.06,0.77-0.19v1.25c-0.33,0.19-0.71,0.32-1.23,0.32C153.61,88.01,152.95,87.64,152.95,86.37z"/>
		<path class="st109" d="M156.67,85.21v-0.02c0-1.56,1.11-2.85,2.71-2.85c1.83,0,2.67,1.42,2.67,2.97c0,0.12-0.01,0.26-0.02,0.41
			h-3.81c0.15,0.71,0.64,1.07,1.34,1.07c0.52,0,0.89-0.16,1.33-0.56l0.89,0.79c-0.52,0.64-1.25,1.02-2.24,1.02
			C157.89,88.04,156.67,86.89,156.67,85.21z M160.54,84.75c-0.09-0.7-0.5-1.17-1.16-1.17s-1.06,0.46-1.19,1.17H160.54z"/>
		<path class="st109" d="M166.09,84.01h3.15v1.49h-3.15V84.01z"/>
		<path class="st109" d="M173.68,80.77h1.58v3.13l2.9-3.13h1.9l-2.91,3.04l3.05,4.12h-1.89l-2.22-3.05l-0.83,0.86v2.19h-1.58V80.77z
			"/>
		<path class="st109" d="M181.01,80.46h1.64v1.38h-1.64V80.46z M181.06,82.44h1.55v5.48h-1.55V82.44z"/>
		<path class="st109" d="M183.81,85.21v-0.02c0-1.56,1.11-2.85,2.71-2.85c1.83,0,2.67,1.42,2.67,2.97c0,0.12-0.01,0.26-0.02,0.41
			h-3.81c0.15,0.71,0.64,1.07,1.34,1.07c0.52,0,0.89-0.16,1.33-0.56l0.89,0.79c-0.52,0.64-1.25,1.02-2.24,1.02
			C185.02,88.04,183.81,86.89,183.81,85.21z M185.76,80.23h1.47l1.26,1.61h-1.2l-0.81-0.67l-0.81,0.67h-1.17L185.76,80.23z
			 M187.67,84.75c-0.09-0.7-0.5-1.17-1.16-1.17s-1.06,0.46-1.19,1.17H187.67z M187.9,79.67c0.45-0.03,0.69-0.13,0.69-0.51
			c0-0.07-0.08-0.2-0.26-0.2c-0.12,0-0.37,0.1-0.5,0.46L187.04,79c0.39-0.83,0.83-0.98,1.32-0.98c0.71,0,1.21,0.48,1.2,1.12
			c-0.01,0.65-0.36,0.95-0.74,1.1l-0.04,0.44h-0.79L187.9,79.67z"/>
		<path class="st109" d="M190.34,82.44h1.55v0.78c0.36-0.46,0.83-0.88,1.62-0.88c0.73,0,1.26,0.31,1.54,0.87
			c0.48-0.57,1.05-0.87,1.8-0.87c1.16,0,1.85,0.7,1.85,2.01v3.57h-1.55v-3.06c0-0.74-0.33-1.11-0.91-1.11
			c-0.58,0-0.94,0.38-0.94,1.11v3.06h-1.55v-3.06c0-0.74-0.33-1.11-0.91-1.11c-0.58,0-0.94,0.38-0.94,1.11v3.06h-1.55V82.44z"/>
		<path class="st109" d="M202.7,87.2l0.67-1.02c0.6,0.44,1.21,0.65,1.73,0.65c0.45,0,0.65-0.16,0.65-0.41V86.4
			c0-0.34-0.53-0.44-1.13-0.63c-0.77-0.21-1.64-0.58-1.64-1.65V84.1c0-1.11,0.9-1.74,2-1.74c0.7,0,1.44,0.24,2.04,0.63l-0.59,1.07
			c-0.54-0.32-1.08-0.51-1.48-0.51c-0.38,0-0.57,0.16-0.57,0.38v0.02c0,0.29,0.52,0.47,1.11,0.65c0.77,0.25,1.66,0.62,1.66,1.63
			v0.02c0,1.22-0.91,1.77-2.1,1.77C204.27,88.02,203.43,87.77,202.7,87.2z"/>
		<path class="st109" d="M207.99,85.21v-0.02c0-1.57,1.27-2.85,2.97-2.85c1.69,0,2.96,1.25,2.96,2.83v0.02
			c0,1.57-1.27,2.85-2.98,2.85C209.26,88.04,207.99,86.8,207.99,85.21z M212.39,85.21v-0.02c0-0.81-0.58-1.51-1.44-1.51
			c-0.89,0-1.42,0.67-1.42,1.49v0.02c0,0.81,0.58,1.51,1.44,1.51C211.86,86.7,212.39,86.03,212.39,85.21z"/>
		<path class="st109" d="M214.72,86.35v-0.02c0-1.19,0.91-1.75,2.21-1.75c0.56,0,0.94,0.09,1.34,0.22v-0.09c0-0.65-0.4-1-1.18-1
			c-0.6,0-1.01,0.1-1.51,0.3l-0.39-1.19c0.6-0.26,1.2-0.44,2.13-0.44c0.86,0,1.45,0.21,1.85,0.61c0.41,0.41,0.59,1.01,0.59,1.75
			v3.18h-1.5v-0.59c-0.38,0.42-0.89,0.7-1.66,0.7C215.57,88.02,214.72,87.44,214.72,86.35z M218.29,85.99v-0.28
			c-0.28-0.12-0.61-0.21-0.99-0.21c-0.66,0-1.07,0.27-1.07,0.76v0.02c0,0.42,0.35,0.66,0.85,0.66
			C217.81,86.95,218.29,86.56,218.29,85.99z M217.75,80.03l1.34,0.58l-1.33,1.23h-1.14L217.75,80.03z"/>
		<path class="st109" d="M221.36,86.37v-2.6h-0.65v-1.33h0.65v-1.4h1.55v1.4h1.29v1.33h-1.29v2.34c0,0.36,0.16,0.53,0.5,0.53
			c0.28,0,0.53-0.06,0.77-0.19v1.25c-0.33,0.19-0.71,0.32-1.23,0.32C222.02,88.01,221.36,87.64,221.36,86.37z"/>
	</g>
	<g>
		<path class="st109" d="M50.9,99.21v-0.02c0-2.03,1.53-3.7,3.73-3.7c1.34,0,2.17,0.45,2.82,1.1l-1,1.16
			c-0.56-0.5-1.1-0.81-1.83-0.81c-1.21,0-2.08,1-2.08,2.23v0.02c0,1.23,0.85,2.25,2.08,2.25c0.82,0,1.32-0.32,1.88-0.84l1,1.01
			c-0.74,0.79-1.54,1.28-2.93,1.28C52.46,102.89,50.9,101.26,50.9,99.21z"/>
		<path class="st109" d="M58.6,95.3h1.55v2.76c0.36-0.46,0.83-0.88,1.61-0.88c1.19,0,1.86,0.77,1.86,2.03v3.55h-1.55v-3.06
			c0-0.74-0.34-1.11-0.94-1.11c-0.6,0-0.97,0.38-0.97,1.11v3.06H58.6V95.3z"/>
		<path class="st109" d="M65.04,95.3h1.55v7.46h-1.55V95.3z"/>
		<path class="st109" d="M67.79,100.06v-0.02c0-1.57,1.27-2.85,2.97-2.85c1.69,0,2.96,1.25,2.96,2.83v0.02
			c0,1.57-1.27,2.85-2.98,2.85C69.06,102.89,67.79,101.64,67.79,100.06z M72.19,100.06v-0.02c0-0.81-0.58-1.51-1.44-1.51
			c-0.89,0-1.42,0.67-1.42,1.49v0.02c0,0.81,0.58,1.51,1.44,1.51C71.65,101.55,72.19,100.87,72.19,100.06z"/>
		<path class="st109" d="M74.85,97.28h1.55v1.1c0.32-0.75,0.82-1.25,1.75-1.21v1.63h-0.08c-1.03,0-1.67,0.61-1.67,1.93v2.02h-1.55
			V97.28z"/>
		<path class="st109" d="M79.12,95.3h1.55v2.76c0.36-0.46,0.83-0.88,1.61-0.88c1.19,0,1.86,0.77,1.86,2.03v3.55h-1.55v-3.06
			c0-0.74-0.34-1.11-0.94-1.11c-0.6,0-0.97,0.38-0.97,1.11v3.06h-1.55V95.3z"/>
		<path class="st109" d="M85.23,100.06v-0.02c0-1.56,1.11-2.85,2.71-2.85c1.83,0,2.67,1.42,2.67,2.97c0,0.12-0.01,0.26-0.02,0.41
			h-3.81c0.15,0.71,0.64,1.07,1.34,1.07c0.52,0,0.89-0.16,1.33-0.56l0.89,0.79c-0.52,0.64-1.25,1.02-2.24,1.02
			C86.44,102.89,85.23,101.73,85.23,100.06z M89.09,99.6c-0.09-0.7-0.5-1.17-1.16-1.17s-1.06,0.46-1.19,1.17H89.09z"/>
		<path class="st109" d="M94.03,101.06l-1.1,1.71H91.3l1.92-2.78l-1.85-2.7h1.67l1.02,1.6l1.03-1.6h1.62l-1.85,2.68l1.93,2.8h-1.67
			L94.03,101.06z"/>
		<path class="st109" d="M97.77,95.3h1.64v1.38h-1.64V95.3z M97.81,97.28h1.55v5.48h-1.55V97.28z"/>
		<path class="st109" d="M100.58,100.03v-0.02c0-1.83,1.2-2.83,2.49-2.83c0.83,0,1.34,0.38,1.71,0.82v-2.7h1.55v7.46h-1.55v-0.79
			c-0.38,0.52-0.89,0.89-1.71,0.89C101.8,102.87,100.58,101.87,100.58,100.03z M104.8,100.03v-0.02c0-0.91-0.6-1.51-1.33-1.51
			c-0.73,0-1.34,0.59-1.34,1.51v0.02c0,0.91,0.61,1.51,1.34,1.51C104.2,101.55,104.8,100.95,104.8,100.03z"/>
		<path class="st109" d="M107.76,95.3h1.64v1.38h-1.64V95.3z M107.8,97.28h1.55v5.48h-1.55V97.28z"/>
		<path class="st109" d="M110.82,97.28h1.55v0.78c0.36-0.46,0.83-0.88,1.61-0.88c1.19,0,1.86,0.77,1.86,2.03v3.55h-1.55v-3.06
			c0-0.74-0.34-1.11-0.94-1.11c-0.6,0-0.97,0.38-0.97,1.11v3.06h-1.55V97.28z"/>
		<path class="st109" d="M116.92,100.06v-0.02c0-1.56,1.11-2.85,2.71-2.85c1.83,0,2.67,1.42,2.67,2.97c0,0.12-0.01,0.26-0.02,0.41
			h-3.81c0.15,0.71,0.64,1.07,1.34,1.07c0.52,0,0.89-0.16,1.33-0.56l0.89,0.79c-0.52,0.64-1.25,1.02-2.24,1.02
			C118.14,102.89,116.92,101.73,116.92,100.06z M120.79,99.6c-0.09-0.7-0.5-1.17-1.16-1.17s-1.06,0.46-1.19,1.17H120.79z"/>
		<path class="st109" d="M126.28,100.03v-0.02c0-1.83,1.2-2.83,2.49-2.83c0.83,0,1.34,0.38,1.71,0.82v-2.7h1.55v7.46h-1.55v-0.79
			c-0.38,0.52-0.89,0.89-1.71,0.89C127.5,102.87,126.28,101.87,126.28,100.03z M130.5,100.03v-0.02c0-0.91-0.6-1.51-1.33-1.51
			c-0.73,0-1.34,0.59-1.34,1.51v0.02c0,0.91,0.61,1.51,1.34,1.51C129.9,101.55,130.5,100.95,130.5,100.03z"/>
		<path class="st109" d="M133.46,95.3h1.64v1.38h-1.64V95.3z M133.5,97.28h1.55v5.48h-1.55V97.28z"/>
		<path class="st109" d="M136.55,103.85l0.53-1.17c0.57,0.32,1.11,0.5,1.85,0.5c1.06,0,1.56-0.51,1.56-1.49v-0.27
			c-0.46,0.56-0.96,0.89-1.79,0.89c-1.28,0-2.43-0.92-2.43-2.56v-0.02c0-1.64,1.18-2.56,2.43-2.56c0.85,0,1.35,0.36,1.77,0.82v-0.72
			h1.55v4.24c0,0.97-0.24,1.7-0.7,2.16c-0.52,0.52-1.3,0.74-2.36,0.74C138.07,104.42,137.24,104.22,136.55,103.85z M140.49,99.76
			v-0.02c0-0.75-0.57-1.27-1.34-1.27c-0.76,0-1.33,0.52-1.33,1.27v0.02c0,0.77,0.56,1.27,1.33,1.27S140.49,100.5,140.49,99.76z"/>
		<path class="st109" d="M143.49,95.3h1.55v7.46h-1.55V95.3z"/>
		<path class="st109" d="M146.47,100.83v-3.55h1.55v3.06c0,0.74,0.34,1.11,0.94,1.11c0.6,0,0.97-0.38,0.97-1.11v-3.06h1.55v5.48
			h-1.55v-0.78c-0.36,0.46-0.83,0.88-1.61,0.88C147.14,102.87,146.47,102.1,146.47,100.83z"/>
		<path class="st109" d="M152.62,100.06v-0.02c0-1.56,1.2-2.85,2.87-2.85c1.03,0,1.67,0.35,2.19,0.92l-0.95,1.02
			c-0.36-0.37-0.68-0.6-1.25-0.6c-0.78,0-1.33,0.67-1.33,1.49v0.02c0,0.85,0.54,1.51,1.39,1.51c0.52,0,0.88-0.22,1.26-0.58
			l0.91,0.92c-0.53,0.58-1.14,1-2.24,1C153.82,102.89,152.62,101.61,152.62,100.06z"/>
		<path class="st109" d="M158.46,100.06v-0.02c0-1.57,1.27-2.85,2.97-2.85c1.69,0,2.96,1.25,2.96,2.83v0.02
			c0,1.57-1.27,2.85-2.98,2.85C159.72,102.89,158.46,101.64,158.46,100.06z M162.85,100.06v-0.02c0-0.81-0.58-1.51-1.44-1.51
			c-0.89,0-1.42,0.67-1.42,1.49v0.02c0,0.81,0.58,1.51,1.44,1.51C162.32,101.55,162.85,100.87,162.85,100.06z"/>
		<path class="st109" d="M165.51,97.28h1.55v0.78c0.36-0.46,0.83-0.88,1.61-0.88c1.19,0,1.86,0.77,1.86,2.03v3.55h-1.55v-3.06
			c0-0.74-0.34-1.11-0.94-1.11c-0.6,0-0.97,0.38-0.97,1.11v3.06h-1.55V97.28z"/>
		<path class="st109" d="M171.56,101.19v-0.02c0-1.19,0.91-1.75,2.21-1.75c0.56,0,0.94,0.09,1.34,0.22v-0.09c0-0.65-0.4-1-1.18-1
			c-0.6,0-1.01,0.1-1.51,0.3l-0.39-1.19c0.6-0.26,1.2-0.44,2.13-0.44c0.86,0,1.45,0.21,1.85,0.61c0.41,0.41,0.59,1.01,0.59,1.75
			v3.18h-1.5v-0.59c-0.38,0.42-0.89,0.7-1.66,0.7C172.4,102.87,171.56,102.28,171.56,101.19z M175.12,100.83v-0.28
			c-0.28-0.12-0.61-0.21-0.99-0.21c-0.66,0-1.07,0.27-1.07,0.76v0.02c0,0.42,0.35,0.66,0.85,0.66
			C174.64,101.79,175.12,101.41,175.12,100.83z"/>
		<path class="st109" d="M178.19,101.21v-2.6h-0.65v-1.33h0.65v-1.4h1.55v1.4h1.29v1.33h-1.29v2.34c0,0.36,0.16,0.53,0.5,0.53
			c0.28,0,0.53-0.06,0.77-0.19v1.25c-0.33,0.19-0.71,0.32-1.23,0.32C178.85,102.86,178.19,102.48,178.19,101.21z"/>
		<path class="st109" d="M181.92,100.06v-0.02c0-1.56,1.11-2.85,2.71-2.85c1.83,0,2.67,1.42,2.67,2.97c0,0.12-0.01,0.26-0.02,0.41
			h-3.81c0.15,0.71,0.64,1.07,1.34,1.07c0.52,0,0.89-0.16,1.33-0.56l0.89,0.79c-0.52,0.64-1.25,1.02-2.24,1.02
			C183.13,102.89,181.92,101.73,181.92,100.06z M185.78,99.6c-0.09-0.7-0.5-1.17-1.16-1.17s-1.06,0.46-1.19,1.17H185.78z"/>
		<path class="st109" d="M191.34,98.85h3.15v1.49h-3.15V98.85z"/>
		<path class="st109" d="M200.88,99.12l-2.39-3.52h1.84l1.49,2.32l1.52-2.32h1.79l-2.39,3.5l2.5,3.66h-1.84l-1.6-2.45l-1.62,2.45
			h-1.79L200.88,99.12z"/>
		<path class="st109" d="M206.21,100.83v-3.55h1.55v3.06c0,0.74,0.34,1.11,0.94,1.11c0.6,0,0.97-0.38,0.97-1.11v-3.06h1.08
			c0.13-0.03,0.2-0.1,0.2-0.21c0-0.15-0.04-0.44-0.36-1.01h1.52c0.17,0.5,0.21,1.02,0.21,1.22c-0.05,0.6-0.42,1.03-1.11,1.27v4.22
			h-1.55v-0.78c-0.36,0.46-0.83,0.88-1.61,0.88C206.88,102.87,206.21,102.1,206.21,100.83z M208.25,95.67
			c0.45-0.03,0.68-0.13,0.68-0.51c0-0.07-0.08-0.2-0.26-0.2c-0.12,0-0.37,0.1-0.5,0.46l-0.79-0.42c0.39-0.83,0.83-0.98,1.32-0.98
			c0.71,0,1.21,0.48,1.2,1.12c-0.01,0.65-0.36,0.95-0.74,1.1l-0.04,0.44h-0.79L208.25,95.67z"/>
		<path class="st109" d="M216.2,95.3h1.55v7.46h-1.55V95.3z"/>
		<path class="st109" d="M219.14,104.05l0.52-1.12c0.2,0.12,0.46,0.21,0.66,0.21c0.28,0,0.41-0.08,0.54-0.36l-2.15-5.5h1.65
			l1.25,3.73l1.2-3.73h1.62l-2.11,5.61c-0.41,1.11-0.88,1.53-1.8,1.53C219.95,104.43,219.54,104.29,219.14,104.05z M221.79,94.87
			l1.34,0.58l-1.33,1.23h-1.14L221.79,94.87z"/>
	</g>
	<g>
		<text transform="matrix(1 0 0 1 484.2971 104.4114)" class="st109 st322 st323">14</text>
	</g>
	<g>
		<text transform="matrix(1 0 0 1 501.5091 88.8577)" class="st109 st322 st323">15</text>
	</g>
	<rect x="237.27" y="91.88" class="st7" width="240.7" height="14.5"/>
	<rect x="237.27" y="77.11" class="st105" width="257.39" height="14.5"/>
	<g>
		<g>
			<defs>
				<rect id="SVGID_00000049930707333297486970000008656265952998977716_" x="224.93" y="-5.04" width="38.03" height="82.96"/>
			</defs>
			<clipPath id="SVGID_00000092444986352597696600000012926609082396995000_">
				<use xlink:href="#SVGID_00000049930707333297486970000008656265952998977716_"  style="overflow:visible;"/>
			</clipPath>
			<g style="clip-path:url(#SVGID_00000092444986352597696600000012926609082396995000_);">
				<defs>
					<path id="SVGID_00000064339756812529803050000006593743885504225680_" d="M237.27,72.76c3.89-4.45,6.71-17.88,6.71-33.77
						c0-15.88-2.83-29.32-6.71-33.76V72.76z"/>
				</defs>
				<clipPath id="SVGID_00000056403702938227869060000003034392656295132316_">
					<use xlink:href="#SVGID_00000064339756812529803050000006593743885504225680_"  style="overflow:visible;"/>
				</clipPath>
				<defs>
					<filter id="Adobe_OpacityMaskFilter" filterUnits="userSpaceOnUse" x="237.27" y="5.22" width="6.71" height="67.53">
						<feColorMatrix  type="matrix" values="1 0 0 0 0  0 1 0 0 0  0 0 1 0 0  0 0 0 1 0"/>
					</filter>
				</defs>
				
					<mask maskUnits="userSpaceOnUse" x="237.27" y="5.22" width="6.71" height="67.53" id="SVGID_00000032608102279863819420000012516415191251859339_">
					<g class="st8">
						
							<radialGradient id="SVGID_00000066497122681861702490000010747701577128935871_" cx="-1250.8083" cy="665.976" r="1.2784" gradientTransform="matrix(0 27.6347 7.4484 0 -4725.999 34604.7227)" gradientUnits="userSpaceOnUse">
							<stop  offset="0" style="stop-color:#FFFFFF"/>
							<stop  offset="1" style="stop-color:#000000"/>
						</radialGradient>
						
							<rect x="237.27" y="5.22" style="clip-path:url(#SVGID_00000056403702938227869060000003034392656295132316_);fill:url(#SVGID_00000066497122681861702490000010747701577128935871_);" width="6.71" height="67.53"/>
					</g>
				</mask>
				
					<radialGradient id="SVGID_00000136372644712295122640000014400831763762653085_" cx="-1250.8083" cy="665.9759" r="1.2784" gradientTransform="matrix(0 27.6347 7.4484 0 -4725.9995 34604.7266)" gradientUnits="userSpaceOnUse">
					<stop  offset="0" style="stop-color:#231F20"/>
					<stop  offset="1" style="stop-color:#FFFFFF"/>
				</radialGradient>
				
					<rect x="237.27" y="5.22" style="clip-path:url(#SVGID_00000056403702938227869060000003034392656295132316_);mask:url(#SVGID_00000032608102279863819420000012516415191251859339_);fill:url(#SVGID_00000136372644712295122640000014400831763762653085_);" width="6.71" height="67.53"/>
			</g>
		</g>
	</g>
	<polyline class="st328" points="237.31,167.82 580.27,167.82 580.27,172.19 	"/>
	<g>
		<g>
			<defs>
				<rect id="SVGID_00000161625321544060163290000001152099337887607170_" x="224.93" y="101.86" width="38.03" height="82.96"/>
			</defs>
			<clipPath id="SVGID_00000005982708079610045080000014908936016501225142_">
				<use xlink:href="#SVGID_00000161625321544060163290000001152099337887607170_"  style="overflow:visible;"/>
			</clipPath>
			<g style="clip-path:url(#SVGID_00000005982708079610045080000014908936016501225142_);">
				<defs>
					<path id="SVGID_00000096778137216978954870000000386214740773934244_" d="M237.27,179.65c3.89-4.45,6.71-17.88,6.71-33.77
						s-2.83-29.32-6.71-33.77V179.65z"/>
				</defs>
				<clipPath id="SVGID_00000183941929049939640700000013644932030739162753_">
					<use xlink:href="#SVGID_00000096778137216978954870000000386214740773934244_"  style="overflow:visible;"/>
				</clipPath>
				<defs>
					
						<filter id="Adobe_OpacityMaskFilter_00000030448146465019644430000006233407884675580852_" filterUnits="userSpaceOnUse" x="237.27" y="112.12" width="6.71" height="67.53">
						<feColorMatrix  type="matrix" values="1 0 0 0 0  0 1 0 0 0  0 0 1 0 0  0 0 0 1 0"/>
					</filter>
				</defs>
				
					<mask maskUnits="userSpaceOnUse" x="237.27" y="112.12" width="6.71" height="67.53" id="SVGID_00000036971337299547722180000009593726480890006697_">
					<g style="filter:url(#Adobe_OpacityMaskFilter_00000030448146465019644430000006233407884675580852_);">
						
							<radialGradient id="SVGID_00000160870855634638714590000001630627151535332243_" cx="-1249.9659" cy="665.976" r="1.2784" gradientTransform="matrix(0 27.6347 7.4484 0 -4725.999 34688.3359)" gradientUnits="userSpaceOnUse">
							<stop  offset="0" style="stop-color:#FFFFFF"/>
							<stop  offset="1" style="stop-color:#000000"/>
						</radialGradient>
						
							<rect x="237.27" y="112.12" style="clip-path:url(#SVGID_00000183941929049939640700000013644932030739162753_);fill:url(#SVGID_00000160870855634638714590000001630627151535332243_);" width="6.71" height="67.53"/>
					</g>
				</mask>
				
					<radialGradient id="SVGID_00000115517276821434284980000010270934707410429608_" cx="-1249.9659" cy="665.9759" r="1.2784" gradientTransform="matrix(0 27.6347 7.4484 0 -4725.9995 34688.3398)" gradientUnits="userSpaceOnUse">
					<stop  offset="0" style="stop-color:#231F20"/>
					<stop  offset="1" style="stop-color:#FFFFFF"/>
				</radialGradient>
				
					<rect x="237.27" y="112.12" style="clip-path:url(#SVGID_00000183941929049939640700000013644932030739162753_);mask:url(#SVGID_00000036971337299547722180000009593726480890006697_);fill:url(#SVGID_00000115517276821434284980000010270934707410429608_);" width="6.71" height="67.53"/>
			</g>
		</g>
	</g>
	<g>
		<g>
			<defs>
				<rect id="SVGID_00000160149856273011836470000006510491452505578674_" x="224.93" y="48.33" width="38.03" height="82.96"/>
			</defs>
			<clipPath id="SVGID_00000111880956292507975870000016147269007616180898_">
				<use xlink:href="#SVGID_00000160149856273011836470000006510491452505578674_"  style="overflow:visible;"/>
			</clipPath>
			<g style="clip-path:url(#SVGID_00000111880956292507975870000016147269007616180898_);">
				<defs>
					<path id="SVGID_00000134215512129684234030000013083379536310048684_" d="M237.27,126.12c3.89-4.45,6.71-17.88,6.71-33.77
						c0-15.88-2.83-29.32-6.71-33.76V126.12z"/>
				</defs>
				<clipPath id="SVGID_00000115472620975407475280000002853095494102307463_">
					<use xlink:href="#SVGID_00000134215512129684234030000013083379536310048684_"  style="overflow:visible;"/>
				</clipPath>
				<defs>
					
						<filter id="Adobe_OpacityMaskFilter_00000078735954686328217040000016572719227266433935_" filterUnits="userSpaceOnUse" x="237.27" y="58.59" width="6.71" height="67.53">
						<feColorMatrix  type="matrix" values="1 0 0 0 0  0 1 0 0 0  0 0 1 0 0  0 0 0 1 0"/>
					</filter>
				</defs>
				
					<mask maskUnits="userSpaceOnUse" x="237.27" y="58.59" width="6.71" height="67.53" id="SVGID_00000183219149594377460190000005970048450991839144_">
					<g style="filter:url(#Adobe_OpacityMaskFilter_00000078735954686328217040000016572719227266433935_);">
						
							<radialGradient id="SVGID_00000043427246258842554770000006531211764275095457_" cx="-1250.3878" cy="665.976" r="1.2784" gradientTransform="matrix(0 27.6347 7.4484 0 -4725.999 34646.4648)" gradientUnits="userSpaceOnUse">
							<stop  offset="0" style="stop-color:#FFFFFF"/>
							<stop  offset="1" style="stop-color:#000000"/>
						</radialGradient>
						
							<rect x="237.27" y="58.59" style="clip-path:url(#SVGID_00000115472620975407475280000002853095494102307463_);fill:url(#SVGID_00000043427246258842554770000006531211764275095457_);" width="6.71" height="67.53"/>
					</g>
				</mask>
				
					<radialGradient id="SVGID_00000009587761061902015490000010393540076057482680_" cx="-1250.3878" cy="665.9759" r="1.2784" gradientTransform="matrix(0 27.6347 7.4484 0 -4725.9995 34646.4688)" gradientUnits="userSpaceOnUse">
					<stop  offset="0" style="stop-color:#231F20"/>
					<stop  offset="1" style="stop-color:#FFFFFF"/>
				</radialGradient>
				
					<rect x="237.27" y="58.59" style="clip-path:url(#SVGID_00000115472620975407475280000002853095494102307463_);mask:url(#SVGID_00000183219149594377460190000005970048450991839144_);fill:url(#SVGID_00000009587761061902015490000010393540076057482680_);" width="6.71" height="67.53"/>
			</g>
		</g>
	</g>
	<g>
		<text transform="matrix(1 0 0 1 233.5306 183.1292)" class="st109 st322 st323">0</text>
	</g>
</g>
<g id="Layer_2">
</g>
<g id="Layer_3" class="st337">
	<rect x="24.6" y="-218.09" class="st338" width="508.79" height="621.73"/>
</g>
</svg>
