<svg xmlns="http://www.w3.org/2000/svg" width="408.779" height="117.228" viewBox="0 0 408.779 117.228">
  <g id="Group_345" data-name="Group 345" transform="translate(-1351.002 -159.322)">
    <text id="CHUẨN_BỊ_NỀN_VẾT_THƯƠNG" data-name="CHUẨN BỊ NỀN VẾT THƯƠNG" transform="translate(1556.886 226.493)" fill="#3c3c3c" font-size="13" font-family="SegoeUI, Segoe UI"><tspan x="-85.382" y="0">CHUẨN BỊ NỀN VẾT THƯƠNG</tspan></text>
    <text id="Loại_bỏ_mô_hoại_tử" data-name="Loại bỏ
mô hoại tử" transform="translate(1372.712 218.006)" fill="#3c3c3c" font-size="9" font-family="SegoeUI, Segoe UI"><tspan x="0" y="0">Loại bỏ</tspan><tspan x="0" y="10.5">mô hoại tử</tspan></text>
    <text id="Mô_hạt_tân_sinh_vùng_rìa" data-name="Mô hạt tân sinh
vùng rìa" transform="translate(1539.896 263.55)" fill="#3c3c3c" font-size="9" font-family="SegoeUI, Segoe UI"><tspan x="0" y="0">Mô hạt tân sinh</tspan><tspan x="0" y="10.5">vùng rìa</tspan></text>
    <text id="Kiểm_soát_viêm_nhiễm" data-name="Kiểm soát
viêm nhiễm" transform="translate(1539.896 169.322)" fill="#3c3c3c" font-size="9" font-family="SegoeUI, Segoe UI"><tspan x="0" y="0">Kiểm soát</tspan><tspan x="0" y="10.5">viêm nhiễm</tspan></text>
    <text id="Cân_bằng_độ_ẩm" data-name="Cân bằng
độ ẩm" transform="translate(1721.781 218.015)" fill="#3c3c3c" font-size="9" font-family="SegoeUI, Segoe UI"><tspan x="0" y="0">Cân bằng</tspan><tspan x="0" y="10.5">độ ẩm</tspan></text>
    <path id="Path_657" data-name="Path 657" d="M1712.675,223.251a7.041,7.041,0,0,1-2.334-.438,9.552,9.552,0,0,0-1.727-.449,5.153,5.153,0,0,0-2.073.17c-.634.181-1.253.412-1.9.566a5.679,5.679,0,0,1-3.021-.131c-.505-.152-1-.329-1.513-.465a5.212,5.212,0,0,0-2.89.06c-.613.181-1.215.4-1.84.544a6.718,6.718,0,0,1-1.893.123,12.226,12.226,0,0,1-2.043-.277,5.5,5.5,0,0,1-.577-.165.362.362,0,1,1,.231-.686,11.062,11.062,0,0,0,2.773.41,6.282,6.282,0,0,0,2.156-.342,13.769,13.769,0,0,1,1.807-.5,5.66,5.66,0,0,1,2.621.171c.52.152,1.035.322,1.555.476a5.1,5.1,0,0,0,3.084-.095,16.313,16.313,0,0,1,1.843-.533,5.751,5.751,0,0,1,2.637.126c.637.17,1.255.4,1.9.564a6.487,6.487,0,0,0,1.994.106,9.737,9.737,0,0,0,2.231-.391.344.344,0,0,1,.449.245.349.349,0,0,1-.248.45,8.413,8.413,0,0,1-1.775.37,12.1,12.1,0,0,1-1.448.091" fill="#3a0b0b"/>
    <path id="Path_658" data-name="Path 658" d="M1712.735,220.917a6.065,6.065,0,0,1-2.238-.376,16.009,16.009,0,0,0-1.578-.449,5.015,5.015,0,0,0-2.418.134c-.6.173-1.179.39-1.783.538a5.805,5.805,0,0,1-3.22-.152c-.549-.176-1.094-.363-1.657-.494a5.3,5.3,0,0,0-2.83.188,16.6,16.6,0,0,1-1.873.534,7.635,7.635,0,0,1-1.9.054,10.085,10.085,0,0,1-1.852-.274c-.166-.042-.332-.083-.493-.14a.365.365,0,0,1-.265-.493.372.372,0,0,1,.5-.2,11.507,11.507,0,0,0,2.1.38,7.74,7.74,0,0,0,3.46-.522,6.256,6.256,0,0,1,2.258-.373,7.352,7.352,0,0,1,2.018.4,12.446,12.446,0,0,0,1.636.456,5.136,5.136,0,0,0,2.429-.21,18.354,18.354,0,0,1,1.914-.552,5.647,5.647,0,0,1,2.638.131c.484.138.964.288,1.444.441a6.178,6.178,0,0,0,2.346.232,11.172,11.172,0,0,0,1.994-.306c.119-.031.234-.071.353-.1a.342.342,0,0,1,.418.231.338.338,0,0,1-.183.443,4.888,4.888,0,0,1-1.089.288,10.6,10.6,0,0,1-2.13.186" fill="#3a0b0b"/>
    <path id="Path_659" data-name="Path 659" d="M1703.359,218.617a3.456,3.456,0,0,1-2.826-1.458,3.585,3.585,0,0,1-.273-3.98c.57-1.112,1.161-2.212,1.744-3.316q.505-.959,1.013-1.916c.017-.03.035-.059.055-.088a.351.351,0,0,1,.623.006c.151.26.285.529.425.794q1.208,2.28,2.413,4.562a3.7,3.7,0,0,1-.409,4.086,3.548,3.548,0,0,1-2.765,1.31m.028-9.791c-.039.065-.063.1-.084.14q-1.212,2.293-2.424,4.591a2.945,2.945,0,0,0-.329,1.785,2.873,2.873,0,0,0,3.22,2.51,2.7,2.7,0,0,0,1.824-1.052,2.884,2.884,0,0,0,.263-3.3c-.637-1.226-1.289-2.444-1.934-3.666-.174-.329-.35-.658-.536-1.011" fill="#3a0b0b"/>
    <path id="Path_660" data-name="Path 660" d="M1693.8,215.928a.445.445,0,0,0,.017-.2q0-2.639,0-5.277c0-.248.074-.373.254-.433a.351.351,0,0,1,.46.265,1.148,1.148,0,0,1,.02.235c0,1.078.007,2.156,0,3.234-.005.669.021,1.339-.009,2.008a.307.307,0,0,0,.038.2c.185-.192.36-.38.543-.561.219-.216.418-.454.653-.655a.355.355,0,0,1,.5,0,.366.366,0,0,1,0,.517q-.908.924-1.823,1.841a.353.353,0,0,1-.545-.007q-.911-.912-1.813-1.83a.363.363,0,0,1,0-.529.353.353,0,0,1,.511.021c.351.349.7.7,1.049,1.053.043.044.076.1.144.123" fill="#3a0b0b"/>
    <path id="Path_661" data-name="Path 661" d="M1712.985,215.941,1714,214.9c.048-.049.095-.1.145-.147a.365.365,0,1,1,.519.512c-.15.161-.311.312-.466.468-.446.448-.89.9-1.339,1.343a.357.357,0,0,1-.575,0q-.879-.88-1.752-1.766a.372.372,0,1,1,.522-.512q.528.529,1.053,1.063c.027.027.056.052.083.077.046-.028.028-.066.028-.1q0-2.424,0-4.848c0-.212,0-.424.006-.635a.349.349,0,0,1,.347-.363.355.355,0,0,1,.367.345c.006.079,0,.158,0,.236v5.348Z" fill="#3a0b0b"/>
    <path id="Path_662" data-name="Path 662" d="M1692.323,230.21a1.682,1.682,0,0,1-1.513-1.051,2.111,2.111,0,0,1,.071-1.984c.378-.7.748-1.394,1.116-2.093a.386.386,0,0,1,.338-.243.38.38,0,0,1,.357.238c.369.7.735,1.39,1.11,2.081a2.122,2.122,0,0,1,.079,2,1.689,1.689,0,0,1-1.558,1.053m.018-4.21a.443.443,0,0,0-.037.051c-.278.52-.566,1.035-.831,1.562a1.349,1.349,0,0,0,.027,1.3.906.906,0,0,0,1.637.086,1.337,1.337,0,0,0,.075-1.394c-.217-.44-.458-.869-.691-1.3a1.361,1.361,0,0,0-.18-.308" fill="#3a0b0b"/>
    <path id="Path_663" data-name="Path 663" d="M1714.346,230.2a1.7,1.7,0,0,1-1.495-1.111,2.191,2.191,0,0,1,.128-1.96c.37-.672.726-1.351,1.083-2.03a.384.384,0,0,1,.711-.015c.391.738.81,1.463,1.172,2.216a2.06,2.06,0,0,1-.3,2.334,1.56,1.56,0,0,1-1.3.566m.081-4.216c-.028.042-.045.064-.059.088-.266.5-.54.993-.8,1.5a1.4,1.4,0,0,0,.064,1.447.887.887,0,0,0,1.41.192,1.386,1.386,0,0,0,.289-1.5c-.149-.315-.32-.619-.483-.927-.137-.26-.277-.518-.424-.793" fill="#3a0b0b"/>
    <path id="Path_664" data-name="Path 664" d="M1708.926,232.531a1.76,1.76,0,0,1-1.6-1.14,2.2,2.2,0,0,1,.158-1.984c.374-.663.718-1.343,1.08-2.013a.366.366,0,0,1,.674-.011c.369.672.721,1.352,1.09,2.024a2.3,2.3,0,0,1,.313,1.019,2.044,2.044,0,0,1-.743,1.748,1.583,1.583,0,0,1-.97.357m.99-1.969a1.24,1.24,0,0,0-.13-.616c-.266-.514-.544-1.022-.816-1.533-.046-.085-.078-.1-.132,0-.269.513-.549,1.02-.816,1.534a1.423,1.423,0,0,0,.172,1.5.879.879,0,0,0,1.265.143,1.265,1.265,0,0,0,.457-1.026" fill="#3a0b0b"/>
    <path id="Path_665" data-name="Path 665" d="M1696.127,230.5a2.072,2.072,0,0,1,.27-1.014q.563-1.036,1.115-2.079a.375.375,0,0,1,.7-.007c.387.729.783,1.454,1.162,2.187a2.118,2.118,0,0,1-.465,2.536,1.591,1.591,0,0,1-2.319-.223,2.119,2.119,0,0,1-.466-1.4m.721.037a1.332,1.332,0,0,0,.308.9.874.874,0,0,0,1.25.156,1.371,1.371,0,0,0,.34-1.646c-.265-.516-.543-1.024-.814-1.536-.043-.082-.073-.111-.129-.005-.268.508-.542,1.013-.811,1.52a1.294,1.294,0,0,0-.144.611" fill="#3a0b0b"/>
    <path id="Path_666" data-name="Path 666" d="M1705.12,228.432a1.859,1.859,0,0,1-1.117,1.642,1.585,1.585,0,0,1-1.949-.571,2.137,2.137,0,0,1-.121-2.369c.356-.684.732-1.358,1.093-2.04a.375.375,0,0,1,.355-.235.367.367,0,0,1,.349.221c.379.717.765,1.43,1.145,2.146a2.238,2.238,0,0,1,.245,1.206m-1.737-2.455c-.3.563-.594,1.1-.873,1.635a1.4,1.4,0,0,0,.194,1.546.873.873,0,0,0,1.2.139,1.376,1.376,0,0,0,.355-1.68c-.275-.542-.573-1.073-.877-1.64" fill="#3a0b0b"/>
    <path id="Path_667" data-name="Path 667" d="M1703.306,216.748a1.753,1.753,0,0,1-1.63-1.424,1.731,1.731,0,0,1-.033-.322.361.361,0,1,1,.72-.019,1.062,1.062,0,0,0,.84,1.021,1.17,1.17,0,0,0,.159.019.358.358,0,0,1,.378.379.35.35,0,0,1-.39.346h-.044" fill="#3a0b0b"/>
    <path id="Path_668" data-name="Path 668" d="M1362.631,211.218a6.123,6.123,0,0,0-2.171-.538l-.211.008a1.293,1.293,0,0,0-1.167.693.69.69,0,0,1-.261.293c-.24.135-.277.321-.283.605,0,.928-.01,1.857-.01,2.785,0,1.4.016,2.806.079,4.207a11.563,11.563,0,0,0,.158,1.66,1.537,1.537,0,0,0,.225.592.714.714,0,0,0,.486.3,1.015,1.015,0,0,1,.863.9,4.5,4.5,0,0,0,.372,1.029,1.494,1.494,0,0,0,.327.449.658.658,0,0,0,.433.189l.189-.032c.228-.078.285-.249.306-.5.02-.312.034-.624.034-.934v-.1c0-.273-.005-.545-.005-.815a26.074,26.074,0,0,1,.446-5.352,26.911,26.911,0,0,0,.511-4.213V212.3a3.09,3.09,0,0,0-.063-.683c-.045-.2-.115-.35-.259-.4" fill="#3a0b0b"/>
    <path id="Path_669" data-name="Path 669" d="M1361,220.727l-.027-.073-.034-.015c-.048.008-.057.019-.067.095l.02.09.043.017h.013l.031-.019Z" fill="#fff"/>
    <path id="Path_670" data-name="Path 670" d="M1360.142,219.422a.932.932,0,0,1,.631.439l.047.05.038-.022.058-.086.026-.183v-.1c-.01-.388-.048-.784-.048-1.182,0-.132,0-.265.015-.4l0-.092a.357.357,0,0,0-.06-.233.315.315,0,0,0-.207-.1.889.889,0,0,1-.68-.5l-.034-.069-.015-.02-.017.011-.03.1a2.523,2.523,0,0,0-.062.617c0,.158.006.321.006.484v.5c0,.1,0,.21,0,.315v.016a.517.517,0,0,0,.069.3.416.416,0,0,0,.26.158" fill="#fff"/>
    <path id="Path_671" data-name="Path 671" d="M1360.6,214.208h0a1.265,1.265,0,0,0-.208.086l-.06.1.007.056v0a.38.38,0,0,0,.357.309.946.946,0,0,1,.6.27,4.816,4.816,0,0,0,.143-1.116l0-.217c.009-.025-.09-.162-.235-.253a.868.868,0,0,0-.4-.165l-.034,0-.005,0c-.079.044-.072.054-.078.091-.006.066.076.2.082.373,0,.055.017.117.018.2a.262.262,0,0,1-.179.254" fill="#fff"/>
    <path id="Path_672" data-name="Path 672" d="M1359.785,215.705a1.132,1.132,0,0,0,.027.362l.016,0a1.788,1.788,0,0,0,.327-.077,1.13,1.13,0,0,1,.312-.06.324.324,0,0,1,.27.126,1,1,0,0,1,.145.325c.062.2.079.4.157.6a2.971,2.971,0,0,0,.171-.9,2.16,2.16,0,0,0-.034-.383c-.029-.143-.117-.195-.319-.225a1.189,1.189,0,0,1-.791-.3,1.136,1.136,0,0,1-.2-.788v-.1c0-.116.012-.227.012-.331l0-.1-.027-.091-.04-.022h-.007l-.005.046,0,.085c-.009.516-.018,1.032-.018,1.547,0,.094,0,.188,0,.284" fill="#fff"/>
    <path id="Path_673" data-name="Path 673" d="M1360.215,216.647h0v.015l.041.174c.024.033.045.052.121.055l.121-.057.04-.173-.043-.161a.209.209,0,0,0-.135-.07c-.1.031-.139.088-.146.217" fill="#fff"/>
    <path id="Path_674" data-name="Path 674" d="M1352.987,235.06a2.292,2.292,0,0,1-.359-.029,1.425,1.425,0,0,0-.232-.02,1.373,1.373,0,0,0-1.05.506,1.1,1.1,0,0,0-.344.68.646.646,0,0,0,.046.229.516.516,0,0,0,.3.308,2.046,2.046,0,0,0,.484.116,2.915,2.915,0,0,1,1.081.253,4.173,4.173,0,0,0,2.1.6,3.924,3.924,0,0,0,1.173-.184,5.769,5.769,0,0,0,3.183-2.472,16.938,16.938,0,0,1,5.45-5.783,1.392,1.392,0,0,0,.733-1.223,1.771,1.771,0,0,0-.2-.793,5.111,5.111,0,0,0-1.457-1.724,1.786,1.786,0,0,1-.716-1.42c-.013-.258-.018-.514-.018-.77a24.435,24.435,0,0,1,.227-3.1,91.268,91.268,0,0,1,1.973-10.68,1.674,1.674,0,0,0,.046-.374,1.262,1.262,0,0,0-1.333-1.267q-1.412-.008-2.822-.007-1.529,0-3.058.007a1.278,1.278,0,0,0-1.365,1.352l0,.063c.1,3,.206,5.989.281,8.16l-.1,0,.1,0c.1,3.643.19,6.464.194,9.289a7.473,7.473,0,0,1-.9,3.645,37.462,37.462,0,0,0-1.809,3.431,1.7,1.7,0,0,1-1.6,1.205m3.937-4.279a8.19,8.19,0,0,0,1-3.971c-.005-3.781-.142-7.561-.262-11.341q-.1-3-.2-5.988l0-.113a.834.834,0,0,1,.2-.657,1.026,1.026,0,0,1,.7-.172c.733,0,1.467,0,2.2,0q1.653,0,3.3,0a1.176,1.176,0,0,1,.651.14.558.558,0,0,1,.23.5,1.836,1.836,0,0,1-.062.431,95.174,95.174,0,0,0-1.816,9.623c-.16,1.135-.28,2.274-.336,3.419-.013.244-.021.489-.021.734a7.53,7.53,0,0,0,.107,1.332,1.7,1.7,0,0,0,.612,1.038,6.718,6.718,0,0,1,1.453,1.593,1.333,1.333,0,0,1,.227.681.872.872,0,0,1-.534.77,12.746,12.746,0,0,0-3.554,3.167,22.323,22.323,0,0,0-2.1,2.89,4.5,4.5,0,0,1-3.76,2.164,3.677,3.677,0,0,1-.973-.128,1.562,1.562,0,0,1-.489-.178,2.911,2.911,0,0,0-1.675-.483l-.192-.006.108-.159a.854.854,0,0,1,.733-.422l.17.015a2.838,2.838,0,0,0,.438.036,2.215,2.215,0,0,0,2.056-1.532c.524-1.175,1.178-2.266,1.785-3.38" fill="#3a0b0b"/>
    <path id="Path_675" data-name="Path 675" d="M1523.247,276.1a2.194,2.194,0,0,1-1.43-2.151,1.183,1.183,0,0,0-1.959-.937c-.9.567-1.8,1.148-2.691,1.727a2.385,2.385,0,0,1-2.73.084,2.252,2.252,0,0,1-1.112-2.265,2.393,2.393,0,0,1,1.8-2.12q1.293-.421,2.582-.859c.651-.222.927-.653.78-1.189-.136-.5-.59-.727-1.237-.6-.7.136-1.388.3-2.084.443a2.4,2.4,0,0,1-2.855-1.439,2.465,2.465,0,0,1,.957-3.3,1.644,1.644,0,0,0,.288-2.841c-1.7-1.653-.622-4.015,1.434-4.7a2.727,2.727,0,0,1,2.986.772c.807.855,1.314.555,2.057.2a.8.8,0,0,0,.483-.7,2.4,2.4,0,0,1,2.016-2.425h.474a2.369,2.369,0,0,1,2,2.31c.009.18-.1.43.158.515a.67.67,0,0,0,.71-.181,2.4,2.4,0,0,0,.3-.432,1.85,1.85,0,0,1,3.264,1.738c-.082.18-.177.353-.26.532-.127.273-.093.406.261.35,1.966-.311,2.915.206,3.778,2a13.064,13.064,0,0,1,.7,2.3v1.186a4.271,4.271,0,0,1-3.1,3.386.55.55,0,0,0-.189.959c.312.329.667.616,1,.925a3.072,3.072,0,1,1-4.237,4.416c-.939-.93-1.708-.741-2.011.542a2.128,2.128,0,0,1-1.55,1.753Zm9.884-12.907a5.918,5.918,0,0,0-.988-2.972,2.036,2.036,0,0,0-1.548-.976,2.744,2.744,0,0,0-1.051.12.909.909,0,0,1-1.072-1.317c.108-.211.223-.419.318-.636a1.112,1.112,0,0,0-1.963-1.043,3.852,3.852,0,0,1-.317.5,1.487,1.487,0,0,1-1.616.462c-.586-.167-.652-.671-.644-1.2a1.53,1.53,0,0,0-.246-.9,1.48,1.48,0,0,0-1.556-.616,1.387,1.387,0,0,0-1.123,1.222,1.94,1.94,0,0,1-.737,1.609c-1.1.683-2.065.945-3.077-.156a2.068,2.068,0,0,0-2.321-.629c-1.667.593-2.337,2.432-.969,3.614a2.34,2.34,0,0,1-.552,3.843,1.734,1.734,0,0,0-.681,2.366,1.662,1.662,0,0,0,2.022,1.021c.695-.145,1.389-.3,2.086-.441a1.667,1.667,0,1,1,.869,3.215c-.9.3-1.8.6-2.7.9a1.606,1.606,0,0,0-1.157,1.234,1.58,1.58,0,0,0,.64,1.726,1.6,1.6,0,0,0,1.891.05c.989-.616,1.953-1.274,2.949-1.879a1.909,1.909,0,0,1,2.954,1.39c.034.235.067.47.094.7a.91.91,0,0,0,.861.9.928.928,0,0,0,1.052-.753c.084-.284.147-.574.242-.854a1.7,1.7,0,0,1,2.787-.746c.194.168.363.364.554.537a2.318,2.318,0,0,0,3.212-3.343c-.346-.352-.726-.67-1.086-1.009a1.332,1.332,0,0,1,.547-2.411,3.288,3.288,0,0,0,2.322-3.531" fill="#3a0b0b"/>
    <path id="Path_676" data-name="Path 676" d="M1527.214,263.514a2.958,2.958,0,1,1-2.864-3.006,2.945,2.945,0,0,1,2.864,3.006m-.747-.029a2.211,2.211,0,1,0-2.232,2.192,2.182,2.182,0,0,0,2.232-2.192" fill="#3a0b0b"/>
    <path id="Path_677" data-name="Path 677" d="M1530.184,264.948a1.127,1.127,0,0,1-1.111-1.084,1.115,1.115,0,1,1,2.229-.054,1.131,1.131,0,0,1-1.118,1.138m.361-1.088a.336.336,0,0,0-.3-.366.329.329,0,0,0-.409.319.333.333,0,0,0,.3.379c.234.035.364-.1.413-.332" fill="#3a0b0b"/>
    <path id="Path_678" data-name="Path 678" d="M1517.964,259.754a1.153,1.153,0,0,1,1.107,1.1,1.136,1.136,0,0,1-1.128,1.13,1.116,1.116,0,0,1-1.1-1.091,1.131,1.131,0,0,1,1.12-1.136m.011,1.483c.188-.042.322-.141.322-.353a.351.351,0,0,0-.7-.021c0,.229.15.348.379.374" fill="#3a0b0b"/>
    <path id="Path_679" data-name="Path 679" d="M1525.737,270.528a1.114,1.114,0,0,1-2.227-.036,1.119,1.119,0,0,1,1.163-1.083,1.107,1.107,0,0,1,1.064,1.119m-.744-.039c-.059-.226-.185-.357-.424-.324a.316.316,0,0,0-.286.377.32.32,0,0,0,.346.325c.238-.007.335-.169.364-.378" fill="#3a0b0b"/>
    <path id="Path_680" data-name="Path 680" d="M1530.189,260.667c0-.252.04-.508.347-.517.334-.011.4.244.4.527s-.061.55-.385.55-.369-.29-.365-.56" fill="#3a0b0b"/>
    <path id="Path_681" data-name="Path 681" d="M1518.706,264.784c-.019.264-.062.539-.411.512s-.351-.315-.347-.576.066-.494.377-.488c.349.006.367.285.381.552" fill="#3a0b0b"/>
    <path id="Path_682" data-name="Path 682" d="M1530.939,271.7c0,.35-.028.621-.373.634-.315.012-.374-.226-.376-.481s-.006-.557.334-.586.4.24.415.433" fill="#3a0b0b"/>
    <path id="Path_683" data-name="Path 683" d="M1523.137,258.474c.009.278-.044.545-.388.525s-.341-.309-.341-.572.04-.492.359-.492c.361,0,.375.271.37.539" fill="#3a0b0b"/>
    <path id="Path_684" data-name="Path 684" d="M1527.974,267.755c-.011.259-.064.526-.407.507s-.344-.316-.342-.573.047-.5.365-.491c.346.006.378.275.384.557" fill="#3a0b0b"/>
    <path id="Path_685" data-name="Path 685" d="M1515.74,272.563c-.005-.268.011-.549.363-.55.294,0,.372.227.376.493s-.025.55-.35.578c-.348.031-.393-.246-.389-.521" fill="#3a0b0b"/>
    <path id="Path_686" data-name="Path 686" d="M1534.435,172.212q-5.06.006-10.118.011-8.508,0-17.017,0c-.2,0-.4-.007-.6-.011v-.65c.18,0,.359,0,.539,0q13.326,0,26.652,0c.18,0,.359,0,.539,0Z" fill="#3a0b0b"/>
    <path id="Path_687" data-name="Path 687" d="M1527.233,165.026l3.219-.5c0,.113-.077.167-.129.234q-1.642,2.131-3.289,4.261l-.082.107c-.172.21-.353.257-.507.12-.177-.161-.138-.331-.005-.5.289-.369.574-.742.861-1.113q.769-.995,1.539-1.99c.052-.068.13-.125.131-.237l-3.122.487c-.03-.121.052-.168.1-.228q1.728-2.288,3.461-4.572c.02-.028.044-.057.066-.085a.318.318,0,1,1,.505.383c-.251.341-.509.677-.764,1.014l-1.783,2.349c-.053.071-.1.143-.2.275" fill="#3a0b0b"/>
    <path id="Path_688" data-name="Path 688" d="M1513.876,166.853l.838-3.137c.107.039.121.127.157.192q1.3,2.385,2.594,4.773a1.46,1.46,0,0,1,.107.218.293.293,0,0,1-.137.373.289.289,0,0,1-.391-.063,1.431,1.431,0,0,1-.155-.252q-.9-1.65-1.792-3.3c-.041-.077-.089-.151-.165-.278-.285,1.064-.557,2.076-.828,3.088-.111,0-.119-.086-.15-.142q-1.4-2.529-2.8-5.059a.992.992,0,0,1-.081-.171.3.3,0,0,1,.145-.368.279.279,0,0,1,.37.05,1.013,1.013,0,0,1,.147.225q.984,1.773,1.965,3.546c.047.085.1.168.181.307" fill="#3a0b0b"/>
    <path id="Path_689" data-name="Path 689" d="M1520.42,164.388l2.273-2.354a.482.482,0,0,1,.039.307q-.023,2.72-.05,5.439c0,.3-.108.437-.323.435s-.322-.145-.319-.441q.019-1.906.043-3.815c0-.1,0-.2,0-.37l-2.243,2.319a.417.417,0,0,1-.053-.308q0-2.8,0-5.6c0-.064,0-.127,0-.19.011-.2.1-.33.314-.329a.293.293,0,0,1,.311.331c0,.47,0,.939,0,1.408v3.169" fill="#3a0b0b"/>
    <path id="Path_690" data-name="Path 690" d="M1524.577,175.251a1.546,1.546,0,0,1-2.248,1.384,3.5,3.5,0,0,0-2.068-.364,3.9,3.9,0,0,0-1.357.509,1.535,1.535,0,0,1-2.076-.475,1.49,1.49,0,0,1,.407-2.1,6.26,6.26,0,0,1,6.573-.265,1.452,1.452,0,0,1,.769,1.311m-.645-.1a.826.826,0,0,0-.5-.7,5.662,5.662,0,0,0-5.79.241.882.882,0,0,0-.043,1.5.9.9,0,0,0,1.063-.008,3.93,3.93,0,0,1,2.536-.564,4.65,4.65,0,0,1,1.436.447.917.917,0,0,0,1.3-.916" fill="#3a0b0b"/>
    <path id="Path_691" data-name="Path 691" d="M1528.735,184.042a1.533,1.533,0,0,1-1.671-1.355,1.5,1.5,0,0,1,1.383-1.71,3.446,3.446,0,0,0,2.928-1.923,1.535,1.535,0,0,1,2.7,1.467,6.339,6.339,0,0,1-5.337,3.521m-.124-.634c.144-.013.288-.019.431-.039a5.667,5.667,0,0,0,4.482-3.175.861.861,0,0,0-.485-1.219.914.914,0,0,0-1.184.515,3.88,3.88,0,0,1-2.857,2.053c-.212.037-.432.042-.64.092a.9.9,0,0,0,.253,1.773" fill="#3a0b0b"/>
    <path id="Path_692" data-name="Path 692" d="M1532.112,174.536a2.29,2.29,0,0,1-1.882,2.069.917.917,0,0,1-1.043-.966,2.312,2.312,0,0,1,1.917-2.1.917.917,0,0,1,1.008,1m-2.282,1.074c0,.289.136.4.43.354a1.731,1.731,0,0,0,1.224-1.423.319.319,0,0,0-.406-.364,1.739,1.739,0,0,0-1.248,1.433" fill="#3a0b0b"/>
    <path id="Path_693" data-name="Path 693" d="M1510.808,176.723a.965.965,0,0,1-1.009-1.213,2.229,2.229,0,0,1,2.18-1.635.948.948,0,0,1,.876,1.177,2.244,2.244,0,0,1-2.047,1.671m.02-.627a1.661,1.661,0,0,0,1.393-1.11.361.361,0,0,0-.4-.489,1.666,1.666,0,0,0-1.389,1.116c-.069.315.068.484.392.483" fill="#3a0b0b"/>
    <path id="Path_694" data-name="Path 694" d="M1525.2,178.221a2,2,0,0,1,1.246.406,1.029,1.029,0,0,1,.02,1.657,2.109,2.109,0,0,1-2.515.006,1.024,1.024,0,0,1,.022-1.672,1.984,1.984,0,0,1,1.227-.4m.027.645a1.279,1.279,0,0,0-.862.256.392.392,0,0,0-.006.678,1.475,1.475,0,0,0,1.692,0,.388.388,0,0,0,.005-.662,1.238,1.238,0,0,0-.829-.269" fill="#3a0b0b"/>
    <path id="Path_695" data-name="Path 695" d="M1520.183,183.359a1.931,1.931,0,0,1-1.739-1.491.854.854,0,0,1,.912-1.031,1.94,1.94,0,0,1,1.713,1.424.859.859,0,0,1-.886,1.1m.278-.917a1.3,1.3,0,0,0-1.179-.964.227.227,0,0,0-.216.281,1.323,1.323,0,0,0,1.138.959c.155-.008.26-.067.257-.276" fill="#3a0b0b"/>
    <path id="Path_696" data-name="Path 696" d="M1509.731,183.54a1.96,1.96,0,0,1-1.586-.889.86.86,0,0,1,.688-1.4,1.925,1.925,0,0,1,1.694.719.931.931,0,0,1,.209,1.071,1.015,1.015,0,0,1-1.005.5m-.054-.645c.445.015.582-.125.45-.392a1.379,1.379,0,0,0-1.264-.623c-.268.055-.339.194-.189.422a1.327,1.327,0,0,0,1,.593" fill="#3a0b0b"/>
    <path id="Path_697" data-name="Path 697" d="M1515.078,180.669a1.908,1.908,0,0,1-1.73-1.556.828.828,0,0,1,.82-.959,1.9,1.9,0,0,1,1.833,1.595.844.844,0,0,1-.923.92m.289-.877a1.3,1.3,0,0,0-1.174-1.007.225.225,0,0,0-.211.283,1.321,1.321,0,0,0,1.132.968c.153-.008.262-.065.253-.244" fill="#3a0b0b"/>
    <path id="Path_698" data-name="Path 698" d="M1695.056,196.278l-10.131-13.837-.551,3.968c-15.052-7.631-34.95-13.793-58.076-18.015l2.131-3.4-16.656,4.088,14.551,9.076-.954-3.841c22.431,4.1,41.649,10.082,55.89,17.238l-3.184,2.319Z" fill="#3a0b0b" opacity="0.1"/>
    <path id="Path_699" data-name="Path 699" d="M1495.653,169.139l-16.66-4.067,2.133,3.392c-23.311,4.285-43.32,10.542-58.368,18.291l-.623-4.062-9.933,13.98,16.945-2.641-3.124-2.208c14.213-7.233,33.493-13.285,56.039-17.434l-.948,3.844Z" fill="#3a0b0b" opacity="0.1"/>
    <path id="Path_700" data-name="Path 700" d="M1684.925,256.619l10.131-13.837-16.981,2.4,3.184,2.319c-14.24,7.157-33.459,13.138-55.889,17.238l.953-3.841-14.55,9.077,16.655,4.087-2.13-3.4c23.126-4.222,43.024-10.383,58.076-18.015Z" fill="#3a0b0b" opacity="0.1"/>
    <path id="Path_701" data-name="Path 701" d="M1495.653,269.922l-14.539-9.1.948,3.844c-22.546-4.149-41.826-10.2-56.039-17.434l3.124-2.208-16.945-2.641,9.933,13.98.623-4.062c15.048,7.749,35.057,14.006,58.368,18.291l-2.133,3.391Z" fill="#3a0b0b" opacity="0.1"/>
  </g>
</svg>
