<svg xmlns="http://www.w3.org/2000/svg" width="39.287" height="33.536" viewBox="0 0 39.287 33.536">
  <g id="Group_108" data-name="Group 108" transform="translate(-349.375 -382.717)">
    <path id="Path_101" data-name="Path 101" d="M386.5,384.665a4.4,4.4,0,0,0-1.452-.23,9.026,9.026,0,0,0-1.713.2c-1.3.251-2.55.657-3.823.966a7.077,7.077,0,0,1-1.653.207,5.715,5.715,0,0,1-3.911-1.555,5.89,5.89,0,0,0-3.105-1.43,13.772,13.772,0,0,0-2.065-.1h-.06a7.9,7.9,0,0,0-5.269,1.889,4.94,4.94,0,0,1-3.265,1.2,6.083,6.083,0,0,1-.94-.075c-1.078-.169-2.12-.506-3.185-.781a12.251,12.251,0,0,0-3.049-.505c-.181,0-.361.007-.544.023a3.347,3.347,0,0,0-1.791.661,3.1,3.1,0,0,0-1.3,2.466,3.315,3.315,0,0,0,.716,1.995,8.009,8.009,0,0,0,3.9,2.675,7.115,7.115,0,0,0,2.393.349c.436,0,.874-.021,1.31-.043a2.326,2.326,0,0,0,1.079-.359,1.41,1.41,0,0,0,.756-1.2,1.465,1.465,0,0,0-.56-1.1,3.152,3.152,0,0,0-1.466-.685c-.8-.158-1.6-.067-2.372-.189a6.838,6.838,0,0,1-2.552-.721.939.939,0,0,1-.572-.78l.011-.13c.037-.287.419-.538.924-.576.107-.008.216-.012.325-.012a6.127,6.127,0,0,1,1.363.175,28.275,28.275,0,0,0,6.111,1.174,1.381,1.381,0,0,1,1.238,1.2,7.885,7.885,0,0,1,.154,1.312,9.234,9.234,0,0,0,.518,2.8,7.233,7.233,0,0,0,2,2.937,1.714,1.714,0,0,1,.616,1.321,2.294,2.294,0,0,1-.026.334c-.04.257-.039.507-.055.752-.011.161-.016.322-.016.481a5.978,5.978,0,0,0,1.014,3.4,4.237,4.237,0,0,1,.707,2.4v.143c-.01.313-.013.627-.013.941,0,1.494.091,2.985.193,4.474.019.281.038.565.072.848a.367.367,0,0,0,.364.356l.057,0a.352.352,0,0,0,.321-.372v-.037l-.013-.229c-.161-1.926-.248-3.851-.248-5.781,0-.188,0-.376,0-.565v-.026a5.091,5.091,0,0,0-.064-.732,7.235,7.235,0,0,0-1.079-2.419,3.99,3.99,0,0,1-.463-1.283,6.339,6.339,0,0,1-.1-1.13,9.674,9.674,0,0,1,.068-1.087,3.919,3.919,0,0,0,.023-.4,2.585,2.585,0,0,0-.941-2.03,5.985,5.985,0,0,1-1.06-1.247,7.753,7.753,0,0,1-1.147-4.107,7.307,7.307,0,0,0-.17-1.306,2.194,2.194,0,0,0-2.12-1.725,16.466,16.466,0,0,1-4.046-.694,18.425,18.425,0,0,0-2.485-.569,5.967,5.967,0,0,0-.812-.064,3.137,3.137,0,0,0-.773.089,1.46,1.46,0,0,0-1.175,1.082,1.322,1.322,0,0,0-.039.318,1.548,1.548,0,0,0,.594,1.149,3.353,3.353,0,0,0,1.1.612,9.9,9.9,0,0,0,1.774.421,1.36,1.36,0,0,0-.471.968,1.662,1.662,0,0,0,.379.965c-.1-.03-.2-.061-.295-.093a7.361,7.361,0,0,1-3.68-2.485,2.364,2.364,0,0,1-.525-1.449,2.522,2.522,0,0,1,2.043-2.37,5.135,5.135,0,0,1,.881-.073,7.821,7.821,0,0,1,1.516.167c1.315.26,2.6.682,3.913.983a7.437,7.437,0,0,0,1.661.2,5.964,5.964,0,0,0,3.96-1.494,6.678,6.678,0,0,1,1.518-.959,7.867,7.867,0,0,1,3.385-.635c.359,0,.72.013,1.083.031a5.688,5.688,0,0,1,3.552,1.464,6.18,6.18,0,0,0,4.17,1.605,7.415,7.415,0,0,0,1.424-.142c1.32-.257,2.589-.686,3.887-.974a8.654,8.654,0,0,1,1.885-.246,4.988,4.988,0,0,1,.891.077,2.523,2.523,0,0,1,2.029,2.371,2.323,2.323,0,0,1-.558,1.475,7.561,7.561,0,0,1-3.3,2.249l-.014,0a1.251,1.251,0,0,0-.344-1.69,9.741,9.741,0,0,0,1.21-.295,3.247,3.247,0,0,0,1.479-.869,1.515,1.515,0,0,0,.4-.992,1.393,1.393,0,0,0-.917-1.271,2.536,2.536,0,0,0-1.016-.178l-.269.006a13.278,13.278,0,0,0-2.917.581,16.1,16.1,0,0,1-4.232.724l-.164,0h-.061a1.937,1.937,0,0,0-2.083,2.106c-.065,2.521-.586,4.834-2.6,6.571a1.986,1.986,0,0,0-.672,1.565l0,.112c.011.283.028.566.047.848.021.34.04.679.04,1.017a7.007,7.007,0,0,1-.063.981,6.392,6.392,0,0,1-.819,1.98,4.578,4.578,0,0,0-.572,2.1l0,.118q.022.762.023,1.526a45.279,45.279,0,0,1-.273,5.005h0l-.011.143a.36.36,0,0,0,.351.41h.033a.323.323,0,0,0,.293-.162.8.8,0,0,0,.082-.31,43.655,43.655,0,0,0,.279-4.627q0-.67-.029-1.341c-.006-.1-.008-.2-.008-.292a5.133,5.133,0,0,1,.74-2.708,4.963,4.963,0,0,0,.722-2.549v-.2a11.81,11.81,0,0,0-.083-1.537,2.338,2.338,0,0,1-.024-.338,1.812,1.812,0,0,1,.709-1.475,3.771,3.771,0,0,0,.283-.282,7.1,7.1,0,0,0,1.665-2.658,13.058,13.058,0,0,0,.628-3.933,1.2,1.2,0,0,1,1.34-1.33,13.313,13.313,0,0,0,3.374-.412c1.032-.269,2.047-.585,3.087-.775a6.108,6.108,0,0,1,1.1-.133,2.313,2.313,0,0,1,.733.11c.36.122.528.348.529.6a.8.8,0,0,1-.251.54,2.609,2.609,0,0,1-1.213.643,12.852,12.852,0,0,1-2.972.443,3.265,3.265,0,0,0-2.213.883,1.4,1.4,0,0,0-.453,1,1.364,1.364,0,0,0,.7,1.145,2.368,2.368,0,0,0,.9.354,6.476,6.476,0,0,0,1,.077,7.991,7.991,0,0,0,2.632-.48,7.752,7.752,0,0,0,3.854-2.633,3.156,3.156,0,0,0,.63-1.876,3.12,3.12,0,0,0-2.158-2.948m-31.509,6.063a.734.734,0,0,1,.474-.609,2.505,2.505,0,0,1,1.143-.242,3,3,0,0,1,1.874.592.742.742,0,0,1,.3.542.693.693,0,0,1-.433.581,2.183,2.183,0,0,1-1.051.261l-.146,0h-.1a2.681,2.681,0,0,1-1.7-.532.775.775,0,0,1-.365-.59m28.5-.027a.805.805,0,0,1-.341.581,2.585,2.585,0,0,1-1.752.569h-.1l-.13,0a2.2,2.2,0,0,1-1.056-.271c-.292-.159-.421-.352-.421-.549a.735.735,0,0,1,.259-.5,1.96,1.96,0,0,1,.978-.525,4.656,4.656,0,0,1,.985-.122,2.507,2.507,0,0,1,1.064.221c.354.164.513.38.512.6" fill="#464749"/>
    <path id="Path_102" data-name="Path 102" d="M371.829,395.375a5.636,5.636,0,0,0,1.8-4.315c0-.2-.008-.414-.024-.625-.067-.891-.238-1.771-.37-2.649a2.506,2.506,0,0,0-1.367-1.92,6.132,6.132,0,0,0-2.9-.773h-.13a6.221,6.221,0,0,0-3.157.828,2.422,2.422,0,0,0-1.248,1.743c-.111.624-.18,1.251-.293,1.866a7.9,7.9,0,0,0-.132,1.42,6.883,6.883,0,0,0,.439,2.436,5.936,5.936,0,0,0,1.584,2.2,3.357,3.357,0,0,1,1.1,2.5c0,.122-.006.246-.018.373-.046.5-.052.994-.053,1.488a1.642,1.642,0,0,0,.924,1.556,1.881,1.881,0,0,0,.857.219,1.753,1.753,0,0,0,1.041-.359,1.778,1.778,0,0,0,.7-1.567c0-.122-.005-.247-.014-.372-.03-.386-.063-.77-.063-1.151a4.755,4.755,0,0,1,.05-.715,3.734,3.734,0,0,1,1.271-2.188m-2,4.105c0,.111.008.215.008.309-.01.633-.124.856-.685,1.09a1.027,1.027,0,0,1-.378.074.989.989,0,0,1-.967-.955l-.011-.248c0-.349.053-.7.081-1.056.011-.149.017-.3.017-.439a4.448,4.448,0,0,0-1.533-3.42,4.938,4.938,0,0,1-1.58-3.869l0-.206a24.074,24.074,0,0,1,.372-2.828,2.126,2.126,0,0,1,1.6-1.688,5.951,5.951,0,0,1,2.1-.4,5.585,5.585,0,0,1,2.809.783,1.536,1.536,0,0,1,.777,1.071,26.978,26.978,0,0,1,.446,3.145,5.257,5.257,0,0,1-1.607,4.008,4.43,4.43,0,0,0-1.445,2.44,4.592,4.592,0,0,0-.075.879c0,.441.043.878.067,1.313" fill="#58595b"/>
    <path id="Path_103" data-name="Path 103" d="M369.087,411.068a14.016,14.016,0,0,1,1.194,3.643,1.467,1.467,0,0,1-.231.916,1.2,1.2,0,0,1-1.273.6,1.485,1.485,0,0,1-1-1.353,2.286,2.286,0,0,1,.084-.785,22.974,22.974,0,0,1,1.23-3.019" fill="#93358d"/>
  </g>
</svg>
