<svg xmlns="http://www.w3.org/2000/svg" width="19.295" height="33.228" viewBox="0 0 19.295 33.228">
  <g id="Group_112" data-name="Group 112" transform="translate(-519.976 -381.44)">
    <path id="Path_109" data-name="Path 109" d="M524.609,400.562c-2.35-.245-4.34-1.566-4.614-4.239a4.76,4.76,0,0,1,.9-3.076,15.26,15.26,0,0,1,1.437-1.913A9.558,9.558,0,0,0,524.6,386c.164-1.332.293-2.669.446-4,.047-.413.223-.586.522-.556s.446.249.4.653c-.216,1.758-.288,3.533-.662,5.272a9.683,9.683,0,0,1-1.939,4.158,25.9,25.9,0,0,0-1.677,2.207,3.631,3.631,0,0,0-.3,4.009,4.57,4.57,0,0,0,3.252,1.89c.319.023.511.189.487.506a.438.438,0,0,1-.518.423" fill="#464749"/>
    <path id="Path_110" data-name="Path 110" d="M539.271,395.965a4.549,4.549,0,0,1-3.7,4.439,8.765,8.765,0,0,1-.9.151.443.443,0,0,1-.554-.43c-.019-.294.161-.455.463-.492a4.778,4.778,0,0,0,2.3-.813,3.445,3.445,0,0,0,1.106-4.3,10.808,10.808,0,0,0-1.813-2.614,10.943,10.943,0,0,1-2.515-6.2c-.136-1.182-.253-2.366-.376-3.55a.636.636,0,0,1,.1-.575.467.467,0,0,1,.8.316q.147,1.436.3,2.871a16.57,16.57,0,0,0,.782,3.86,9.15,9.15,0,0,0,1.585,2.619,15.522,15.522,0,0,1,1.91,2.735,4.7,4.7,0,0,1,.5,1.98" fill="#464749"/>
    <path id="Path_111" data-name="Path 111" d="M524.42,396.829a3.7,3.7,0,0,1,3.28,1.781,2.342,2.342,0,0,0,3.859-.02,3.767,3.767,0,0,1,3.9-1.7c.318.058.526.191.486.546-.033.3-.254.428-.627.375a2.851,2.851,0,0,0-3.059,1.423,3.238,3.238,0,0,1-4.2.913,3.325,3.325,0,0,1-1.187-1.091,2.749,2.749,0,0,0-2.847-1.258,2.145,2.145,0,0,1-.264.027.419.419,0,0,1-.45-.375.428.428,0,0,1,.325-.526,2.593,2.593,0,0,1,.791-.09" fill="#464749"/>
    <path id="Path_112" data-name="Path 112" d="M531.217,405.251a4.839,4.839,0,0,1-1.334,3.4,4.074,4.074,0,0,0-.088,5.055c.049.058.105.11.153.168a.437.437,0,0,1,0,.647.441.441,0,0,1-.675-.016,3.513,3.513,0,0,1-.941-1.54,4.945,4.945,0,0,1,1.05-5.155,4.071,4.071,0,0,0,.007-5.115c-.264-.3-.291-.563-.076-.762s.488-.174.759.126a4.751,4.751,0,0,1,1.147,3.2" fill="#93358d"/>
    <path id="Path_113" data-name="Path 113" d="M524.346,409.414a3.249,3.249,0,0,1,.872-2.346,2.4,2.4,0,0,0,.095-2.922c-.054-.07-.121-.131-.17-.2a.427.427,0,0,1,.05-.587.432.432,0,0,1,.617-.031,1.311,1.311,0,0,1,.212.216,3.366,3.366,0,0,1-.126,4.175,2.385,2.385,0,0,0-.114,3.1c.016.02.031.04.048.059a.439.439,0,0,1,0,.674.454.454,0,0,1-.7-.071,2.989,2.989,0,0,1-.778-2.059" fill="#93358d"/>
    <path id="Path_114" data-name="Path 114" d="M534.9,405.723a3.043,3.043,0,0,1-.865,2.086,2.41,2.41,0,0,0-.083,2.953,2,2,0,0,1,.168.205.428.428,0,0,1-.082.585.415.415,0,0,1-.587.016,2.16,2.16,0,0,1-.393-.46,3.369,3.369,0,0,1,.363-4.014,2.429,2.429,0,0,0,.128-2.924,1.891,1.891,0,0,0-.123-.145.441.441,0,0,1-.01-.674c.237-.229.484-.161.706.052a3.265,3.265,0,0,1,.778,2.32" fill="#93358d"/>
  </g>
</svg>
