<svg xmlns="http://www.w3.org/2000/svg" xmlns:xlink="http://www.w3.org/1999/xlink" width="37.508" height="28.246" viewBox="0 0 37.508 28.246">
  <defs>
    <clipPath id="clip-path">
      <path id="Path_24" data-name="Path 24" d="M980.029,382.588a15.608,15.608,0,0,0-5.929,2.194c-4.669,3.04-6.471,9.8-4.118,15.469a1.9,1.9,0,0,1,0,1.661,30.358,30.358,0,0,0-1.658,5.206c-.118.531.042.918.423,1.049.4.138.715-.106.855-.655.007-.028.018-.055.023-.083a34.742,34.742,0,0,1,4.434-10.576.637.637,0,0,1,.272-.279,8.982,8.982,0,0,1,3.351-.765,11.153,11.153,0,0,1,2.705.242.674.674,0,0,0,.888-.552.765.765,0,0,0-.628-.938,9.8,9.8,0,0,0-1.532-.24,11.455,11.455,0,0,0-3.312.179c.021-.185.14-.26.222-.362a22.333,22.333,0,0,1,6.512-5.558.956.956,0,0,0,.423-.35.79.79,0,0,0-.041-.921.6.6,0,0,0-.854-.163,22.732,22.732,0,0,0-3.926,2.752c-.251.219-.5.442-.837.736.179-.717.336-1.31.471-1.909a.783.783,0,0,0-.444-.966c-.346-.125-.7.087-.819.539q-.507,1.977-.98,3.965a1.257,1.257,0,0,1-.247.563,31.194,31.194,0,0,0-3.995,6.143c-.057.11-.074.278-.25.312a11.231,11.231,0,0,1-.718-5.3c.45-3.785,2.1-6.612,5.133-8.276a16.056,16.056,0,0,1,6.521-1.828,32.941,32.941,0,0,1,6.215.181c-.122.236-.207.409-.3.58a33,33,0,0,0-1.554,3.224,34.876,34.876,0,0,0-1.662,6.57c-.9,5.032-4.224,8.058-8.637,7.873a12.645,12.645,0,0,1-2.206-.328.66.66,0,0,0-.866.579.753.753,0,0,0,.618.908,11.079,11.079,0,0,0,3.6.335,8.737,8.737,0,0,0,6.783-3.98,13.949,13.949,0,0,0,2.154-5.853,24.024,24.024,0,0,1,2.653-8.068c.521-.921,1.009-1.868,1.522-2.8.131-.233.153-.33-.141-.353-.6-.047-1.2-.136-1.8-.206a37.7,37.7,0,0,0-4.356-.281,23.065,23.065,0,0,0-3.966.323m-26.954-2.268c-.254.033-.223.134-.119.32.319.575.619,1.161.948,1.726a16.393,16.393,0,0,1,1.994,5.813,8.446,8.446,0,0,0,2.536,5.034,6.788,6.788,0,0,0,6,1.9.72.72,0,0,0,.605-.836.669.669,0,0,0-.743-.667c-.226.012-.452.049-.677.063a6.38,6.38,0,0,1-6.38-5.554,17.552,17.552,0,0,0-2.031-6.213c-.04-.07-.065-.149-.109-.247a10.318,10.318,0,0,1,1.748-.15,12.193,12.193,0,0,1,6.551,1.323c2.548,1.4,3.892,5.067,2.962,8.143-.151-.077-.193-.224-.259-.34a23.161,23.161,0,0,0-1.909-2.8,20.747,20.747,0,0,0-2.8-2.9.612.612,0,0,0-.973.1.831.831,0,0,0,.165,1.105c.068.065.138.126.208.186a18.238,18.238,0,0,1,1.663,1.64,23.291,23.291,0,0,1,4.685,8.315c.215.647.537.876.944.681s.5-.6.285-1.246a23.411,23.411,0,0,0-1.015-2.615.91.91,0,0,1-.019-.8c1.568-4.052.111-8.859-3.26-10.779a11.7,11.7,0,0,0-4-1.363,15.709,15.709,0,0,0-2.5-.187,36.527,36.527,0,0,0-4.506.361" fill="none"/>
    </clipPath>
    <linearGradient id="linear-gradient" x1="14.809" y1="7.102" x2="14.845" y2="7.102" gradientUnits="objectBoundingBox">
      <stop offset="0" stop-color="#cf48a1"/>
      <stop offset="0.067" stop-color="#c5429d"/>
      <stop offset="0.315" stop-color="#a62f94"/>
      <stop offset="0.557" stop-color="#90218d"/>
      <stop offset="0.789" stop-color="#831989"/>
      <stop offset="1" stop-color="#7f1788"/>
    </linearGradient>
  </defs>
  <g id="Group_33" data-name="Group 33" transform="translate(-952.879 -379.959)" clip-path="url(#clip-path)">
    <rect id="Rectangle_15" data-name="Rectangle 15" width="37.627" height="28.346" transform="translate(952.821 379.959)" fill="url(#linear-gradient)"/>
  </g>
</svg>
