<svg xmlns="http://www.w3.org/2000/svg" width="26.487" height="31.007" viewBox="0 0 26.487 31.007">
  <g id="Group_119" data-name="Group 119" transform="translate(-355.277 -452.802)">
    <path id="Path_131" data-name="Path 131" d="M359.64,453.26a29.433,29.433,0,0,1-2.365,10.378c-2.233,4.729-1.97,14.976.263,19.573" fill="none" stroke="#464749" stroke-linecap="round" stroke-miterlimit="10" stroke-width="0.895"/>
    <path id="Path_132" data-name="Path 132" d="M377.4,453.26a29.433,29.433,0,0,0,2.365,10.378c2.233,4.729,1.97,14.976-.263,19.573" fill="none" stroke="#464749" stroke-linecap="round" stroke-miterlimit="10" stroke-width="0.895"/>
    <path id="Path_133" data-name="Path 133" d="M364.894,468.367l2.978,2.89a1.138,1.138,0,0,0,1.313.088,35.777,35.777,0,0,0,3.066-2.89" fill="none" stroke="#464749" stroke-linecap="round" stroke-miterlimit="10" stroke-width="0.895"/>
    <path id="Path_134" data-name="Path 134" d="M367.522,471.082a24.05,24.05,0,0,1,.175,11.911" fill="none" stroke="#464749" stroke-linecap="round" stroke-miterlimit="10" stroke-width="0.895"/>
    <path id="Path_135" data-name="Path 135" d="M369.668,471.082a24.049,24.049,0,0,0-.175,11.911" fill="none" stroke="#464749" stroke-linecap="round" stroke-miterlimit="10" stroke-width="0.895"/>
    <path id="Path_136" data-name="Path 136" d="M368.732,464.482a.649.649,0,1,1,.65.648.65.65,0,0,1-.65-.648m-.825,0a1.474,1.474,0,1,0,1.475-1.473,1.476,1.476,0,0,0-1.475,1.473" fill="#93358d"/>
    <path id="Path_137" data-name="Path 137" d="M374.409,469.872a.374.374,0,1,1,.373.375.374.374,0,0,1-.373-.375m-.825,0a1.2,1.2,0,1,0,1.2-1.2,1.2,1.2,0,0,0-1.2,1.2" fill="#93358d"/>
    <path id="Path_138" data-name="Path 138" d="M364.25,472.22a.423.423,0,1,1,.423.423.423.423,0,0,1-.423-.423m-.825,0a1.248,1.248,0,1,0,1.248-1.248,1.249,1.249,0,0,0-1.248,1.248" fill="#93358d"/>
    <path id="Path_139" data-name="Path 139" d="M371.83,472.831a.51.51,0,1,0,.509-.509.509.509,0,0,0-.509.509" fill="#93358d"/>
    <path id="Path_140" data-name="Path 140" d="M363.642,465.454a1.031,1.031,0,1,0,1.031-1.031,1.032,1.032,0,0,0-1.031,1.031" fill="#93358d"/>
    <path id="Path_141" data-name="Path 141" d="M367.139,468.067a.836.836,0,1,0,.836-.836.837.837,0,0,0-.836.836" fill="#93358d"/>
    <path id="Path_142" data-name="Path 142" d="M361.759,469.312a.473.473,0,1,0,.473-.474.473.473,0,0,0-.473.474" fill="#93358d"/>
    <path id="Path_143" data-name="Path 143" d="M373.8,465.816a.625.625,0,1,0,.625-.625.626.626,0,0,0-.625.625" fill="#93358d"/>
  </g>
</svg>
