<svg xmlns="http://www.w3.org/2000/svg" width="53.705" height="53.705" viewBox="0 0 53.705 53.705">
  <g id="Group_37" data-name="Group 37" transform="translate(-1063.542 -413.32)">
    <path id="Path_26" data-name="Path 26" d="M1111.966,440.172A21.571,21.571,0,1,1,1090.4,418.6a21.571,21.571,0,0,1,21.571,21.571" fill="#fff"/>
    <circle id="Ellipse_2" data-name="Ellipse 2" cx="21.571" cy="21.571" r="21.571" transform="matrix(0.23, -0.973, 0.973, 0.23, 1064.445, 456.21)" fill="none" stroke="#d368a5" stroke-miterlimit="10" stroke-width="1.5"/>
    <path id="Path_27" data-name="Path 27" d="M1100.458,447.514c-.058.3-.1.6-.178.9a5.107,5.107,0,0,1-.757,1.659c-.155.226-.339.284-.512.166s-.18-.309-.028-.537a4.706,4.706,0,1,0-4.617,1.993,4.551,4.551,0,0,0,3.407-.775c.048-.032.094-.069.142-.1a.329.329,0,1,1,.375.536,5.012,5.012,0,0,1-2.524,1.01,5.274,5.274,0,0,1-5.255-2.549.273.273,0,0,0-.266-.139c-.837,0-1.676,0-2.513,0-.361,0-.426-.056-.487-.415-.046-.273-.09-.546-.134-.819a3.219,3.219,0,0,0-1.015-1.886,3.423,3.423,0,0,1-1.076-1.93,2.885,2.885,0,0,1,.3-2.012,3.747,3.747,0,0,0,.4-2.782c-.08-.376-.131-.76-.193-1.14a1.491,1.491,0,0,0-.552-.937,4.43,4.43,0,0,1-1.628-2.852,4.327,4.327,0,0,1,.192-2.068c.171-.5-.034-.76-.564-.718a3.015,3.015,0,0,0-1.162.346,1.153,1.153,0,0,1-.176.088.312.312,0,0,1-.406-.159.287.287,0,0,1,.1-.4,3.152,3.152,0,0,1,2.036-.513,1.076,1.076,0,0,1,.831,1.427,4.183,4.183,0,0,0-.23,1.674,3.576,3.576,0,0,0,1.252,2.514,2.684,2.684,0,0,1,1.016,1.858c.061.579.217,1.145.245,1.728a3.733,3.733,0,0,1-.468,2.015,2.6,2.6,0,0,0,.469,3.314,4.28,4.28,0,0,1,1.346,2.737c.01.094-.017.24.1.264a1.5,1.5,0,0,0,.477,0c.069-.007.041-.1.037-.151a5.169,5.169,0,0,0-1.4-3.35,1.984,1.984,0,0,1-.654-1.667,1.931,1.931,0,0,1,.314-.806c.327-.525.668-1.041.964-1.585a2.478,2.478,0,0,0-.157-2.921c-.107-.137-.207-.281-.316-.418-.4-.5-.838-.949-1.281-1.4a4,4,0,0,1-1.111-1.774,2.651,2.651,0,0,1,2.6-3.487q1.869,0,3.738,0a2.623,2.623,0,0,1,2.649,2.253,3.03,3.03,0,0,1-.721,2.538c-.35.43-.759.805-1.135,1.211a.327.327,0,0,1-.47.037.319.319,0,0,1,0-.484c.316-.342.65-.668.958-1.016a2.567,2.567,0,0,0,.762-1.651,2.377,2.377,0,0,0-.433-1.438,1.721,1.721,0,0,0-1.476-.792c-1.327-.005-2.652-.011-3.978,0a1.932,1.932,0,0,0-1.857,1.641,2.306,2.306,0,0,0,.494,1.984,10.352,10.352,0,0,0,.781.855,13.522,13.522,0,0,1,1.468,1.76,3.017,3.017,0,0,1,.2,3.15,16.763,16.763,0,0,1-1.065,1.8,1.225,1.225,0,0,0,.192,1.742,5.69,5.69,0,0,1,1.555,3.344,4.28,4.28,0,0,1,.044.478c0,.121.048.167.17.165s.174-.025.178-.155a7.463,7.463,0,0,1,.269-1.568,8.146,8.146,0,0,0,.07-.954,5.3,5.3,0,0,1,1.34-2.885.209.209,0,0,0,.025-.312c-.3-.47-.6-.945-.869-1.438a3.389,3.389,0,0,1-.4-2.3,3.115,3.115,0,0,1,.549-1.156.324.324,0,1,1,.545.352,1.567,1.567,0,0,1-.091.147,2.294,2.294,0,0,0-.186,2.308,12.437,12.437,0,0,0,.975,1.7c.053.088.1.085.17.022a.122.122,0,0,1,.018-.013c.166-.117.411-.2.475-.36.056-.141-.092-.362-.148-.548a4.441,4.441,0,0,1-.024-2.076c.057-.308.1-.619.159-.926a3.106,3.106,0,0,1,.965-1.74,3.737,3.737,0,0,0,1.073-4.139,1.118,1.118,0,0,1,.7-1.492,1.544,1.544,0,0,1,.715-.015,3.782,3.782,0,0,1,2.366,6.186.7.7,0,0,1-.691.317,1.07,1.07,0,0,0-.179,0l1.1,1.1a1.075,1.075,0,0,0,0-.31.582.582,0,0,1,.17-.431,4.336,4.336,0,0,0,1.008-4.555,4.528,4.528,0,0,0-5.582-2.914,3,3,0,0,1-1.681-.023,4.1,4.1,0,0,0-1.206-.166q-1.867.008-3.737,0a3.329,3.329,0,0,0-1.013.14,3.38,3.38,0,0,1-1.894.026,4.507,4.507,0,0,0-5.641,3.622,4.284,4.284,0,0,0,1.066,3.73.938.938,0,0,1,.291.779.261.261,0,0,0,0,.082l1.1-1.1a.472.472,0,0,0,.042.027.779.779,0,0,0-.144-.006.826.826,0,0,1-.833-.392,3.8,3.8,0,0,1-.236-4.41.355.355,0,0,1,.372-.21.32.32,0,0,1,.27.28c.023.135-.062.234-.124.341a3.066,3.066,0,0,0,.048,3.328l.01.019a.666.666,0,0,0,.716.4,3.751,3.751,0,0,1,1.089.022,1.7,1.7,0,0,1,1.331,1.162.5.5,0,0,0,.173.239,1.367,1.367,0,0,1,.44,1.606.635.635,0,0,0-.035.339,1.377,1.377,0,0,1-1.786,1.526.519.519,0,0,0-.335,0,1.358,1.358,0,0,1-1.522-.472.741.741,0,0,0-.26-.219,1.672,1.672,0,0,1-.967-1.477c-.019-.371-.01-.743-.006-1.114a.392.392,0,0,0-.1-.275,4.971,4.971,0,0,1-1-5.217,5.065,5.065,0,0,1,4.118-3.372.855.855,0,0,0,.32-.054h.874c.425.089.848.18,1.274.265a4.915,4.915,0,0,0,1.874-.265h4.809c.379.089.756.182,1.137.264a1.39,1.39,0,0,0,.541.025c.505-.091,1.009-.192,1.514-.289h.83a.978.978,0,0,0,.146.038,5.22,5.22,0,0,1,4.411,3.709c.095.321.127.652.208.975v.962a.31.31,0,0,0-.034.077,5.054,5.054,0,0,1-1.3,2.9.354.354,0,0,0-.09.257c0,.385.011.772-.01,1.157a1.522,1.522,0,0,1-.776,1.317c-.361.2-.545.564-.928.743l.209.11a5.323,5.323,0,0,1,2.735,3.352c.088.3.132.622.2.933Zm-6.069-5.789a1.451,1.451,0,0,1-.22-1.131.379.379,0,0,0-.052-.229,1.379,1.379,0,0,1,.442-1.608.511.511,0,0,0,.18-.26,1.731,1.731,0,0,1,1.628-1.171c.335,0,.67-.009,1,0a.36.36,0,0,0,.33-.159,3.121,3.121,0,0,0-2.152-5.053c-.511-.055-.7.213-.553.711a4.378,4.378,0,0,1-1.263,4.776,2.557,2.557,0,0,0-.79,1.492c-.057.337-.108.676-.166,1.013a3.457,3.457,0,0,0,.125,1.85c.042.113.083.166.22.107a5.273,5.273,0,0,1,1.267-.34m2.313-.078a.694.694,0,0,0,.6-.335.758.758,0,0,1,.422-.349,1.037,1.037,0,0,0,.605-.677.248.248,0,0,0-.064-.291q-.963-.953-1.917-1.916a.216.216,0,0,0-.25-.061,1.065,1.065,0,0,0-.784.853.472.472,0,0,1-.246.335.717.717,0,0,0-.273,1.047.452.452,0,0,1,.044.4.732.732,0,0,0,1.073.88.36.36,0,0,1,.392,0,.861.861,0,0,0,.4.118m-12.847-1.8a.664.664,0,0,0-.35-.613.568.568,0,0,1-.305-.42,1.045,1.045,0,0,0-.741-.788.241.241,0,0,0-.289.068q-.944.955-1.9,1.9a.248.248,0,0,0-.069.29,1.071,1.071,0,0,0,.682.714.54.54,0,0,1,.308.257.712.712,0,0,0,1.012.287.412.412,0,0,1,.432,0,.73.73,0,0,0,1.059-.884.433.433,0,0,1,.054-.413.644.644,0,0,0,.108-.394" fill="#464749"/>
    <path id="Path_28" data-name="Path 28" d="M1092.533,445.145a.947.947,0,0,1,.892.554.922.922,0,0,1-.126,1.06,6.385,6.385,0,0,1-.692.694.985.985,0,0,1-1.36-1.419c.2-.22.417-.427.632-.632a.912.912,0,0,1,.654-.257m-.532,1.886a.359.359,0,0,0,.126-.044,3.663,3.663,0,0,0,.7-.7.286.286,0,0,0-.068-.394.3.3,0,0,0-.416-.018c-.222.2-.429.411-.631.628a.29.29,0,0,0-.03.347.342.342,0,0,0,.316.186" fill="#93358d"/>
    <path id="Path_29" data-name="Path 29" d="M1095.093,451.005c-.188-.009-.37-.005-.55-.031a.981.981,0,0,1-.045-1.931,3.62,3.62,0,0,1,1.193,0,.981.981,0,0,1-.039,1.932c-.185.027-.375.023-.559.032m.005-.666c.131,0,.262.008.391,0a.33.33,0,0,0,.335-.331.326.326,0,0,0-.327-.336c-.268-.012-.537-.013-.8,0a.32.32,0,0,0-.323.34.327.327,0,0,0,.337.327c.13.01.261,0,.391,0" fill="#93358d"/>
    <path id="Path_30" data-name="Path 30" d="M1099.094,447.044a3.745,3.745,0,0,1-.027.588.985.985,0,0,1-.978.8.968.968,0,0,1-.958-.82,4.081,4.081,0,0,1,0-1.131.962.962,0,0,1,.957-.82.983.983,0,0,1,.98.8,3.852,3.852,0,0,1,.027.587m-.659,0c0-.13.009-.261,0-.391a.329.329,0,0,0-.331-.333.318.318,0,0,0-.335.327,8.029,8.029,0,0,0,0,.8.325.325,0,0,0,.339.325.336.336,0,0,0,.326-.341c.009-.129,0-.26,0-.391" fill="#93358d"/>
    <path id="Path_31" data-name="Path 31" d="M1095.971,445.852a.937.937,0,0,1-.819-.569.926.926,0,0,1,.143-1.058,7.67,7.67,0,0,1,.661-.665.984.984,0,0,1,1.451,1.313,4.845,4.845,0,0,1-.8.8.936.936,0,0,1-.636.179m.964-1.559a.317.317,0,0,0-.193-.292.311.311,0,0,0-.363.058c-.183.175-.364.355-.539.537a.336.336,0,1,0,.47.474c.173-.165.339-.337.509-.506a.367.367,0,0,0,.116-.271" fill="#93358d"/>
    <path id="Path_32" data-name="Path 32" d="M1094.991,446.517a.363.363,0,0,1-.1.257c-.122.125-.241.251-.37.368a.313.313,0,0,1-.465,0,.317.317,0,0,1,0-.451,5.588,5.588,0,0,1,.4-.4.3.3,0,0,1,.345-.045.341.341,0,0,1,.191.271" fill="#93358d"/>
    <path id="Path_33" data-name="Path 33" d="M1097.145,449.469a.387.387,0,0,1-.243-.11c-.117-.117-.24-.231-.352-.353a.325.325,0,1,1,.451-.468c.134.122.261.251.383.384a.3.3,0,0,1,.049.363.334.334,0,0,1-.288.184" fill="#93358d"/>
    <path id="Path_34" data-name="Path 34" d="M1096.181,447.307a2.84,2.84,0,0,1,0,.306.3.3,0,0,1-.3.286.289.289,0,0,1-.321-.239,1.826,1.826,0,0,1,0-.7.287.287,0,0,1,.337-.24.29.29,0,0,1,.287.277,2.593,2.593,0,0,1,0,.3h0" fill="#93358d"/>
    <path id="Path_35" data-name="Path 35" d="M1093.384,448.636c0,.1.007.19,0,.283a.3.3,0,0,1-.3.287.289.289,0,0,1-.321-.238,1.843,1.843,0,0,1,0-.694.319.319,0,0,1,.626.034,3.264,3.264,0,0,1,0,.328h0" fill="#93358d"/>
    <path id="Path_36" data-name="Path 36" d="M1093.63,443.883a.3.3,0,0,1,.2.1c.125.122.252.242.37.371a.324.324,0,1,1-.455.461c-.134-.122-.259-.255-.385-.386a.3.3,0,0,1-.057-.345.322.322,0,0,1,.322-.2" fill="#93358d"/>
    <line id="Line_1" data-name="Line 1" x1="30.581" y2="30.581" transform="translate(1074.345 424.539)" fill="none" stroke="#d368a5" stroke-miterlimit="10" stroke-width="1.5"/>
  </g>
</svg>
