<svg xmlns="http://www.w3.org/2000/svg" width="43.049" height="38.473" viewBox="0 0 43.049 38.473">
  <g id="Group_212" data-name="Group 212" transform="translate(-330.731 -286.71)">
    <path id="Path_95" data-name="Path 95" d="M342.516,300.973c-.289.151-.557.3-.831.434a5.659,5.659,0,0,1-2.453.615c-.143,0-.119.07-.1.156a1.978,1.978,0,0,1-.278,1.509,2.194,2.194,0,0,1-.989.767,4.368,4.368,0,0,0-.9.467,1.172,1.172,0,0,0-.3.305.486.486,0,0,0-.063.477.419.419,0,1,1-.794.257,1.322,1.322,0,0,1,.223-1.276,2.912,2.912,0,0,1,1.241-.895c.1-.043.2-.078.3-.124a1.185,1.185,0,0,0,.713-1.586.519.519,0,0,0-.263-.309,1.439,1.439,0,0,0-1.422-.006,3.413,3.413,0,0,0-1.774,1.7c-.127.239-.218.493-.33.737a6.927,6.927,0,0,1-1.556,2.325,2.1,2.1,0,0,1-.9.509.8.8,0,0,1-.44.02.42.42,0,0,1-.3-.393.373.373,0,0,1,.3-.386,1.779,1.779,0,0,0,1.156-.737,5.7,5.7,0,0,0,.956-1.628,6.5,6.5,0,0,1,1-1.764,3.859,3.859,0,0,1,1.747-1.224,2.778,2.778,0,0,1,.337-.088c.09-.019.087-.061.052-.129a.37.37,0,0,0-.2-.16,2.122,2.122,0,0,0-2.419.6,5.732,5.732,0,0,0-.423.571,4.213,4.213,0,0,1-1.055,1.1,2.325,2.325,0,0,1-1.175.433,1.236,1.236,0,0,1-.548-.079.41.41,0,0,1-.263-.5.4.4,0,0,1,.492-.276,1.1,1.1,0,0,0,.9-.184,3.86,3.86,0,0,0,1.038-1.078,4.227,4.227,0,0,1,.86-.965,2.821,2.821,0,0,1,2.3-.549c.1.017.124,0,.113-.1a6.263,6.263,0,0,1,.4-2.887c.026-.073.1-.165.047-.219s-.154.01-.231.034a1.422,1.422,0,0,0-.823.67.447.447,0,0,1-.426.263.4.4,0,0,1-.332-.586,2.165,2.165,0,0,1,1.5-1.184,2,2,0,0,1,.582-.055.141.141,0,0,0,.157-.1,9.317,9.317,0,0,1,.624-1.166c.063-.1.033-.121-.068-.127a1.62,1.62,0,0,0-.876.176l-.123.067a.388.388,0,0,1-.559-.128.392.392,0,0,1,.139-.568,2.29,2.29,0,0,1,1.5-.375c.157.017.313.045.469.069.052.008.1.013.135-.04a12.77,12.77,0,0,1,1.2-1.517,1.084,1.084,0,0,0-.794.12c-.039.025-.072.058-.11.086a.4.4,0,0,1-.545-.027.414.414,0,0,1-.016-.57,1.476,1.476,0,0,1,.889-.453,2.736,2.736,0,0,1,1.159.09.17.17,0,0,0,.186-.043,13.172,13.172,0,0,1,1.477-1.254c.1-.073.085-.1-.011-.155a1.474,1.474,0,0,0-1.054-.211.38.38,0,0,1-.434-.307.39.39,0,0,1,.252-.492,1.726,1.726,0,0,1,1.122.04,3.029,3.029,0,0,1,.9.486.139.139,0,0,0,.185.007,7.24,7.24,0,0,1,1.548-.726c.108-.035.126-.065.056-.163a1.694,1.694,0,0,0-1.048-.753.4.4,0,0,1-.34-.489.416.416,0,0,1,.527-.306,2.255,2.255,0,0,1,1.6,1.2.374.374,0,0,0,.459.215,2.967,2.967,0,0,1,2.046.35,2.561,2.561,0,0,1,1.154,1.66,3.63,3.63,0,0,1,.113.995.164.164,0,0,0,.143.194,2.481,2.481,0,0,1,1.631,1.314,1.359,1.359,0,0,1,.1.245.393.393,0,0,1-.237.489.4.4,0,0,1-.535-.221,1.712,1.712,0,0,0-1.046-1c-.115-.048-.143-.011-.16.091a7.862,7.862,0,0,1-.464,1.617c-.032.083.005.12.055.165a3.96,3.96,0,0,1,.628.727,1.955,1.955,0,0,1,.363,1.164.424.424,0,0,1-.425.441.407.407,0,0,1-.41-.434,1.583,1.583,0,0,0-.523-1.118c-.055-.062-.081-.04-.114.026a10.083,10.083,0,0,1-.988,1.7.147.147,0,0,0,0,.178,3.159,3.159,0,0,1,.35,1.2,1.535,1.535,0,0,1-.239.956.411.411,0,0,1-.759-.078.373.373,0,0,1,.054-.332,1.134,1.134,0,0,0,.028-.983c-.019-.064-.055-.094-.113-.014a10.818,10.818,0,0,1-1.246,1.391c-.071.068-.042.117-.01.181a2.523,2.523,0,0,1,.11,2.055.408.408,0,0,1-.518.3.413.413,0,0,1-.265-.548,2.068,2.068,0,0,0,.128-.6,2.216,2.216,0,0,0-.087-.6c-.027-.092-.059-.1-.132-.04a11.025,11.025,0,0,1-1.083.855c-.065.043-.041.092-.028.146a2.223,2.223,0,0,1-.1,1.448,2.438,2.438,0,0,1-.685.919.413.413,0,0,1-.669-.121.391.391,0,0,1,.106-.479,2.1,2.1,0,0,0,.43-.509,1.528,1.528,0,0,0,.138-.885m-5.268-1.887c.007.1.009.252.03.4a1.787,1.787,0,0,0,1.214,1.6,2.632,2.632,0,0,0,1.16.081,5.947,5.947,0,0,0,2.045-.7,11.455,11.455,0,0,0,2.442-1.77,13.955,13.955,0,0,0,2.492-2.954,11.442,11.442,0,0,0,1.355-2.891,5.335,5.335,0,0,0,.233-2.271,1.822,1.822,0,0,0-1.9-1.666,4.752,4.752,0,0,0-1.692.36,10.228,10.228,0,0,0-3.325,2.183,14.207,14.207,0,0,0-3.417,4.789,6.812,6.812,0,0,0-.634,2.833m10.1-7.005a1.369,1.369,0,0,1-1.36,1.345,1.383,1.383,0,0,1-1.349-1.343,1.355,1.355,0,1,1,2.709,0m-1.876-.028a.519.519,0,0,0,1.037.016.533.533,0,0,0-.529-.535.518.518,0,0,0-.508.519m-4.068.93a1.354,1.354,0,0,1,1.352-1.344,1.374,1.374,0,0,1,1.351,1.4,1.352,1.352,0,0,1-2.7-.053m.836.027a.512.512,0,0,0,.528.513.506.506,0,0,0,.5-.522.5.5,0,0,0-.5-.518.522.522,0,0,0-.53.527m.7,5.3a1.345,1.345,0,0,1-1.346-1.4,1.359,1.359,0,0,1,2.716.078,1.4,1.4,0,0,1-1.37,1.324m0-.835a.52.52,0,0,0,.03-1.04.521.521,0,1,0-.03,1.04m-3.66,2.312a1.354,1.354,0,1,1,0-2.707,1.363,1.363,0,0,1,1.345,1.356,1.34,1.34,0,0,1-1.341,1.351m-.005-1.877a.522.522,0,1,0,.509.5.5.5,0,0,0-.509-.5m5.59-4.116a.443.443,0,0,0-.031.885.491.491,0,0,0,.479-.437.467.467,0,0,0-.448-.448m-3.361,4.8a.444.444,0,1,0,.434.44.446.446,0,0,0-.434-.44m3.008-7.995a.463.463,0,0,0-.432-.459.441.441,0,0,0-.019.882.456.456,0,0,0,.451-.423m.992,5.172a.449.449,0,0,0-.438-.434.444.444,0,0,0-.444.427.47.47,0,0,0,.448.445.446.446,0,0,0,.434-.438m-5.122-.916a.458.458,0,0,0-.456.421.468.468,0,0,0,.44.454.438.438,0,0,0,.016-.875" fill="#464749"/>
    <path id="Path_96" data-name="Path 96" d="M364.792,306.944a10.451,10.451,0,0,0,.816-2.957,6.022,6.022,0,0,1,.876-2.091,11.687,11.687,0,0,0,1.246-2.953,1.557,1.557,0,0,0-1.4-2.1,5.507,5.507,0,0,0-1.033-.079c-.135,0-.184.041-.149.185a7.97,7.97,0,0,1-.061,3.705,9.441,9.441,0,0,1-2.774,5.16,4.914,4.914,0,0,1-6.369.393,5.44,5.44,0,0,1-2.306-3.372c-.042-.171-.1-.235-.292-.248a1.626,1.626,0,0,1-1.382-2.472.439.439,0,0,0,.017-.413,1.687,1.687,0,0,1,.56-2.042.408.408,0,0,0,.193-.4,1.578,1.578,0,0,1,.614-1.429.438.438,0,0,0,.191-.4,1.589,1.589,0,0,1,.488-1.184,2.316,2.316,0,0,1,3.137-.143c.024.025.049.071.073.071.343,0,.545-.3.844-.4.14-.047.1-.158.081-.26-.158-.793-.3-1.588-.523-2.366-.056-.2-.116-.407.139-.494.273-.093.367.11.427.325.2.734.354,1.482.492,2.231.038.208.094.27.31.185a2.488,2.488,0,0,1,.91-.192c.177,0,.247-.047.195-.244a18.659,18.659,0,0,0-.682-2.18,1.677,1.677,0,0,0-1.007-1.024,6.18,6.18,0,0,0-2.569-.468c-.511.031-1.066.1-1.257.676a1.755,1.755,0,0,0,.324,1.789.647.647,0,0,0,1.188-.211,2.141,2.141,0,0,0,.071-.267.293.293,0,0,1,.364-.237.27.27,0,0,1,.208.347,1.472,1.472,0,0,1-.784,1.157,1.163,1.163,0,0,1-1.24-.17,2.419,2.419,0,0,1-.63-2.77,1.631,1.631,0,0,1,1.112-.809,5.541,5.541,0,0,1,2.265.051,3.158,3.158,0,0,1,2.836,2.628c.1.45.26.887.359,1.337.053.243.164.295.4.341.385.075.508-.073.626-.406a16.184,16.184,0,0,1,1.765-3.712,4.1,4.1,0,0,1,.6-.714,1.765,1.765,0,0,1,2.17-.249,1.917,1.917,0,0,1,.963,1.956,1.44,1.44,0,0,1-.793,1.073,1.01,1.01,0,0,1-1.111-.088,2.582,2.582,0,0,1-.852-1.154.282.282,0,0,1,.13-.411c.2-.088.333.011.414.194a2.687,2.687,0,0,0,.414.677.632.632,0,0,0,1.158-.2,1.326,1.326,0,0,0-1.068-1.7,1.187,1.187,0,0,0-1.137.44,8.2,8.2,0,0,0-1.256,2.023c-.336.709-.632,1.436-.9,2.175-.068.189-.047.265.149.395a.83.83,0,0,0,1.032-.081,3.548,3.548,0,0,0,1.454-1.486.277.277,0,0,1,.39-.178c.2.088.2.258.129.439a3.517,3.517,0,0,1-1.28,1.467c-.205.148-.559.25-.6.427-.043.2.364.3.476.524.27.532.7.53,1.209.457a14.241,14.241,0,0,0,3.2-.732,4.555,4.555,0,0,0,1.177-.653,1.976,1.976,0,0,0,.75-1.168,2.492,2.492,0,0,1,.628-1.216,1.789,1.789,0,0,1,2.5-.084.991.991,0,0,1,.37.683c.015.4.017.821-.4,1.03a1.482,1.482,0,0,1-1.3-.142.241.241,0,0,1-.1-.332.268.268,0,0,1,.308-.17c.136.021.267.083.4.1.156.019.359.158.457-.072a.543.543,0,0,0-.088-.615,1.209,1.209,0,0,0-1.685-.032,1.744,1.744,0,0,0-.494.9,3.044,3.044,0,0,1-1.9,2.14,12.715,12.715,0,0,1-3.813.954c-.139.018-.391-.106-.413.145-.023.273.2.428.513.426a4.925,4.925,0,0,1,1.64.212,1.972,1.972,0,0,1,1.464,2.159,5.252,5.252,0,0,1-.542,1.959c-.473.988-.95,1.976-1.452,2.949a5.723,5.723,0,0,0-.309,1.482,24.29,24.29,0,0,1-1.344,3.854c-.079.194-.221.319-.432.214s-.176-.288-.1-.48c.207-.526.4-1.057.6-1.586m-3.821-8.683a4.432,4.432,0,0,1-1.185,2.267,1.7,1.7,0,0,1-1.605.523,1.4,1.4,0,0,1-1.065-1.236,3.64,3.64,0,0,1,1.291-3.594,1.474,1.474,0,0,1,2.538,1.025c.008.057.008.115.017.172s-.01.124.074.16a5.77,5.77,0,0,1,1.376-3.162c.14-.164.12-.24-.064-.328a5.253,5.253,0,0,0-.985-.322.817.817,0,0,0-.711.139,11.847,11.847,0,0,0-3.854,4.363,15.6,15.6,0,0,0-1.67,5.994,1.277,1.277,0,0,0,.84,1.163c.045-.573.077-1.149.14-1.722s.153-1.119.237-1.678c.029-.191.125-.336.345-.3s.265.2.232.392c-.012.069-.024.137-.035.2a21.851,21.851,0,0,0-.314,3.339.366.366,0,0,0,.215.385,4.532,4.532,0,0,0,3.121.443.813.813,0,0,0,.5-.334,5.45,5.45,0,0,0,1.056-4.014,37.92,37.92,0,0,1-.492-3.881m.354,7.569a4.15,4.15,0,0,0,.968-.8,9.471,9.471,0,0,0,2.087-4.047,7.962,7.962,0,0,0,.247-3.658,4.824,4.824,0,0,0-1.222-2.477c-.3-.322-.332-.313-.6.016a5.183,5.183,0,0,0-1.192,2.9,12.038,12.038,0,0,0,.25,2.988,9.748,9.748,0,0,1,.142,3.227,5.907,5.907,0,0,1-.678,1.857m-6.741-2.1c.5-3.956,1.948-7.349,5.148-9.889-4.048.734-6.811,6.676-5.148,9.889m-.374-8.719c-.17.4-.13.487.279.539a.423.423,0,0,1,.282.172.593.593,0,0,0,.924-.017,7.025,7.025,0,0,1,.953-.952c.183-.142.127-.227-.014-.341a1.744,1.744,0,0,0-2.424.6m5.87,3.978a2.57,2.57,0,0,0,.178-2.037.8.8,0,0,0-1.228-.458,2.651,2.651,0,0,0-1.173,1.67c1.119-1.026,1.837-.776,2.223.825m-.81.724a1.755,1.755,0,0,0,.1-1.143c-.084-.412-.36-.523-.7-.286a2.213,2.213,0,0,0-.853,1.336.691.691,0,0,0,.819.865c.413-.071.51-.38.637-.772m-5.248-1.149c.039-.118.2-.31.13-.325-.3-.063-.51-.365-.851-.3a1.229,1.229,0,0,0-.874,1.109,1.077,1.077,0,0,0,.92,1.048c.189.025.288-.02.333-.231.1-.437.226-.867.342-1.3m1.037-2.03a2.3,2.3,0,0,1-.708-.352.46.46,0,0,0-.551.034,1.219,1.219,0,0,0-.474.887c-.02.181.07.264.235.251a.674.674,0,0,1,.532.177c.166.144.346.16.47-.1.146-.3.321-.585.5-.9m-2.085,5.407c.425.161.518.094.512-.365,0-.1,0-.206.007-.309.017-.513.017-.515-.461-.636a.978.978,0,0,1-.366-.183c-.127-.1-.2-.047-.262.082a1.1,1.1,0,0,0,.57,1.411" fill="#464749"/>
    <path id="Path_97" data-name="Path 97" d="M360.108,313.79a2.329,2.329,0,0,0-.1-.673,2.389,2.389,0,0,0-2.322-1.76,2.47,2.47,0,0,0-.271.014.673.673,0,0,0-.106.023,1.919,1.919,0,0,0-.476-1.228,1.693,1.693,0,0,0-1.265-.541,2.125,2.125,0,0,0-.5.066,3.586,3.586,0,0,0-.463-1.362,2.033,2.033,0,0,0-1.253-.9,2.711,2.711,0,0,0-.675-.091,2.142,2.142,0,0,0-1.195.364,3.708,3.708,0,0,0-.737.685,1.7,1.7,0,0,0-.376-.334,1.668,1.668,0,0,0-.916-.26,2.164,2.164,0,0,0-.364.032,1.627,1.627,0,0,0-1.006.555,1.848,1.848,0,0,0-.309.56,3.027,3.027,0,0,0-1.41-.416,2.182,2.182,0,0,0-1.4.54,2.4,2.4,0,0,0-.9,1.87,2.45,2.45,0,0,0,.184.926,2.367,2.367,0,0,0,2.213,1.454l.13,0a2.445,2.445,0,0,0,1.384-.517,2.124,2.124,0,0,0,.7-.955,3.123,3.123,0,0,0,.158-.656,1.947,1.947,0,0,0,.6.109,1.8,1.8,0,0,0,1.16-.448,3.362,3.362,0,0,0,.7.84,1.97,1.97,0,0,0,1.259.439,3.43,3.43,0,0,0,1.312-.307,1.7,1.7,0,0,0,.545.91,1.96,1.96,0,0,0,.99.414,3.336,3.336,0,0,0-.082.676,2.173,2.173,0,0,0,.7,1.634l.024.026-.044.041a1.726,1.726,0,0,0-.654,1.341,1.77,1.77,0,0,0,1.779,1.763,1.71,1.71,0,0,0,.891-.246,1.759,1.759,0,0,0,.862-1.492,1.641,1.641,0,0,0-.212-.8l-.051-.1c.032-.016.073-.035.123-.056a2.322,2.322,0,0,0,1.368-2.128m-2.044,2.624a.963.963,0,0,1,.124.469,1.071,1.071,0,0,1-.529.9,1.023,1.023,0,0,1-.532.145,1.074,1.074,0,0,1-.853-.408,1.087,1.087,0,0,1-.234-.663,1.026,1.026,0,0,1,.4-.8,1.517,1.517,0,0,0,.223-.215.561.561,0,0,0,.134-.352.57.57,0,0,0-.108-.323l-.189-.213a1.474,1.474,0,0,1-.487-1.134,3.022,3.022,0,0,1,.152-.884l.135-.44-.459-.007a1.547,1.547,0,0,1-.984-.289,1.194,1.194,0,0,1-.376-.9l-.032-.525-.469.236a3.3,3.3,0,0,1-1.424.428,1.281,1.281,0,0,1-.83-.29,3.119,3.119,0,0,1-.759-1.007l-.236-.449-.331.383a1.274,1.274,0,0,1-.964.531,1.507,1.507,0,0,1-.727-.218l-.483-.266-.03.55a3.1,3.1,0,0,1-.165.928,1.417,1.417,0,0,1-.477.651,1.743,1.743,0,0,1-1,.375l-.1,0a1.669,1.669,0,0,1-1.572-1.024,1.744,1.744,0,0,1-.133-.664,1.709,1.709,0,0,1,.644-1.333,1.489,1.489,0,0,1,.965-.385,2.808,2.808,0,0,1,1.436.535l.436.275.089-.507a1.454,1.454,0,0,1,.287-.694.935.935,0,0,1,.592-.318,1.5,1.5,0,0,1,.249-.022.969.969,0,0,1,.542.15,1.243,1.243,0,0,1,.415.483l.258.491.327-.447a3.526,3.526,0,0,1,.865-.881,1.435,1.435,0,0,1,.817-.251,2.023,2.023,0,0,1,.5.069,1.327,1.327,0,0,1,.841.6,3.387,3.387,0,0,1,.417,1.482l.046.474.437-.191a1.623,1.623,0,0,1,.647-.148,1,1,0,0,1,.755.317,1.251,1.251,0,0,1,.3.863l-.016.238-.03.234.208.113a.6.6,0,0,0,.294.076.859.859,0,0,0,.306-.066l.076-.027.022-.006.2-.01a1.69,1.69,0,0,1,1.66,1.268,1.66,1.66,0,0,1,.069.473,1.625,1.625,0,0,1-.957,1.495,1.633,1.633,0,0,0-.345.19.555.555,0,0,0-.219.436,1.065,1.065,0,0,0,.169.5" fill="#464749"/>
    <path id="Path_98" data-name="Path 98" d="M348.016,318.355a1.78,1.78,0,0,0,.554-.74,2.893,2.893,0,0,0,1.48.461,2.233,2.233,0,0,0,1.364-.472,2.428,2.428,0,0,0,.761-2.853,2.461,2.461,0,0,0-2.211-1.473l-.218.012a2.232,2.232,0,0,0-1.514.744,3.068,3.068,0,0,0-.624,1.309,1.889,1.889,0,0,0-.7-.147,1.709,1.709,0,0,0-1.038.367,1.691,1.691,0,0,0-.688,1.425c0,.058.015.115.019.172-.063,0-.13-.015-.19-.015a2.378,2.378,0,0,0-2.292,1.377,2.289,2.289,0,0,0-.212.969,2.458,2.458,0,0,0,.9,1.9,2.475,2.475,0,0,0,2.894.091,2.2,2.2,0,0,0,.964-1.878,3.642,3.642,0,0,0-.132-.883,2,2,0,0,0,.873-.363m-1.639.179a3.3,3.3,0,0,1,.207,1.067,1.5,1.5,0,0,1-.673,1.314,1.786,1.786,0,0,1-2.056-.063,1.769,1.769,0,0,1-.652-1.361,1.615,1.615,0,0,1,.148-.678,1.68,1.68,0,0,1,1.665-.977,3.263,3.263,0,0,1,.522.044l.492.079-.1-.488a2.54,2.54,0,0,1-.054-.483.994.994,0,0,1,.412-.872,1.01,1.01,0,0,1,.623-.228,1.471,1.471,0,0,1,.761.258l.445.278.08-.519a2.767,2.767,0,0,1,.555-1.417,1.535,1.535,0,0,1,1.064-.51l.146-.008a1.778,1.778,0,0,1,1.573,1.048,1.739,1.739,0,0,1-.538,2.033,1.559,1.559,0,0,1-.949.334,2.511,2.511,0,0,1-1.464-.587l-.44-.328-.105.539a1.251,1.251,0,0,1-.444.8,1.549,1.549,0,0,1-.9.269l-.469.016Z" fill="#464749"/>
    <path id="Path_99" data-name="Path 99" d="M353.842,318.289a2.08,2.08,0,0,0-.28.019,1.579,1.579,0,0,0-1.052.564,1.861,1.861,0,0,0-.367,1.187c0,.105.01.213.021.322a2.4,2.4,0,0,0-1.372.465,2.747,2.747,0,0,0-.707.87,2.059,2.059,0,0,0-1.075-.343,1.66,1.66,0,0,0-1.291.615,1.758,1.758,0,0,0,.167,2.439,1.7,1.7,0,0,0,1.149.462,1.847,1.847,0,0,0,1.318-.6l.026.03a2.229,2.229,0,0,0,1.753.861,2.691,2.691,0,0,0,.829-.137,2.283,2.283,0,0,0,1.133-.763,2.515,2.515,0,0,0,.493-1.281l.013-.226a2.866,2.866,0,0,0-.268-1.112,2.209,2.209,0,0,0,.85-.524,1.594,1.594,0,0,0,.442-1.093,1.618,1.618,0,0,0-.028-.3,1.746,1.746,0,0,0-1.754-1.459m.834,2.379a1.61,1.61,0,0,1-.787.433l-.058.015-.139.094-.236.16.111.262a3.018,3.018,0,0,1,.342,1.144l-.009.146a1.829,1.829,0,0,1-.352.935,1.6,1.6,0,0,1-.8.531,2.054,2.054,0,0,1-.618.1,1.53,1.53,0,0,1-1.22-.609l-.172-.2a.533.533,0,0,0-.366-.158.558.558,0,0,0-.3.095l-.211.18a1.15,1.15,0,0,1-.829.394,1,1,0,0,1-.683-.281,1.067,1.067,0,0,1-.1-1.486.959.959,0,0,1,.759-.365,1.4,1.4,0,0,1,.789.275c.033.022.085.067.186.147l.354.28.178-.414a2.3,2.3,0,0,1,.692-.955,1.712,1.712,0,0,1,1.043-.331.728.728,0,0,0,.384-.088.469.469,0,0,0,.188-.222.6.6,0,0,0,.042-.234l-.011-.153v0a2.4,2.4,0,0,1-.022-.314,1.188,1.188,0,0,1,.217-.756.885.885,0,0,1,.6-.309l.187-.013a1.047,1.047,0,0,1,1.074.894l.016.172a.894.894,0,0,1-.256.621" fill="#464749"/>
  </g>
</svg>
