<svg xmlns="http://www.w3.org/2000/svg" xmlns:xlink="http://www.w3.org/1999/xlink" width="35.297" height="35.298" viewBox="0 0 35.297 35.298">
  <defs>
    <clipPath id="clip-path">
      <path id="Path_54" data-name="Path 54" d="M636.745,189.1a14.539,14.539,0,0,1,11.526-13.4,15.939,15.939,0,0,1,2.154-.287c.161-.01.182.043.18.181-.006.641,0,1.282,0,1.922a.632.632,0,1,0,1.26.005c0-.647,0-1.294,0-1.941,0-.138.034-.173.175-.166a14.539,14.539,0,0,1,13.479,11.933,15.558,15.558,0,0,1,.206,1.75c.008.134-.016.183-.161.179-.34-.011-.68,0-1.02,0-.32,0-.64,0-.96,0a.63.63,0,1,0,0,1.26c.66,0,1.32,0,1.98,0,.138,0,.173.033.165.174a14.541,14.541,0,0,1-11.335,13.362,15.423,15.423,0,0,1-2.345.326c-.16.009-.182-.042-.18-.181.006-.64,0-1.281,0-1.922a.632.632,0,1,0-1.26-.005c0,.647-.005,1.294,0,1.941,0,.136-.031.174-.174.166a14.544,14.544,0,0,1-13.465-11.834,15.66,15.66,0,0,1-.222-1.847c-.01-.16.041-.182.181-.18.64.006,1.28,0,1.921,0a.633.633,0,1,0,.006-1.261c-.647,0-1.294,0-1.941,0h-.01c-.128,0-.164-.034-.156-.173M650.6,172.924c0,.164,0,.328,0,.49h0c0,.177-.009.354,0,.53.01.146-.025.2-.186.208a12.253,12.253,0,0,0-1.792.19,15.646,15.646,0,0,0-11.621,8.762,14.852,14.852,0,0,0-1.521,5.956c-.01.19-.078.221-.242.216-.333-.011-.667-.006-1,0a.631.631,0,1,0,0,1.26c.353,0,.705.007,1.058,0,.135,0,.175.036.181.173a13.753,13.753,0,0,0,.2,1.81,15.631,15.631,0,0,0,7.49,10.933,15.21,15.21,0,0,0,7.251,2.209c.158.008.2.056.191.2-.01.34,0,.68,0,1.02a.632.632,0,1,0,1.26-.008c0-.34.007-.68,0-1.02,0-.139.028-.19.179-.2a12.936,12.936,0,0,0,1.811-.194,15.641,15.641,0,0,0,11.01-7.63,15.148,15.148,0,0,0,2.124-7.118c.009-.143.042-.19.19-.185.353.012.706.007,1.059,0a.63.63,0,1,0,0-1.259c-.359,0-.719-.006-1.078,0-.126,0-.164-.034-.17-.163a14.55,14.55,0,0,0-.177-1.694,15.588,15.588,0,0,0-6.612-10.481,15.33,15.33,0,0,0-8.158-2.787c-.15-.008-.184-.055-.18-.2.01-.34,0-.68,0-1.02a.63.63,0,0,0-.626-.681h0a.627.627,0,0,0-.63.671" fill="none"/>
    </clipPath>
    <linearGradient id="linear-gradient" x1="16.433" y1="11.597" x2="16.461" y2="11.597" gradientUnits="objectBoundingBox">
      <stop offset="0" stop-color="#cb489d"/>
      <stop offset="0.04" stop-color="#c5449b"/>
      <stop offset="0.295" stop-color="#a63091"/>
      <stop offset="0.545" stop-color="#902289"/>
      <stop offset="0.783" stop-color="#831985"/>
      <stop offset="1" stop-color="#7f1784"/>
    </linearGradient>
  </defs>
  <g id="Group_69" data-name="Group 69" transform="translate(-633.585 -172.253)">
    <g id="Group_68" data-name="Group 68">
      <g id="Group_67" data-name="Group 67" clip-path="url(#clip-path)">
        <rect id="Rectangle_30" data-name="Rectangle 30" width="35.302" height="35.299" transform="translate(633.585 172.253)" fill="url(#linear-gradient)"/>
      </g>
    </g>
    <path id="Path_55" data-name="Path 55" d="M652.156,193.7c-.264.139-.51.274-.761.4a5.187,5.187,0,0,1-2.247.563c-.131,0-.109.064-.1.143a1.818,1.818,0,0,1-.255,1.383,2.012,2.012,0,0,1-.906.7,4.006,4.006,0,0,0-.825.427,1.069,1.069,0,0,0-.277.28.444.444,0,0,0-.058.436.383.383,0,1,1-.727.236,1.211,1.211,0,0,1,.2-1.169,2.675,2.675,0,0,1,1.137-.82c.09-.039.183-.071.271-.113a1.087,1.087,0,0,0,.654-1.454.483.483,0,0,0-.242-.283,1.315,1.315,0,0,0-1.3,0,3.122,3.122,0,0,0-1.626,1.554c-.116.218-.2.451-.3.675a6.365,6.365,0,0,1-1.425,2.13,1.929,1.929,0,0,1-.825.466.727.727,0,0,1-.4.018.382.382,0,0,1-.276-.359.338.338,0,0,1,.275-.353,1.631,1.631,0,0,0,1.059-.677,5.207,5.207,0,0,0,.876-1.491,5.972,5.972,0,0,1,.913-1.616,3.538,3.538,0,0,1,1.6-1.121,2.677,2.677,0,0,1,.308-.081c.083-.018.08-.056.048-.118a.339.339,0,0,0-.186-.147,1.946,1.946,0,0,0-2.216.546,5.385,5.385,0,0,0-.388.524,3.839,3.839,0,0,1-.966,1.011,2.129,2.129,0,0,1-1.076.4,1.131,1.131,0,0,1-.5-.073.374.374,0,0,1-.241-.461.366.366,0,0,1,.45-.254,1.01,1.01,0,0,0,.825-.168,3.5,3.5,0,0,0,.951-.988,3.83,3.83,0,0,1,.788-.883,2.581,2.581,0,0,1,2.106-.5c.091.015.115,0,.1-.091a5.753,5.753,0,0,1,.363-2.645c.024-.065.087-.151.043-.2s-.141.009-.211.03a1.308,1.308,0,0,0-.754.615.413.413,0,0,1-.391.241.369.369,0,0,1-.3-.538,1.983,1.983,0,0,1,1.376-1.084,1.911,1.911,0,0,1,.533-.051.126.126,0,0,0,.144-.09,8.577,8.577,0,0,1,.572-1.069c.057-.091.03-.11-.062-.116a1.487,1.487,0,0,0-.8.162l-.113.061a.372.372,0,1,1-.384-.637,2.09,2.09,0,0,1,1.373-.343c.143.015.286.04.429.062.048.007.09.013.124-.036a11.858,11.858,0,0,1,1.1-1.391.994.994,0,0,0-.727.111c-.036.022-.067.053-.1.078a.369.369,0,0,1-.5-.024.38.38,0,0,1-.014-.522,1.344,1.344,0,0,1,.814-.415,2.525,2.525,0,0,1,1.062.082.153.153,0,0,0,.17-.039,12.162,12.162,0,0,1,1.354-1.149c.091-.067.078-.092-.01-.142a1.35,1.35,0,0,0-.966-.193.348.348,0,0,1-.4-.281.358.358,0,0,1,.23-.452,1.589,1.589,0,0,1,1.028.037,2.807,2.807,0,0,1,.829.446.128.128,0,0,0,.169.006,6.554,6.554,0,0,1,1.418-.665c.1-.032.116-.06.051-.15a1.555,1.555,0,0,0-.96-.69.366.366,0,0,1-.312-.447.381.381,0,0,1,.483-.28,2.067,2.067,0,0,1,1.462,1.1.344.344,0,0,0,.421.2,2.716,2.716,0,0,1,1.874.321,2.346,2.346,0,0,1,1.057,1.52,3.3,3.3,0,0,1,.1.911.152.152,0,0,0,.131.179,2.272,2.272,0,0,1,1.494,1.2,1.373,1.373,0,0,1,.089.225.359.359,0,0,1-.217.447.37.37,0,0,1-.49-.2,1.568,1.568,0,0,0-.958-.913c-.106-.045-.132-.011-.147.083a7.277,7.277,0,0,1-.425,1.482c-.03.075.005.109.05.151a3.574,3.574,0,0,1,.575.665,1.8,1.8,0,0,1,.333,1.067.387.387,0,0,1-.389.4.371.371,0,0,1-.376-.4,1.45,1.45,0,0,0-.479-1.024c-.051-.057-.074-.037-.1.025a9.3,9.3,0,0,1-.9,1.554.136.136,0,0,0,0,.164,2.875,2.875,0,0,1,.321,1.1,1.4,1.4,0,0,1-.219.876.37.37,0,0,1-.372.2.374.374,0,0,1-.323-.271.339.339,0,0,1,.049-.3,1.041,1.041,0,0,0,.026-.9c-.018-.059-.051-.086-.1-.013a9.993,9.993,0,0,1-1.141,1.274c-.065.063-.038.107-.009.166a2.31,2.31,0,0,1,.1,1.882.373.373,0,0,1-.474.275.38.38,0,0,1-.243-.5,1.889,1.889,0,0,0,.117-.546,2,2,0,0,0-.08-.554c-.024-.085-.054-.1-.12-.038a10.272,10.272,0,0,1-.993.784c-.059.04-.037.084-.025.134a2.034,2.034,0,0,1-.09,1.326,2.228,2.228,0,0,1-.627.842.378.378,0,0,1-.613-.11.359.359,0,0,1,.1-.44,1.916,1.916,0,0,0,.394-.466,1.4,1.4,0,0,0,.126-.811m-4.826-1.728c.006.089.008.231.028.37a1.638,1.638,0,0,0,1.112,1.468,2.389,2.389,0,0,0,1.063.073,5.444,5.444,0,0,0,1.873-.64,10.492,10.492,0,0,0,2.237-1.622,12.779,12.779,0,0,0,2.283-2.706,10.492,10.492,0,0,0,1.242-2.649,4.892,4.892,0,0,0,.212-2.08,1.667,1.667,0,0,0-1.742-1.526,4.351,4.351,0,0,0-1.551.329,9.389,9.389,0,0,0-3.046,2,13.016,13.016,0,0,0-3.13,4.388,6.251,6.251,0,0,0-.581,2.6m9.257-6.417a1.241,1.241,0,1,1-1.236-1.265,1.255,1.255,0,0,1,1.236,1.265m-1.719-.026a.475.475,0,0,0,.95.015.488.488,0,0,0-.485-.49.473.473,0,0,0-.465.475m-3.726.852a1.239,1.239,0,0,1,1.238-1.231,1.259,1.259,0,0,1,1.238,1.279,1.231,1.231,0,0,1-1.252,1.2,1.219,1.219,0,0,1-1.224-1.252m.765.026a.472.472,0,1,0,.944-.009.454.454,0,0,0-.459-.475.478.478,0,0,0-.485.484m.639,4.859a1.233,1.233,0,0,1-1.233-1.285,1.245,1.245,0,0,1,2.489.071,1.287,1.287,0,0,1-1.256,1.214m0-.765a.477.477,0,0,0,.028-.953.477.477,0,1,0-.028.953m-3.353,2.117a1.24,1.24,0,1,1,0-2.479,1.248,1.248,0,0,1,1.232,1.242,1.227,1.227,0,0,1-1.229,1.237m0-1.718a.478.478,0,1,0,.466.458.46.46,0,0,0-.466-.458m5.121-3.771a.405.405,0,0,0-.029.81.45.45,0,0,0,.439-.4.427.427,0,0,0-.41-.409m-3.079,4.4a.407.407,0,1,0,.4.4.409.409,0,0,0-.4-.4m2.755-7.324a.424.424,0,0,0-.4-.42.4.4,0,0,0-.016.808.417.417,0,0,0,.412-.388m.91,4.739a.413.413,0,0,0-.4-.4.407.407,0,0,0-.407.391.431.431,0,0,0,.41.408.411.411,0,0,0,.4-.4m-4.693-.839a.418.418,0,0,0-.418.384.43.43,0,0,0,.4.417.4.4,0,0,0,.014-.8" fill="#464749"/>
  </g>
</svg>
