<svg xmlns="http://www.w3.org/2000/svg" xmlns:xlink="http://www.w3.org/1999/xlink" width="29.853" height="36.091" viewBox="0 0 29.853 36.091">
  <defs>
    <clipPath id="clip-path">
      <path id="Path_23" data-name="Path 23" d="M979.589,347.377l-8.168,7.723-4.143-3.944a1.433,1.433,0,1,0-1.976,2.077l5.129,4.878a1.431,1.431,0,0,0,1.972,0l9.156-8.656a1.433,1.433,0,0,0-1.97-2.082m-7.638,22.935a23.3,23.3,0,0,1-8.264-7.889c-2.508-4.048-4.322-9.767-4.322-18.144,0-.859.035-1.767.074-2.682l0-.047,13.175-3.613h.033l13.182,3.768v.046c0,.133,0,.267,0,.4,0,9.321-2.018,15.577-4.781,19.919a23.838,23.838,0,0,1-9.041,8.243l-.032.016Zm.462-34.071L957.8,340.248l-.031.609q-.1,1.775-.1,3.422c0,8.622,1.878,14.685,4.575,19.035a25.284,25.284,0,0,0,9.3,8.725l.4.229.409-.216a25.748,25.748,0,0,0,10.125-9.073c2.964-4.655,5.045-11.26,5.046-20.827q0-.543-.01-1.1l-.01-.628-14.865-4.249Z" fill="none"/>
    </clipPath>
    <linearGradient id="linear-gradient" x1="18.376" y1="6.788" x2="18.418" y2="6.788" gradientUnits="objectBoundingBox">
      <stop offset="0" stop-color="#cb489d"/>
      <stop offset="0.04" stop-color="#c5449b"/>
      <stop offset="0.295" stop-color="#a63091"/>
      <stop offset="0.545" stop-color="#902289"/>
      <stop offset="0.783" stop-color="#831985"/>
      <stop offset="1" stop-color="#7f1784"/>
    </linearGradient>
  </defs>
  <g id="Group_30" data-name="Group 30" transform="translate(-957.675 -336.177)" clip-path="url(#clip-path)">
    <rect id="Rectangle_14" data-name="Rectangle 14" width="29.853" height="36.091" transform="translate(957.675 336.177)" fill="url(#linear-gradient)"/>
  </g>
</svg>
