<svg xmlns="http://www.w3.org/2000/svg" width="30.145" height="31.007" viewBox="0 0 30.145 31.007">
  <g id="Group_117" data-name="Group 117" transform="translate(-434.326 -452.305)">
    <path id="Path_123" data-name="Path 123" d="M440.518,452.763a29.433,29.433,0,0,1-2.365,10.378c-2.233,4.729-1.97,14.976.263,19.573" fill="none" stroke="#464749" stroke-linecap="round" stroke-miterlimit="10" stroke-width="0.895"/>
    <path id="Path_124" data-name="Path 124" d="M458.279,452.763a29.433,29.433,0,0,0,2.365,10.378c2.233,4.729,1.97,14.976-.263,19.573" fill="none" stroke="#464749" stroke-linecap="round" stroke-miterlimit="10" stroke-width="0.895"/>
    <path id="Path_125" data-name="Path 125" d="M448.4,470.585a24.049,24.049,0,0,1,.175,11.911" fill="none" stroke="#464749" stroke-linecap="round" stroke-miterlimit="10" stroke-width="0.895"/>
    <path id="Path_126" data-name="Path 126" d="M450.547,470.585a24.05,24.05,0,0,0-.175,11.911" fill="none" stroke="#464749" stroke-linecap="round" stroke-miterlimit="10" stroke-width="0.895"/>
    <path id="Path_127" data-name="Path 127" d="M445.772,467.87l2.978,2.89a1.138,1.138,0,0,0,1.313.088,35.773,35.773,0,0,0,3.066-2.89" fill="none" stroke="#464749" stroke-linecap="round" stroke-miterlimit="10" stroke-width="0.895"/>
    <path id="Path_128" data-name="Path 128" d="M436.839,463.313a17.382,17.382,0,0,0-1.588-2.294,4.468,4.468,0,0,0-.724-1.1c-.23-.318-.305-.559,0-.9a1.619,1.619,0,0,0,.553-.857,5.569,5.569,0,0,0,1.379-1.893c.35-.226.424,0,.568.279.5.965,1.086,1.89,1.575,2.862a11.59,11.59,0,0,0,1.068,1.915c.518-.821,1.022-1.619,1.524-2.418.324-.514.636-1.035.97-1.543.1-.154.238-.315.37.011q1.955,4.828,3.919,9.651c.006.013-.006.032-.029.139-.44-.467-.855-.89-1.25-1.33-.959-1.072-1.908-2.152-2.864-3.227-.218-.246-.373-.252-.614.045-.864,1.066-1.774,2.1-2.66,3.143-.212.251-.271.215-.478-.061-.6-.794-1.048-1.689-1.722-2.425" fill="#93358d"/>
    <path id="Path_129" data-name="Path 129" d="M463.612,461.175c-.456.124-.554.575-.764.9-.295.457-.778.8-.892,1.369a6.8,6.8,0,0,0-1.154,1.431c-.24.31-.464.632-.686.955-.18.262-.321.238-.512-.006-.761-.972-1.549-1.924-2.3-2.9-.473-.613-.534-.645-1.055-.1-1.331,1.4-2.648,2.811-4.05,4.3,1.47-3.383,2.9-6.663,4.362-10.035.517.877,1,1.692,1.48,2.506.294.5.6.987.882,1.489.158.282.29.294.445.008.538-.987,1.061-1.984,1.62-2.959a16.993,16.993,0,0,0,.983-1.776c.172-.4.29.048.435.015a10.387,10.387,0,0,0,1.34,1.935,2.866,2.866,0,0,0,.534.815.712.712,0,0,1-.03,1.005c-.236.328-.622.575-.634,1.042" fill="#93358d"/>
  </g>
</svg>
