<svg xmlns="http://www.w3.org/2000/svg" width="38.141" height="31.211" viewBox="0 0 38.141 31.211">
  <g id="Group_211" data-name="Group 211" transform="translate(-331.661 -233.81)">
    <path id="Path_91" data-name="Path 91" d="M344.439,249.274c-.314.164-.6.323-.9.47a6.138,6.138,0,0,1-2.659.666c-.155,0-.129.076-.113.17a2.146,2.146,0,0,1-.3,1.636,2.376,2.376,0,0,1-1.072.832,4.739,4.739,0,0,0-.977.506,1.274,1.274,0,0,0-.328.331.527.527,0,0,0-.068.517.454.454,0,1,1-.861.278,1.431,1.431,0,0,1,.242-1.383,3.153,3.153,0,0,1,1.346-.971c.106-.046.215-.084.32-.133a1.287,1.287,0,0,0,.774-1.721.57.57,0,0,0-.286-.335,1.557,1.557,0,0,0-1.541,0,3.694,3.694,0,0,0-1.924,1.839c-.138.259-.237.534-.358.8a7.527,7.527,0,0,1-1.686,2.521,2.279,2.279,0,0,1-.977.552.869.869,0,0,1-.477.021.454.454,0,0,1-.327-.425.4.4,0,0,1,.326-.418,1.933,1.933,0,0,0,1.253-.8,6.153,6.153,0,0,0,1.037-1.765,7.067,7.067,0,0,1,1.08-1.912,4.193,4.193,0,0,1,1.9-1.327,3.261,3.261,0,0,1,.365-.1c.1-.021.1-.066.056-.139a.4.4,0,0,0-.219-.174,2.3,2.3,0,0,0-2.623.646,6.164,6.164,0,0,0-.459.62,4.564,4.564,0,0,1-1.143,1.2,2.535,2.535,0,0,1-1.275.471,1.348,1.348,0,0,1-.593-.086.444.444,0,0,1-.285-.547.433.433,0,0,1,.533-.3,1.2,1.2,0,0,0,.975-.2,4.141,4.141,0,0,0,1.126-1.17,4.508,4.508,0,0,1,.933-1.045,3.053,3.053,0,0,1,2.493-.6c.106.019.135,0,.122-.107a6.812,6.812,0,0,1,.43-3.131c.028-.077.1-.179.051-.237s-.167.011-.25.036a1.545,1.545,0,0,0-.893.728.486.486,0,0,1-.462.285.436.436,0,0,1-.36-.636,2.352,2.352,0,0,1,1.629-1.284,2.232,2.232,0,0,1,.631-.059.151.151,0,0,0,.17-.107,10.105,10.105,0,0,1,.677-1.265c.067-.109.036-.131-.074-.138a1.756,1.756,0,0,0-.95.192l-.133.072a.44.44,0,1,1-.455-.754,2.475,2.475,0,0,1,1.624-.406c.171.018.34.047.509.073.056.009.107.016.146-.042a13.958,13.958,0,0,1,1.306-1.646,1.175,1.175,0,0,0-.861.131c-.042.027-.078.062-.119.092a.434.434,0,0,1-.591-.029.448.448,0,0,1-.018-.617,1.594,1.594,0,0,1,.964-.491,3,3,0,0,1,1.256.1.181.181,0,0,0,.2-.046,14.524,14.524,0,0,1,1.6-1.359c.109-.08.093-.108-.012-.169a1.6,1.6,0,0,0-1.143-.228.411.411,0,0,1-.47-.333.424.424,0,0,1,.273-.534,1.874,1.874,0,0,1,1.217.044,3.307,3.307,0,0,1,.98.527.151.151,0,0,0,.2.008,7.782,7.782,0,0,1,1.678-.787c.117-.039.137-.071.062-.178a1.84,1.84,0,0,0-1.137-.816.433.433,0,0,1-.369-.53.451.451,0,0,1,.572-.331,2.449,2.449,0,0,1,1.73,1.3.4.4,0,0,0,.5.233,3.22,3.22,0,0,1,2.218.38,2.781,2.781,0,0,1,1.251,1.8,3.919,3.919,0,0,1,.123,1.078.178.178,0,0,0,.154.211,2.689,2.689,0,0,1,1.769,1.424,1.546,1.546,0,0,1,.105.266.426.426,0,0,1-.256.53.44.44,0,0,1-.581-.24,1.851,1.851,0,0,0-1.134-1.08c-.124-.053-.155-.013-.173.1a8.557,8.557,0,0,1-.5,1.754c-.035.089.005.129.059.179a4.26,4.26,0,0,1,.681.787,2.124,2.124,0,0,1,.393,1.263.457.457,0,0,1-.46.477.438.438,0,0,1-.444-.47,1.717,1.717,0,0,0-.567-1.212c-.061-.067-.089-.044-.125.03a10.985,10.985,0,0,1-1.07,1.838.162.162,0,0,0,0,.194,3.448,3.448,0,0,1,.381,1.3,1.674,1.674,0,0,1-.259,1.037.446.446,0,0,1-.824-.085.4.4,0,0,1,.059-.359,1.234,1.234,0,0,0,.03-1.066c-.021-.07-.06-.1-.122-.015a11.856,11.856,0,0,1-1.351,1.508c-.078.074-.045.127-.011.2a2.737,2.737,0,0,1,.119,2.228.442.442,0,0,1-.562.325.449.449,0,0,1-.287-.6,2.267,2.267,0,0,0,.139-.647,2.387,2.387,0,0,0-.1-.656c-.028-.1-.064-.112-.142-.044a11.909,11.909,0,0,1-1.175.927c-.071.048-.044.1-.031.159a2.4,2.4,0,0,1-.106,1.569,2.622,2.622,0,0,1-.742,1,.448.448,0,0,1-.726-.13.427.427,0,0,1,.115-.521,2.262,2.262,0,0,0,.466-.551,1.653,1.653,0,0,0,.151-.959m-5.713-2.046c.008.106.01.273.033.437a1.938,1.938,0,0,0,1.317,1.738,2.829,2.829,0,0,0,1.257.087,6.461,6.461,0,0,0,2.217-.758,12.374,12.374,0,0,0,2.648-1.92,15.065,15.065,0,0,0,2.7-3.2,12.375,12.375,0,0,0,1.47-3.134,5.776,5.776,0,0,0,.252-2.462,1.973,1.973,0,0,0-2.062-1.806,5.115,5.115,0,0,0-1.835.39,11.088,11.088,0,0,0-3.605,2.366,15.412,15.412,0,0,0-3.7,5.193,7.389,7.389,0,0,0-.688,3.072m10.956-7.6a1.485,1.485,0,0,1-1.475,1.458,1.5,1.5,0,0,1-1.463-1.456,1.469,1.469,0,1,1,2.938,0m-2.035-.031a.563.563,0,0,0,1.125.018.578.578,0,0,0-.573-.58.562.562,0,0,0-.552.562m-4.409,1.009a1.466,1.466,0,0,1,1.465-1.457,1.49,1.49,0,0,1,1.465,1.514,1.458,1.458,0,0,1-1.481,1.425,1.443,1.443,0,0,1-1.449-1.482m.906.03a.559.559,0,1,0,1.117-.011.537.537,0,0,0-.543-.561.564.564,0,0,0-.574.572m.756,5.751a1.459,1.459,0,0,1-1.459-1.521,1.473,1.473,0,0,1,2.945.085,1.522,1.522,0,0,1-1.486,1.436m0-.9a.564.564,0,0,0,.032-1.128.565.565,0,1,0-.032,1.128m-3.969,2.506a1.468,1.468,0,1,1,0-2.935,1.478,1.478,0,0,1,1.458,1.47,1.453,1.453,0,0,1-1.454,1.465m-.005-2.034a.565.565,0,1,0,.552.542.545.545,0,0,0-.552-.542m6.061-4.463a.48.48,0,0,0-.034.959.533.533,0,0,0,.519-.475.505.505,0,0,0-.485-.484m-3.644,5.207a.481.481,0,1,0,.47.476.482.482,0,0,0-.47-.476m3.261-8.669a.5.5,0,0,0-.469-.5.478.478,0,0,0-.02.956.494.494,0,0,0,.489-.459m1.076,5.608a.488.488,0,0,0-.476-.471.482.482,0,0,0-.481.463.511.511,0,0,0,.486.484.486.486,0,0,0,.471-.476m-5.554-.992a.5.5,0,0,0-.495.455.509.509,0,0,0,.478.493.474.474,0,0,0,.017-.948" fill="#464749"/>
    <path id="Path_92" data-name="Path 92" d="M364.083,258.058c-1.365-.338-2.69-.664-4.014-1-.14-.035-.193-.03-.238.125a2.042,2.042,0,0,1-2.1,1.458,1.943,1.943,0,0,1-1.922-1.615.9.9,0,0,0-.581-.8,1.488,1.488,0,0,1-.836-1.392.521.521,0,0,0-.1-.328q-1.021-1.365-2.032-2.735a1.191,1.191,0,0,0-.239-.242,1.37,1.37,0,0,1-.567-1.512,1.489,1.489,0,0,1,1.2-1.1A1.582,1.582,0,0,1,354.6,250.2a.873.873,0,0,0,.184.473c.577.766,1.155,1.532,1.709,2.312.142.2.359.215.546.309.021.01.063-.007.09-.02s.034-.036.055-.048a1.051,1.051,0,0,0,.56-.9,8.015,8.015,0,0,1,.16-.929.244.244,0,0,0-.121-.278,1.407,1.407,0,0,1-.263-2.147,1.679,1.679,0,0,1,2.33-.106.32.32,0,0,0,.336.056,1.623,1.623,0,0,1,1.94,1.019,1.423,1.423,0,0,1-1.042,1.812.783.783,0,0,0-.635.586,2.575,2.575,0,0,1-.157.372c-.2.378-.373.747-.044,1.149a.526.526,0,0,1,.09.36c-.022.228.081.3.308.355.765.172,1.524.365,2.284.556.152.038.22.038.182-.138-.048-.228.1-.479.038-.667s-.385-.245-.551-.418a1.409,1.409,0,0,1-.166-1.792,1.675,1.675,0,0,1,1.818-.635,1.488,1.488,0,0,1,1.144,1.448c-.007.178.033.251.221.318a1.644,1.644,0,0,1,1.138,1.8c-.025.217.032.209.218.168.676-.147,1.358-.273,2.033-.421.181-.039.244,0,.268.165.03.2.174.436.1.586s-.39.125-.6.17c-.949.2-1.9.392-2.851.594-.524.111-.523.116-.522.61,0,.362,0,.358.386.278,1.215-.252,2.431-.5,3.645-.754.165-.035.211.015.236.146a3.628,3.628,0,0,0,.114.482c.047.142.007.18-.15.212-1.423.286-2.844.586-4.266.875a.577.577,0,0,0-.337.188c-.216.242-.432.485-.665.713a.284.284,0,0,0-.059.4,1.4,1.4,0,0,1-.547,1.907,1.7,1.7,0,0,1-2.1-.271,1.407,1.407,0,0,1-.181-1.714,1.625,1.625,0,0,1,1.685-.711.44.44,0,0,0,.523-.181,5.28,5.28,0,0,1,.4-.441m.4-1.221c-.044-.116.091-.3-.085-.39a2.335,2.335,0,0,0-.537-.2c-1.1-.276-2.211-.532-3.309-.82-.315-.082-.538-.1-.754.181-.186.237-.136.477.187.557q2.034.505,4.07,1c.428.105.428.105.428-.329m-7.794-.112a1.149,1.149,0,1,0,1.135-1.05,1.116,1.116,0,0,0-1.135,1.05m9.168-1.9a.87.87,0,0,0-.743-.836c-.073-.013-.158-.035-.22.018a1.835,1.835,0,0,1-.659.342c-.1.03-.114.111-.143.181a.774.774,0,0,0,.227.9.919.919,0,0,0,.963.178.836.836,0,0,0,.575-.786m-9.612-.847a.921.921,0,0,0-.922.7.858.858,0,0,0,.618.945.206.206,0,0,0,.263-.059,1.837,1.837,0,0,1,.812-.583.184.184,0,0,0,.127-.225.909.909,0,0,0-.9-.781m-2.079-2.568c-.03.023-.063.048-.1.074a1.314,1.314,0,0,1-.476.265c-.174.047-.165.1-.074.222.375.494.75.989,1.107,1.495.134.189.226.278.425.06a1.323,1.323,0,0,1,.381-.229c.09-.045.133-.072.058-.171-.408-.541-.808-1.086-1.211-1.629-.028-.037-.048-.087-.115-.087m5.27,2.992a.908.908,0,0,0-1.224-.8c-.365.125-.426.249-.286.577.009.022.021.043.03.065.075.184.024.435.145.557s.408.109.608.2c.305.14.406.11.586-.159a.714.714,0,0,0,.141-.444m0-4.467a.688.688,0,0,0-1.371.011.689.689,0,0,0,.707.633.674.674,0,0,0,.664-.644m4.353,2.345a.636.636,0,1,0,.024,1.268.667.667,0,0,0,.67-.636.656.656,0,0,0-.694-.632m-.223,7.847a.671.671,0,0,0-.677-.632.683.683,0,0,0-.7.645.675.675,0,0,0,.709.627.658.658,0,0,0,.664-.64m-9.869-9.773a.656.656,0,0,0-.687-.619.669.669,0,0,0-.685.629A.7.7,0,0,0,353,251a.67.67,0,0,0,.688-.651m5.61.987a.447.447,0,0,0-.528.412c-.027.155-.055.309-.086.463-.092.462-.09.456.406.575.133.031.183,0,.226-.109.114-.279.235-.554.354-.831.074-.173-.166-.5-.372-.51m1.252-1.606c-.154-.022-.218.049-.2.214a1.086,1.086,0,0,1-.191.694c-.1.142-.037.208.092.274a.722.722,0,0,0,.779-.072.6.6,0,0,0,.194-.7.682.682,0,0,0-.669-.409" fill="#464749"/>
    <path id="Path_93" data-name="Path 93" d="M354.866,263.081a1.514,1.514,0,0,1-1.164,1.444,1.6,1.6,0,0,1-1.594-.369,1.345,1.345,0,0,1-.395-1.5.283.283,0,0,0-.092-.362.9.9,0,0,1-.167-.207.167.167,0,0,0-.188-.079c-.277.034-.556.062-.835.082a.265.265,0,0,0-.261.205,1.608,1.608,0,0,1-1.748,1.009,1.561,1.561,0,0,1-1.366-1.3,1.494,1.494,0,0,1,1.1-1.592,1.66,1.66,0,0,1,1.883.681c.077.126.142.19.309.156a4.9,4.9,0,0,1,.531-.054c.287-.026.423-.2.3-.454-.212-.445-.455-.877-.681-1.316-.07-.135-.161-.063-.253-.035a2.081,2.081,0,0,1-2.708-1.433,1.6,1.6,0,0,1,.032-.863.259.259,0,0,0-.062-.294,1.582,1.582,0,0,1,.064-2.323c.09-.091.106-.141.022-.25a1.332,1.332,0,0,1-.08-1.675,1.55,1.55,0,0,1,1.586-.684,1.5,1.5,0,0,1,1.33,1.113c.038.127.1.151.224.15a1.748,1.748,0,0,1,1.743,1.037,1.533,1.533,0,0,1-.44,1.9.164.164,0,0,0-.037.24q.838,1.584,1.668,3.173a.375.375,0,0,0,.191.176,1.752,1.752,0,0,1,.744.591.345.345,0,0,0,.2.126c.638.184,1.278.365,1.914.556.139.042.188,0,.253-.106a1.882,1.882,0,0,1,2.143-.83,1.694,1.694,0,0,1,1.3,1.783c-.013.183.043.243.22.286.311.075.617.169.922.264a1.251,1.251,0,0,1,.916,1.625,1.4,1.4,0,0,1-1.784.8c-.315-.092-.634-.174-.946-.274a.3.3,0,0,0-.337.068,1.87,1.87,0,0,1-3.071-.892c-.026-.1-.05-.183-.186-.218-.4-.1-.793-.224-1.211-.345m-2.267-3.559c-.481-.917-.967-1.82-1.428-2.734a.435.435,0,0,0-.5-.272c-.314.025-.517.3-.379.556l.078.148c.44.837.879,1.675,1.325,2.51.032.061.034.231.194.117a2.485,2.485,0,0,1,.708-.325m5.464,4.636a.877.877,0,0,0,.911-.856.9.9,0,0,0-.916-.836.906.906,0,0,0-.914.866.882.882,0,0,0,.919.826m-10.093-8.5a.888.888,0,0,0,.884.862.85.85,0,1,0,.052-1.694.881.881,0,0,0-.936.832m4.127,5.529a.816.816,0,0,0,.165.485.21.21,0,0,0,.31.085,1.51,1.51,0,0,1,1.013-.1.2.2,0,0,0,.269-.135.789.789,0,0,0-.187-.914.963.963,0,0,0-.983-.2.877.877,0,0,0-.587.785m-1.406-7.213a.521.521,0,0,0-.371.1c-.1.089-.342.184-.172.355a1.8,1.8,0,0,1,.565,1.1c.012.115.052.143.175.122a.887.887,0,0,0,.743-.911.91.91,0,0,0-.94-.77m6.066,8.1c-.053-.124-.032-.236-.192-.28-.519-.141-1.033-.3-1.548-.453-.133-.04-.175,0-.193.119a1.248,1.248,0,0,1-.17.489c-.079.124-.041.172.1.21.437.121.87.256,1.308.375.107.029.241.133.328.042a4.232,4.232,0,0,0,.368-.5m2.674-.442a.889.889,0,0,0-.855-.86.94.94,0,0,0-.969.735c-.019.129.014.165.161.139a1.864,1.864,0,0,1,1.3.257c.252.149.3.13.351-.153a.825.825,0,0,0,.008-.118M348.8,257.364v0a.485.485,0,0,1-.127-.008c-.233-.075-.25.048-.25.215a1.13,1.13,0,0,0,1.443,1.028c.152-.038.174-.086.1-.209-.146-.257-.293-.513-.416-.779-.1-.2-.193-.353-.475-.256a.953.953,0,0,1-.278,0m11.1,5.983c-.105.254.063.336.308.388s.466.134.7.2a.462.462,0,0,0,.613-.257c.085-.245-.051-.46-.356-.551-.345-.1-.691-.2-1.037-.3-.319-.091-.317-.09-.263.2.018.1.022.2.034.32M349.56,253.323a.651.651,0,0,0-.678-.622.668.668,0,0,0-.688.645.676.676,0,0,0,.686.625.663.663,0,0,0,.68-.648m4.368,9.8a.687.687,0,0,0-1.371-.028.661.661,0,0,0,.682.646.67.67,0,0,0,.689-.618m-5.287-.659a.635.635,0,1,0-.674-.634.653.653,0,0,0,.674.634" fill="#464749"/>
  </g>
</svg>
