<svg xmlns="http://www.w3.org/2000/svg" xmlns:xlink="http://www.w3.org/1999/xlink" width="35.297" height="35.297" viewBox="0 0 35.297 35.297">
  <defs>
    <clipPath id="clip-path">
      <path id="Path_51" data-name="Path 51" d="M636.745,148.787a14.54,14.54,0,0,1,11.526-13.4,15.783,15.783,0,0,1,2.154-.286c.161-.011.182.042.18.181-.006.641,0,1.281,0,1.921a.632.632,0,1,0,1.26.006c0-.648,0-1.295,0-1.942,0-.137.034-.173.175-.165a14.538,14.538,0,0,1,13.479,11.932,15.585,15.585,0,0,1,.206,1.75c.008.135-.016.183-.161.179-.34-.01-.68,0-1.02,0-.32,0-.64,0-.96,0a.63.63,0,1,0,0,1.259c.66,0,1.32,0,1.98,0,.138,0,.173.033.165.175a14.54,14.54,0,0,1-11.335,13.361,15.423,15.423,0,0,1-2.345.326c-.16.01-.182-.042-.18-.181.006-.64,0-1.281,0-1.922a.632.632,0,1,0-1.26-.005c0,.647-.005,1.294,0,1.941,0,.136-.031.174-.174.166a14.544,14.544,0,0,1-13.465-11.833,15.676,15.676,0,0,1-.222-1.848c-.01-.159.041-.182.181-.18.64.006,1.28,0,1.921,0a.633.633,0,1,0,.006-1.261c-.647,0-1.294,0-1.941,0h-.01c-.128,0-.164-.035-.156-.174M650.6,132.61c0,.164,0,.328,0,.491h0c0,.176-.009.353,0,.529.01.147-.025.2-.186.208a12.118,12.118,0,0,0-1.792.191,15.647,15.647,0,0,0-11.621,8.761,14.856,14.856,0,0,0-1.521,5.956c-.01.19-.078.222-.242.216-.333-.01-.667-.006-1,0a.63.63,0,1,0,0,1.259c.353,0,.705.007,1.058,0,.135,0,.175.036.181.173a13.786,13.786,0,0,0,.2,1.811,15.629,15.629,0,0,0,7.49,10.932,15.2,15.2,0,0,0,7.251,2.209c.158.009.2.056.191.205-.01.339,0,.679,0,1.019a.632.632,0,1,0,1.26-.008c0-.34.007-.68,0-1.019,0-.14.028-.19.179-.2a12.939,12.939,0,0,0,1.811-.194,15.643,15.643,0,0,0,11.01-7.629,15.155,15.155,0,0,0,2.124-7.118c.009-.143.042-.191.19-.186.353.012.706.007,1.059,0a.629.629,0,1,0,0-1.258c-.359-.006-.719-.007-1.078,0-.126,0-.164-.035-.17-.163a14.59,14.59,0,0,0-.177-1.7,15.592,15.592,0,0,0-6.612-10.481,15.339,15.339,0,0,0-8.158-2.787c-.15-.008-.184-.055-.18-.2.01-.339,0-.68,0-1.02a.629.629,0,0,0-.626-.68h0a.626.626,0,0,0-.63.67" fill="none"/>
    </clipPath>
    <linearGradient id="linear-gradient" x1="16.433" y1="12.739" x2="16.461" y2="12.739" gradientUnits="objectBoundingBox">
      <stop offset="0" stop-color="#cb489d"/>
      <stop offset="0.04" stop-color="#c5449b"/>
      <stop offset="0.295" stop-color="#a63091"/>
      <stop offset="0.545" stop-color="#902289"/>
      <stop offset="0.783" stop-color="#831985"/>
      <stop offset="1" stop-color="#7f1784"/>
    </linearGradient>
  </defs>
  <g id="Group_66" data-name="Group 66" transform="translate(-633.585 -131.94)">
    <g id="Group_65" data-name="Group 65">
      <g id="Group_64" data-name="Group 64" clip-path="url(#clip-path)">
        <rect id="Rectangle_29" data-name="Rectangle 29" width="35.302" height="35.299" transform="translate(633.585 131.94)" fill="url(#linear-gradient)"/>
      </g>
    </g>
    <path id="Path_52" data-name="Path 52" d="M656.509,150.392c-1.146-.284-2.258-.558-3.369-.836-.118-.03-.162-.025-.2.1a1.715,1.715,0,0,1-1.763,1.224,1.632,1.632,0,0,1-1.613-1.356.753.753,0,0,0-.488-.674,1.252,1.252,0,0,1-.7-1.169.438.438,0,0,0-.085-.276q-.858-1.145-1.706-2.295a1.011,1.011,0,0,0-.2-.2,1.15,1.15,0,0,1-.476-1.269,1.251,1.251,0,0,1,1-.926,1.329,1.329,0,0,1,1.641,1.083.735.735,0,0,0,.154.4c.485.642.969,1.285,1.435,1.94.118.166.3.181.458.259.017.008.052-.006.075-.016s.028-.031.046-.041a.879.879,0,0,0,.47-.756,6.73,6.73,0,0,1,.135-.78.205.205,0,0,0-.1-.233,1.181,1.181,0,0,1-.221-1.8,1.409,1.409,0,0,1,1.956-.089.267.267,0,0,0,.282.047,1.363,1.363,0,0,1,1.628.855,1.2,1.2,0,0,1-.874,1.521.656.656,0,0,0-.533.492,2.3,2.3,0,0,1-.132.312c-.164.317-.314.626-.037.964a.442.442,0,0,1,.075.3c-.018.192.069.256.259.3.642.145,1.279.306,1.917.467.127.032.184.031.153-.116-.04-.191.088-.4.032-.56s-.324-.206-.463-.351a1.182,1.182,0,0,1-.139-1.5,1.4,1.4,0,0,1,1.525-.533,1.248,1.248,0,0,1,.961,1.215c-.006.149.027.211.185.266a1.383,1.383,0,0,1,.956,1.515c-.022.182.026.175.182.141.568-.124,1.14-.229,1.707-.353.152-.034.2,0,.225.138.024.168.146.366.084.492s-.328.105-.5.142c-.8.17-1.6.33-2.393.5-.44.093-.439.1-.438.512,0,.3,0,.3.324.233,1.02-.211,2.041-.416,3.059-.632.139-.03.177.012.2.122a3.081,3.081,0,0,0,.1.4c.04.12.006.152-.126.178-1.2.241-2.387.492-3.58.735a.482.482,0,0,0-.283.158c-.182.2-.363.406-.558.6a.238.238,0,0,0-.05.339,1.176,1.176,0,0,1-.459,1.6,1.423,1.423,0,0,1-1.761-.227,1.181,1.181,0,0,1-.152-1.438,1.365,1.365,0,0,1,1.415-.6.369.369,0,0,0,.438-.152,4.362,4.362,0,0,1,.332-.37m.332-1.025c-.037-.1.077-.248-.071-.327a2.031,2.031,0,0,0-.451-.172c-.925-.231-1.855-.446-2.777-.687-.264-.069-.451-.081-.633.151-.156.2-.114.4.157.468l3.416.843c.359.088.359.088.359-.276m-6.542-.094a.965.965,0,1,0,.953-.881.937.937,0,0,0-.953.881m7.7-1.6a.729.729,0,0,0-.623-.7c-.062-.01-.133-.029-.185.015a1.521,1.521,0,0,1-.553.287c-.082.025-.1.094-.12.153a.649.649,0,0,0,.191.758.775.775,0,0,0,.808.149.7.7,0,0,0,.482-.66m-8.067-.711a.772.772,0,0,0-.773.59.719.719,0,0,0,.518.793.173.173,0,0,0,.221-.049,1.54,1.54,0,0,1,.682-.49c.1-.039.112-.1.106-.188a.764.764,0,0,0-.754-.656m-1.744-2.155c-.026.019-.054.04-.08.062a1.087,1.087,0,0,1-.4.222c-.146.039-.139.086-.062.186.315.415.63.831.929,1.255.113.159.19.234.357.051a1.089,1.089,0,0,1,.319-.192c.076-.038.112-.061.049-.144-.342-.454-.678-.912-1.017-1.368-.023-.03-.04-.072-.1-.072m4.422,2.511a.762.762,0,0,0-1.027-.668c-.306.1-.358.209-.24.484.008.018.017.036.025.055.063.154.02.365.121.468s.344.09.511.167c.256.117.341.092.492-.133a.6.6,0,0,0,.118-.373m0-3.749a.577.577,0,0,0-1.15.009.577.577,0,0,0,.593.531.564.564,0,0,0,.557-.54m3.654,1.968a.534.534,0,1,0,.02,1.064.559.559,0,0,0,.562-.533.55.55,0,0,0-.582-.531m-.187,6.586a.563.563,0,0,0-.568-.53.536.536,0,1,0,.011,1.067.553.553,0,0,0,.557-.537m-8.283-8.2a.551.551,0,0,0-.577-.519.561.561,0,0,0-.574.528.585.585,0,0,0,.574.538.562.562,0,0,0,.577-.547m4.708.829a.374.374,0,0,0-.443.346c-.022.13-.046.259-.072.389-.077.387-.076.382.341.481.111.027.153,0,.189-.091.1-.233.2-.465.3-.7.063-.145-.138-.422-.312-.428m1.051-1.348c-.129-.019-.183.041-.172.18a.914.914,0,0,1-.16.582c-.08.119-.032.174.077.23a.608.608,0,0,0,.654-.06.5.5,0,0,0,.163-.589.574.574,0,0,0-.562-.343" fill="#464749"/>
    <path id="Path_53" data-name="Path 53" d="M648.773,154.608a1.27,1.27,0,0,1-.976,1.212,1.339,1.339,0,0,1-1.338-.31,1.129,1.129,0,0,1-.332-1.256.237.237,0,0,0-.077-.3.739.739,0,0,1-.14-.174.141.141,0,0,0-.158-.066q-.35.043-.7.069a.223.223,0,0,0-.22.172,1.348,1.348,0,0,1-1.466.847,1.313,1.313,0,0,1-1.148-1.1,1.254,1.254,0,0,1,.928-1.336,1.391,1.391,0,0,1,1.58.571c.064.1.119.16.259.131a4.384,4.384,0,0,1,.445-.046c.241-.022.356-.17.256-.381-.178-.373-.382-.735-.572-1.1-.059-.113-.135-.053-.212-.029a1.747,1.747,0,0,1-2.273-1.2,1.339,1.339,0,0,1,.027-.724.217.217,0,0,0-.052-.247,1.33,1.33,0,0,1,.053-1.95c.076-.076.09-.118.019-.209a1.117,1.117,0,0,1-.067-1.406,1.3,1.3,0,0,1,1.331-.574,1.254,1.254,0,0,1,1.116.934c.032.106.08.126.188.125a1.468,1.468,0,0,1,1.463.871,1.286,1.286,0,0,1-.369,1.591.137.137,0,0,0-.031.2q.7,1.33,1.4,2.664a.312.312,0,0,0,.16.147,1.487,1.487,0,0,1,.625.5.288.288,0,0,0,.171.106c.536.155,1.073.306,1.607.467.117.035.158,0,.212-.089a1.58,1.58,0,0,1,1.8-.7,1.421,1.421,0,0,1,1.089,1.5c-.011.155.037.205.185.241.261.063.518.141.774.221a1.05,1.05,0,0,1,.768,1.364,1.178,1.178,0,0,1-1.5.669c-.264-.078-.532-.146-.794-.231a.255.255,0,0,0-.282.057,1.569,1.569,0,0,1-2.578-.749c-.021-.085-.042-.153-.156-.182-.335-.087-.665-.189-1.017-.29m-1.9-2.987c-.4-.769-.812-1.527-1.2-2.294a.365.365,0,0,0-.418-.229c-.263.021-.433.252-.318.467l.066.124q.553,1.055,1.112,2.107c.027.051.028.193.163.1a2.106,2.106,0,0,1,.594-.273m4.586,3.891a.736.736,0,0,0,.765-.718.753.753,0,0,0-.77-.7.761.761,0,0,0-.767.727.741.741,0,0,0,.772.693m-8.471-7.134a.746.746,0,0,0,.742.724.762.762,0,0,0,.792-.723.753.753,0,0,0-.748-.7.739.739,0,0,0-.786.7m3.463,4.641a.7.7,0,0,0,.139.407.176.176,0,0,0,.26.071,1.272,1.272,0,0,1,.851-.086.167.167,0,0,0,.225-.113.662.662,0,0,0-.157-.767.808.808,0,0,0-.825-.171.737.737,0,0,0-.493.659m-1.18-6.054a.433.433,0,0,0-.311.086c-.082.074-.287.154-.144.3a1.509,1.509,0,0,1,.474.925c.01.1.044.121.146.1a.743.743,0,0,0,.624-.764.764.764,0,0,0-.789-.646m5.092,6.794c-.045-.1-.027-.2-.161-.234-.436-.118-.868-.249-1.3-.38-.112-.034-.147,0-.163.1a1.044,1.044,0,0,1-.142.411c-.067.1-.035.144.082.176.368.1.731.215,1.1.315.089.024.2.111.275.035a3.642,3.642,0,0,0,.309-.422m2.244-.37a.746.746,0,0,0-.718-.722.789.789,0,0,0-.813.617c-.016.108.012.139.135.117a1.556,1.556,0,0,1,1.094.216c.212.125.254.108.3-.129a.694.694,0,0,0,.007-.1m-8.92-3.579v.005a.458.458,0,0,1-.106-.007c-.2-.063-.21.04-.21.18a.948.948,0,0,0,1.21.863c.128-.032.147-.072.087-.176-.122-.215-.246-.43-.349-.654-.08-.172-.162-.295-.4-.215a.754.754,0,0,1-.233,0M653,154.831c-.088.213.053.282.259.326s.391.112.588.165a.387.387,0,0,0,.514-.215c.072-.206-.042-.387-.3-.462-.29-.086-.58-.168-.871-.251-.267-.076-.265-.076-.22.169.015.083.018.169.028.268m-8.68-8.412a.546.546,0,0,0-.569-.522.56.56,0,0,0-.578.54.567.567,0,0,0,.575.526.559.559,0,0,0,.572-.544m3.665,8.221a.577.577,0,0,0-1.151-.024.556.556,0,0,0,.573.543.563.563,0,0,0,.578-.519m-4.437-.553a.533.533,0,1,0,.007-1.062.561.561,0,0,0-.572.53.547.547,0,0,0,.565.532" fill="#464749"/>
  </g>
</svg>
