<svg xmlns="http://www.w3.org/2000/svg" width="22.241" height="24.143" viewBox="0 0 22.241 24.143">
  <g id="Group_110" data-name="Group 110" transform="translate(-437.982 -385.119)">
    <path id="Path_105" data-name="Path 105" d="M449.439,395.812c1.266,3.118,2.719,6.114,3.1,9.449a3.8,3.8,0,0,1-.6,2.377,3.1,3.1,0,0,1-3.3,1.551,3.852,3.852,0,0,1-2.6-3.509,5.953,5.953,0,0,1,.219-2.036,59.193,59.193,0,0,1,3.19-7.832" fill="#93358d"/>
    <path id="Path_106" data-name="Path 106" d="M457.105,388.641c1.266,3.118,2.719,6.114,3.1,9.449a3.8,3.8,0,0,1-.6,2.377,3.1,3.1,0,0,1-3.3,1.551,3.852,3.852,0,0,1-2.6-3.509,5.953,5.953,0,0,1,.219-2.036,59.192,59.192,0,0,1,3.19-7.832" fill="#a25eb5"/>
    <path id="Path_107" data-name="Path 107" d="M441.784,386.1c1.266,3.118,2.719,6.114,3.1,9.449a3.8,3.8,0,0,1-.6,2.377,3.1,3.1,0,0,1-3.3,1.551,3.852,3.852,0,0,1-2.6-3.509,5.953,5.953,0,0,1,.219-2.036A59.193,59.193,0,0,1,441.784,386.1Z" fill="none" stroke="#464749" stroke-miterlimit="10" stroke-width="0.757"/>
  </g>
</svg>
