<svg xmlns="http://www.w3.org/2000/svg" width="34.678" height="28.054" viewBox="0 0 34.678 28.054">
  <g id="Group_213" data-name="Group 213" transform="translate(-460.536 -185.425)">
    <path id="Path_85" data-name="Path 85" d="M487.43,198.716a6.454,6.454,0,0,1,1.072-3.8,3.852,3.852,0,0,1,1.488-1.34,2.735,2.735,0,0,1,3.39.74c.046.056.087.118.138.17s.085.192.177.184c.111-.011.116-.144.145-.232a4.912,4.912,0,0,0,.072-2.836,3.2,3.2,0,0,0-1.8-1.98,11.114,11.114,0,0,0-3.755-1.075c-.458-.064-.92-.118-1.381-.144a6.828,6.828,0,0,0-2.375.362c-1.255.382-2.44.944-3.652,1.438a13.725,13.725,0,0,1-1.732.585,5.815,5.815,0,0,1-3.4-.21c-1.064-.363-2.079-.844-3.121-1.26a11.967,11.967,0,0,0-3.181-.9,7.739,7.739,0,0,0-1.7.075,12.809,12.809,0,0,0-3.774.932,4.711,4.711,0,0,0-1.543,1.047,2.887,2.887,0,0,0-.771,1.8,5.042,5.042,0,0,0,.22,2.236c.081.221.111.224.253.034a2.838,2.838,0,0,1,2.378-1.268,2.917,2.917,0,0,1,1.958.822,5.508,5.508,0,0,1,1.713,3.394,6.035,6.035,0,0,1-.608,3.974,3.138,3.138,0,0,1-1.6,1.473,2.743,2.743,0,0,1-2.931-.554,5.533,5.533,0,0,1-1.819-3.645,6.3,6.3,0,0,1,.161-2.61.325.325,0,0,0-.055-.32,4.006,4.006,0,0,1-.827-2.28,6.924,6.924,0,0,1,.094-1.943,3.912,3.912,0,0,1,1.513-2.373,8.652,8.652,0,0,1,3.436-1.505,19.114,19.114,0,0,1,4.447-.5,9.3,9.3,0,0,0,3.19-.624c.78-.282,1.563-.554,2.354-.8a7.609,7.609,0,0,1,4.863.094c.708.24,1.416.481,2.119.736a11.464,11.464,0,0,0,3.732.616,15.042,15.042,0,0,1,5.916,1.175,4.98,4.98,0,0,1,2.517,2.173,4.131,4.131,0,0,1,.439,1.662,5.5,5.5,0,0,1-.493,3.087.682.682,0,0,1-.1.169,1.025,1.025,0,0,0-.2,1.043,6.409,6.409,0,0,1-1.091,5.164,3.265,3.265,0,0,1-2.009,1.373,2.787,2.787,0,0,1-2.883-1.163,5.293,5.293,0,0,1-.984-3.192m-20.242-.142a3.644,3.644,0,0,0-.051-.753,4.7,4.7,0,0,0-1.351-2.851,1.66,1.66,0,0,0-2.293-.153,2.36,2.36,0,0,0-.6.761,4.99,4.99,0,0,0-.4,3.414,4.4,4.4,0,0,0,1.265,2.423,1.7,1.7,0,0,0,1.618.53,1.818,1.818,0,0,0,1.063-.768,4.46,4.46,0,0,0,.751-2.6m21.383-.3a4.779,4.779,0,0,0,.77,2.93,1.628,1.628,0,0,0,2.467.374,2.777,2.777,0,0,0,.552-.547,5.268,5.268,0,0,0,1.016-3.6,3.952,3.952,0,0,0-.831-2.326,1.612,1.612,0,0,0-1.415-.669,2.048,2.048,0,0,0-1.483.881,4.988,4.988,0,0,0-1.076,2.96m-15.945-10.283c1.189.51,2.333,1.059,3.527,1.486a4.96,4.96,0,0,0,3.483-.011c.849-.309,1.675-.67,2.508-1.018.34-.141.681-.278,1.082-.441-1.3-.367-2.477-.89-3.721-1.217a6.294,6.294,0,0,0-3.3.012c-.826.224-1.625.525-2.43.807-.381.133-.766.255-1.149.382" fill="#464749"/>
    <path id="Path_86" data-name="Path 86" d="M483.564,213.479a6.009,6.009,0,1,1,6.028-5.909,5.978,5.978,0,0,1-6.028,5.909m4.859-6a4.854,4.854,0,1,0-9.708-.016,4.854,4.854,0,1,0,9.708.016" fill="#464749"/>
    <path id="Path_87" data-name="Path 87" d="M473.794,202.282a22.73,22.73,0,0,0-.033,2.674,33.443,33.443,0,0,0,.777,4.365,6.912,6.912,0,0,1,.07,1.554.579.579,0,0,1-.58.546.532.532,0,0,1-.542-.518,10.691,10.691,0,0,0-.443-3.055,19.411,19.411,0,0,1-.433-5.3c.009-.245.014-.489.04-.731a3.225,3.225,0,0,0-.587-2.118c-.6-.939-1.243-1.849-1.767-2.834a12.312,12.312,0,0,1-1.458-5.166c-.023-.414-.041-.827-.032-1.243a1.832,1.832,0,0,1,.038-.338.549.549,0,0,1,.555-.454.583.583,0,0,1,.555.462,1.138,1.138,0,0,1,.019.291,11.651,11.651,0,0,0,2.131,7.239q2,2.947,4,5.893a1.259,1.259,0,0,1,.229.751c-.006,2.123,0,4.244,0,6.366,0,.492-.2.755-.563.759s-.574-.261-.574-.769c0-1.992,0-3.985,0-5.977a1.193,1.193,0,0,0-.223-.747c-.357-.5-.689-1.008-1.033-1.511-.034-.049-.051-.121-.144-.136" fill="#464749"/>
    <path id="Path_88" data-name="Path 88" d="M481.43,200.663q.48-.673.961-1.345a24.057,24.057,0,0,0,2.2-3.512,10.885,10.885,0,0,0,1.057-4.032c.034-.487.034-.974.035-1.461a.575.575,0,0,1,.567-.653c.326-.01.553.244.569.628a12.561,12.561,0,0,1-1.272,6.193,25.059,25.059,0,0,1-1.587,2.629,11.607,11.607,0,0,0-.667,1.107c-.049.1-.1.187-.226.2a8.968,8.968,0,0,0-1.6.3l-.034-.053" fill="#464749"/>
    <path id="Path_89" data-name="Path 89" d="M482.7,204.3v-.2h1.8v.2l-.476,4.472h-.849Zm.08,5.261h1.639v1.619h-1.639Z" fill="#93358d"/>
  </g>
</svg>
