<svg xmlns="http://www.w3.org/2000/svg" xmlns:xlink="http://www.w3.org/1999/xlink" width="44.193" height="44.194" viewBox="0 0 44.193 44.194">
  <defs>
    <clipPath id="clip-path">
      <path id="Path_19" data-name="Path 19" d="M944.353,92.556a18.208,18.208,0,0,1,14.433-16.781,19.717,19.717,0,0,1,2.7-.358c.2-.013.228.054.225.226-.007.8,0,1.6,0,2.407a.792.792,0,1,0,1.577,0c0-.81.007-1.62,0-2.429,0-.174.044-.218.22-.208a18.2,18.2,0,0,1,16.875,14.94,18.716,18.716,0,0,1,.258,2.191c.012.169-.02.23-.2.224-.425-.013-.85,0-1.276,0-.4,0-.8,0-1.2,0a.789.789,0,1,0,0,1.578c.825,0,1.651,0,2.479,0,.173,0,.217.041.2.217a18.2,18.2,0,0,1-14.19,16.729,19.222,19.222,0,0,1-2.937.41c-.2.011-.227-.053-.226-.227.009-.8.005-1.6,0-2.406a.792.792,0,1,0-1.577-.007c0,.809-.005,1.619,0,2.429,0,.172-.039.218-.219.209a18.212,18.212,0,0,1-16.858-14.817,19.962,19.962,0,0,1-.279-2.312c-.012-.2.053-.228.227-.225.8.007,1.6,0,2.406,0a.792.792,0,1,0,.008-1.578c-.81,0-1.62,0-2.431,0h-.007c-.164,0-.21-.04-.2-.217M961.706,72.3c0,.205,0,.409,0,.615h0c0,.22-.011.442,0,.662.013.181-.031.25-.233.259a15.488,15.488,0,0,0-2.243.239,19.586,19.586,0,0,0-14.551,10.971,18.531,18.531,0,0,0-1.9,7.457c-.012.238-.1.277-.3.27-.417-.013-.835-.007-1.252-.005a.79.79,0,1,0,0,1.578c.441,0,.883.009,1.325,0,.169-.005.219.047.227.217a16.9,16.9,0,0,0,.244,2.267,19.571,19.571,0,0,0,9.378,13.689,19.041,19.041,0,0,0,9.078,2.765c.2.011.246.071.239.256-.013.426-.005.852,0,1.278a.79.79,0,1,0,1.577-.012c0-.424.01-.85,0-1.277-.005-.173.035-.236.224-.244a16.234,16.234,0,0,0,2.266-.244,19.576,19.576,0,0,0,13.785-9.551,18.989,18.989,0,0,0,2.661-8.915c.01-.177.051-.236.238-.23.442.015.884.008,1.325,0a.788.788,0,1,0,0-1.576c-.449-.007-.9-.009-1.349,0-.158,0-.206-.043-.213-.205A18.423,18.423,0,0,0,982,90.447a19.517,19.517,0,0,0-8.279-13.122,19.2,19.2,0,0,0-10.214-3.491c-.188-.01-.23-.067-.225-.243.012-.425.005-.851,0-1.277a.785.785,0,0,0-.782-.852H962.5a.785.785,0,0,0-.79.84" fill="none"/>
    </clipPath>
    <linearGradient id="linear-gradient" x1="12.989" y1="11.542" x2="13.017" y2="11.542" gradientUnits="objectBoundingBox">
      <stop offset="0" stop-color="#cb489d"/>
      <stop offset="0.04" stop-color="#c5449b"/>
      <stop offset="0.295" stop-color="#a63091"/>
      <stop offset="0.545" stop-color="#902289"/>
      <stop offset="0.783" stop-color="#831985"/>
      <stop offset="1" stop-color="#7f1784"/>
    </linearGradient>
  </defs>
  <g id="Group_29" data-name="Group 29" transform="translate(-940.398 -71.462)">
    <g id="Group_28" data-name="Group 28">
      <g id="Group_27" data-name="Group 27" clip-path="url(#clip-path)">
        <rect id="Rectangle_13" data-name="Rectangle 13" width="44.202" height="44.195" transform="translate(940.397 71.462)" fill="url(#linear-gradient)"/>
      </g>
    </g>
    <path id="Path_20" data-name="Path 20" d="M958.619,92.3c-.26.136-.5.269-.751.392a5.1,5.1,0,0,1-2.214.554c-.129,0-.107.064-.094.142a1.788,1.788,0,0,1-.25,1.362,1.984,1.984,0,0,1-.893.692,4,4,0,0,0-.814.422,1.034,1.034,0,0,0-.272.276.435.435,0,0,0-.057.429.378.378,0,1,1-.717.233,1.192,1.192,0,0,1,.2-1.153,2.64,2.64,0,0,1,1.121-.808c.088-.037.179-.07.267-.11a1.071,1.071,0,0,0,.643-1.433.471.471,0,0,0-.238-.28,1.3,1.3,0,0,0-1.283,0,3.072,3.072,0,0,0-1.6,1.531c-.116.215-.2.444-.3.666a6.269,6.269,0,0,1-1.405,2.1,1.9,1.9,0,0,1-.813.46.715.715,0,0,1-.4.018.379.379,0,0,1-.273-.355.336.336,0,0,1,.272-.348,1.605,1.605,0,0,0,1.043-.666,5.135,5.135,0,0,0,.864-1.47,5.886,5.886,0,0,1,.9-1.593,3.485,3.485,0,0,1,1.578-1.1,2.457,2.457,0,0,1,.3-.08c.081-.018.079-.055.047-.116a.327.327,0,0,0-.183-.144,1.918,1.918,0,0,0-2.184.537,4.955,4.955,0,0,0-.382.517,3.771,3.771,0,0,1-.952.995,2.1,2.1,0,0,1-1.062.392,1.112,1.112,0,0,1-.494-.071.371.371,0,0,1-.237-.456.361.361,0,0,1,.443-.249,1.006,1.006,0,0,0,.813-.165,3.457,3.457,0,0,0,.938-.975,3.827,3.827,0,0,1,.776-.87,2.549,2.549,0,0,1,2.076-.5c.089.015.113,0,.1-.09a5.65,5.65,0,0,1,.357-2.606c.023-.064.086-.15.042-.2s-.139.009-.208.03a1.285,1.285,0,0,0-.742.605.409.409,0,0,1-.386.238.363.363,0,0,1-.3-.53,1.957,1.957,0,0,1,1.356-1.069,1.857,1.857,0,0,1,.525-.049.127.127,0,0,0,.142-.089,8.306,8.306,0,0,1,.564-1.053c.056-.091.03-.11-.062-.115a1.457,1.457,0,0,0-.791.16l-.111.059a.366.366,0,1,1-.379-.627A2.062,2.062,0,0,1,954.5,85.4c.141.015.283.04.423.061.047.006.089.012.123-.036a11.612,11.612,0,0,1,1.086-1.37.975.975,0,0,0-.716.109c-.035.022-.066.052-.1.077a.362.362,0,0,1-.492-.025.374.374,0,0,1-.014-.514,1.326,1.326,0,0,1,.8-.408,2.481,2.481,0,0,1,1.046.08.152.152,0,0,0,.168-.038,11.817,11.817,0,0,1,1.335-1.132c.09-.066.076-.091-.01-.141a1.334,1.334,0,0,0-.953-.189.344.344,0,0,1-.391-.278.355.355,0,0,1,.227-.445,1.563,1.563,0,0,1,1.013.037,2.741,2.741,0,0,1,.816.439.124.124,0,0,0,.167.006,6.386,6.386,0,0,1,1.4-.654c.1-.033.114-.061.05-.149a1.528,1.528,0,0,0-.945-.679.361.361,0,0,1-.308-.442.374.374,0,0,1,.476-.275,2.038,2.038,0,0,1,1.441,1.08.337.337,0,0,0,.414.194,2.683,2.683,0,0,1,1.847.317,2.313,2.313,0,0,1,1.042,1.5,3.266,3.266,0,0,1,.1.9.148.148,0,0,0,.128.176,2.239,2.239,0,0,1,1.473,1.185,1.41,1.41,0,0,1,.088.222.357.357,0,0,1-.215.442.367.367,0,0,1-.483-.2,1.544,1.544,0,0,0-.944-.9c-.1-.045-.129-.012-.144.081a7.191,7.191,0,0,1-.419,1.46c-.029.075.005.108.05.149a3.649,3.649,0,0,1,.566.656,1.773,1.773,0,0,1,.328,1.052.381.381,0,0,1-.383.4.367.367,0,0,1-.371-.392,1.429,1.429,0,0,0-.471-1.009c-.051-.056-.074-.037-.1.025a9.178,9.178,0,0,1-.891,1.531c-.045.057-.026.1,0,.161a2.861,2.861,0,0,1,.317,1.08,1.4,1.4,0,0,1-.217.864.368.368,0,0,1-.367.2.372.372,0,0,1-.318-.268.335.335,0,0,1,.049-.3,1.028,1.028,0,0,0,.025-.888c-.017-.057-.05-.084-.1-.012a9.8,9.8,0,0,1-1.126,1.256c-.064.061-.037.105-.009.162a2.277,2.277,0,0,1,.1,1.856.367.367,0,0,1-.467.27.373.373,0,0,1-.24-.494,1.848,1.848,0,0,0,.116-.54,2.022,2.022,0,0,0-.078-.546c-.024-.082-.054-.094-.119-.036a10.034,10.034,0,0,1-.978.771c-.059.04-.038.084-.027.133a2,2,0,0,1-.087,1.307,2.194,2.194,0,0,1-.619.83.371.371,0,0,1-.6-.109.351.351,0,0,1,.1-.433,1.9,1.9,0,0,0,.388-.459,1.365,1.365,0,0,0,.125-.8m-4.756-1.7c.006.089.008.228.027.364a1.611,1.611,0,0,0,1.1,1.447,2.348,2.348,0,0,0,1.047.073,5.374,5.374,0,0,0,1.845-.631,10.3,10.3,0,0,0,2.2-1.6,12.573,12.573,0,0,0,2.25-2.667,10.264,10.264,0,0,0,1.223-2.61,4.8,4.8,0,0,0,.211-2.05,1.646,1.646,0,0,0-1.718-1.5,4.31,4.31,0,0,0-1.528.325,9.262,9.262,0,0,0-3,1.97,12.866,12.866,0,0,0-3.085,4.325,6.137,6.137,0,0,0-.572,2.557m9.122-6.323a1.236,1.236,0,0,1-1.228,1.213,1.249,1.249,0,0,1-1.218-1.212,1.223,1.223,0,1,1,2.446,0m-1.694-.027a.469.469,0,0,0,.937.015.483.483,0,0,0-.477-.483.468.468,0,0,0-.46.468m-3.672.841a1.223,1.223,0,0,1,1.221-1.214,1.24,1.24,0,0,1,1.219,1.261,1.22,1.22,0,0,1-2.44-.047m.755.025a.465.465,0,1,0,.93-.009.447.447,0,0,0-.452-.468.471.471,0,0,0-.478.477M959,89.9a1.215,1.215,0,0,1-1.216-1.266,1.227,1.227,0,0,1,2.453.07A1.267,1.267,0,0,1,959,89.9m0-.753a.47.47,0,0,0,.026-.939.47.47,0,1,0-.026.939m-3.3,2.086a1.222,1.222,0,1,1,0-2.443,1.229,1.229,0,0,1,1.213,1.223,1.209,1.209,0,0,1-1.21,1.22m0-1.694a.471.471,0,0,0-.481.476.47.47,0,1,0,.94-.024.454.454,0,0,0-.459-.452m5.047-3.716a.4.4,0,0,0-.029.8.445.445,0,0,0,.433-.395.423.423,0,0,0-.4-.4m-3.035,4.336a.4.4,0,1,0,.392.4.406.406,0,0,0-.392-.4m2.716-7.218a.42.42,0,0,0-.391-.414.4.4,0,0,0-.016.8.413.413,0,0,0,.407-.383m.9,4.67a.407.407,0,0,0-.4-.392.4.4,0,0,0-.4.384.423.423,0,0,0,.4.4.4.4,0,0,0,.393-.4m-4.625-.827a.413.413,0,0,0-.412.378.423.423,0,0,0,.4.412.4.4,0,0,0,.014-.79" fill="#464749"/>
    <path id="Path_21" data-name="Path 21" d="M972.732,101.339c-1.13-.279-2.225-.55-3.32-.824-.116-.029-.16-.024-.2.1a1.688,1.688,0,0,1-1.737,1.207,1.608,1.608,0,0,1-1.59-1.336.744.744,0,0,0-.481-.665,1.23,1.23,0,0,1-.691-1.152.436.436,0,0,0-.085-.271q-.846-1.128-1.68-2.262a1.042,1.042,0,0,0-.2-.2,1.135,1.135,0,0,1-.469-1.251,1.233,1.233,0,0,1,.99-.911,1.308,1.308,0,0,1,1.616,1.065.72.72,0,0,0,.153.392c.477.634.954,1.267,1.413,1.912.117.164.3.178.451.255.018.009.053-.006.075-.016s.028-.03.045-.04a.867.867,0,0,0,.463-.745,6.577,6.577,0,0,1,.133-.769.2.2,0,0,0-.1-.229,1.165,1.165,0,0,1-.218-1.777,1.389,1.389,0,0,1,1.927-.087.264.264,0,0,0,.278.046,1.343,1.343,0,0,1,1.6.843,1.177,1.177,0,0,1-.862,1.5.647.647,0,0,0-.525.484,2.194,2.194,0,0,1-.13.308c-.162.313-.308.617-.037.95a.445.445,0,0,1,.076.3c-.019.189.066.252.254.295.633.141,1.261.3,1.889.459.125.031.182.031.15-.114-.039-.189.088-.4.032-.552s-.318-.2-.456-.346a1.164,1.164,0,0,1-.137-1.482,1.386,1.386,0,0,1,1.5-.525,1.227,1.227,0,0,1,.946,1.2c-.006.148.028.208.183.263a1.361,1.361,0,0,1,.942,1.493c-.022.179.026.173.18.139.56-.122,1.123-.226,1.682-.348.15-.033.2,0,.221.136.025.165.144.361.083.485s-.323.1-.5.14c-.785.168-1.573.325-2.359.491-.433.092-.432.1-.432.5,0,.3,0,.3.321.231,1-.208,2.011-.41,3.013-.623.138-.03.176.012.2.121a2.882,2.882,0,0,0,.1.4c.039.117.006.149-.125.175-1.177.237-2.352.485-3.529.724a.489.489,0,0,0-.278.155c-.179.2-.358.4-.549.59a.233.233,0,0,0-.049.334,1.161,1.161,0,0,1-.453,1.578,1.4,1.4,0,0,1-1.736-.225,1.163,1.163,0,0,1-.149-1.417,1.342,1.342,0,0,1,1.394-.588.365.365,0,0,0,.432-.149,4.225,4.225,0,0,1,.327-.366m.328-1.009c-.037-.1.075-.245-.07-.323a1.974,1.974,0,0,0-.445-.169c-.911-.228-1.828-.44-2.737-.678-.26-.068-.444-.08-.623.15-.154.2-.113.394.155.46l3.365.832c.355.086.355.086.355-.272m-6.447-.093a.95.95,0,1,0,.939-.869.924.924,0,0,0-.939.869m7.584-1.575a.722.722,0,0,0-.615-.691c-.062-.01-.13-.029-.183.015a1.493,1.493,0,0,1-.545.283c-.08.025-.094.091-.117.15a.637.637,0,0,0,.187.747.762.762,0,0,0,.8.147.7.7,0,0,0,.476-.651m-7.951-.7a.765.765,0,0,0-.763.582.712.712,0,0,0,.511.782.171.171,0,0,0,.218-.049,1.517,1.517,0,0,1,.671-.483.151.151,0,0,0,.1-.186.752.752,0,0,0-.742-.646m-1.719-2.123c-.025.019-.053.039-.079.06a1.086,1.086,0,0,1-.394.219c-.143.039-.137.084-.062.184.311.408.621.818.917,1.236.11.158.186.23.352.051a1.058,1.058,0,0,1,.314-.19c.074-.038.11-.059.047-.142-.336-.447-.667-.9-1-1.347-.023-.031-.039-.071-.094-.071m4.358,2.474a.752.752,0,0,0-1.013-.659c-.3.1-.351.207-.236.477.007.019.017.037.025.054.062.153.02.361.12.462s.338.089.5.165c.252.116.336.091.484-.132a.591.591,0,0,0,.117-.367m0-3.7a.568.568,0,0,0-1.133.01.566.566,0,0,0,.585.522.556.556,0,0,0,.548-.532m3.6,1.939a.527.527,0,1,0,.019,1.05.551.551,0,0,0,.554-.526.543.543,0,0,0-.573-.524m-.184,6.491a.556.556,0,0,0-.561-.522.529.529,0,1,0,.011,1.052.545.545,0,0,0,.55-.53m-8.164-8.083a.542.542,0,0,0-.568-.512.553.553,0,0,0-.566.521.577.577,0,0,0,.566.529.553.553,0,0,0,.568-.538m4.641.816a.369.369,0,0,0-.437.341c-.022.127-.047.255-.072.383-.075.382-.074.377.337.474.109.027.15,0,.187-.088.094-.231.194-.459.293-.688.061-.144-.138-.416-.308-.422m1.035-1.328c-.128-.019-.18.04-.169.178a.9.9,0,0,1-.159.573c-.078.118-.03.172.076.227a.6.6,0,0,0,.645-.061.49.49,0,0,0,.16-.579.563.563,0,0,0-.553-.338" fill="#464749"/>
    <path id="Path_22" data-name="Path 22" d="M965.108,105.494a1.253,1.253,0,0,1-.963,1.195,1.32,1.32,0,0,1-1.318-.306,1.112,1.112,0,0,1-.327-1.238.233.233,0,0,0-.075-.3.76.76,0,0,1-.139-.171.138.138,0,0,0-.156-.066c-.229.029-.459.053-.689.068a.219.219,0,0,0-.217.17,1.329,1.329,0,0,1-1.445.834,1.292,1.292,0,0,1-1.131-1.078,1.234,1.234,0,0,1,.914-1.317,1.371,1.371,0,0,1,1.557.563c.064.1.117.156.255.129a3.79,3.79,0,0,1,.44-.045c.238-.021.35-.168.251-.376-.175-.368-.377-.725-.563-1.088-.058-.111-.133-.052-.209-.029a1.721,1.721,0,0,1-2.24-1.185,1.333,1.333,0,0,1,.026-.714.215.215,0,0,0-.051-.244,1.308,1.308,0,0,1,.052-1.921c.076-.075.088-.116.019-.206a1.1,1.1,0,0,1-.066-1.386,1.28,1.28,0,0,1,1.312-.565,1.235,1.235,0,0,1,1.1.92c.032.105.079.124.186.124a1.446,1.446,0,0,1,1.442.858,1.266,1.266,0,0,1-.364,1.567.135.135,0,0,0-.03.2q.693,1.311,1.379,2.625a.308.308,0,0,0,.158.145,1.445,1.445,0,0,1,.615.49.29.29,0,0,0,.169.1c.528.153,1.058.3,1.584.461.115.034.155,0,.209-.087a1.557,1.557,0,0,1,1.773-.688,1.4,1.4,0,0,1,1.073,1.475c-.01.152.036.2.183.237.256.062.51.139.762.218a1.036,1.036,0,0,1,.758,1.344,1.163,1.163,0,0,1-1.477.659c-.26-.076-.524-.144-.782-.228a.254.254,0,0,0-.278.056,1.547,1.547,0,0,1-2.541-.737c-.021-.084-.041-.152-.154-.18-.329-.085-.654-.186-1-.286m-1.875-2.943c-.4-.758-.8-1.505-1.181-2.262a.362.362,0,0,0-.412-.225c-.26.021-.427.248-.313.461l.063.121c.365.693.728,1.386,1.1,2.077.027.05.028.191.161.1a2.055,2.055,0,0,1,.585-.269m4.519,3.835a.727.727,0,0,0,.754-.709.759.759,0,0,0-1.514.025.732.732,0,0,0,.76.684m-8.347-7.032a.735.735,0,0,0,.731.714.75.75,0,0,0,.78-.713.741.741,0,0,0-.738-.688.725.725,0,0,0-.773.687m3.413,4.574a.677.677,0,0,0,.136.4.175.175,0,0,0,.257.07,1.245,1.245,0,0,1,.838-.085.165.165,0,0,0,.222-.112.652.652,0,0,0-.155-.756.794.794,0,0,0-.812-.168.723.723,0,0,0-.486.649m-1.163-5.966a.428.428,0,0,0-.307.085c-.082.073-.283.151-.143.293a1.486,1.486,0,0,1,.468.911c.01.1.043.119.144.1a.733.733,0,0,0,.615-.753.754.754,0,0,0-.777-.637m5.017,6.7c-.043-.1-.027-.195-.158-.231-.43-.117-.855-.245-1.281-.375-.11-.033-.144,0-.16.1a1.053,1.053,0,0,1-.14.4c-.066.1-.034.142.081.174.362.1.721.211,1.083.309.088.025.2.111.272.035a3.541,3.541,0,0,0,.3-.415m2.212-.365a.736.736,0,0,0-.707-.712.778.778,0,0,0-.8.609c-.016.106.012.136.133.115a1.528,1.528,0,0,1,1.078.213c.209.122.25.106.291-.128a.661.661,0,0,0,.007-.1m-8.791-3.528v0a.407.407,0,0,1-.105-.006c-.191-.063-.206.039-.206.176a.935.935,0,0,0,1.193.852c.125-.031.144-.072.086-.174-.121-.212-.244-.423-.345-.644-.079-.17-.159-.291-.392-.211a.809.809,0,0,1-.231,0m9.182,4.95c-.088.21.051.278.254.32s.385.11.58.163a.381.381,0,0,0,.507-.212c.071-.2-.042-.382-.3-.455q-.427-.126-.857-.247c-.264-.075-.262-.075-.218.165.015.083.019.168.029.266m-8.556-8.292a.538.538,0,0,0-.561-.514.552.552,0,0,0-.568.533.558.558,0,0,0,.567.517.547.547,0,0,0,.562-.536m3.613,8.1a.569.569,0,0,0-1.134-.023.548.548,0,0,0,.564.535.556.556,0,0,0,.57-.512m-4.373-.545a.525.525,0,1,0-.557-.525.54.54,0,0,0,.557.525" fill="#464749"/>
  </g>
</svg>
