<svg xmlns="http://www.w3.org/2000/svg" width="56.333" height="56.333" viewBox="0 0 56.333 56.333">
  <g id="Group_70" data-name="Group 70" transform="translate(-741.284 -358.526)">
    <path id="Path_56" data-name="Path 56" d="M792.113,386.692a22.663,22.663,0,1,1-22.663-22.663,22.664,22.664,0,0,1,22.663,22.663" fill="#fff"/>
    <circle id="Ellipse_3" data-name="Ellipse 3" cx="22.663" cy="22.663" r="22.663" transform="translate(742.186 403.542) rotate(-76.717)" fill="none" stroke="#d368a5" stroke-miterlimit="10" stroke-width="1.5"/>
    <path id="Path_57" data-name="Path 57" d="M760.768,386.138a8.137,8.137,0,1,1,8.053,8.172A8.146,8.146,0,0,1,760.768,386.138Z" fill="none" stroke="#464749" stroke-miterlimit="10" stroke-width="1.075"/>
    <path id="Path_58" data-name="Path 58" d="M769.981,379.7a2.122,2.122,0,0,0-2.14,2.173,2.135,2.135,0,1,0,2.14-2.173" fill="#d368a5"/>
    <path id="Path_59" data-name="Path 59" d="M768.793,385.2a1.555,1.555,0,1,0,1.542,1.564,1.546,1.546,0,0,0-1.542-1.564" fill="#d368a5"/>
    <path id="Path_60" data-name="Path 60" d="M772.115,387.345a1.556,1.556,0,0,0,1.553,1.557,1.56,1.56,0,0,0,.012-3.119,1.54,1.54,0,0,0-1.565,1.562" fill="#d368a5"/>
    <path id="Path_61" data-name="Path 61" d="M767.844,392.656a1.558,1.558,0,1,0-1.566-1.542,1.561,1.561,0,0,0,1.566,1.542" fill="#d368a5"/>
    <path id="Path_62" data-name="Path 62" d="M764.1,387.9a1.559,1.559,0,0,0,1.592-1.564,1.579,1.579,0,0,0-1.572-1.547,1.555,1.555,0,0,0-1.545,1.562A1.534,1.534,0,0,0,764.1,387.9" fill="#d368a5"/>
    <path id="Path_63" data-name="Path 63" d="M765.289,374.954a.87.87,0,0,0,.4-.1c.4-.189.8-.376,1.19-.581a10.76,10.76,0,0,0,1.427-.859.628.628,0,0,0,.246-.725.661.661,0,0,0-.592-.491.842.842,0,0,0-.551.186,16,16,0,0,1-1.644.94c-.252.125-.513.234-.761.366a.654.654,0,0,0-.338.791.668.668,0,0,0,.626.477m-5.641,1.663a1.159,1.159,0,0,0,.378-.078,10.021,10.021,0,0,1,1.342-.36c.446-.094.893-.187,1.333-.3a.667.667,0,0,0,.477-.777.688.688,0,0,0-.811-.523c-.654.139-1.309.28-1.96.427a5.492,5.492,0,0,0-1.042.331.656.656,0,0,0-.378.793.664.664,0,0,0,.661.49m-1.882.821a.67.67,0,0,0-.367-.611.613.613,0,0,0-.725.071,8.68,8.68,0,0,0-2.086,2.453.643.643,0,0,0,.246.891.654.654,0,0,0,.9-.213,9.439,9.439,0,0,1,1.784-2.094.632.632,0,0,0,.245-.5m-2.985,5.03a.68.68,0,0,0-.037-.281.691.691,0,0,0-.7-.448.672.672,0,0,0-.6.542,8.756,8.756,0,0,0-.2,1.949,6.016,6.016,0,0,0,.105,1.271.661.661,0,0,0,.768.522c.37-.042.535-.245.535-.66,0-.083-.005-.167-.009-.251a10.074,10.074,0,0,1,0-1.754c.04-.309.094-.616.137-.89M768.6,401.253c.207,0,.489.01.771,0a.673.673,0,0,0,.642-.673.653.653,0,0,0-.634-.674,23.259,23.259,0,0,1-2.664-.161.685.685,0,0,0-.769.613.716.716,0,0,0,.625.722,18.706,18.706,0,0,0,2.029.175m8.5-2.183a.553.553,0,0,0,.347-.1,15.752,15.752,0,0,0,2.309-1.591.66.66,0,0,0-.068-1.087.674.674,0,0,0-.827.079,17.681,17.681,0,0,1-1.976,1.351,1.6,1.6,0,0,0-.258.187.657.657,0,0,0-.168.732.666.666,0,0,0,.641.426M763.934,400.5a.774.774,0,0,0,.329-.057.659.659,0,0,0,.4-.639.648.648,0,0,0-.463-.616c-.571-.188-1.145-.363-1.7-.583-.291-.113-.578-.238-.873-.336a.637.637,0,0,0-.73.239.66.66,0,0,0-.051.733.8.8,0,0,0,.461.354c.755.3,1.516.6,2.3.827.123.038.251.058.339.078m16.732-5.457a.651.651,0,0,0,.4.607.625.625,0,0,0,.738-.131,15.139,15.139,0,0,0,1.8-2.206.675.675,0,0,0-.183-.948.659.659,0,0,0-.926.188,20.237,20.237,0,0,1-1.643,2.016.629.629,0,0,0-.194.474m2.947-9.6a.693.693,0,0,0-.565-.742.663.663,0,0,0-.776.572,7.637,7.637,0,0,1-.818,2.313.645.645,0,0,0,.24.91.659.659,0,0,0,.918-.231,7.827,7.827,0,0,0,1-2.822m-.651-2.113a.668.668,0,0,0,.672-.773,10.967,10.967,0,0,0-.778-2.713.677.677,0,0,0-.364-.391.668.668,0,0,0-.9.855c.159.412.32.823.443,1.247.115.394.183.8.267,1.2a.649.649,0,0,0,.664.573m-7.644,16.32a.683.683,0,0,0-.9-.712c-.548.178-1.091.374-1.651.514-.31.078-.628.124-.931.216a.663.663,0,0,0-.452.811.685.685,0,0,0,.8.488c.119-.021.237-.047.357-.074a15.563,15.563,0,0,0,2.314-.679.652.652,0,0,0,.468-.564m3.818-24.7a.641.641,0,0,0-.6.374.62.62,0,0,0,.075.707c.184.224.384.433.58.646.427.459.785.972,1.181,1.454a.667.667,0,0,0,1.068-.8,15.734,15.734,0,0,0-1.844-2.2.587.587,0,0,0-.455-.181M755.6,389.968a.634.634,0,0,0,.637-.933,13.605,13.605,0,0,0-.792-1.306.628.628,0,0,0-.837-.181.661.661,0,0,0-.317.837,5.649,5.649,0,0,0,.845,1.35.535.535,0,0,0,.464.233m16.285-19.86a.658.658,0,0,0-.353-.62.633.633,0,0,0-.764.093c-.331.3-.662.607-.982.921a.665.665,0,0,0-.052.975.658.658,0,0,0,.961.019c.337-.3.657-.611.98-.923a.614.614,0,0,0,.21-.465M757.521,397.2a2.73,2.73,0,1,0-2.734-2.71,2.735,2.735,0,0,0,2.734,2.71m1.377-2.713a1.372,1.372,0,1,1-1.36-1.391,1.364,1.364,0,0,1,1.36,1.391" fill="#464749"/>
    <line id="Line_2" data-name="Line 2" x1="32.129" y2="32.129" transform="translate(752.587 370.267)" fill="none" stroke="#d368a5" stroke-miterlimit="10" stroke-width="1.5"/>
  </g>
</svg>
