<svg xmlns="http://www.w3.org/2000/svg" width="26.487" height="34.953" viewBox="0 0 26.487 34.953">
  <g id="Group_115" data-name="Group 115" transform="translate(-517.352 -448.359)">
    <path id="Path_116" data-name="Path 116" d="M521.715,452.763a29.433,29.433,0,0,1-2.365,10.378c-2.233,4.729-1.97,14.976.263,19.573" fill="none" stroke="#464749" stroke-linecap="round" stroke-miterlimit="10" stroke-width="0.895"/>
    <path id="Path_117" data-name="Path 117" d="M539.477,452.763a29.433,29.433,0,0,0,2.365,10.378c2.233,4.729,1.97,14.976-.263,19.573" fill="none" stroke="#464749" stroke-linecap="round" stroke-miterlimit="10" stroke-width="0.895"/>
    <path id="Path_118" data-name="Path 118" d="M529.6,470.585a24.049,24.049,0,0,1,.175,11.911" fill="none" stroke="#464749" stroke-linecap="round" stroke-miterlimit="10" stroke-width="0.895"/>
    <path id="Path_119" data-name="Path 119" d="M531.744,470.585a24.05,24.05,0,0,0-.175,11.911" fill="none" stroke="#464749" stroke-linecap="round" stroke-miterlimit="10" stroke-width="0.895"/>
    <path id="Path_120" data-name="Path 120" d="M526.97,467.87l2.978,2.89a1.138,1.138,0,0,0,1.313.088,35.779,35.779,0,0,0,3.066-2.89" fill="none" stroke="#464749" stroke-linecap="round" stroke-miterlimit="10" stroke-width="0.895"/>
    <path id="Path_121" data-name="Path 121" d="M527.923,458.206a3.91,3.91,0,0,1-1.072-1.07,2,2,0,0,1-.333-1.087,2.414,2.414,0,0,1,.281-1.1,4.73,4.73,0,0,1,1.094-1.39c.082-.075.166-.148.274-.238.134-.116.277-.235.409-.37a4.287,4.287,0,0,0,.857-1.357,9.194,9.194,0,0,0,.585-2.026,3.36,3.36,0,0,1,.9.765,4.631,4.631,0,0,1,.983,2.454c.009.057.012.114.019.194l.012.171a.491.491,0,0,0,.827.316l.444-.424c.107.139.208.28.307.424a4.869,4.869,0,0,1,.93,2.212,2.323,2.323,0,0,1-.138,1.1,2.848,2.848,0,0,1-.886,1.168,5.246,5.246,0,0,1-1.135.708,3.518,3.518,0,0,0,.107-.485,1.963,1.963,0,0,0-.542-1.744c-.106-.1-.217-.2-.351-.317-.085-.073-.167-.146-.247-.223a1.83,1.83,0,0,1-.559-.956,2.056,2.056,0,0,1-.026-.308c0-.064-.007-.127-.012-.188a.492.492,0,0,0-.748-.383,4.672,4.672,0,0,0-1.6,1.485,2.976,2.976,0,0,0-.375,2.338,4.022,4.022,0,0,0,.122.415l-.129-.086m1.71-9.847a.49.49,0,0,0-.486.417l-.031.214c-.019.123-.037.245-.058.365a8.188,8.188,0,0,1-.528,1.85,3.377,3.377,0,0,1-.652,1.054c-.107.108-.223.207-.369.33-.094.078-.187.158-.278.241a5.73,5.73,0,0,0-1.311,1.682,3.378,3.378,0,0,0-.385,1.547,3.02,3.02,0,0,0,.489,1.608A4.829,4.829,0,0,0,527.357,459a9.415,9.415,0,0,0,1.732.952.651.651,0,0,0,.176.047.7.7,0,0,0,.165-.007.487.487,0,0,0,.368-.321.5.5,0,0,0-.092-.482,3.6,3.6,0,0,1-.82-1.545,1.984,1.984,0,0,1,.251-1.587,3.012,3.012,0,0,1,.639-.717,2.887,2.887,0,0,0,.78,1.245c.1.1.209.192.316.283l.039.035c.081.071.162.142.238.218a1.006,1.006,0,0,1,.263.909,2.674,2.674,0,0,1-.43,1.094.491.491,0,0,0,.186.876l.024.07.345-.09c.053-.014.1-.028.152-.043a7.069,7.069,0,0,0,2.351-1.234,3.835,3.835,0,0,0,1.174-1.568,3.31,3.31,0,0,0,.2-1.562,5.806,5.806,0,0,0-1.095-2.667c-.147-.211-.3-.414-.455-.622l-.206-.272a.479.479,0,0,0-.349-.2.485.485,0,0,0-.385.134l-.143.136a5.369,5.369,0,0,0-1.1-2.379,4.4,4.4,0,0,0-1.717-1.27l-.091-.039a.466.466,0,0,0-.2-.041Z" fill="#93358d"/>
  </g>
</svg>
