<svg xmlns="http://www.w3.org/2000/svg" width="33.592" height="28.219" viewBox="0 0 33.592 28.219">
  <g id="Group_210" data-name="Group 210" transform="translate(-333.964 -181.103)">
    <path id="Path_80" data-name="Path 80" d="M333.964,200.585a12.6,12.6,0,0,0,.187-1.422c.057-.388.233-.578.547-.552s.475.262.435.644c-.053.51-.115,1.019-.175,1.528-.032.277.029.5.324.6a.446.446,0,0,0,.59-.431c.113-.953.215-1.908.32-2.862.073-.673.139-1.346.218-2.018.048-.408.265-.609.575-.561s.442.276.4.67q-.377,3.515-.761,7.029c-.021.191-.035.3.219.3.482.01.6.222.561.813-.057,1,0,2.006.008,3.006,0,.126,0,.252.005.377a.629.629,0,0,0,1.258-.011c.014-.6.005-1.2.006-1.8s0-1.2,0-1.8c0-.365.178-.575.475-.583s.5.207.506.586c0,1.168,0,2.337,0,3.5a.645.645,0,0,0,.794.7.662.662,0,0,0,.471-.732c0-1.112,0-2.223,0-3.335a.714.714,0,0,1,.613-.729c.165-.015.2-.06.188-.209q-.269-2.407-.527-4.815c-.087-.792-.174-1.583-.256-2.376a.493.493,0,0,1,.412-.6.477.477,0,0,1,.553.468c.132,1.1.247,2.212.369,3.318.06.542.116,1.085.184,1.626.042.333.232.506.5.483a.479.479,0,0,0,.418-.592q-.234-2.181-.479-4.36a7.855,7.855,0,0,0-.13-.972,2.851,2.851,0,0,0-1.747-2.057.6.6,0,0,1-.187-.989,2.167,2.167,0,1,0-3.34.006.607.607,0,0,1-.2.988,2.94,2.94,0,0,0-1.833,2.646c-.032.369-.072.738-.126,1.1a.482.482,0,0,1-.518.439.494.494,0,0,1-.45-.547,11.621,11.621,0,0,1,.375-2.379,3.516,3.516,0,0,1,1.506-1.816c.179-.118.2-.192.109-.382a3.3,3.3,0,0,1,.649-3.736,2.925,2.925,0,0,1,2.606-.8,3.224,3.224,0,0,1,2.39,1.767,2.956,2.956,0,0,1-.038,2.774c-.085.162-.1.246.079.362a4.3,4.3,0,0,1,1.822,4.122,13.926,13.926,0,0,0,.452,3.467,1.479,1.479,0,0,1-1.519,1.935c-.191-.005-.19.059-.172.2.051.411.092.824.14,1.236s-.127.664-.551.658c-.282,0-.317.114-.314.349.009.906,0,1.812.006,2.718a1.607,1.607,0,0,1-.863,1.572,1.544,1.544,0,0,1-1.751-.153c-.114-.086-.178-.063-.278.01a1.547,1.547,0,0,1-1.725.151,1.752,1.752,0,0,1-.876-1.587c.005-.909-.005-1.818.005-2.727,0-.224-.033-.333-.3-.332-.447,0-.618-.23-.565-.676.05-.412.093-.824.137-1.236.01-.1.05-.2-.125-.186a1.5,1.5,0,0,1-1.616-1.141Z" fill="#464749"/>
    <path id="Path_81" data-name="Path 81" d="M349.758,204.1q0-1.719,0-3.439a.513.513,0,0,1,.333-.544.46.46,0,0,1,.532.141.655.655,0,0,1,.119.495q0,3.243,0,6.485c0,.1,0,.2,0,.295a.752.752,0,1,0,1.5,0c.011-.72.005-1.441,0-2.162a.669.669,0,0,1,.1-.437.458.458,0,0,1,.487-.194.438.438,0,0,1,.386.428,24.192,24.192,0,0,1-.023,2.653,1.716,1.716,0,0,1-2.747,1.123c-.169-.117-.258-.1-.433.021a1.623,1.623,0,0,1-1.811.138,1.878,1.878,0,0,1-.94-1.679q-.014-3,0-5.995a.378.378,0,0,0-.389-.377c-.442.012-.607-.207-.564-.663.047-.488.087-.978.137-1.466.016-.163.024-.238-.234-.2a1.5,1.5,0,0,1-1.709-1.695c.114-1.489.276-2.974.42-4.46q.141-1.466.292-2.928a4.155,4.155,0,0,1,.9-2.224c.859-1.042,1.364-.787,1.09-1.3a3.519,3.519,0,0,1,.737-4.138,3.282,3.282,0,0,1,3.289-.718,3.406,3.406,0,0,1,2.035,4.91c-.086.154-.121.232.068.353a4.558,4.558,0,0,1,1.97,4.621,15.629,15.629,0,0,0,.62,5.5,1.559,1.559,0,0,1-1.681,2.082c-.206-.023-.212.035-.194.2.05.467.082.935.13,1.4.056.534-.106.743-.64.729-.276-.007-.324.1-.318.34.015.589.008,1.179,0,1.769,0,.364-.183.571-.484.573s-.494-.209-.5-.565c-.006-.844,0-1.689,0-2.533a.564.564,0,0,1,.6-.554c.312.013.314-.123.291-.366q-.451-4.791-.887-9.583c-.033-.355.132-.593.425-.625.325-.036.529.162.556.571.084,1.266.107,2.531.3,3.785.172,1.1.238,2.192.345,3.288.038.4.3.642.63.6a.565.565,0,0,0,.493-.686q-.282-2.982-.575-5.962c-.05-.522-.09-1.045-.168-1.564a3.18,3.18,0,0,0-1.882-2.418c-.594-.256-.673-.523-.271-1a2.461,2.461,0,0,0-.164-3.378,2.553,2.553,0,0,0-3.4,0,2.449,2.449,0,0,0-.17,3.358.623.623,0,0,1-.233,1.008,3.3,3.3,0,0,0-1.991,2.985c-.2,2.229-.429,4.453-.645,6.68-.012.119-.021.239-.022.359a.566.566,0,0,0,.534.621.573.573,0,0,0,.584-.546c.091-.934.175-1.869.26-2.8.134-1.467.264-2.935.4-4.4a.487.487,0,0,1,.527-.5.474.474,0,0,1,.451.566c-.108,1.294-.228,2.587-.346,3.88q-.27,2.951-.549,5.9c-.016.174.037.214.186.224a.747.747,0,0,1,.716.736v6.42c0,.1,0,.2,0,.295a.777.777,0,0,0,.754.79.747.747,0,0,0,.75-.814c0-1.135,0-2.271,0-3.406" fill="#464749"/>
    <path id="Path_82" data-name="Path 82" d="M366.525,203.436c0-1.747,0-3.494.005-5.241,0-.242-.038-.352-.3-.243a.571.571,0,0,1-.2.018c-.7.024-.344.012-.365,1.7l.292,3c.229,1.009.183,1.367-.494,1.349-.29-.007-.336.1-.333.356.014,1,0,2.009.007,3.013a1.76,1.76,0,0,1-.932,1.713,1.654,1.654,0,0,1-1.926-.2c-.115-.092-.179-.061-.277.014a1.662,1.662,0,0,1-1.9.194,1.87,1.87,0,0,1-.936-1.7c.008-1.025,0-2.052.006-3.078a.306.306,0,0,0-.3-.314c-.574,0-.716-.194-.661-.779.109-1.13.205-2.261.316-3.39.024-.232-.011-.292-.29-.263a1.514,1.514,0,0,1-1.635-1.705c.062-.724.138-1.449.21-2.172.036-.359.234-.544.54-.518s.469.254.437.612c-.061.7-.137,1.39-.2,2.085-.037.421.148.685.486.72s.6-.221.626-.67a26.491,26.491,0,0,1,.351-4.062c.062-.315.064-.646.114-.966a.483.483,0,0,1,.537-.451.5.5,0,0,1,.435.559c-.124,1.51-.3,3.021-.381,4.531l-.295,2.975c-.088.747-.138,1.5-.22,2.242-.02.192.017.272.248.274a.7.7,0,0,1,.656.719q0,1.872,0,3.744a.768.768,0,0,0,.41.73.7.7,0,0,0,.746-.035.823.823,0,0,0,.353-.764q0-1.818,0-3.636c0-.1,0-.2.005-.295a.446.446,0,0,1,.431-.452.459.459,0,0,1,.528.383,1.3,1.3,0,0,1,.019.325c0,1.223,0,2.446,0,3.669,0,.555.278.885.737.889s.768-.348.769-.907c0-1.233,0-2.467,0-3.7,0-.517.127-.655.654-.671.2-.006.253-.054.232-.266q-.469-4.822-.924-9.646c-.035-.376.117-.626.417-.666.383-.052.627.281.549.871a9.763,9.763,0,0,0,.321,2.887c.009.055.007.112.012.169.038.4.249.616.591.593a.557.557,0,0,0,.5-.672c-.064-.728-.14-1.455-.213-2.183-.052-.514-.094-1.029-.162-1.542a3.277,3.277,0,0,0-1.941-2.52c-.556-.256-.616-.508-.22-.988a2.388,2.388,0,0,0,.429-2.5,2.464,2.464,0,0,0-4.555.006,2.4,2.4,0,0,0,.436,2.5c.392.475.328.719-.236,1.013a3.546,3.546,0,0,0-1.984,2.96c-.023.228-.038.457-.069.684a.5.5,0,0,1-.538.461.479.479,0,0,1-.438-.519,4.822,4.822,0,0,1,2.066-4.161c.617-.418-1.3-.359,1.1-4.254a2.4,2.4,0,0,1,2.008-1.191,3.411,3.411,0,0,1,2.964,4.978c-.134.26-.083.341.14.488a4.45,4.45,0,0,1,1.9,3.45c.521,4.165.2,8.345.349,12.518.035,1.027-.028,2.052-.036,3.079a1.354,1.354,0,0,1-.018.338.487.487,0,0,1-.954-.021,1.537,1.537,0,0,1-.012-.326v-5.143" fill="#464749"/>
  </g>
</svg>
